%
M48
M72
T01C0.0236
T02C0.0240
T03C0.0320
T04C0.0400
T05C0.0591
T06C0.0984
T07C0.1575
T08C0.1575
%
T01
X22600Y28600
X52350Y49100
X66600Y45850
X82100Y49100
X83600Y49850
X82100Y52100
X95350Y47100
X97725Y46725
T02
X93850Y42850
X86100Y44350
X66850Y47850
X58850Y46100
X57100Y43100
X52850Y45350
X50850Y44600
X47850Y43100
X46850Y43850
X44600Y48100
X8350Y32850
X26100Y25350
X59350Y15350
T03
X85350Y47100
X86350Y47100
X87350Y47100
X88350Y47100
X89350Y47100
X90350Y47100
X91350Y47100
X92350Y47100
X96850Y48850
X98725Y46850
X99725Y46850
X99850Y48850
X92350Y50100
X91350Y50100
X90350Y50100
X89350Y50100
X88350Y50100
X87350Y50100
X86350Y50100
X85350Y50100
T04
X61850Y47850
X60850Y47850
X59850Y47850
X58850Y47850
X57850Y47850
X56850Y47850
X55850Y47850
X54850Y47850
X53850Y47850
X52850Y47850
X51850Y47850
X50850Y47850
X49850Y47850
X48850Y47850
T05
X47725Y41350
X45225Y40350
X40225Y41350
X37725Y40350
X32725Y41350
X30225Y40350
X25225Y41350
X22725Y40350
X17725Y41350
X15225Y40350
X10225Y41350
X7725Y40350
X5850Y33850
X3350Y32850
X10850Y32850
X13350Y33850
X18350Y32850
X20850Y33850
X25850Y32850
X28350Y33850
X33350Y32850
X35850Y33850
X40850Y32850
X43350Y33850
X48350Y32850
X50850Y33850
X55850Y32850
X58350Y33850
X63350Y32850
X65850Y33850
X70850Y32850
X73350Y33850
X78350Y32850
X80850Y33850
X85850Y32850
X88350Y33850
X93350Y32850
X95850Y33850
X100850Y32850
X103350Y33850
X97725Y40350
X100225Y41350
X92725Y41350
X90225Y40350
X85225Y41350
X82725Y40350
X77725Y41350
X75225Y40350
X70225Y41350
X67725Y40350
X62725Y41350
X60225Y40350
X55225Y41350
X52725Y40350
X53350Y26350
X50850Y25350
X45850Y26350
X43350Y25350
X38350Y26350
X35850Y25350
X30850Y26350
X28350Y25350
X23350Y26350
X20850Y25350
X15850Y26350
X13350Y25350
X8350Y26350
X5850Y25350
X8350Y18850
X5850Y17850
X17100Y17850
X19600Y18850
X24600Y17850
X27100Y18850
X32100Y17850
X34600Y18850
X39600Y17850
X42100Y18850
X47100Y17850
X49600Y18850
X54600Y17850
X57100Y18850
X62100Y17850
X64600Y18850
X69600Y17850
X72100Y18850
X77100Y17850
X79600Y18850
X84600Y17850
X87100Y18850
X95850Y17850
X98350Y18850
X99600Y25350
X102100Y26350
X90850Y26350
X88350Y25350
X83350Y26350
X80850Y25350
X75850Y26350
X73350Y25350
X68350Y26350
X65850Y25350
X60850Y26350
X58350Y25350
X54350Y11350
X51850Y10350
X27100Y11350
X24600Y10350
X19600Y11350
X17100Y10350
X78663Y10350
X81163Y11350
X86163Y10350
X88663Y11350
X93663Y10350
X96163Y11350
T06
X68100Y11600
X68100Y7100
X37600Y7100
X37600Y11600
T07
X2600Y2600
X53850Y2600
X105100Y2600
X105100Y55100
X53850Y55100
X2600Y55100
T08
X9225Y39350
X16725Y39350
X24225Y39350
X31725Y39350
X39225Y39350
X46725Y39350
X54225Y39350
X61725Y39350
X69225Y39350
X76725Y39350
X84225Y39350
X91725Y39350
X99225Y39350
X102350Y31850
X94850Y31850
X87350Y31850
X79850Y31850
X72350Y31850
X64850Y31850
X57350Y31850
X49850Y31850
X42350Y31850
X34850Y31850
X27350Y31850
X19850Y31850
X12350Y31850
X4850Y31850
X7350Y24350
X14850Y24350
X22350Y24350
X29850Y24350
X37350Y24350
X44850Y24350
X52350Y24350
X59850Y24350
X67350Y24350
X74850Y24350
X82350Y24350
X89850Y24350
X101100Y24350
X97350Y16850
X86100Y16850
X78600Y16850
X71100Y16850
X63600Y16850
X56100Y16850
X48600Y16850
X41100Y16850
X33600Y16850
X26100Y16850
X18600Y16850
X7350Y16850
X18600Y9350
X26100Y9350
X53350Y9350
X80163Y9350
X87663Y9350
X95163Y9350
M30
