G75*
%MOIN*%
%OFA0B0*%
%FSLAX24Y24*%
%IPPOS*%
%LPD*%
%AMOC8*
5,1,8,0,0,1.08239X$1,22.5*
%
%ADD10C,0.0515*%
%ADD11C,0.0520*%
%ADD12C,0.0520*%
%ADD13OC8,0.0520*%
%ADD14C,0.0554*%
%ADD15OC8,0.0591*%
%ADD16C,0.0600*%
%ADD17OC8,0.0780*%
%ADD18C,0.0780*%
%ADD19C,0.0554*%
%ADD20OC8,0.0680*%
%ADD21C,0.0750*%
%ADD22OC8,0.0750*%
%ADD23OC8,0.0560*%
%ADD24C,0.0740*%
%ADD25C,0.1102*%
%ADD26C,0.0866*%
%ADD27C,0.0660*%
%ADD28C,0.1890*%
%ADD29OC8,0.0630*%
%ADD30C,0.0630*%
%ADD31C,0.0120*%
%ADD32C,0.0440*%
%ADD33C,0.0240*%
%ADD34C,0.0140*%
%ADD35C,0.0700*%
%ADD36C,0.0500*%
%ADD37C,0.0860*%
%ADD38C,0.1000*%
%ADD39C,0.0400*%
%ADD40C,0.0320*%
%ADD41C,0.0476*%
%ADD42C,0.0700*%
%ADD43C,0.0160*%
D10*
X020843Y004600D02*
X021357Y004600D01*
X021357Y005600D02*
X020843Y005600D01*
X020843Y006600D02*
X021357Y006600D01*
X021357Y007600D02*
X020843Y007600D01*
X020843Y008600D02*
X021357Y008600D01*
X021357Y009600D02*
X020843Y009600D01*
X020843Y010600D02*
X021357Y010600D01*
X021357Y011600D02*
X020843Y011600D01*
X020843Y012600D02*
X021357Y012600D01*
X023843Y012600D02*
X024357Y012600D01*
X024357Y011600D02*
X023843Y011600D01*
X023843Y010600D02*
X024357Y010600D01*
X024357Y009600D02*
X023843Y009600D01*
X023843Y008600D02*
X024357Y008600D01*
X024357Y007600D02*
X023843Y007600D01*
X023843Y006600D02*
X024357Y006600D01*
X024357Y005600D02*
X023843Y005600D01*
X023843Y004600D02*
X024357Y004600D01*
X026843Y004600D02*
X027357Y004600D01*
X027357Y005600D02*
X026843Y005600D01*
X026843Y006600D02*
X027357Y006600D01*
X027357Y007600D02*
X026843Y007600D01*
X026843Y008600D02*
X027357Y008600D01*
X027357Y009600D02*
X026843Y009600D01*
X026843Y010600D02*
X027357Y010600D01*
X027357Y011600D02*
X026843Y011600D01*
X026843Y012600D02*
X027357Y012600D01*
X029843Y012600D02*
X030357Y012600D01*
X030357Y011600D02*
X029843Y011600D01*
X029843Y010600D02*
X030357Y010600D01*
X030357Y009600D02*
X029843Y009600D01*
X029843Y008600D02*
X030357Y008600D01*
X030357Y007600D02*
X029843Y007600D01*
X029843Y006600D02*
X030357Y006600D01*
X030357Y005600D02*
X029843Y005600D01*
X029843Y004600D02*
X030357Y004600D01*
X032843Y020100D02*
X033357Y020100D01*
X033357Y021100D02*
X032843Y021100D01*
X032843Y022100D02*
X033357Y022100D01*
X033357Y023100D02*
X032843Y023100D01*
X032843Y024100D02*
X033357Y024100D01*
X033357Y025100D02*
X032843Y025100D01*
X032843Y026100D02*
X033357Y026100D01*
X033357Y027100D02*
X032843Y027100D01*
X032843Y028100D02*
X033357Y028100D01*
X033357Y029100D02*
X032843Y029100D01*
X032843Y030100D02*
X033357Y030100D01*
X033357Y031100D02*
X032843Y031100D01*
X032843Y032100D02*
X033357Y032100D01*
X033357Y033100D02*
X032843Y033100D01*
X032843Y034100D02*
X033357Y034100D01*
X033357Y035100D02*
X032843Y035100D01*
X032843Y036100D02*
X033357Y036100D01*
X033357Y037100D02*
X032843Y037100D01*
X032843Y038100D02*
X033357Y038100D01*
X033357Y039100D02*
X032843Y039100D01*
X027357Y039100D02*
X026843Y039100D01*
X026843Y038100D02*
X027357Y038100D01*
X027357Y037100D02*
X026843Y037100D01*
X026843Y036100D02*
X027357Y036100D01*
X027357Y035100D02*
X026843Y035100D01*
X026843Y034100D02*
X027357Y034100D01*
X027357Y033100D02*
X026843Y033100D01*
X026843Y032100D02*
X027357Y032100D01*
X027357Y031100D02*
X026843Y031100D01*
X026843Y030100D02*
X027357Y030100D01*
X027357Y029100D02*
X026843Y029100D01*
X026843Y028100D02*
X027357Y028100D01*
X027357Y027100D02*
X026843Y027100D01*
X026843Y026100D02*
X027357Y026100D01*
X027357Y025100D02*
X026843Y025100D01*
X026843Y024100D02*
X027357Y024100D01*
X027357Y023100D02*
X026843Y023100D01*
X026843Y022100D02*
X027357Y022100D01*
X027357Y021100D02*
X026843Y021100D01*
X026843Y020100D02*
X027357Y020100D01*
X059600Y011357D02*
X059600Y010843D01*
X060600Y010843D02*
X060600Y011357D01*
X061600Y011357D02*
X061600Y010843D01*
X062600Y010843D02*
X062600Y011357D01*
X063600Y011357D02*
X063600Y010843D01*
X064600Y010843D02*
X064600Y011357D01*
X065600Y011357D02*
X065600Y010843D01*
X066600Y010843D02*
X066600Y011357D01*
X067600Y011357D02*
X067600Y010843D01*
X068600Y010843D02*
X068600Y011357D01*
X069600Y011357D02*
X069600Y010843D01*
X070600Y010843D02*
X070600Y011357D01*
X071600Y011357D02*
X071600Y010843D01*
X072600Y010843D02*
X072600Y011357D01*
X073600Y011357D02*
X073600Y010843D01*
X074600Y010843D02*
X074600Y011357D01*
X075600Y011357D02*
X075600Y010843D01*
X076600Y010843D02*
X076600Y011357D01*
X077600Y011357D02*
X077600Y010843D01*
X078600Y010843D02*
X078600Y011357D01*
X078600Y005357D02*
X078600Y004843D01*
X077600Y004843D02*
X077600Y005357D01*
X076600Y005357D02*
X076600Y004843D01*
X075600Y004843D02*
X075600Y005357D01*
X074600Y005357D02*
X074600Y004843D01*
X073600Y004843D02*
X073600Y005357D01*
X072600Y005357D02*
X072600Y004843D01*
X071600Y004843D02*
X071600Y005357D01*
X070600Y005357D02*
X070600Y004843D01*
X069600Y004843D02*
X069600Y005357D01*
X068600Y005357D02*
X068600Y004843D01*
X067600Y004843D02*
X067600Y005357D01*
X066600Y005357D02*
X066600Y004843D01*
X065600Y004843D02*
X065600Y005357D01*
X064600Y005357D02*
X064600Y004843D01*
X063600Y004843D02*
X063600Y005357D01*
X062600Y005357D02*
X062600Y004843D01*
X061600Y004843D02*
X061600Y005357D01*
X060600Y005357D02*
X060600Y004843D01*
X059600Y004843D02*
X059600Y005357D01*
X063600Y025093D02*
X063600Y025607D01*
X064600Y025607D02*
X064600Y025093D01*
X065600Y025093D02*
X065600Y025607D01*
X066600Y025607D02*
X066600Y025093D01*
X067600Y025093D02*
X067600Y025607D01*
X068600Y025607D02*
X068600Y025093D01*
X069600Y025093D02*
X069600Y025607D01*
X070600Y025607D02*
X070600Y025093D01*
X071600Y025093D02*
X071600Y025607D01*
X072600Y025607D02*
X072600Y025093D01*
X073600Y025093D02*
X073600Y025607D01*
X074600Y025607D02*
X074600Y025093D01*
X075600Y025093D02*
X075600Y025607D01*
X076600Y025607D02*
X076600Y025093D01*
X076600Y031093D02*
X076600Y031607D01*
X075600Y031607D02*
X075600Y031093D01*
X074600Y031093D02*
X074600Y031607D01*
X073600Y031607D02*
X073600Y031093D01*
X072600Y031093D02*
X072600Y031607D01*
X071600Y031607D02*
X071600Y031093D01*
X070600Y031093D02*
X070600Y031607D01*
X069600Y031607D02*
X069600Y031093D01*
X068600Y031093D02*
X068600Y031607D01*
X067600Y031607D02*
X067600Y031093D01*
X066600Y031093D02*
X066600Y031607D01*
X065600Y031607D02*
X065600Y031093D01*
X064600Y031093D02*
X064600Y031607D01*
X063600Y031607D02*
X063600Y031093D01*
D11*
X061100Y030860D02*
X061100Y030340D01*
X060100Y030340D02*
X060100Y030860D01*
X059100Y030860D02*
X059100Y030340D01*
X058100Y030340D02*
X058100Y030860D01*
X057100Y030860D02*
X057100Y030340D01*
X056100Y030340D02*
X056100Y030860D01*
X055100Y030860D02*
X055100Y030340D01*
X055100Y027860D02*
X055100Y027340D01*
X056100Y027340D02*
X056100Y027860D01*
X057100Y027860D02*
X057100Y027340D01*
X058100Y027340D02*
X058100Y027860D01*
X059100Y027860D02*
X059100Y027340D01*
X060100Y027340D02*
X060100Y027860D01*
X061100Y027860D02*
X061100Y027340D01*
X060600Y020860D02*
X060600Y020340D01*
X059600Y020340D02*
X059600Y020860D01*
X061600Y020860D02*
X061600Y020340D01*
X062600Y020340D02*
X062600Y020860D01*
X063600Y020860D02*
X063600Y020340D01*
X064600Y020340D02*
X064600Y020860D01*
X065600Y020860D02*
X065600Y020340D01*
X066600Y020340D02*
X066600Y020860D01*
X067600Y020860D02*
X067600Y020340D01*
X068600Y020340D02*
X068600Y020860D01*
X069600Y020860D02*
X069600Y020340D01*
X070600Y020340D02*
X070600Y020860D01*
X071600Y020860D02*
X071600Y020340D01*
X072600Y020340D02*
X072600Y020860D01*
X073600Y020860D02*
X073600Y020340D01*
X074600Y020340D02*
X074600Y020860D01*
X075600Y020860D02*
X075600Y020340D01*
X076600Y020340D02*
X076600Y020860D01*
X077600Y020860D02*
X077600Y020340D01*
X078600Y020340D02*
X078600Y020860D01*
X078600Y014860D02*
X078600Y014340D01*
X077600Y014340D02*
X077600Y014860D01*
X076600Y014860D02*
X076600Y014340D01*
X075600Y014340D02*
X075600Y014860D01*
X074600Y014860D02*
X074600Y014340D01*
X073600Y014340D02*
X073600Y014860D01*
X072600Y014860D02*
X072600Y014340D01*
X071600Y014340D02*
X071600Y014860D01*
X070600Y014860D02*
X070600Y014340D01*
X069600Y014340D02*
X069600Y014860D01*
X068600Y014860D02*
X068600Y014340D01*
X067600Y014340D02*
X067600Y014860D01*
X066600Y014860D02*
X066600Y014340D01*
X066673Y013413D02*
X066153Y013413D01*
X065600Y014340D02*
X065600Y014860D01*
X064600Y014860D02*
X064600Y014340D01*
X063600Y014340D02*
X063600Y014860D01*
X062600Y014860D02*
X062600Y014340D01*
X061600Y014340D02*
X061600Y014860D01*
X060600Y014860D02*
X060600Y014340D01*
X059600Y014340D02*
X059600Y014860D01*
X063153Y013413D02*
X063673Y013413D01*
X029600Y014840D02*
X029600Y015360D01*
X028600Y015360D02*
X028600Y014840D01*
X027600Y014840D02*
X027600Y015360D01*
X026600Y015360D02*
X026600Y014840D01*
X025600Y014840D02*
X025600Y015360D01*
X024600Y015360D02*
X024600Y014840D01*
X023600Y014840D02*
X023600Y015360D01*
X022600Y015360D02*
X022600Y014840D01*
X021100Y014840D02*
X021100Y015360D01*
X020100Y015360D02*
X020100Y014840D01*
X019100Y014840D02*
X019100Y015360D01*
X018100Y015360D02*
X018100Y014840D01*
X017100Y014840D02*
X017100Y015360D01*
X016100Y015360D02*
X016100Y014840D01*
X015100Y014840D02*
X015100Y015360D01*
X014100Y015360D02*
X014100Y014840D01*
X012600Y014840D02*
X012600Y015360D01*
X011600Y015360D02*
X011600Y014840D01*
X010600Y014840D02*
X010600Y015360D01*
X009600Y015360D02*
X009600Y014840D01*
X008600Y014840D02*
X008600Y015360D01*
X007600Y015360D02*
X007600Y014840D01*
X006600Y014840D02*
X006600Y015360D01*
X006600Y017840D02*
X006600Y018360D01*
X007600Y018360D02*
X007600Y017840D01*
X008600Y017840D02*
X008600Y018360D01*
X009600Y018360D02*
X009600Y017840D01*
X010600Y017840D02*
X010600Y018360D01*
X011600Y018360D02*
X011600Y017840D01*
X012600Y017840D02*
X012600Y018360D01*
X014100Y018360D02*
X014100Y017840D01*
X015100Y017840D02*
X015100Y018360D01*
X016100Y018360D02*
X016100Y017840D01*
X017100Y017840D02*
X017100Y018360D01*
X018100Y018360D02*
X018100Y017840D01*
X019100Y017840D02*
X019100Y018360D01*
X020100Y018360D02*
X020100Y017840D01*
X021100Y017840D02*
X021100Y018360D01*
X022600Y018360D02*
X022600Y017840D01*
X023600Y017840D02*
X023600Y018360D01*
X024600Y018360D02*
X024600Y017840D01*
X025600Y017840D02*
X025600Y018360D01*
X026600Y018360D02*
X026600Y017840D01*
X027600Y017840D02*
X027600Y018360D01*
X028600Y018360D02*
X028600Y017840D01*
X029600Y017840D02*
X029600Y018360D01*
X011100Y008360D02*
X011100Y007840D01*
X010100Y007840D02*
X010100Y008360D01*
X009100Y008360D02*
X009100Y007840D01*
X008100Y007840D02*
X008100Y008360D01*
X008100Y005360D02*
X008100Y004840D01*
X009100Y004840D02*
X009100Y005360D01*
X010100Y005360D02*
X010100Y004840D01*
X011100Y004840D02*
X011100Y005360D01*
X012600Y037840D02*
X012600Y038360D01*
X013600Y038360D02*
X013600Y037840D01*
X014600Y037840D02*
X014600Y038360D01*
X015600Y038360D02*
X015600Y037840D01*
X016600Y037840D02*
X016600Y038360D01*
X017600Y038360D02*
X017600Y037840D01*
X018600Y037840D02*
X018600Y038360D01*
X019600Y038360D02*
X019600Y037840D01*
X019600Y040840D02*
X019600Y041360D01*
X018600Y041360D02*
X018600Y040840D01*
X017600Y040840D02*
X017600Y041360D01*
X016600Y041360D02*
X016600Y040840D01*
X015600Y040840D02*
X015600Y041360D01*
X014600Y041360D02*
X014600Y040840D01*
X013600Y040840D02*
X013600Y041360D01*
X012600Y041360D02*
X012600Y040840D01*
D12*
X004225Y017050D03*
X004225Y015150D03*
D13*
X006600Y013350D03*
X007600Y013350D03*
X008600Y013350D03*
X009600Y013350D03*
X010600Y013350D03*
X011600Y013350D03*
X011600Y012100D03*
X010600Y012100D03*
X009100Y012100D03*
X007100Y012100D03*
X008100Y009600D03*
X009100Y009600D03*
X010100Y009600D03*
X011100Y009600D03*
X012600Y009600D03*
X014600Y009600D03*
X014600Y008100D03*
X012600Y008100D03*
X013038Y004913D03*
X013538Y004163D03*
X012538Y004163D03*
X006600Y005600D03*
X005350Y005600D03*
X005350Y007600D03*
X006600Y007600D03*
X021600Y002600D03*
X023600Y002600D03*
X027600Y002600D03*
X029600Y002600D03*
X039100Y007600D03*
X039100Y009600D03*
X041100Y005350D03*
X042100Y005350D03*
X061600Y022100D03*
X061600Y024100D03*
X053100Y028100D03*
X053100Y030100D03*
X075100Y043100D03*
X075100Y045100D03*
X078600Y043600D03*
X078600Y042600D03*
X078600Y027350D03*
X078600Y025350D03*
X075100Y013100D03*
X073100Y013100D03*
X076225Y003100D03*
X078225Y003100D03*
X021600Y038600D03*
X021600Y040600D03*
X026273Y043850D03*
X027273Y043850D03*
X020600Y036600D03*
X020600Y035100D03*
X018600Y035100D03*
X018600Y036600D03*
X016100Y033850D03*
X014100Y033850D03*
X010100Y034600D03*
X010100Y035600D03*
X008475Y036475D03*
X006475Y036475D03*
X006725Y041100D03*
X004725Y041100D03*
X009975Y048850D03*
X009475Y049600D03*
X010475Y049600D03*
X038100Y046100D03*
X038600Y046850D03*
X039100Y046100D03*
X012100Y028475D03*
X011350Y027975D03*
X012100Y027475D03*
X008100Y027100D03*
X008100Y025725D03*
X006100Y025725D03*
X005100Y027100D03*
X006100Y028350D03*
X008100Y028350D03*
D14*
X044100Y011377D02*
X044100Y010823D01*
X045100Y010823D02*
X045100Y011377D01*
X046100Y011377D02*
X046100Y010823D01*
X047100Y010823D02*
X047100Y011377D01*
X048100Y011377D02*
X048100Y010823D01*
X049100Y010823D02*
X049100Y011377D01*
X050100Y011377D02*
X050100Y010823D01*
X051100Y010823D02*
X051100Y011377D01*
X052100Y011377D02*
X052100Y010823D01*
X053100Y010823D02*
X053100Y011377D01*
X054100Y011377D02*
X054100Y010823D01*
X055100Y010823D02*
X055100Y011377D01*
X056100Y011377D02*
X056100Y010823D01*
X057100Y010823D02*
X057100Y011377D01*
X057100Y005377D02*
X057100Y004823D01*
X056100Y004823D02*
X056100Y005377D01*
X055100Y005377D02*
X055100Y004823D01*
X054100Y004823D02*
X054100Y005377D01*
X053100Y005377D02*
X053100Y004823D01*
X052100Y004823D02*
X052100Y005377D01*
X051100Y005377D02*
X051100Y004823D01*
X050100Y004823D02*
X050100Y005377D01*
X049100Y005377D02*
X049100Y004823D01*
X048100Y004823D02*
X048100Y005377D01*
X047100Y005377D02*
X047100Y004823D01*
X046100Y004823D02*
X046100Y005377D01*
X045100Y005377D02*
X045100Y004823D01*
X044100Y004823D02*
X044100Y005377D01*
D15*
X042100Y006350D03*
X040850Y006350D03*
X040850Y010350D03*
X042100Y010350D03*
X014975Y005038D03*
X013038Y002850D03*
X014975Y001038D03*
X009038Y002850D03*
X014100Y029225D03*
X014100Y030850D03*
X014100Y032350D03*
X012100Y033850D03*
X010975Y033850D03*
X013600Y036350D03*
X017600Y036350D03*
X022100Y036600D03*
X022100Y032600D03*
X018100Y032350D03*
X018100Y030850D03*
X018100Y029225D03*
X012100Y029850D03*
X010975Y029850D03*
X009100Y029850D03*
X005100Y029850D03*
X005100Y034600D03*
X003975Y034600D03*
X002850Y034600D03*
X002850Y038600D03*
X003975Y038600D03*
X005100Y038600D03*
X013100Y043475D03*
X014600Y043475D03*
X016100Y043475D03*
X017600Y043475D03*
X017600Y047475D03*
X016100Y047475D03*
X014600Y047475D03*
X013100Y047475D03*
X008600Y052100D03*
X004600Y052100D03*
X034600Y044100D03*
X038600Y044100D03*
X052100Y035725D03*
X056100Y035725D03*
X055350Y044975D03*
X056850Y044975D03*
X056850Y048975D03*
X055350Y048975D03*
X076475Y013100D03*
X080475Y013100D03*
D16*
X051650Y028100D02*
X051050Y028100D01*
X051050Y029100D02*
X051650Y029100D01*
X051650Y030100D02*
X051050Y030100D01*
X039277Y041828D02*
X039277Y042428D01*
X038277Y042428D02*
X038277Y041828D01*
X037277Y041828D02*
X037277Y042428D01*
X036277Y042428D02*
X036277Y041828D01*
X035277Y041828D02*
X035277Y042428D01*
X034277Y042428D02*
X034277Y041828D01*
X033277Y041828D02*
X033277Y042428D01*
X032277Y042428D02*
X032277Y041828D01*
X031277Y041828D02*
X031277Y042428D01*
X030277Y042428D02*
X030277Y041828D01*
X029277Y041828D02*
X029277Y042428D01*
X028277Y042428D02*
X028277Y041828D01*
X027277Y041828D02*
X027277Y042428D01*
X026277Y042428D02*
X026277Y041828D01*
X008150Y042600D02*
X007550Y042600D01*
X005150Y042600D02*
X004550Y042600D01*
X004550Y044600D02*
X005150Y044600D01*
X005150Y046600D02*
X004550Y046600D01*
X007550Y046600D02*
X008150Y046600D01*
X008150Y044600D02*
X007550Y044600D01*
X007550Y049600D02*
X008150Y049600D01*
X005150Y049600D02*
X004550Y049600D01*
D17*
X029773Y047340D03*
X030773Y046340D03*
X031773Y047340D03*
X032773Y046340D03*
X033773Y047340D03*
X034773Y046340D03*
X035773Y047340D03*
D18*
X033773Y053340D03*
X031773Y053340D03*
D19*
X007850Y050850D03*
X004850Y050850D03*
X004600Y033600D03*
X003475Y033600D03*
X003475Y030600D03*
X004600Y030600D03*
D20*
X006100Y031600D03*
X006100Y032600D03*
X006100Y033600D03*
X006100Y034600D03*
X009100Y034600D03*
X009100Y033600D03*
X009100Y032600D03*
X009100Y031600D03*
D21*
X036600Y007600D03*
D22*
X036600Y009600D03*
D23*
X043100Y050600D03*
X043100Y051600D03*
X044100Y051600D03*
X044100Y050600D03*
X045100Y050600D03*
X045100Y051600D03*
X046100Y051600D03*
X046100Y050600D03*
X047100Y050600D03*
X047100Y051600D03*
X048100Y051600D03*
X048100Y050600D03*
X049100Y050600D03*
X049100Y051600D03*
X050100Y051600D03*
X050100Y050600D03*
X051100Y050600D03*
X051100Y051600D03*
X052100Y051600D03*
X052100Y050600D03*
X056600Y050600D03*
X056600Y051600D03*
X057600Y051600D03*
X057600Y050600D03*
X058600Y050600D03*
X058600Y051600D03*
X059600Y051600D03*
X059600Y050600D03*
X060600Y050600D03*
X060600Y051600D03*
X061600Y051600D03*
X061600Y050600D03*
X062600Y050600D03*
X062600Y051600D03*
X063600Y051600D03*
X063600Y050600D03*
X064600Y050600D03*
X064600Y051600D03*
X065600Y051600D03*
X065600Y050600D03*
X066600Y050600D03*
X066600Y051600D03*
X067600Y051600D03*
X067600Y050600D03*
X068600Y050600D03*
X068600Y051600D03*
X069600Y051600D03*
X069600Y050600D03*
X070600Y050600D03*
X070600Y051600D03*
X071600Y051600D03*
X071600Y050600D03*
X072600Y050600D03*
X072600Y051600D03*
D24*
X075820Y040990D03*
X075820Y039210D03*
X078380Y039210D03*
X078380Y040990D03*
D25*
X027506Y047557D03*
X026521Y048541D03*
X027506Y049525D03*
X024553Y049525D03*
X022584Y048541D03*
X021600Y049525D03*
X021600Y047557D03*
X024553Y047557D03*
D26*
X025537Y053423D03*
X023569Y053423D03*
D27*
X072770Y042100D02*
X073430Y042100D01*
X073430Y041100D02*
X072770Y041100D01*
X072770Y040100D02*
X073430Y040100D01*
D28*
X076880Y049065D03*
X075029Y050246D03*
X076880Y051387D03*
D29*
X076100Y035600D03*
D30*
X076100Y036600D03*
D31*
X007475Y001725D02*
X002225Y006975D01*
X002225Y049850D01*
X004600Y052100D01*
X011725Y044225D02*
X008600Y041100D01*
X006725Y041100D01*
X004725Y041100D02*
X002850Y039225D01*
X002850Y038600D01*
X005100Y034600D02*
X006100Y034600D01*
X005100Y034600D02*
X005100Y029850D01*
X008100Y028350D02*
X008100Y032600D01*
X007600Y032600D01*
X006100Y032600D01*
X007600Y032600D02*
X007600Y034725D01*
X008475Y035600D01*
X010100Y035600D01*
X010225Y033850D02*
X010975Y033850D01*
X012100Y033850D01*
X010225Y033850D02*
X009975Y033600D01*
X009100Y033600D01*
X009100Y032600D02*
X008100Y032600D01*
X009100Y031600D02*
X009100Y029850D01*
X010975Y029850D01*
X011100Y029350D02*
X009475Y027725D01*
X007225Y027725D01*
X002600Y023100D01*
X002600Y007100D01*
X007725Y001975D01*
X017038Y001975D01*
X017663Y001350D01*
X021600Y001350D01*
X021850Y001100D01*
X031100Y001100D01*
X031600Y001600D01*
X053850Y001600D01*
X054100Y001350D01*
X060600Y001350D01*
X061850Y002600D01*
X073850Y002600D01*
X075225Y003225D02*
X075475Y003475D01*
X075850Y003475D01*
X076100Y003725D01*
X076975Y003725D01*
X077475Y003475D02*
X078100Y004100D01*
X078100Y005725D01*
X077725Y006100D01*
X074850Y006100D01*
X074600Y005850D01*
X074600Y005100D01*
X075600Y003850D02*
X075975Y004225D01*
X077475Y004225D01*
X077600Y004350D01*
X077600Y005100D01*
X077475Y003475D02*
X077475Y002225D01*
X076850Y001600D01*
X061350Y001600D01*
X060850Y001100D01*
X053850Y001100D01*
X053600Y001350D01*
X031850Y001350D01*
X031350Y000850D01*
X021600Y000850D01*
X021350Y001100D01*
X017475Y001100D01*
X016850Y001725D01*
X007475Y001725D01*
X007913Y002288D02*
X002975Y007225D01*
X002975Y020600D01*
X008100Y025725D01*
X010850Y028475D01*
X012100Y028475D01*
X012725Y028475D01*
X013475Y029225D01*
X014100Y029225D01*
X012600Y029350D02*
X011100Y029350D01*
X012600Y029350D02*
X014100Y030850D01*
X016100Y033850D02*
X017600Y032350D01*
X018100Y032350D01*
X015350Y034600D02*
X025600Y034600D01*
X027100Y034100D02*
X031850Y034100D01*
X032350Y034600D01*
X038350Y034600D01*
X038850Y035100D01*
X039600Y035600D02*
X036975Y035600D01*
X039600Y035600D02*
X040350Y034850D01*
X040850Y037100D02*
X055350Y037100D01*
X055725Y037475D01*
X056975Y037850D02*
X057100Y037975D01*
X065475Y037975D01*
X065850Y037600D01*
X067225Y037600D01*
X067600Y037975D01*
X077225Y037975D01*
X078350Y039100D01*
X078380Y039210D01*
X078600Y039350D01*
X079100Y039850D01*
X079100Y042100D01*
X078600Y042600D01*
X076350Y041913D02*
X076350Y043350D01*
X075600Y044100D01*
X075038Y044100D01*
X074350Y044100D02*
X074350Y042100D01*
X071413Y044475D02*
X067600Y044475D01*
X065850Y042600D01*
X043600Y042600D01*
X043100Y042100D02*
X041600Y043600D01*
X029850Y043600D01*
X029277Y043027D01*
X029277Y042128D01*
X028277Y042128D02*
X028277Y041298D01*
X028600Y040975D01*
X032225Y040975D01*
X032475Y040725D01*
X035225Y040725D01*
X035350Y040600D01*
X054850Y040600D01*
X054725Y039725D02*
X055975Y038600D01*
X065725Y038600D01*
X066350Y037975D01*
X066975Y037975D01*
X067475Y038475D01*
X068350Y038475D01*
X073350Y038475D01*
X072725Y036975D02*
X068350Y036975D01*
X067975Y036475D02*
X072725Y036475D01*
X077100Y032100D01*
X077100Y030850D01*
X073850Y027600D01*
X072100Y027600D01*
X070600Y026100D01*
X070600Y025350D01*
X071600Y025350D02*
X071600Y026100D01*
X071850Y026350D01*
X072850Y026350D01*
X073100Y026100D01*
X073100Y024850D01*
X076100Y021850D01*
X076100Y019725D01*
X078163Y017663D01*
X077975Y017225D02*
X078413Y017225D01*
X079100Y017913D01*
X079100Y029975D01*
X077600Y031475D01*
X077600Y032100D01*
X072725Y036975D01*
X071850Y035100D02*
X069475Y035100D01*
X068600Y035975D01*
X067975Y035725D02*
X069100Y034600D01*
X074100Y034600D01*
X076600Y032100D01*
X076600Y031350D01*
X075600Y031350D02*
X075600Y030600D01*
X074600Y029600D01*
X072850Y029600D01*
X072600Y029350D01*
X061225Y029350D01*
X060975Y029600D01*
X053975Y029600D01*
X052975Y028600D01*
X028600Y028600D01*
X028350Y029100D02*
X027850Y028600D01*
X020600Y028600D01*
X011475Y019475D01*
X011725Y018975D02*
X007725Y018975D01*
X007600Y018850D01*
X007600Y018100D01*
X008600Y018100D02*
X008600Y017350D01*
X010100Y015850D01*
X010100Y011600D01*
X011100Y010600D01*
X020100Y010600D01*
X020600Y010100D01*
X022100Y010100D01*
X022600Y010600D01*
X024100Y010600D01*
X025975Y010600D01*
X026475Y011100D01*
X028350Y011100D01*
X028850Y010600D01*
X030100Y010600D01*
X030850Y011100D02*
X028850Y011100D01*
X028350Y011600D01*
X027100Y011600D01*
X027100Y010600D02*
X028350Y010600D01*
X028850Y010100D01*
X032100Y010100D01*
X033975Y010475D02*
X030600Y007100D01*
X028850Y007100D01*
X028350Y006600D01*
X027100Y006600D01*
X025850Y006600D01*
X025350Y007100D01*
X022850Y007100D01*
X022350Y006600D01*
X021100Y006600D01*
X021100Y005600D02*
X022350Y005600D01*
X022850Y006100D01*
X025350Y006100D01*
X025850Y005600D01*
X027100Y005600D01*
X028350Y005100D02*
X025850Y005100D01*
X025350Y004600D01*
X024100Y004600D01*
X023350Y005600D02*
X022850Y005100D01*
X018850Y005100D01*
X018038Y004975D02*
X018913Y004100D01*
X029350Y004100D01*
X030600Y002850D01*
X055100Y002850D01*
X055350Y002600D01*
X056850Y002600D01*
X057100Y002850D01*
X056600Y003350D02*
X057850Y003350D01*
X058100Y003100D01*
X067350Y003100D01*
X067600Y003350D01*
X069600Y003350D01*
X069850Y002850D02*
X070225Y003225D01*
X075225Y003225D01*
X075600Y003850D02*
X067600Y003850D01*
X067100Y003350D01*
X058350Y003350D01*
X058100Y003600D01*
X056100Y003600D01*
X055850Y003350D01*
X055350Y003100D02*
X055600Y002850D01*
X056100Y002850D01*
X056600Y003350D01*
X055350Y003100D02*
X041100Y003100D01*
X037350Y006850D01*
X036600Y007600D02*
X039100Y007600D01*
X042100Y006350D02*
X042100Y005350D01*
X042100Y006350D02*
X044100Y006350D01*
X044100Y005100D01*
X044100Y006350D02*
X046600Y006350D01*
X047100Y005850D01*
X047100Y005100D01*
X048100Y005100D01*
X047600Y005913D02*
X047788Y006100D01*
X050850Y006100D01*
X051100Y005850D01*
X051100Y005100D01*
X050850Y004100D02*
X058600Y004100D01*
X058850Y003850D01*
X066100Y003850D01*
X066600Y004350D01*
X066600Y005100D01*
X065600Y005100D02*
X065600Y004350D01*
X065350Y004100D01*
X059100Y004100D01*
X058850Y004350D01*
X050100Y004350D01*
X049350Y003600D01*
X050600Y003850D02*
X050850Y004100D01*
X051600Y003600D02*
X051850Y003850D01*
X058350Y003850D01*
X058600Y003600D01*
X066850Y003600D01*
X067600Y004350D01*
X067600Y005100D01*
X068350Y006100D02*
X065350Y006100D01*
X065100Y005850D01*
X065100Y004600D01*
X064850Y004350D01*
X059350Y004350D01*
X058350Y005350D01*
X060100Y006350D02*
X047100Y006350D01*
X045413Y008038D01*
X046225Y008038D02*
X047663Y006600D01*
X061100Y006600D01*
X061600Y006100D01*
X061600Y005100D01*
X060600Y005100D02*
X060600Y005850D01*
X060100Y006350D01*
X061600Y006850D02*
X048163Y006850D01*
X046975Y008038D01*
X047725Y008038D02*
X048663Y007100D01*
X062350Y007100D01*
X063600Y005850D01*
X063600Y005100D01*
X064600Y005100D02*
X064600Y005850D01*
X063100Y007350D01*
X049163Y007350D01*
X048475Y008038D01*
X048663Y008538D02*
X049350Y007850D01*
X056100Y007850D01*
X056350Y008725D02*
X056100Y008850D01*
X044600Y008850D01*
X043350Y010100D01*
X042850Y009913D02*
X044225Y008538D01*
X048663Y008538D01*
X048600Y009975D02*
X050475Y009975D01*
X051225Y009225D01*
X056600Y009225D01*
X058225Y007600D01*
X063850Y007600D01*
X065038Y006413D01*
X072038Y006413D01*
X072600Y005850D01*
X072600Y005100D01*
X073850Y007600D02*
X076600Y010350D01*
X076600Y011100D01*
X077600Y011100D02*
X077600Y010350D01*
X077725Y010225D01*
X079100Y010225D01*
X079225Y010350D01*
X079225Y015100D01*
X078725Y015600D01*
X073975Y015600D01*
X072788Y016788D01*
X065788Y016788D01*
X065350Y017225D01*
X065350Y019600D01*
X065600Y019850D01*
X065600Y020600D01*
X066600Y020600D02*
X066600Y019850D01*
X065975Y019225D01*
X065975Y017413D01*
X065538Y016538D02*
X063100Y018975D01*
X063100Y019600D01*
X062600Y020600D02*
X062600Y021100D01*
X062350Y021350D01*
X037100Y021350D01*
X036850Y021600D01*
X037725Y022788D02*
X057100Y022850D01*
X055725Y024975D02*
X061475Y024975D01*
X062788Y026288D01*
X067413Y026288D01*
X067600Y026100D01*
X067600Y025350D01*
X068100Y024600D02*
X026350Y024600D01*
X025100Y025850D01*
X025100Y026350D01*
X025850Y027100D01*
X027100Y027100D01*
X027100Y026100D02*
X031850Y026100D01*
X032350Y026600D01*
X053850Y026600D01*
X054100Y026350D01*
X056225Y026350D01*
X057100Y025475D01*
X060350Y025475D01*
X060350Y026600D02*
X060100Y026850D01*
X060100Y027600D01*
X059600Y028100D02*
X059600Y026850D01*
X059100Y026350D01*
X056725Y026350D01*
X056225Y026850D01*
X054350Y026850D01*
X053600Y027600D01*
X028350Y027600D01*
X027850Y028100D01*
X027100Y028100D01*
X028350Y029100D02*
X033100Y029100D01*
X033100Y027100D02*
X032350Y027100D01*
X031850Y026600D01*
X026100Y026600D01*
X025600Y026100D01*
X023350Y029100D02*
X020350Y029100D01*
X010725Y019475D01*
X011725Y018975D02*
X015350Y022600D01*
X034100Y022600D01*
X034600Y022100D02*
X060850Y022100D01*
X061350Y022600D01*
X065600Y022600D01*
X071600Y022600D01*
X071850Y022100D02*
X072600Y021350D01*
X072600Y020600D01*
X072600Y019975D01*
X073100Y019475D01*
X073100Y017725D01*
X072600Y017475D02*
X073350Y016725D01*
X077225Y016725D01*
X077975Y017225D02*
X075600Y019600D01*
X075600Y020600D01*
X076600Y020600D02*
X076600Y022600D01*
X074600Y024600D01*
X074600Y025350D01*
X074600Y026725D01*
X077350Y029475D01*
X075100Y030600D02*
X075100Y032600D01*
X074600Y033100D01*
X066100Y033100D01*
X061975Y033100D01*
X035100Y033100D01*
X034600Y032600D01*
X030100Y032600D01*
X029100Y031600D01*
X028600Y030600D02*
X049850Y030600D01*
X050850Y029600D01*
X053475Y029600D01*
X053725Y029850D01*
X061225Y029850D01*
X061475Y029600D01*
X069350Y029600D01*
X069600Y029850D01*
X072600Y030600D02*
X072850Y030350D01*
X074850Y030350D01*
X075100Y030600D01*
X074600Y031350D02*
X074600Y032100D01*
X074100Y032600D01*
X069100Y032600D01*
X042975Y032600D01*
X042600Y032225D01*
X042100Y031600D02*
X032350Y031600D01*
X031850Y031100D01*
X027100Y031100D01*
X027100Y032100D02*
X026350Y032100D01*
X023350Y029100D01*
X025100Y029600D02*
X042100Y029600D01*
X042600Y031100D02*
X043100Y031600D01*
X059725Y031600D01*
X060475Y032350D01*
X064350Y032350D01*
X064600Y032100D01*
X064600Y031350D01*
X065600Y031350D02*
X065600Y030600D01*
X065350Y030350D01*
X062600Y030350D01*
X061100Y031850D01*
X060100Y030600D02*
X059100Y030600D01*
X058100Y030600D01*
X057100Y030600D02*
X056100Y030600D01*
X055100Y030600D01*
X058100Y033600D02*
X062600Y033600D01*
X062100Y033975D02*
X058725Y033975D01*
X058600Y034100D01*
X057850Y034100D01*
X057725Y033975D01*
X034350Y033975D01*
X034225Y034100D01*
X033100Y034100D01*
X032350Y033600D02*
X058100Y033600D01*
X057600Y034350D02*
X057725Y034475D01*
X058850Y034475D01*
X058975Y034350D01*
X061975Y034350D01*
X062100Y034475D01*
X065100Y034475D01*
X068100Y034475D01*
X067600Y035100D02*
X062100Y035100D01*
X061725Y034725D01*
X060350Y034725D01*
X060225Y034850D01*
X048225Y034850D01*
X047975Y035100D01*
X046600Y035100D01*
X047600Y034600D02*
X047850Y034350D01*
X057600Y034350D01*
X056100Y035725D02*
X067975Y035725D01*
X067975Y036475D02*
X067600Y036850D01*
X056975Y036850D01*
X054475Y039350D01*
X034350Y039350D01*
X034100Y039600D01*
X032538Y039600D01*
X031538Y038600D01*
X023100Y038600D01*
X022475Y037975D01*
X020538Y037975D01*
X021163Y037600D02*
X020663Y037100D01*
X015850Y037100D01*
X015600Y037350D01*
X015600Y038100D01*
X017100Y038975D02*
X018100Y039975D01*
X018100Y041850D01*
X020850Y044600D01*
X029100Y044600D01*
X027523Y044100D02*
X027273Y043850D01*
X027273Y042131D01*
X027277Y042128D01*
X028725Y040225D02*
X035100Y040225D01*
X035225Y040100D01*
X060100Y040100D01*
X064975Y040100D01*
X066600Y038475D01*
X065475Y037475D02*
X061600Y037475D01*
X061100Y035225D02*
X054475Y035225D01*
X053475Y036225D01*
X034350Y036225D01*
X034225Y036100D01*
X033100Y036100D01*
X033100Y037100D02*
X040850Y037100D01*
X040100Y038600D02*
X032225Y038600D01*
X031725Y038100D01*
X027100Y038100D01*
X027100Y037100D02*
X027850Y037100D01*
X028350Y036600D01*
X055350Y036600D01*
X055725Y036225D02*
X058100Y036225D01*
X055725Y036225D02*
X055600Y036100D01*
X054350Y036100D01*
X054350Y037600D02*
X039100Y037600D01*
X034350Y039725D02*
X034225Y039850D01*
X029600Y039850D01*
X029350Y039600D01*
X028413Y039100D02*
X031163Y039100D01*
X033913Y037600D02*
X034163Y037850D01*
X033913Y037600D02*
X021163Y037600D01*
X024163Y039538D02*
X027975Y039538D01*
X028413Y039100D01*
X024163Y039538D02*
X021600Y042100D01*
X018850Y042100D01*
X018600Y041850D01*
X018600Y041100D01*
X019725Y044225D02*
X011725Y044225D01*
X016100Y047475D02*
X016100Y047600D01*
X019725Y044225D02*
X020600Y045100D01*
X033600Y045100D01*
X034600Y046100D01*
X034773Y046340D01*
X034600Y044100D02*
X027523Y044100D01*
X032277Y042128D02*
X032277Y041423D01*
X032600Y041100D01*
X035788Y041100D01*
X037277Y041423D02*
X037277Y042128D01*
X037277Y041423D02*
X037600Y041100D01*
X038850Y041100D01*
X039277Y042128D02*
X039350Y042100D01*
X042100Y042100D01*
X043100Y041100D01*
X043100Y042100D02*
X049100Y042100D01*
X049600Y041600D01*
X045600Y043100D02*
X042600Y046100D01*
X039100Y046100D01*
X038600Y046850D02*
X038600Y044100D01*
X041100Y043100D02*
X033600Y043100D01*
X033277Y042777D01*
X033277Y042128D01*
X034350Y039725D02*
X054725Y039725D01*
X056975Y043350D02*
X060350Y043350D01*
X066100Y049100D01*
X065100Y050100D02*
X064600Y050600D01*
X065100Y050100D02*
X069100Y050100D01*
X069350Y049850D01*
X069850Y049350D02*
X068600Y049350D01*
X068350Y049600D01*
X062350Y049600D01*
X061600Y050600D01*
X060100Y050975D02*
X060100Y050100D01*
X061600Y048600D01*
X061600Y047600D01*
X058850Y046975D02*
X056850Y044975D01*
X058350Y049850D02*
X053100Y049850D01*
X031163Y049850D01*
X022584Y048541D02*
X022525Y048600D01*
X013600Y036350D02*
X015350Y034600D01*
X017100Y035600D02*
X030600Y035600D01*
X031100Y035100D01*
X033100Y035100D01*
X032350Y033600D02*
X031850Y033100D01*
X027100Y033100D01*
X027100Y034100D02*
X023600Y034100D01*
X022100Y032600D01*
X033100Y032100D02*
X038850Y032100D01*
X042600Y031100D02*
X034850Y031100D01*
X034600Y026100D02*
X033100Y026100D01*
X034600Y026100D02*
X035600Y025100D01*
X038225Y023600D02*
X038725Y024100D01*
X060850Y024100D01*
X061350Y023600D01*
X063600Y023600D01*
X066975Y023600D01*
X067100Y023475D01*
X068225Y023475D01*
X068350Y023600D01*
X069600Y023600D01*
X069100Y023975D02*
X067600Y023975D01*
X068100Y024600D02*
X072600Y024600D01*
X072600Y025350D01*
X072600Y024600D02*
X075100Y022100D01*
X075100Y019350D01*
X076600Y017850D01*
X075600Y018225D02*
X075600Y017225D01*
X075600Y018225D02*
X074038Y019788D01*
X074038Y021663D01*
X073600Y022100D01*
X073600Y021350D02*
X073600Y020600D01*
X073600Y018100D01*
X074100Y017600D01*
X072600Y017475D02*
X072600Y019413D01*
X072163Y019850D01*
X072163Y020975D01*
X071663Y021475D01*
X070100Y021475D01*
X069600Y020600D02*
X069600Y017850D01*
X069850Y017600D01*
X069100Y017350D02*
X069100Y019475D01*
X068600Y019975D01*
X068600Y020600D01*
X068600Y021350D01*
X068350Y021600D01*
X065475Y021600D01*
X065100Y021975D01*
X064600Y023100D02*
X061100Y023100D01*
X060600Y023600D01*
X039100Y023600D01*
X038225Y023600D02*
X031725Y023600D01*
X033100Y023100D02*
X035600Y023100D01*
X034600Y022100D02*
X034100Y021600D01*
X033100Y022100D02*
X032350Y022100D01*
X031850Y021600D01*
X025600Y021600D01*
X027100Y021100D02*
X017600Y021100D01*
X016100Y019600D01*
X018100Y019600D02*
X033850Y019600D01*
X034850Y019100D02*
X025100Y019100D01*
X025600Y018600D02*
X025600Y018100D01*
X025600Y018600D02*
X025850Y018850D01*
X032475Y018850D01*
X035350Y015975D01*
X041225Y015975D01*
X041225Y017100D02*
X059850Y017100D01*
X060100Y016850D01*
X061788Y016850D01*
X062538Y016100D01*
X071600Y016100D01*
X072288Y016538D02*
X065538Y016538D01*
X066350Y015350D02*
X066100Y015100D01*
X066100Y014100D01*
X066413Y013788D01*
X066413Y013413D01*
X066975Y012788D02*
X067600Y013413D01*
X067600Y014600D01*
X066350Y015350D02*
X072850Y015350D01*
X073100Y015100D01*
X073100Y013913D01*
X074538Y012475D01*
X077975Y012475D01*
X078600Y011850D01*
X078600Y011100D01*
X074600Y011100D02*
X074538Y011788D01*
X074038Y012288D01*
X061100Y012288D01*
X060600Y011850D02*
X060600Y011100D01*
X060600Y011850D02*
X060475Y011975D01*
X052225Y011975D01*
X052100Y011850D01*
X052100Y011100D01*
X053350Y009725D02*
X055225Y009725D01*
X055600Y010100D01*
X056100Y010350D02*
X056225Y010225D01*
X057100Y010225D01*
X057350Y009975D01*
X060100Y009975D01*
X065350Y009975D01*
X065600Y010225D01*
X065600Y011100D01*
X067288Y012538D02*
X062788Y012538D01*
X062600Y012725D01*
X059975Y012725D01*
X058100Y014600D01*
X047600Y014600D01*
X037100Y014600D01*
X036225Y013725D01*
X030600Y013725D01*
X030475Y013600D01*
X024600Y013600D01*
X024850Y014100D02*
X025100Y013850D01*
X026475Y013850D01*
X026600Y013975D01*
X030350Y013975D01*
X030475Y014100D01*
X035600Y014100D01*
X036100Y014600D01*
X035100Y015100D02*
X046600Y015100D01*
X053725Y015100D01*
X053850Y014975D01*
X058225Y014975D01*
X059975Y013225D01*
X061600Y013225D01*
X062725Y013225D01*
X063163Y012788D01*
X066975Y012788D01*
X067288Y012538D02*
X068600Y013850D01*
X068600Y014600D01*
X072288Y016538D02*
X072600Y016225D01*
X073225Y015600D02*
X073600Y015225D01*
X073600Y014600D01*
X073225Y015600D02*
X062350Y015600D01*
X061475Y016475D01*
X059850Y016475D01*
X059600Y016725D01*
X056475Y016725D01*
X056225Y016475D01*
X043600Y016475D01*
X038975Y016475D01*
X034850Y020600D01*
X020100Y020600D01*
X019100Y020100D02*
X027100Y020100D01*
X028100Y021100D02*
X033100Y021100D01*
X038225Y019788D02*
X050038Y019788D01*
X052100Y017725D01*
X054225Y017975D02*
X051350Y020850D01*
X039350Y020850D01*
X033975Y016725D02*
X033975Y015350D01*
X034600Y014600D02*
X035100Y015100D01*
X034600Y014600D02*
X030225Y014600D01*
X029975Y014350D01*
X027725Y014350D01*
X027600Y014475D01*
X027600Y015100D01*
X026100Y014350D02*
X023725Y014350D01*
X023600Y014475D01*
X023600Y015100D01*
X022600Y015100D02*
X021850Y015100D01*
X021850Y014600D01*
X021600Y014350D01*
X015350Y014350D01*
X015100Y014100D01*
X014350Y014100D01*
X014100Y014350D01*
X014100Y015100D01*
X015350Y013350D02*
X011600Y013350D01*
X012100Y014100D02*
X012100Y016850D01*
X012600Y017350D01*
X012600Y018100D01*
X012100Y018600D02*
X012100Y017350D01*
X011600Y016850D01*
X011600Y015100D01*
X015350Y013350D02*
X015850Y013850D01*
X024100Y013850D01*
X024350Y014100D01*
X024850Y014100D01*
X025350Y013225D02*
X025225Y013100D01*
X024100Y013100D01*
X023975Y013225D01*
X015975Y013225D01*
X018850Y011100D02*
X025600Y011100D01*
X026100Y011600D01*
X025350Y012100D02*
X024850Y011600D01*
X024100Y011600D01*
X023100Y011600D02*
X021100Y011600D01*
X022600Y010100D02*
X025350Y010100D01*
X025850Y009600D01*
X027100Y009600D01*
X028100Y009600D02*
X030100Y009600D01*
X030100Y008600D02*
X028600Y008600D01*
X028100Y009100D01*
X025850Y009100D01*
X025350Y008600D01*
X024100Y008600D01*
X024100Y007600D02*
X025350Y007600D01*
X025850Y008100D01*
X028350Y008100D01*
X028850Y007600D01*
X030100Y007600D01*
X030100Y006600D02*
X028850Y006600D01*
X028350Y006100D01*
X025850Y006100D01*
X025350Y006600D01*
X024100Y006600D01*
X024100Y005600D02*
X023350Y005600D01*
X022600Y008100D02*
X022100Y008600D01*
X021100Y008600D01*
X020350Y008600D01*
X018850Y010100D01*
X013850Y010100D01*
X012600Y009600D02*
X011850Y008850D01*
X010850Y008850D01*
X010100Y008100D01*
X013913Y009038D02*
X014475Y009038D01*
X018038Y005475D01*
X018038Y004975D01*
X017475Y004163D02*
X018538Y003100D01*
X021850Y003100D01*
X022850Y002100D01*
X030100Y002100D01*
X030600Y002600D01*
X054850Y002600D01*
X055100Y002350D01*
X057850Y002350D01*
X058163Y002663D01*
X058975Y002100D02*
X054850Y002100D01*
X054600Y002350D01*
X030850Y002350D01*
X030350Y001850D01*
X022600Y001850D01*
X022350Y002100D01*
X019725Y002100D01*
X019475Y002350D01*
X018913Y001850D02*
X022100Y001850D01*
X022350Y001600D01*
X030600Y001600D01*
X031100Y002100D01*
X054350Y002100D01*
X054600Y001850D01*
X059725Y001850D01*
X060413Y002538D01*
X060350Y001600D02*
X061600Y002850D01*
X069850Y002850D01*
X068600Y005100D02*
X068600Y005850D01*
X068350Y006100D01*
X067413Y008038D02*
X066850Y008600D01*
X060725Y008600D01*
X060600Y008475D01*
X058725Y008475D01*
X058600Y008600D01*
X057850Y008600D01*
X056850Y009600D01*
X056100Y010350D02*
X056100Y011100D01*
X058100Y009475D02*
X058850Y008725D01*
X059850Y008725D01*
X059975Y008850D01*
X068725Y008850D01*
X069413Y008163D01*
X073850Y007600D02*
X064725Y007600D01*
X064225Y008100D01*
X062100Y008100D01*
X061100Y008100D02*
X058475Y008100D01*
X061600Y006850D02*
X062600Y005850D01*
X062600Y005100D01*
X059413Y002538D02*
X058975Y002100D01*
X060350Y001600D02*
X054350Y001600D01*
X054100Y001850D01*
X031350Y001850D01*
X030850Y001350D01*
X022100Y001350D01*
X021850Y001600D01*
X017850Y001600D01*
X017163Y002288D01*
X007913Y002288D01*
X013038Y002850D02*
X013038Y004913D01*
X013538Y004163D02*
X014975Y004163D01*
X014975Y005038D01*
X014975Y004163D02*
X017475Y004163D01*
X017225Y003538D02*
X018913Y001850D01*
X022600Y008100D02*
X025350Y008100D01*
X025850Y008600D01*
X027100Y008600D01*
X028350Y005100D02*
X028850Y004600D01*
X030100Y004600D01*
X022600Y010100D02*
X022100Y009600D01*
X021100Y009600D01*
X025350Y012100D02*
X031725Y012100D01*
X031975Y011850D01*
X035600Y013225D02*
X025350Y013225D01*
X021850Y015100D02*
X021600Y015350D01*
X021600Y016100D01*
X021850Y016350D01*
X022350Y016350D01*
X022600Y016100D01*
X029100Y016100D01*
X029350Y016350D01*
X032725Y016350D01*
X032725Y017100D02*
X026850Y017100D01*
X026600Y017350D01*
X026600Y018100D01*
X025600Y016850D02*
X024600Y016850D01*
X024100Y017350D01*
X023350Y016350D02*
X022600Y017100D01*
X021350Y017100D01*
X021100Y017350D01*
X021100Y018100D01*
X023350Y016350D02*
X025850Y016350D01*
X026100Y016600D01*
X028600Y016600D01*
X030600Y015850D02*
X022100Y015850D01*
X015225Y021600D02*
X015100Y021600D01*
X012100Y018600D01*
X032725Y017100D02*
X033475Y016350D01*
X041413Y011100D02*
X042350Y011100D01*
X042850Y010600D01*
X042850Y009913D01*
X042850Y011350D02*
X044850Y009350D01*
X050100Y009350D01*
X053975Y013725D02*
X057350Y013725D01*
X057475Y013600D01*
X058475Y013600D01*
X059600Y012475D01*
X060350Y013725D02*
X060100Y013975D01*
X060100Y015225D01*
X059850Y015475D01*
X054100Y015475D01*
X053600Y014225D02*
X057725Y014225D01*
X057850Y014100D01*
X057100Y015975D02*
X061225Y015975D01*
X061600Y015600D01*
X061600Y014600D01*
X062100Y013725D02*
X060350Y013725D01*
X060475Y017225D02*
X062600Y017225D01*
X063600Y017600D02*
X061350Y019850D01*
X058350Y019850D01*
X058100Y020100D01*
X056600Y020100D01*
X055475Y019225D02*
X060600Y019225D01*
X060600Y018225D01*
X061100Y017850D01*
X060475Y017225D02*
X059350Y018350D01*
X055225Y018350D01*
X054100Y019600D01*
X055100Y019600D02*
X055475Y019225D01*
X054600Y020600D02*
X059600Y020600D01*
X064600Y023100D02*
X070600Y023100D01*
X070850Y024100D02*
X069225Y024100D01*
X069100Y023975D01*
X068600Y025350D02*
X068600Y026350D01*
X068350Y026600D01*
X060350Y026600D01*
X059100Y026913D02*
X059100Y027600D01*
X059100Y026913D02*
X058913Y026725D01*
X057288Y026725D01*
X057100Y026913D01*
X057100Y027600D01*
X055850Y025850D02*
X042600Y025850D01*
X042600Y025100D02*
X055600Y025100D01*
X055725Y024975D01*
X056100Y025600D02*
X055850Y025850D01*
X059600Y028100D02*
X059850Y028350D01*
X062600Y028350D01*
X063350Y029100D01*
X073100Y029100D01*
X072600Y030600D02*
X072600Y031350D01*
X071600Y033850D02*
X063475Y033850D01*
X063225Y034100D01*
X062225Y034100D01*
X062100Y033975D01*
X065475Y037475D02*
X065725Y037225D01*
X067475Y037225D01*
X067850Y037600D01*
X076600Y037600D01*
X077975Y036225D01*
X077975Y031600D01*
X079475Y030100D01*
X079475Y017725D01*
X077850Y016100D01*
X076100Y016100D01*
X078413Y018350D02*
X078413Y019725D01*
X078100Y020038D01*
X078100Y024975D01*
X076725Y026350D01*
X075600Y026350D01*
X070850Y024100D02*
X073600Y021350D01*
X071850Y022100D02*
X067100Y022100D01*
X067600Y020600D02*
X067600Y017538D01*
X068350Y017600D02*
X068350Y019413D01*
X070225Y019413D02*
X070600Y019038D01*
X070600Y017225D01*
X071100Y017850D02*
X071100Y019350D01*
X070600Y019850D01*
X070600Y020600D01*
X071600Y020600D02*
X071600Y019975D01*
X072100Y019475D01*
X072100Y017850D01*
X071600Y017225D02*
X071600Y019350D01*
X067100Y027100D02*
X065850Y028350D01*
X068350Y038475D02*
X068350Y043100D01*
X067850Y043600D01*
X068350Y046475D02*
X071100Y049225D01*
X071100Y051850D01*
X070850Y052100D01*
X068600Y052100D01*
X060100Y052100D01*
X059850Y052350D01*
X059100Y052350D01*
X058600Y051600D02*
X059100Y051100D01*
X059975Y051100D01*
X060100Y050975D01*
X058600Y050600D02*
X058600Y050100D01*
X058350Y049850D01*
X067850Y047100D02*
X068225Y047100D01*
X070600Y049475D01*
X070600Y050600D01*
X071600Y050600D02*
X071600Y048350D01*
X070100Y046850D01*
X068600Y051600D02*
X068600Y052100D01*
X041600Y042600D02*
X041100Y043100D01*
X045600Y013975D02*
X053350Y013975D01*
X053600Y014225D01*
D32*
X053975Y013725D03*
X054100Y015475D03*
X052100Y017725D03*
X054225Y017975D03*
X054100Y019600D03*
X055100Y019600D03*
X054600Y020600D03*
X056600Y020100D03*
X057100Y022850D03*
X060350Y025475D03*
X063600Y023600D03*
X064600Y023100D03*
X065600Y022600D03*
X065100Y021975D03*
X067100Y022100D03*
X069600Y023600D03*
X070600Y023100D03*
X071600Y022600D03*
X070100Y021475D03*
X070225Y019413D03*
X071600Y019350D03*
X071100Y017850D03*
X070600Y017225D03*
X069850Y017600D03*
X069100Y017350D03*
X068350Y017600D03*
X067600Y017538D03*
X065975Y017413D03*
X063600Y017600D03*
X062600Y017225D03*
X061100Y017850D03*
X060600Y019225D03*
X063100Y019600D03*
X068350Y019413D03*
X071600Y017225D03*
X072100Y017850D03*
X073100Y017725D03*
X074100Y017600D03*
X075600Y017225D03*
X076600Y017850D03*
X077225Y016725D03*
X078163Y017663D03*
X078413Y018350D03*
X076100Y016100D03*
X072600Y016225D03*
X071600Y016100D03*
X073600Y022100D03*
X068100Y024600D03*
X067600Y023975D03*
X067100Y027100D03*
X065850Y028350D03*
X063600Y028475D03*
X060600Y028850D03*
X058600Y028850D03*
X059725Y031600D03*
X061100Y031850D03*
X061975Y033100D03*
X062600Y033600D03*
X062100Y035100D03*
X061100Y035225D03*
X058100Y036225D03*
X056975Y037850D03*
X055725Y037475D03*
X055350Y036600D03*
X054350Y036100D03*
X054350Y037600D03*
X054850Y040600D03*
X056975Y043350D03*
X058850Y046975D03*
X061600Y047600D03*
X063913Y045475D03*
X067600Y044475D03*
X067850Y043600D03*
X071413Y044475D03*
X070100Y046850D03*
X068350Y046475D03*
X067850Y047100D03*
X066100Y049100D03*
X069350Y049850D03*
X069850Y049350D03*
X074350Y044100D03*
X075038Y044100D03*
X077100Y045100D03*
X076350Y041913D03*
X074350Y042100D03*
X073350Y038475D03*
X073350Y037100D03*
X071850Y035100D03*
X071600Y033850D03*
X069100Y032600D03*
X066100Y033100D03*
X065100Y034475D03*
X067600Y035100D03*
X068100Y034475D03*
X068600Y035975D03*
X068350Y036975D03*
X066600Y038475D03*
X061600Y037475D03*
X060100Y040100D03*
X058100Y033600D03*
X047600Y034600D03*
X046600Y035100D03*
X042600Y032225D03*
X042100Y031600D03*
X042100Y029600D03*
X038850Y032100D03*
X040350Y034850D03*
X038850Y035100D03*
X036975Y035600D03*
X039100Y037600D03*
X040100Y038600D03*
X040850Y037100D03*
X038850Y041100D03*
X035788Y041100D03*
X034163Y037850D03*
X031350Y036100D03*
X029350Y039600D03*
X028725Y040225D03*
X029100Y044600D03*
X029975Y049475D03*
X031163Y049850D03*
X041600Y042600D03*
X043600Y042600D03*
X043100Y041100D03*
X045600Y043100D03*
X044600Y044850D03*
X049600Y041600D03*
X051600Y048975D03*
X053100Y049850D03*
X059100Y052350D03*
X034850Y031100D03*
X029100Y031600D03*
X028600Y030600D03*
X028600Y028600D03*
X025600Y026100D03*
X029850Y025100D03*
X031725Y023600D03*
X034100Y022600D03*
X034100Y021600D03*
X033850Y019600D03*
X034850Y019100D03*
X036850Y021600D03*
X037725Y022788D03*
X039100Y023600D03*
X035600Y023100D03*
X035600Y025100D03*
X039350Y020850D03*
X038225Y019788D03*
X041225Y017100D03*
X041225Y015975D03*
X043600Y016475D03*
X045600Y013975D03*
X046600Y015100D03*
X047600Y014600D03*
X044600Y012100D03*
X042850Y011350D03*
X043350Y010100D03*
X041413Y011100D03*
X045413Y008038D03*
X046225Y008038D03*
X046975Y008038D03*
X047725Y008038D03*
X048475Y008038D03*
X050100Y009350D03*
X048600Y009975D03*
X053350Y009725D03*
X055600Y010100D03*
X056850Y009600D03*
X056350Y008725D03*
X056100Y007850D03*
X058475Y008100D03*
X059350Y009350D03*
X060100Y009975D03*
X058100Y009475D03*
X061100Y008100D03*
X062100Y008100D03*
X058350Y005350D03*
X055850Y003350D03*
X057100Y002850D03*
X058163Y002663D03*
X059413Y002538D03*
X060413Y002538D03*
X067413Y008038D03*
X069413Y008163D03*
X073100Y009350D03*
X076975Y003725D03*
X073850Y002600D03*
X069600Y003350D03*
X062600Y012725D03*
X061600Y013225D03*
X062100Y013725D03*
X061100Y012288D03*
X059600Y012475D03*
X058725Y012600D03*
X057850Y014100D03*
X057100Y015975D03*
X056100Y025600D03*
X042600Y025850D03*
X042600Y025100D03*
X033475Y016350D03*
X032725Y016350D03*
X033975Y015350D03*
X036100Y014600D03*
X035600Y013225D03*
X031975Y011850D03*
X030850Y011100D03*
X032100Y010100D03*
X033975Y010475D03*
X037350Y006850D03*
X028100Y009600D03*
X026100Y011600D03*
X024600Y013600D03*
X026100Y014350D03*
X028600Y016600D03*
X030600Y015850D03*
X025600Y016850D03*
X024100Y017350D03*
X025100Y019100D03*
X025600Y021600D03*
X028100Y021100D03*
X022100Y015850D03*
X018100Y019600D03*
X019100Y020100D03*
X020100Y020600D03*
X016100Y019600D03*
X015225Y021600D03*
X011475Y019475D03*
X010725Y019475D03*
X012100Y014100D03*
X015975Y013225D03*
X018850Y011100D03*
X023100Y011600D03*
X018850Y005100D03*
X017225Y003538D03*
X019475Y002350D03*
X013913Y009038D03*
X013850Y010100D03*
X025100Y029600D03*
X017100Y035600D03*
X020538Y037975D03*
X017100Y038975D03*
X047600Y005913D03*
X049350Y003600D03*
X050600Y003850D03*
X051600Y003600D03*
X075600Y026350D03*
X073100Y029100D03*
X069600Y029850D03*
X077350Y029475D03*
D33*
X076600Y025350D02*
X075600Y025350D01*
X055100Y030600D02*
X053600Y030600D01*
X053100Y030100D01*
X051350Y030100D01*
X051350Y028100D02*
X053100Y028100D01*
X053725Y028100D01*
X075600Y041100D02*
X075820Y040990D01*
X076850Y051350D02*
X076880Y051387D01*
X056850Y048975D02*
X055350Y048975D01*
X055337Y048986D01*
X055322Y048994D01*
X055305Y048999D01*
X055288Y049001D01*
X055271Y048999D01*
X055254Y048994D01*
X055239Y048986D01*
X055226Y048975D01*
X055225Y048975D02*
X051600Y048975D01*
X030475Y048975D01*
X029975Y049475D01*
X030725Y048350D02*
X028299Y048350D01*
X027506Y047557D01*
X028600Y046100D02*
X029600Y047100D01*
X029773Y047340D01*
X030725Y048350D02*
X031725Y047350D01*
X031850Y047350D01*
X031773Y047340D01*
X033773Y047340D01*
X033850Y047350D01*
X034600Y048100D01*
X036100Y048100D01*
X036600Y047600D01*
X041850Y047600D01*
X044600Y044850D01*
X035773Y047340D02*
X035725Y047350D01*
X034850Y047350D01*
X033100Y045600D01*
X020475Y045600D01*
X019725Y044850D01*
X010350Y044850D01*
X008600Y046600D01*
X007850Y046600D01*
X007100Y047350D02*
X006600Y046850D01*
X006600Y043850D01*
X007850Y042600D01*
X010725Y045475D02*
X019475Y045475D01*
X020100Y046100D01*
X028600Y046100D01*
X027506Y049525D02*
X027600Y049600D01*
X027475Y049600D01*
X026277Y042128D02*
X026100Y042100D01*
X010725Y045475D02*
X008850Y047350D01*
X007100Y047350D01*
X015100Y019100D02*
X015100Y018100D01*
X015100Y019100D02*
X023350Y019100D01*
X023600Y018850D01*
X023600Y018100D01*
X036600Y009600D02*
X039100Y012100D01*
X044600Y012100D01*
X042100Y010350D02*
X040850Y010350D01*
X040100Y009600D01*
X040100Y005350D01*
X041350Y004100D01*
X048850Y004100D01*
X049100Y004350D01*
X049100Y005100D01*
X014600Y008100D02*
X011850Y005350D01*
X011850Y004163D01*
X008350Y004163D01*
X008100Y004413D01*
X008100Y005100D01*
X008913Y006538D02*
X008100Y007350D01*
X008100Y008100D01*
X007100Y008100D01*
X006600Y007600D01*
X008913Y006538D02*
X010350Y006538D01*
X011100Y005788D01*
X011100Y005100D01*
X011850Y004163D02*
X012538Y004163D01*
D34*
X029600Y018100D02*
X032600Y018100D01*
X033975Y016725D01*
X033100Y036100D02*
X031350Y036100D01*
D35*
X061100Y027600D02*
X062725Y027600D01*
X063600Y028475D01*
X072100Y041100D02*
X071850Y041350D01*
X071850Y042725D01*
X072100Y041100D02*
X073100Y041100D01*
X072600Y051600D02*
X075100Y051600D01*
X045100Y012850D02*
X039163Y012850D01*
X037350Y012850D01*
X036850Y012350D01*
X035413Y012350D01*
X032850Y012350D01*
X032600Y012600D01*
X045100Y012850D02*
X045350Y012600D01*
X058725Y012600D01*
D36*
X059350Y009350D02*
X073100Y009350D01*
X053725Y028100D02*
X054475Y028850D01*
X058600Y028850D01*
X060600Y028850D01*
X073350Y037100D02*
X075600Y037100D01*
X076100Y036600D01*
X076600Y040100D02*
X073100Y040100D01*
X073100Y041100D02*
X075600Y041100D01*
X076600Y040100D02*
X077100Y040600D01*
X077100Y045100D01*
X075029Y050246D02*
X075100Y050350D01*
X075100Y051350D02*
X075100Y051600D01*
X033100Y025100D02*
X029850Y025100D01*
X030100Y012600D02*
X027100Y012600D01*
X024100Y012600D01*
X021100Y012600D01*
X030100Y012600D02*
X032600Y012600D01*
X028913Y003350D02*
X024350Y003350D01*
X023600Y002600D01*
X028913Y003350D02*
X029600Y002663D01*
X029600Y002600D01*
D37*
X075100Y050350D02*
X075100Y051350D01*
X076850Y051350D01*
X043100Y053600D02*
X042850Y053725D01*
D38*
X036163Y053725D01*
X034413Y051975D01*
X031163Y051975D01*
X030600Y052538D01*
X028600Y052538D01*
X027475Y051288D01*
X027475Y049600D01*
X063913Y045475D02*
X072350Y045475D01*
X072350Y045100D01*
X072350Y043225D01*
X071850Y042725D01*
X072350Y045100D02*
X075100Y045100D01*
D39*
X043100Y051600D02*
X043100Y053600D01*
X021600Y040600D02*
X021100Y041100D01*
X019600Y041100D01*
X019600Y039850D01*
X018600Y038850D01*
X018600Y038100D01*
X018600Y036600D02*
X017850Y036600D01*
X017600Y036350D01*
X014850Y036350D01*
X014100Y037100D01*
X011850Y037100D01*
X011850Y039475D01*
X012600Y040225D01*
X012600Y041100D01*
D40*
X043100Y051600D02*
X044100Y051600D01*
X045100Y051600D01*
X046100Y051600D01*
X047100Y051600D01*
X048100Y051600D01*
X049100Y051600D01*
X050100Y051600D01*
X051100Y051600D01*
X052100Y051600D01*
X015100Y019100D02*
X013850Y019100D01*
X013350Y018600D01*
X013350Y017100D01*
X012600Y016350D01*
X012600Y015100D01*
X007100Y005600D02*
X006600Y005600D01*
X005350Y005600D01*
X007100Y005600D02*
X007600Y005100D01*
X008100Y005100D01*
D41*
X025600Y034600D03*
X031163Y039100D03*
X043100Y053600D03*
D42*
X039163Y012850D03*
X035413Y012350D03*
X040100Y009600D03*
D43*
X016600Y038100D02*
X016600Y040100D01*
X016100Y040600D01*
X016100Y043475D01*
X014600Y043475D02*
X014600Y042850D01*
X014100Y042350D01*
X014100Y039350D01*
X014600Y038850D01*
X014600Y038100D01*
X013100Y039350D02*
X013100Y043475D01*
X017600Y043475D02*
X017600Y041100D01*
X013100Y039350D02*
X012600Y038850D01*
X012600Y038100D01*
X016100Y047600D02*
X017100Y048600D01*
X022525Y048600D01*
M02*
