G75*
%MOIN*%
%OFA0B0*%
%FSLAX24Y24*%
%IPPOS*%
%LPD*%
%AMOC8*
5,1,8,0,0,1.08239X$1,22.5*
%
%ADD10C,0.0515*%
%ADD11C,0.0520*%
%ADD12C,0.0520*%
%ADD13OC8,0.0520*%
%ADD14C,0.0554*%
%ADD15OC8,0.0591*%
%ADD16C,0.0600*%
%ADD17OC8,0.0780*%
%ADD18C,0.0780*%
%ADD19C,0.0554*%
%ADD20OC8,0.0680*%
%ADD21C,0.0750*%
%ADD22OC8,0.0750*%
%ADD23OC8,0.0560*%
%ADD24C,0.0740*%
%ADD25C,0.1102*%
%ADD26C,0.0866*%
%ADD27C,0.0660*%
%ADD28C,0.1890*%
%ADD29OC8,0.0630*%
%ADD30C,0.0630*%
%ADD31C,0.0120*%
%ADD32C,0.0440*%
%ADD33C,0.1000*%
%ADD34C,0.1200*%
%ADD35C,0.0760*%
%ADD36C,0.0500*%
%ADD37C,0.0860*%
%ADD38C,0.0700*%
%ADD39C,0.0240*%
%ADD40C,0.0320*%
%ADD41C,0.0560*%
%ADD42C,0.0160*%
%ADD43C,0.0140*%
%ADD44C,0.0400*%
%ADD45C,0.0476*%
%ADD46C,0.0700*%
D10*
X020843Y004600D02*
X021357Y004600D01*
X021357Y005600D02*
X020843Y005600D01*
X020843Y006600D02*
X021357Y006600D01*
X021357Y007600D02*
X020843Y007600D01*
X020843Y008600D02*
X021357Y008600D01*
X021357Y009600D02*
X020843Y009600D01*
X020843Y010600D02*
X021357Y010600D01*
X021357Y011600D02*
X020843Y011600D01*
X020843Y012600D02*
X021357Y012600D01*
X023843Y012600D02*
X024357Y012600D01*
X024357Y011600D02*
X023843Y011600D01*
X023843Y010600D02*
X024357Y010600D01*
X024357Y009600D02*
X023843Y009600D01*
X023843Y008600D02*
X024357Y008600D01*
X024357Y007600D02*
X023843Y007600D01*
X023843Y006600D02*
X024357Y006600D01*
X024357Y005600D02*
X023843Y005600D01*
X023843Y004600D02*
X024357Y004600D01*
X026843Y004600D02*
X027357Y004600D01*
X027357Y005600D02*
X026843Y005600D01*
X026843Y006600D02*
X027357Y006600D01*
X027357Y007600D02*
X026843Y007600D01*
X026843Y008600D02*
X027357Y008600D01*
X027357Y009600D02*
X026843Y009600D01*
X026843Y010600D02*
X027357Y010600D01*
X027357Y011600D02*
X026843Y011600D01*
X026843Y012600D02*
X027357Y012600D01*
X029843Y012600D02*
X030357Y012600D01*
X030357Y011600D02*
X029843Y011600D01*
X029843Y010600D02*
X030357Y010600D01*
X030357Y009600D02*
X029843Y009600D01*
X029843Y008600D02*
X030357Y008600D01*
X030357Y007600D02*
X029843Y007600D01*
X029843Y006600D02*
X030357Y006600D01*
X030357Y005600D02*
X029843Y005600D01*
X029843Y004600D02*
X030357Y004600D01*
X032843Y020100D02*
X033357Y020100D01*
X033357Y021100D02*
X032843Y021100D01*
X032843Y022100D02*
X033357Y022100D01*
X033357Y023100D02*
X032843Y023100D01*
X032843Y024100D02*
X033357Y024100D01*
X033357Y025100D02*
X032843Y025100D01*
X032843Y026100D02*
X033357Y026100D01*
X033357Y027100D02*
X032843Y027100D01*
X032843Y028100D02*
X033357Y028100D01*
X033357Y029100D02*
X032843Y029100D01*
X032843Y030100D02*
X033357Y030100D01*
X033357Y031100D02*
X032843Y031100D01*
X032843Y032100D02*
X033357Y032100D01*
X033357Y033100D02*
X032843Y033100D01*
X032843Y034100D02*
X033357Y034100D01*
X033357Y035100D02*
X032843Y035100D01*
X032843Y036100D02*
X033357Y036100D01*
X033357Y037100D02*
X032843Y037100D01*
X032843Y038100D02*
X033357Y038100D01*
X033357Y039100D02*
X032843Y039100D01*
X027357Y039100D02*
X026843Y039100D01*
X026843Y038100D02*
X027357Y038100D01*
X027357Y037100D02*
X026843Y037100D01*
X026843Y036100D02*
X027357Y036100D01*
X027357Y035100D02*
X026843Y035100D01*
X026843Y034100D02*
X027357Y034100D01*
X027357Y033100D02*
X026843Y033100D01*
X026843Y032100D02*
X027357Y032100D01*
X027357Y031100D02*
X026843Y031100D01*
X026843Y030100D02*
X027357Y030100D01*
X027357Y029100D02*
X026843Y029100D01*
X026843Y028100D02*
X027357Y028100D01*
X027357Y027100D02*
X026843Y027100D01*
X026843Y026100D02*
X027357Y026100D01*
X027357Y025100D02*
X026843Y025100D01*
X026843Y024100D02*
X027357Y024100D01*
X027357Y023100D02*
X026843Y023100D01*
X026843Y022100D02*
X027357Y022100D01*
X027357Y021100D02*
X026843Y021100D01*
X026843Y020100D02*
X027357Y020100D01*
X059600Y011357D02*
X059600Y010843D01*
X060600Y010843D02*
X060600Y011357D01*
X061600Y011357D02*
X061600Y010843D01*
X062600Y010843D02*
X062600Y011357D01*
X063600Y011357D02*
X063600Y010843D01*
X064600Y010843D02*
X064600Y011357D01*
X065600Y011357D02*
X065600Y010843D01*
X066600Y010843D02*
X066600Y011357D01*
X067600Y011357D02*
X067600Y010843D01*
X068600Y010843D02*
X068600Y011357D01*
X069600Y011357D02*
X069600Y010843D01*
X070600Y010843D02*
X070600Y011357D01*
X071600Y011357D02*
X071600Y010843D01*
X072600Y010843D02*
X072600Y011357D01*
X073600Y011357D02*
X073600Y010843D01*
X074600Y010843D02*
X074600Y011357D01*
X075600Y011357D02*
X075600Y010843D01*
X076600Y010843D02*
X076600Y011357D01*
X077600Y011357D02*
X077600Y010843D01*
X078600Y010843D02*
X078600Y011357D01*
X078600Y005357D02*
X078600Y004843D01*
X077600Y004843D02*
X077600Y005357D01*
X076600Y005357D02*
X076600Y004843D01*
X075600Y004843D02*
X075600Y005357D01*
X074600Y005357D02*
X074600Y004843D01*
X073600Y004843D02*
X073600Y005357D01*
X072600Y005357D02*
X072600Y004843D01*
X071600Y004843D02*
X071600Y005357D01*
X070600Y005357D02*
X070600Y004843D01*
X069600Y004843D02*
X069600Y005357D01*
X068600Y005357D02*
X068600Y004843D01*
X067600Y004843D02*
X067600Y005357D01*
X066600Y005357D02*
X066600Y004843D01*
X065600Y004843D02*
X065600Y005357D01*
X064600Y005357D02*
X064600Y004843D01*
X063600Y004843D02*
X063600Y005357D01*
X062600Y005357D02*
X062600Y004843D01*
X061600Y004843D02*
X061600Y005357D01*
X060600Y005357D02*
X060600Y004843D01*
X059600Y004843D02*
X059600Y005357D01*
X063600Y025093D02*
X063600Y025607D01*
X064600Y025607D02*
X064600Y025093D01*
X065600Y025093D02*
X065600Y025607D01*
X066600Y025607D02*
X066600Y025093D01*
X067600Y025093D02*
X067600Y025607D01*
X068600Y025607D02*
X068600Y025093D01*
X069600Y025093D02*
X069600Y025607D01*
X070600Y025607D02*
X070600Y025093D01*
X071600Y025093D02*
X071600Y025607D01*
X072600Y025607D02*
X072600Y025093D01*
X073600Y025093D02*
X073600Y025607D01*
X074600Y025607D02*
X074600Y025093D01*
X075600Y025093D02*
X075600Y025607D01*
X076600Y025607D02*
X076600Y025093D01*
X076600Y031093D02*
X076600Y031607D01*
X075600Y031607D02*
X075600Y031093D01*
X074600Y031093D02*
X074600Y031607D01*
X073600Y031607D02*
X073600Y031093D01*
X072600Y031093D02*
X072600Y031607D01*
X071600Y031607D02*
X071600Y031093D01*
X070600Y031093D02*
X070600Y031607D01*
X069600Y031607D02*
X069600Y031093D01*
X068600Y031093D02*
X068600Y031607D01*
X067600Y031607D02*
X067600Y031093D01*
X066600Y031093D02*
X066600Y031607D01*
X065600Y031607D02*
X065600Y031093D01*
X064600Y031093D02*
X064600Y031607D01*
X063600Y031607D02*
X063600Y031093D01*
D11*
X061100Y030860D02*
X061100Y030340D01*
X060100Y030340D02*
X060100Y030860D01*
X059100Y030860D02*
X059100Y030340D01*
X058100Y030340D02*
X058100Y030860D01*
X057100Y030860D02*
X057100Y030340D01*
X056100Y030340D02*
X056100Y030860D01*
X055100Y030860D02*
X055100Y030340D01*
X055100Y027860D02*
X055100Y027340D01*
X056100Y027340D02*
X056100Y027860D01*
X057100Y027860D02*
X057100Y027340D01*
X058100Y027340D02*
X058100Y027860D01*
X059100Y027860D02*
X059100Y027340D01*
X060100Y027340D02*
X060100Y027860D01*
X061100Y027860D02*
X061100Y027340D01*
X060600Y020860D02*
X060600Y020340D01*
X059600Y020340D02*
X059600Y020860D01*
X061600Y020860D02*
X061600Y020340D01*
X062600Y020340D02*
X062600Y020860D01*
X063600Y020860D02*
X063600Y020340D01*
X064600Y020340D02*
X064600Y020860D01*
X065600Y020860D02*
X065600Y020340D01*
X066600Y020340D02*
X066600Y020860D01*
X067600Y020860D02*
X067600Y020340D01*
X068600Y020340D02*
X068600Y020860D01*
X069600Y020860D02*
X069600Y020340D01*
X070600Y020340D02*
X070600Y020860D01*
X071600Y020860D02*
X071600Y020340D01*
X072600Y020340D02*
X072600Y020860D01*
X073600Y020860D02*
X073600Y020340D01*
X074600Y020340D02*
X074600Y020860D01*
X075600Y020860D02*
X075600Y020340D01*
X076600Y020340D02*
X076600Y020860D01*
X077600Y020860D02*
X077600Y020340D01*
X078600Y020340D02*
X078600Y020860D01*
X078600Y014860D02*
X078600Y014340D01*
X077600Y014340D02*
X077600Y014860D01*
X076600Y014860D02*
X076600Y014340D01*
X075600Y014340D02*
X075600Y014860D01*
X074600Y014860D02*
X074600Y014340D01*
X073600Y014340D02*
X073600Y014860D01*
X072600Y014860D02*
X072600Y014340D01*
X071600Y014340D02*
X071600Y014860D01*
X070600Y014860D02*
X070600Y014340D01*
X069600Y014340D02*
X069600Y014860D01*
X068600Y014860D02*
X068600Y014340D01*
X067600Y014340D02*
X067600Y014860D01*
X066600Y014860D02*
X066600Y014340D01*
X066673Y013413D02*
X066153Y013413D01*
X065600Y014340D02*
X065600Y014860D01*
X064600Y014860D02*
X064600Y014340D01*
X063600Y014340D02*
X063600Y014860D01*
X062600Y014860D02*
X062600Y014340D01*
X061600Y014340D02*
X061600Y014860D01*
X060600Y014860D02*
X060600Y014340D01*
X059600Y014340D02*
X059600Y014860D01*
X063153Y013413D02*
X063673Y013413D01*
X029600Y014840D02*
X029600Y015360D01*
X028600Y015360D02*
X028600Y014840D01*
X027600Y014840D02*
X027600Y015360D01*
X026600Y015360D02*
X026600Y014840D01*
X025600Y014840D02*
X025600Y015360D01*
X024600Y015360D02*
X024600Y014840D01*
X023600Y014840D02*
X023600Y015360D01*
X022600Y015360D02*
X022600Y014840D01*
X021100Y014840D02*
X021100Y015360D01*
X020100Y015360D02*
X020100Y014840D01*
X019100Y014840D02*
X019100Y015360D01*
X018100Y015360D02*
X018100Y014840D01*
X017100Y014840D02*
X017100Y015360D01*
X016100Y015360D02*
X016100Y014840D01*
X015100Y014840D02*
X015100Y015360D01*
X014100Y015360D02*
X014100Y014840D01*
X012600Y014840D02*
X012600Y015360D01*
X011600Y015360D02*
X011600Y014840D01*
X010600Y014840D02*
X010600Y015360D01*
X009600Y015360D02*
X009600Y014840D01*
X008600Y014840D02*
X008600Y015360D01*
X007600Y015360D02*
X007600Y014840D01*
X006600Y014840D02*
X006600Y015360D01*
X006600Y017840D02*
X006600Y018360D01*
X007600Y018360D02*
X007600Y017840D01*
X008600Y017840D02*
X008600Y018360D01*
X009600Y018360D02*
X009600Y017840D01*
X010600Y017840D02*
X010600Y018360D01*
X011600Y018360D02*
X011600Y017840D01*
X012600Y017840D02*
X012600Y018360D01*
X014100Y018360D02*
X014100Y017840D01*
X015100Y017840D02*
X015100Y018360D01*
X016100Y018360D02*
X016100Y017840D01*
X017100Y017840D02*
X017100Y018360D01*
X018100Y018360D02*
X018100Y017840D01*
X019100Y017840D02*
X019100Y018360D01*
X020100Y018360D02*
X020100Y017840D01*
X021100Y017840D02*
X021100Y018360D01*
X022600Y018360D02*
X022600Y017840D01*
X023600Y017840D02*
X023600Y018360D01*
X024600Y018360D02*
X024600Y017840D01*
X025600Y017840D02*
X025600Y018360D01*
X026600Y018360D02*
X026600Y017840D01*
X027600Y017840D02*
X027600Y018360D01*
X028600Y018360D02*
X028600Y017840D01*
X029600Y017840D02*
X029600Y018360D01*
X011100Y008360D02*
X011100Y007840D01*
X010100Y007840D02*
X010100Y008360D01*
X009100Y008360D02*
X009100Y007840D01*
X008100Y007840D02*
X008100Y008360D01*
X008100Y005360D02*
X008100Y004840D01*
X009100Y004840D02*
X009100Y005360D01*
X010100Y005360D02*
X010100Y004840D01*
X011100Y004840D02*
X011100Y005360D01*
X012600Y037840D02*
X012600Y038360D01*
X013600Y038360D02*
X013600Y037840D01*
X014600Y037840D02*
X014600Y038360D01*
X015600Y038360D02*
X015600Y037840D01*
X016600Y037840D02*
X016600Y038360D01*
X017600Y038360D02*
X017600Y037840D01*
X018600Y037840D02*
X018600Y038360D01*
X019600Y038360D02*
X019600Y037840D01*
X019600Y040840D02*
X019600Y041360D01*
X018600Y041360D02*
X018600Y040840D01*
X017600Y040840D02*
X017600Y041360D01*
X016600Y041360D02*
X016600Y040840D01*
X015600Y040840D02*
X015600Y041360D01*
X014600Y041360D02*
X014600Y040840D01*
X013600Y040840D02*
X013600Y041360D01*
X012600Y041360D02*
X012600Y040840D01*
D12*
X004225Y017050D03*
X004225Y015150D03*
D13*
X006600Y013350D03*
X007600Y013350D03*
X008600Y013350D03*
X009600Y013350D03*
X010600Y013350D03*
X011600Y013350D03*
X011600Y012100D03*
X010600Y012100D03*
X009100Y012100D03*
X007100Y012100D03*
X008100Y009600D03*
X009100Y009600D03*
X010100Y009600D03*
X011100Y009600D03*
X012600Y009600D03*
X014600Y009600D03*
X014600Y008100D03*
X012600Y008100D03*
X013038Y004913D03*
X013538Y004163D03*
X012538Y004163D03*
X006600Y005600D03*
X005350Y005600D03*
X005350Y007600D03*
X006600Y007600D03*
X021600Y002600D03*
X023600Y002600D03*
X027600Y002600D03*
X029600Y002600D03*
X039100Y007600D03*
X039100Y009600D03*
X041100Y005350D03*
X042100Y005350D03*
X061600Y022100D03*
X061600Y024100D03*
X053100Y028100D03*
X053100Y030100D03*
X075100Y043100D03*
X075100Y045100D03*
X078600Y043600D03*
X078600Y042600D03*
X078600Y027350D03*
X078600Y025350D03*
X075100Y013100D03*
X073100Y013100D03*
X076225Y003100D03*
X078225Y003100D03*
X021600Y038600D03*
X021600Y040600D03*
X026273Y043850D03*
X027273Y043850D03*
X020600Y036600D03*
X020600Y035100D03*
X018600Y035100D03*
X018600Y036600D03*
X016100Y033850D03*
X014100Y033850D03*
X010100Y034600D03*
X010100Y035600D03*
X008475Y036475D03*
X006475Y036475D03*
X006725Y041100D03*
X004725Y041100D03*
X009975Y048850D03*
X009475Y049600D03*
X010475Y049600D03*
X038100Y046100D03*
X038600Y046850D03*
X039100Y046100D03*
X012100Y028475D03*
X011350Y027975D03*
X012100Y027475D03*
X008100Y027100D03*
X008100Y025725D03*
X006100Y025725D03*
X005100Y027100D03*
X006100Y028350D03*
X008100Y028350D03*
D14*
X044100Y011377D02*
X044100Y010823D01*
X045100Y010823D02*
X045100Y011377D01*
X046100Y011377D02*
X046100Y010823D01*
X047100Y010823D02*
X047100Y011377D01*
X048100Y011377D02*
X048100Y010823D01*
X049100Y010823D02*
X049100Y011377D01*
X050100Y011377D02*
X050100Y010823D01*
X051100Y010823D02*
X051100Y011377D01*
X052100Y011377D02*
X052100Y010823D01*
X053100Y010823D02*
X053100Y011377D01*
X054100Y011377D02*
X054100Y010823D01*
X055100Y010823D02*
X055100Y011377D01*
X056100Y011377D02*
X056100Y010823D01*
X057100Y010823D02*
X057100Y011377D01*
X057100Y005377D02*
X057100Y004823D01*
X056100Y004823D02*
X056100Y005377D01*
X055100Y005377D02*
X055100Y004823D01*
X054100Y004823D02*
X054100Y005377D01*
X053100Y005377D02*
X053100Y004823D01*
X052100Y004823D02*
X052100Y005377D01*
X051100Y005377D02*
X051100Y004823D01*
X050100Y004823D02*
X050100Y005377D01*
X049100Y005377D02*
X049100Y004823D01*
X048100Y004823D02*
X048100Y005377D01*
X047100Y005377D02*
X047100Y004823D01*
X046100Y004823D02*
X046100Y005377D01*
X045100Y005377D02*
X045100Y004823D01*
X044100Y004823D02*
X044100Y005377D01*
D15*
X042100Y006350D03*
X040850Y006350D03*
X040850Y010350D03*
X042100Y010350D03*
X014975Y005038D03*
X013038Y002850D03*
X014975Y001038D03*
X009038Y002850D03*
X014100Y029225D03*
X014100Y030850D03*
X014100Y032350D03*
X012100Y033850D03*
X010975Y033850D03*
X013600Y036350D03*
X017600Y036350D03*
X022100Y036600D03*
X022100Y032600D03*
X018100Y032350D03*
X018100Y030850D03*
X018100Y029225D03*
X012100Y029850D03*
X010975Y029850D03*
X009100Y029850D03*
X005100Y029850D03*
X005100Y034600D03*
X003975Y034600D03*
X002850Y034600D03*
X002850Y038600D03*
X003975Y038600D03*
X005100Y038600D03*
X013100Y043475D03*
X014600Y043475D03*
X016100Y043475D03*
X017600Y043475D03*
X017600Y047475D03*
X016100Y047475D03*
X014600Y047475D03*
X013100Y047475D03*
X008600Y052100D03*
X004600Y052100D03*
X034600Y044100D03*
X038600Y044100D03*
X052100Y035725D03*
X056100Y035725D03*
X055350Y044975D03*
X056850Y044975D03*
X056850Y048975D03*
X055350Y048975D03*
X076475Y013100D03*
X080475Y013100D03*
D16*
X051650Y028100D02*
X051050Y028100D01*
X051050Y029100D02*
X051650Y029100D01*
X051650Y030100D02*
X051050Y030100D01*
X039277Y041828D02*
X039277Y042428D01*
X038277Y042428D02*
X038277Y041828D01*
X037277Y041828D02*
X037277Y042428D01*
X036277Y042428D02*
X036277Y041828D01*
X035277Y041828D02*
X035277Y042428D01*
X034277Y042428D02*
X034277Y041828D01*
X033277Y041828D02*
X033277Y042428D01*
X032277Y042428D02*
X032277Y041828D01*
X031277Y041828D02*
X031277Y042428D01*
X030277Y042428D02*
X030277Y041828D01*
X029277Y041828D02*
X029277Y042428D01*
X028277Y042428D02*
X028277Y041828D01*
X027277Y041828D02*
X027277Y042428D01*
X026277Y042428D02*
X026277Y041828D01*
X008150Y042600D02*
X007550Y042600D01*
X005150Y042600D02*
X004550Y042600D01*
X004550Y044600D02*
X005150Y044600D01*
X005150Y046600D02*
X004550Y046600D01*
X007550Y046600D02*
X008150Y046600D01*
X008150Y044600D02*
X007550Y044600D01*
X007550Y049600D02*
X008150Y049600D01*
X005150Y049600D02*
X004550Y049600D01*
D17*
X029773Y047340D03*
X030773Y046340D03*
X031773Y047340D03*
X032773Y046340D03*
X033773Y047340D03*
X034773Y046340D03*
X035773Y047340D03*
D18*
X033773Y053340D03*
X031773Y053340D03*
D19*
X007850Y050850D03*
X004850Y050850D03*
X004600Y033600D03*
X003475Y033600D03*
X003475Y030600D03*
X004600Y030600D03*
D20*
X006100Y031600D03*
X006100Y032600D03*
X006100Y033600D03*
X006100Y034600D03*
X009100Y034600D03*
X009100Y033600D03*
X009100Y032600D03*
X009100Y031600D03*
D21*
X036600Y007600D03*
D22*
X036600Y009600D03*
D23*
X043100Y050600D03*
X043100Y051600D03*
X044100Y051600D03*
X044100Y050600D03*
X045100Y050600D03*
X045100Y051600D03*
X046100Y051600D03*
X046100Y050600D03*
X047100Y050600D03*
X047100Y051600D03*
X048100Y051600D03*
X048100Y050600D03*
X049100Y050600D03*
X049100Y051600D03*
X050100Y051600D03*
X050100Y050600D03*
X051100Y050600D03*
X051100Y051600D03*
X052100Y051600D03*
X052100Y050600D03*
X056600Y050600D03*
X056600Y051600D03*
X057600Y051600D03*
X057600Y050600D03*
X058600Y050600D03*
X058600Y051600D03*
X059600Y051600D03*
X059600Y050600D03*
X060600Y050600D03*
X060600Y051600D03*
X061600Y051600D03*
X061600Y050600D03*
X062600Y050600D03*
X062600Y051600D03*
X063600Y051600D03*
X063600Y050600D03*
X064600Y050600D03*
X064600Y051600D03*
X065600Y051600D03*
X065600Y050600D03*
X066600Y050600D03*
X066600Y051600D03*
X067600Y051600D03*
X067600Y050600D03*
X068600Y050600D03*
X068600Y051600D03*
X069600Y051600D03*
X069600Y050600D03*
X070600Y050600D03*
X070600Y051600D03*
X071600Y051600D03*
X071600Y050600D03*
X072600Y050600D03*
X072600Y051600D03*
D24*
X075820Y040990D03*
X075820Y039210D03*
X078380Y039210D03*
X078380Y040990D03*
D25*
X027506Y047557D03*
X026521Y048541D03*
X027506Y049525D03*
X024553Y049525D03*
X022584Y048541D03*
X021600Y049525D03*
X021600Y047557D03*
X024553Y047557D03*
D26*
X025537Y053423D03*
X023569Y053423D03*
D27*
X063913Y045475D02*
X063913Y032913D01*
X072770Y040100D02*
X073430Y040100D01*
X073430Y041100D02*
X072770Y041100D01*
X072770Y042100D02*
X073430Y042100D01*
X006600Y019100D02*
X001100Y019100D01*
D28*
X075029Y050246D03*
X076880Y051387D03*
X076880Y049065D03*
D29*
X076100Y035600D03*
D30*
X076100Y036600D03*
D31*
X074350Y035600D02*
X074350Y042100D01*
X076350Y041913D02*
X077350Y040913D01*
X077350Y029475D01*
X076100Y030100D02*
X075600Y030600D01*
X075600Y031350D01*
X075600Y034350D01*
X074350Y035600D01*
X073600Y034163D02*
X071100Y036663D01*
X071100Y043538D01*
X071413Y043850D01*
X071413Y044475D01*
X070850Y045600D02*
X071100Y045850D01*
X071100Y051100D01*
X071600Y051600D01*
X071100Y052100D02*
X072850Y052100D01*
X073350Y051600D01*
X073350Y045100D01*
X074350Y044100D01*
X075038Y044100D02*
X073600Y045538D01*
X073600Y051850D01*
X073100Y052350D01*
X069600Y052350D01*
X069475Y052475D01*
X060225Y052475D01*
X059850Y052850D01*
X042350Y052850D01*
X040100Y050600D01*
X040100Y038600D01*
X039600Y038350D02*
X039850Y038100D01*
X039850Y021100D01*
X039975Y020975D01*
X039975Y013600D01*
X042600Y010850D01*
X042600Y009913D01*
X046600Y005913D01*
X047600Y005913D01*
X048600Y006600D02*
X048600Y004350D01*
X049350Y003600D01*
X049600Y004100D02*
X049600Y041600D01*
X045600Y043100D02*
X045600Y013975D01*
X046600Y015100D02*
X046600Y035100D01*
X047600Y034600D02*
X047600Y014600D01*
X050600Y012600D02*
X050600Y027350D01*
X050350Y027600D01*
X050350Y030600D01*
X050850Y031100D01*
X050850Y049600D01*
X051100Y049850D01*
X051100Y050600D01*
X050100Y050600D02*
X050100Y011100D01*
X050100Y010350D01*
X050600Y009850D01*
X050600Y003850D01*
X050600Y003100D02*
X051850Y003100D01*
X052100Y003350D01*
X052100Y005100D01*
X053100Y005100D02*
X053100Y005850D01*
X053350Y006100D01*
X053350Y009725D01*
X053600Y010350D02*
X053600Y011725D01*
X052100Y013225D01*
X052100Y017725D01*
X054225Y017975D02*
X054725Y017475D01*
X054725Y015100D01*
X054600Y014975D01*
X054600Y010350D01*
X055100Y009850D01*
X055100Y005100D01*
X054600Y004600D02*
X054600Y009850D01*
X054100Y010350D01*
X054100Y011100D01*
X053600Y010350D02*
X054100Y009850D01*
X054100Y005100D01*
X054600Y004600D02*
X055850Y003350D01*
X057100Y002850D02*
X058850Y004600D01*
X058850Y006100D01*
X058475Y006475D01*
X058475Y008100D01*
X057975Y008850D02*
X057975Y006225D01*
X058350Y005850D01*
X058350Y005350D01*
X057100Y005100D02*
X057100Y007975D01*
X056350Y008725D01*
X056100Y007850D02*
X056100Y005100D01*
X058163Y002663D02*
X060100Y004600D01*
X060100Y009975D01*
X060100Y017850D01*
X059600Y018350D01*
X059600Y020600D01*
X060600Y020600D02*
X060600Y019225D01*
X061100Y017850D02*
X061100Y012288D01*
X061100Y008100D01*
X062100Y008100D02*
X062100Y013725D01*
X062600Y013975D02*
X062600Y014600D01*
X062600Y017225D01*
X063600Y017600D02*
X063600Y016350D01*
X064600Y015350D01*
X064600Y014600D01*
X065100Y013475D02*
X065100Y016538D01*
X065975Y017413D01*
X067100Y017038D02*
X067100Y013975D01*
X067600Y013475D01*
X067600Y011100D01*
X066600Y011100D02*
X066600Y011975D01*
X065100Y013475D01*
X063413Y013413D02*
X063163Y013413D01*
X062600Y013975D01*
X061600Y013225D02*
X061600Y011100D01*
X062600Y011100D02*
X062600Y012725D01*
X063600Y011850D02*
X063600Y011100D01*
X063600Y010350D01*
X063100Y009850D01*
X063100Y004600D01*
X061600Y003100D01*
X059975Y003100D01*
X059413Y002538D01*
X060413Y002538D02*
X062163Y002538D01*
X064100Y004475D01*
X064100Y005600D01*
X064600Y006100D01*
X064600Y009788D01*
X064663Y009850D01*
X069475Y009850D01*
X070100Y010475D01*
X070100Y013350D01*
X070600Y013850D01*
X070600Y014600D01*
X070600Y017225D01*
X070100Y017350D02*
X070100Y013850D01*
X069600Y013350D01*
X069600Y011100D01*
X069100Y010475D02*
X068850Y010225D01*
X068100Y010225D01*
X068100Y017350D01*
X068350Y017600D01*
X067600Y017538D02*
X067100Y017038D01*
X069100Y017350D02*
X069100Y014100D01*
X068600Y013600D01*
X068600Y011100D01*
X069100Y010475D02*
X069100Y013350D01*
X069600Y013850D01*
X069600Y014600D01*
X071600Y014600D02*
X071600Y016100D01*
X071600Y017225D01*
X071100Y017850D02*
X071100Y012350D01*
X070600Y011850D01*
X070600Y011100D01*
X071600Y011100D02*
X071600Y011850D01*
X072100Y012350D01*
X072100Y017850D01*
X073100Y017725D02*
X073100Y014100D01*
X072600Y013600D01*
X072600Y011100D01*
X073600Y011100D02*
X073600Y011850D01*
X074100Y012350D01*
X074100Y017600D01*
X074600Y016850D02*
X076100Y018350D01*
X078413Y018350D01*
X078163Y017663D02*
X078600Y017225D01*
X078600Y014600D01*
X077600Y014600D02*
X077600Y016350D01*
X077225Y016725D01*
X076100Y016100D02*
X076100Y013975D01*
X076475Y013600D01*
X076475Y013100D01*
X075100Y013100D01*
X075100Y012350D01*
X075600Y011850D01*
X075600Y011100D01*
X075600Y014600D02*
X075600Y017225D01*
X074600Y016850D02*
X074600Y014600D01*
X072600Y014600D02*
X072600Y016225D01*
X070100Y017350D02*
X069850Y017600D01*
X070225Y019413D02*
X070600Y019413D01*
X071100Y019913D01*
X071100Y023600D01*
X070100Y024600D01*
X070100Y029850D01*
X070600Y030350D01*
X070600Y031350D01*
X070600Y032475D01*
X070350Y032725D01*
X070350Y046100D01*
X070600Y046350D01*
X070600Y048600D01*
X069850Y049350D01*
X069350Y049850D02*
X069350Y045350D01*
X069600Y045100D01*
X069600Y031350D01*
X069600Y030600D01*
X069100Y030100D01*
X069100Y019850D01*
X068663Y019413D01*
X068350Y019413D01*
X067100Y019600D02*
X066850Y019350D01*
X063600Y019350D01*
X063413Y019163D01*
X062788Y019163D01*
X062100Y019850D01*
X062100Y021225D01*
X062225Y021350D01*
X062225Y023100D01*
X061100Y023100D01*
X060350Y023850D01*
X060350Y025475D01*
X061850Y026350D02*
X061850Y031850D01*
X061475Y032225D01*
X061475Y034475D01*
X061600Y034600D01*
X061600Y036725D01*
X062100Y037225D01*
X062100Y051100D01*
X062600Y051600D01*
X063100Y051100D02*
X063600Y051600D01*
X064100Y051350D02*
X064100Y051850D01*
X064350Y052100D01*
X064850Y052100D01*
X065100Y051850D01*
X065100Y034475D01*
X065600Y033850D02*
X065100Y033350D01*
X065100Y026600D01*
X065600Y026100D01*
X065600Y025350D01*
X065600Y022600D01*
X065100Y021975D02*
X065100Y026100D01*
X064600Y026600D01*
X064600Y031350D01*
X064100Y032100D02*
X064600Y032600D01*
X064600Y049850D01*
X064100Y050350D01*
X064100Y050850D01*
X064600Y051350D01*
X064600Y051600D01*
X064100Y051350D02*
X063600Y050850D01*
X063600Y050600D01*
X063225Y050163D02*
X063100Y050288D01*
X063100Y051100D01*
X062600Y050600D02*
X062600Y037100D01*
X062100Y036600D01*
X062100Y035100D01*
X061100Y035225D02*
X061100Y031850D01*
X059725Y031600D02*
X059725Y034725D01*
X060600Y035600D01*
X060600Y050600D01*
X060100Y051100D02*
X060100Y040100D01*
X056975Y037850D02*
X056975Y035600D01*
X056600Y035225D01*
X056600Y020100D01*
X056100Y019850D02*
X056100Y025600D01*
X055600Y025100D02*
X054600Y026100D01*
X054600Y035600D01*
X054850Y035850D01*
X054850Y040600D01*
X055725Y042100D02*
X056975Y043350D01*
X057600Y044225D02*
X056100Y044225D01*
X055350Y044975D01*
X057600Y044225D02*
X057600Y028850D01*
X058100Y028350D01*
X058100Y027600D01*
X056100Y027600D02*
X055600Y027600D01*
X055100Y027600D01*
X055600Y027600D02*
X055600Y031100D01*
X055350Y031350D01*
X055350Y036600D01*
X054350Y036100D02*
X054350Y025850D01*
X055100Y025100D01*
X055100Y019600D01*
X054100Y019600D02*
X054100Y025100D01*
X053850Y025350D01*
X053850Y035350D01*
X053600Y035600D01*
X053600Y050100D01*
X055850Y052350D01*
X057600Y052350D01*
X058100Y051850D01*
X058100Y051350D01*
X058350Y051100D01*
X059100Y051100D01*
X059100Y047225D01*
X058850Y046975D01*
X061600Y047600D02*
X061600Y037475D01*
X061100Y035225D02*
X061100Y051100D01*
X061600Y051600D01*
X060600Y051600D02*
X060100Y051100D01*
X059600Y051600D02*
X059100Y051100D01*
X059600Y050600D02*
X059600Y035100D01*
X058100Y033600D01*
X058100Y036225D02*
X058100Y050100D01*
X057600Y050600D01*
X057100Y050350D02*
X057100Y051100D01*
X056600Y051600D01*
X056100Y052100D02*
X053850Y049850D01*
X053850Y035850D01*
X054100Y035600D01*
X054100Y025600D01*
X054600Y025100D01*
X054600Y020600D01*
X056100Y019850D02*
X056600Y019350D01*
X056600Y009725D01*
X056850Y009600D01*
X057600Y009225D02*
X057975Y008850D01*
X057600Y009225D02*
X057600Y010350D01*
X057725Y010475D01*
X057725Y011725D01*
X057350Y012100D01*
X057350Y014725D01*
X057600Y014975D01*
X057600Y022350D01*
X057100Y022850D01*
X055600Y025100D02*
X055600Y010100D01*
X057100Y011100D02*
X057100Y015975D01*
X057850Y014100D02*
X057850Y012100D01*
X058100Y011850D01*
X058100Y009475D01*
X059600Y011100D02*
X059600Y012475D01*
X063600Y011850D02*
X063850Y012100D01*
X065850Y012100D01*
X066100Y011850D01*
X066100Y010475D01*
X066350Y010225D01*
X068100Y010225D01*
X067413Y008038D02*
X069600Y005850D01*
X069600Y005100D01*
X070600Y005100D02*
X070600Y004350D01*
X069600Y003350D01*
X071600Y005100D02*
X071600Y005850D01*
X069725Y007850D01*
X069413Y008163D01*
X064600Y009788D02*
X064600Y011100D01*
X053975Y013725D02*
X052600Y015100D01*
X052600Y050100D01*
X052100Y050600D01*
X053100Y049850D02*
X053100Y035600D01*
X053600Y035100D01*
X053600Y015975D01*
X054100Y015475D01*
X051100Y012100D02*
X050600Y012600D01*
X051100Y012100D02*
X051100Y011100D01*
X051100Y010350D01*
X051600Y009850D01*
X051600Y003600D01*
X050600Y003100D02*
X049600Y004100D01*
X050100Y005100D02*
X050100Y009350D01*
X048600Y009975D02*
X048600Y051850D01*
X048225Y052225D01*
X043850Y052225D01*
X043600Y051975D01*
X043600Y051100D01*
X043100Y050600D01*
X042100Y051600D02*
X043100Y052600D01*
X057850Y052600D01*
X058100Y052350D01*
X059100Y052350D01*
X057600Y051600D02*
X057100Y052100D01*
X056100Y052100D01*
X056600Y050600D02*
X055100Y050600D01*
X054350Y049850D01*
X054350Y037600D01*
X055725Y037475D02*
X055725Y042100D01*
X057600Y044225D02*
X057600Y049850D01*
X057100Y050350D01*
X063225Y050163D02*
X063225Y033225D01*
X062975Y032975D01*
X062975Y031850D01*
X063100Y031725D01*
X063100Y028100D01*
X063600Y027600D01*
X063600Y025350D01*
X063600Y023600D01*
X062975Y023225D02*
X062975Y026350D01*
X062600Y026725D01*
X062600Y033600D01*
X061975Y033100D02*
X062225Y032850D01*
X062225Y026475D01*
X062600Y026100D01*
X062600Y023100D01*
X063100Y022600D01*
X063100Y019600D01*
X064725Y021475D02*
X065475Y021475D01*
X065600Y021350D01*
X065600Y020600D01*
X066600Y020600D02*
X066600Y021350D01*
X066100Y021850D01*
X066100Y027350D01*
X066600Y027850D01*
X066600Y031350D01*
X066600Y038475D01*
X068350Y037850D02*
X067100Y036600D01*
X067100Y030600D01*
X068100Y029600D01*
X068100Y024600D01*
X067600Y023975D02*
X067600Y025350D01*
X066600Y025350D02*
X066600Y022600D01*
X067100Y022100D01*
X067100Y019600D01*
X067600Y020600D02*
X067600Y023100D01*
X067100Y023600D01*
X067100Y027100D01*
X065850Y028350D02*
X065600Y028600D01*
X065600Y031350D01*
X064100Y032100D02*
X064100Y026600D01*
X064600Y026100D01*
X064600Y025350D01*
X064600Y023100D01*
X062975Y023225D02*
X064725Y021475D01*
X062225Y023100D02*
X062225Y025975D01*
X061850Y026350D01*
X067600Y031350D02*
X067600Y035100D01*
X068100Y034475D02*
X068100Y032600D01*
X068600Y032100D01*
X068600Y031350D01*
X069100Y032600D02*
X069100Y049350D01*
X068600Y049850D01*
X068600Y050600D01*
X068350Y051100D02*
X068100Y050850D01*
X068100Y048850D01*
X068850Y048100D01*
X068850Y036225D01*
X068600Y035975D01*
X068350Y036975D02*
X068600Y037225D01*
X068600Y046225D01*
X068350Y046475D01*
X067850Y047100D02*
X067850Y044975D01*
X068350Y044475D01*
X068350Y037850D01*
X071850Y035100D02*
X073100Y033850D01*
X073100Y029100D01*
X073600Y028600D01*
X073600Y025350D01*
X073600Y022100D01*
X074100Y022100D02*
X074100Y037725D01*
X073350Y038475D01*
X070850Y034600D02*
X071600Y033850D01*
X072100Y033350D01*
X072100Y026600D01*
X071600Y026100D01*
X071600Y025350D01*
X071100Y026225D02*
X071100Y024225D01*
X072100Y023225D01*
X072100Y019850D01*
X071600Y019350D01*
X071600Y020600D02*
X071600Y022600D01*
X070600Y023100D02*
X070600Y020600D01*
X069600Y020600D02*
X069600Y023600D01*
X070100Y024100D02*
X070100Y021475D01*
X074100Y022100D02*
X074600Y021600D01*
X074600Y020600D01*
X077600Y020600D02*
X077600Y023350D01*
X076100Y024850D01*
X076100Y030100D01*
X074600Y031350D02*
X074600Y027350D01*
X075600Y026350D01*
X071600Y026725D02*
X071100Y026225D01*
X071600Y026725D02*
X071600Y031350D01*
X071600Y032100D01*
X070600Y033100D01*
X070600Y045850D01*
X070850Y046100D01*
X070850Y049600D01*
X070100Y050350D01*
X070100Y050850D01*
X069850Y051100D01*
X069350Y051100D01*
X069100Y051350D01*
X069100Y051850D01*
X068850Y052100D01*
X066100Y052100D01*
X065600Y051600D01*
X066100Y051100D02*
X066100Y049100D01*
X067350Y050350D02*
X067600Y050600D01*
X067350Y050350D02*
X067350Y044725D01*
X067600Y044475D01*
X067100Y044350D02*
X067100Y051100D01*
X067600Y051600D01*
X068350Y051100D02*
X068850Y051100D01*
X069350Y050600D01*
X069600Y050600D01*
X069600Y051600D02*
X069600Y052350D01*
X070600Y051600D02*
X071100Y052100D01*
X066600Y051600D02*
X066100Y051100D01*
X065600Y050600D02*
X065600Y033850D01*
X066100Y033100D02*
X066100Y043225D01*
X066600Y043725D01*
X066600Y050600D01*
X070100Y046850D02*
X070100Y030350D01*
X069600Y029850D01*
X069600Y025350D01*
X069600Y024600D01*
X070100Y024100D01*
X076600Y017850D02*
X076600Y014600D01*
X076600Y005100D02*
X076600Y004350D01*
X076975Y003975D01*
X076975Y003725D01*
X075600Y004350D02*
X073850Y002600D01*
X075600Y004350D02*
X075600Y005100D01*
X053100Y010350D02*
X052600Y009850D01*
X052600Y001038D01*
X048600Y006600D02*
X049100Y007100D01*
X049100Y011100D01*
X049100Y050600D01*
X048100Y050600D02*
X048100Y011100D01*
X048100Y008413D01*
X048475Y008038D01*
X047725Y008038D02*
X047100Y008663D01*
X047100Y011100D01*
X047100Y050600D01*
X046100Y050600D02*
X046100Y011100D01*
X046100Y008913D01*
X046975Y008038D01*
X046225Y008038D02*
X045100Y009163D01*
X045100Y011100D01*
X045100Y050600D01*
X044100Y050600D02*
X044100Y011100D01*
X044100Y009350D01*
X045413Y008038D01*
X043350Y010100D02*
X043350Y012350D01*
X043100Y012600D01*
X043100Y041100D01*
X043600Y042600D02*
X043600Y016475D01*
X041225Y015975D02*
X041225Y017100D01*
X039475Y019975D02*
X038600Y020850D01*
X038600Y031600D01*
X038350Y031850D01*
X038350Y042100D01*
X038277Y042128D01*
X038850Y041100D02*
X038850Y038600D01*
X039600Y037850D01*
X039600Y023225D01*
X039350Y022975D01*
X039350Y020850D01*
X039475Y019975D02*
X039475Y013538D01*
X041413Y011600D01*
X041413Y011100D01*
X042850Y011350D02*
X040350Y013850D01*
X040350Y034850D01*
X038850Y035100D02*
X038850Y037350D01*
X039100Y037600D01*
X039600Y038350D02*
X039600Y041350D01*
X039850Y041600D01*
X039850Y042600D01*
X039350Y043100D01*
X031600Y043100D01*
X031277Y042777D01*
X031277Y042128D01*
X028725Y040225D02*
X028725Y032600D01*
X027725Y031600D01*
X026600Y031600D01*
X025600Y030600D01*
X025600Y026100D01*
X023100Y023600D01*
X023100Y011600D01*
X022100Y010850D02*
X021850Y010600D01*
X021100Y010600D01*
X021100Y009600D02*
X020350Y009600D01*
X020100Y009850D01*
X020100Y012850D01*
X020600Y013350D01*
X020600Y015850D01*
X020475Y015975D01*
X011975Y015975D01*
X010600Y017350D01*
X010600Y018100D01*
X011600Y018100D02*
X011600Y018850D01*
X011475Y018975D01*
X011475Y019475D01*
X010725Y019475D02*
X010225Y019475D01*
X009600Y018850D01*
X009600Y018100D01*
X009350Y016100D02*
X009600Y015850D01*
X009600Y015100D01*
X009600Y013350D01*
X010600Y013350D01*
X011100Y013850D02*
X011100Y011850D01*
X013913Y009038D01*
X013850Y010100D02*
X012850Y011100D01*
X012850Y013100D01*
X012100Y013850D01*
X012100Y014100D01*
X011600Y013350D02*
X011600Y012100D01*
X011100Y013850D02*
X010600Y014350D01*
X010600Y015100D01*
X009350Y016100D02*
X005225Y016100D01*
X004475Y016850D01*
X004225Y017050D01*
X004225Y015150D02*
X004225Y015100D01*
X006600Y015100D01*
X006600Y013350D01*
X007600Y013350D02*
X007600Y015100D01*
X008600Y015100D02*
X008600Y013350D01*
X008600Y012600D01*
X009100Y012100D01*
X007600Y012600D02*
X007600Y013350D01*
X007600Y012600D02*
X007100Y012100D01*
X009100Y009600D02*
X009100Y008100D01*
X010100Y008100D01*
X010600Y007350D02*
X009600Y006350D01*
X009100Y006350D01*
X006600Y006350D01*
X005350Y007600D01*
X009100Y006350D02*
X009100Y005100D01*
X010100Y005100D02*
X010100Y003913D01*
X009038Y002850D01*
X010600Y007350D02*
X010600Y009100D01*
X011100Y009600D01*
X011100Y008100D02*
X012600Y008100D01*
X017600Y011600D02*
X018850Y010350D01*
X018850Y005100D01*
X017225Y003538D02*
X017225Y013225D01*
X016100Y014350D01*
X016100Y015100D01*
X015100Y015100D02*
X015100Y014100D01*
X015975Y013225D01*
X017100Y014350D02*
X017600Y013850D01*
X017600Y011600D01*
X018100Y011850D02*
X018100Y015100D01*
X019100Y015100D02*
X019100Y013475D01*
X019475Y013100D01*
X019475Y002350D01*
X024100Y005600D02*
X026100Y005600D01*
X026600Y006100D01*
X028350Y006100D01*
X028850Y005600D01*
X030100Y005600D01*
X030600Y005100D02*
X028850Y005100D01*
X028350Y005600D01*
X027100Y005600D01*
X025850Y007100D02*
X026350Y007600D01*
X027100Y007600D01*
X028350Y007600D01*
X028850Y008100D01*
X030600Y008100D01*
X030850Y008350D01*
X030850Y009850D01*
X030600Y010100D01*
X029600Y010100D01*
X029100Y010600D01*
X029100Y013850D01*
X028975Y013975D01*
X028975Y014475D01*
X029100Y014600D01*
X029100Y015725D01*
X028975Y015850D01*
X028975Y016225D01*
X028600Y016600D01*
X028600Y015100D02*
X028600Y010100D01*
X028850Y009850D01*
X028850Y009100D01*
X029350Y008600D01*
X030100Y008600D01*
X028100Y009600D02*
X028100Y018850D01*
X028600Y019350D01*
X028600Y025350D01*
X027850Y026100D01*
X027100Y026100D01*
X027600Y026600D02*
X028600Y027600D01*
X028600Y028600D01*
X027850Y029100D02*
X027100Y029100D01*
X027850Y029100D02*
X028600Y029850D01*
X028600Y030600D01*
X028100Y030350D02*
X027850Y030100D01*
X027100Y030100D01*
X028100Y030350D02*
X028100Y031475D01*
X029350Y032725D01*
X029350Y039600D01*
X027850Y038975D02*
X027725Y039100D01*
X027100Y039100D01*
X027850Y038975D02*
X027850Y035788D01*
X027663Y035600D01*
X026600Y035600D01*
X025600Y034600D01*
X027100Y035100D02*
X027913Y035100D01*
X028288Y035475D01*
X028288Y040913D01*
X027788Y041413D01*
X027788Y042788D01*
X028100Y043100D01*
X028100Y044788D01*
X029038Y045725D01*
X029038Y047725D01*
X031163Y049850D01*
X030773Y046340D02*
X030600Y046100D01*
X029100Y044600D01*
X034277Y042128D02*
X034277Y041423D01*
X034913Y040538D01*
X034913Y036788D01*
X037350Y034350D01*
X037350Y023100D01*
X037288Y023038D01*
X037288Y022600D01*
X037350Y022538D01*
X037350Y006850D01*
X039100Y007600D02*
X040350Y006350D01*
X040850Y006350D01*
X041100Y006100D01*
X041100Y005350D01*
X034600Y008350D02*
X030850Y004600D01*
X030100Y004600D01*
X030600Y005100D02*
X033475Y007975D01*
X033475Y016350D01*
X033975Y015350D02*
X033975Y010475D01*
X032475Y010475D02*
X032475Y012163D01*
X032350Y012288D01*
X032350Y015850D01*
X032225Y015975D01*
X032225Y021600D01*
X034100Y021600D01*
X034100Y022600D02*
X034100Y027850D01*
X033850Y028100D01*
X033100Y028100D01*
X034850Y028100D02*
X034850Y019100D01*
X034600Y018225D02*
X033850Y018975D01*
X033850Y019600D01*
X034600Y018225D02*
X034600Y008350D01*
X032475Y010475D02*
X032100Y010100D01*
X030850Y011100D02*
X031475Y011725D01*
X031475Y012225D01*
X031600Y012350D01*
X031600Y022725D01*
X031100Y023225D01*
X031100Y030850D01*
X032350Y032100D01*
X033100Y032100D01*
X033100Y031100D02*
X032350Y031100D01*
X032100Y030850D01*
X032100Y024850D01*
X031725Y024475D01*
X031725Y023600D01*
X031725Y023100D01*
X031975Y022850D01*
X031975Y011850D01*
X031225Y011975D02*
X031225Y015850D01*
X031350Y015975D01*
X031350Y022600D01*
X030850Y023100D01*
X030850Y031225D01*
X032100Y032475D01*
X032100Y036850D01*
X032350Y037100D01*
X033100Y037100D01*
X033100Y038100D02*
X032163Y038100D01*
X031163Y039100D01*
X033100Y039100D02*
X033975Y039100D01*
X034163Y038913D01*
X034163Y037850D01*
X035288Y037288D02*
X035288Y042163D01*
X035277Y042128D01*
X036277Y042128D02*
X036277Y041298D01*
X038100Y039475D01*
X038038Y023163D01*
X038225Y022975D01*
X038225Y019788D01*
X036850Y021600D02*
X036850Y030100D01*
X033850Y033100D01*
X033100Y033100D01*
X031350Y032350D02*
X030600Y031600D01*
X030600Y022975D01*
X031100Y022475D01*
X031100Y016350D01*
X030600Y015850D01*
X028600Y018100D02*
X028600Y018850D01*
X029100Y019350D01*
X029100Y031600D01*
X031350Y032350D02*
X031350Y036100D01*
X035288Y037288D02*
X036975Y035600D01*
X040850Y037100D02*
X040850Y026850D01*
X042600Y025100D01*
X042600Y025850D02*
X041600Y026850D01*
X041600Y042600D01*
X037788Y039100D02*
X035788Y041100D01*
X037788Y039100D02*
X037725Y022788D01*
X039100Y023600D02*
X039100Y031850D01*
X038850Y032100D01*
X042100Y031600D02*
X042100Y051600D01*
X033773Y053340D02*
X033600Y053350D01*
X031850Y053350D01*
X031773Y053340D01*
X024553Y049525D02*
X024550Y049525D01*
X009975Y048850D02*
X009975Y050725D01*
X008600Y052100D01*
X017100Y038975D02*
X017100Y037600D01*
X016100Y036600D01*
X016100Y033850D01*
X018100Y032350D02*
X018100Y030850D01*
X020100Y031975D02*
X015225Y027100D01*
X015225Y021600D01*
X017100Y021600D02*
X025100Y029600D01*
X026350Y026600D02*
X027600Y026600D01*
X026350Y026600D02*
X026225Y026475D01*
X026225Y025225D01*
X026350Y025100D01*
X027100Y025100D01*
X027100Y024100D02*
X026350Y024100D01*
X024100Y021850D01*
X024100Y017350D01*
X024600Y018100D02*
X024600Y020600D01*
X025600Y021600D01*
X026100Y021850D02*
X026100Y017350D01*
X026600Y016850D01*
X026600Y015100D01*
X025600Y015100D02*
X025600Y014350D01*
X025350Y014100D01*
X025350Y008100D01*
X024850Y007600D01*
X024100Y007600D01*
X022850Y007100D02*
X025850Y007100D01*
X024100Y006600D02*
X022850Y006600D01*
X022350Y007100D01*
X020600Y007100D01*
X019850Y007850D01*
X019850Y013100D01*
X020100Y013350D01*
X020100Y015100D01*
X022100Y015850D02*
X022100Y010850D01*
X024100Y009600D02*
X024850Y009600D01*
X025100Y009850D01*
X025100Y019100D01*
X026350Y019350D02*
X027100Y018600D01*
X027100Y014100D01*
X026100Y013100D01*
X026100Y011600D01*
X024600Y013600D02*
X024600Y015100D01*
X026100Y014350D02*
X026100Y016350D01*
X025600Y016850D01*
X027600Y018100D02*
X027600Y018850D01*
X028100Y019350D01*
X028100Y021100D01*
X027850Y021600D02*
X026600Y021600D01*
X026350Y021350D01*
X026350Y019350D01*
X027850Y021600D02*
X028100Y021850D01*
X028100Y022850D01*
X027850Y023100D01*
X027100Y023100D01*
X027100Y022100D02*
X026350Y022100D01*
X026100Y021850D01*
X032225Y021600D02*
X032225Y023975D01*
X032350Y024100D01*
X033100Y024100D01*
X035600Y023100D02*
X035600Y013225D01*
X036100Y014600D02*
X036100Y024600D01*
X035600Y025100D01*
X042100Y029600D02*
X042600Y030100D01*
X042600Y032225D01*
X051350Y029100D02*
X052100Y029100D01*
X052350Y029350D01*
X052350Y035350D01*
X052100Y035725D01*
X067100Y044350D02*
X067850Y043600D01*
X070850Y045600D02*
X070850Y034600D01*
X073600Y034163D02*
X073600Y031350D01*
X053100Y011100D02*
X053100Y010350D01*
X031225Y011975D02*
X030850Y011600D01*
X030100Y011600D01*
X022850Y007100D02*
X022350Y007600D01*
X021100Y007600D01*
X018850Y011100D02*
X018100Y011850D01*
X017100Y014350D02*
X017100Y015100D01*
X017100Y018100D02*
X017100Y021600D01*
X016100Y019600D02*
X016100Y018100D01*
X018100Y018100D02*
X018100Y019600D01*
X019100Y020100D02*
X019100Y018100D01*
X020100Y018100D02*
X020100Y020600D01*
X013100Y027475D02*
X012100Y027475D01*
X011350Y027975D02*
X011350Y029100D01*
X012100Y029850D01*
X008100Y028350D02*
X008100Y027100D01*
X004600Y030600D02*
X004600Y031725D01*
X005475Y032600D01*
X006100Y032600D01*
X006100Y033600D02*
X004600Y033600D01*
X003975Y033600D01*
X003975Y034600D01*
X002850Y034600D01*
X003475Y033600D02*
X003975Y033600D01*
X003975Y038600D02*
X005100Y038600D01*
X013600Y038100D02*
X013600Y036350D01*
X017100Y036850D02*
X017100Y035600D01*
X017100Y036850D02*
X017600Y037350D01*
X017600Y038100D01*
X020100Y037538D02*
X020100Y031975D01*
X020100Y037538D02*
X020538Y037975D01*
D32*
X020538Y037975D03*
X017100Y038975D03*
X017100Y035600D03*
X025100Y029600D03*
X028600Y028600D03*
X028600Y030600D03*
X029100Y031600D03*
X034850Y031100D03*
X038850Y032100D03*
X042100Y031600D03*
X042600Y032225D03*
X040350Y034850D03*
X038850Y035100D03*
X036975Y035600D03*
X039100Y037600D03*
X040100Y038600D03*
X040850Y037100D03*
X046600Y035100D03*
X047600Y034600D03*
X054350Y036100D03*
X055350Y036600D03*
X055725Y037475D03*
X056975Y037850D03*
X058100Y036225D03*
X061100Y035225D03*
X062100Y035100D03*
X062600Y033600D03*
X061975Y033100D03*
X061100Y031850D03*
X059725Y031600D03*
X058100Y033600D03*
X061600Y037475D03*
X060100Y040100D03*
X056975Y043350D03*
X054850Y040600D03*
X054350Y037600D03*
X049600Y041600D03*
X045600Y043100D03*
X043600Y042600D03*
X043100Y041100D03*
X041600Y042600D03*
X038850Y041100D03*
X035788Y041100D03*
X034163Y037850D03*
X031350Y036100D03*
X029350Y039600D03*
X028725Y040225D03*
X029100Y044600D03*
X029975Y049475D03*
X031163Y049850D03*
X044600Y044850D03*
X051600Y048975D03*
X053100Y049850D03*
X058850Y046975D03*
X061600Y047600D03*
X063913Y045475D03*
X067600Y044475D03*
X067850Y043600D03*
X071413Y044475D03*
X070100Y046850D03*
X068350Y046475D03*
X067850Y047100D03*
X066100Y049100D03*
X069350Y049850D03*
X069850Y049350D03*
X074350Y044100D03*
X075038Y044100D03*
X077100Y045100D03*
X076350Y041913D03*
X074350Y042100D03*
X073350Y038475D03*
X073350Y037100D03*
X071850Y035100D03*
X071600Y033850D03*
X069100Y032600D03*
X066100Y033100D03*
X065100Y034475D03*
X067600Y035100D03*
X068100Y034475D03*
X068600Y035975D03*
X068350Y036975D03*
X066600Y038475D03*
X069600Y029850D03*
X073100Y029100D03*
X075600Y026350D03*
X077350Y029475D03*
X069600Y023600D03*
X070600Y023100D03*
X071600Y022600D03*
X070100Y021475D03*
X070225Y019413D03*
X071600Y019350D03*
X071100Y017850D03*
X070600Y017225D03*
X069850Y017600D03*
X069100Y017350D03*
X068350Y017600D03*
X067600Y017538D03*
X065975Y017413D03*
X063600Y017600D03*
X062600Y017225D03*
X061100Y017850D03*
X060600Y019225D03*
X063100Y019600D03*
X065100Y021975D03*
X065600Y022600D03*
X064600Y023100D03*
X063600Y023600D03*
X060350Y025475D03*
X057100Y022850D03*
X054600Y020600D03*
X054100Y019600D03*
X055100Y019600D03*
X056600Y020100D03*
X054225Y017975D03*
X052100Y017725D03*
X054100Y015475D03*
X053975Y013725D03*
X057100Y015975D03*
X057850Y014100D03*
X058725Y012600D03*
X059600Y012475D03*
X061100Y012288D03*
X061600Y013225D03*
X062100Y013725D03*
X062600Y012725D03*
X060100Y009975D03*
X059350Y009350D03*
X058100Y009475D03*
X056850Y009600D03*
X055600Y010100D03*
X056350Y008725D03*
X056100Y007850D03*
X058475Y008100D03*
X061100Y008100D03*
X062100Y008100D03*
X058350Y005350D03*
X055850Y003350D03*
X057100Y002850D03*
X058163Y002663D03*
X059413Y002538D03*
X060413Y002538D03*
X067413Y008038D03*
X069413Y008163D03*
X073100Y009350D03*
X076975Y003725D03*
X073850Y002600D03*
X069600Y003350D03*
X053350Y009725D03*
X050100Y009350D03*
X048600Y009975D03*
X048475Y008038D03*
X047725Y008038D03*
X046975Y008038D03*
X046225Y008038D03*
X045413Y008038D03*
X043350Y010100D03*
X042850Y011350D03*
X041413Y011100D03*
X044600Y012100D03*
X045600Y013975D03*
X046600Y015100D03*
X047600Y014600D03*
X043600Y016475D03*
X041225Y015975D03*
X041225Y017100D03*
X038225Y019788D03*
X039350Y020850D03*
X036850Y021600D03*
X037725Y022788D03*
X039100Y023600D03*
X035600Y023100D03*
X034100Y022600D03*
X034100Y021600D03*
X033850Y019600D03*
X034850Y019100D03*
X033475Y016350D03*
X032725Y016350D03*
X033975Y015350D03*
X036100Y014600D03*
X035600Y013225D03*
X031975Y011850D03*
X030850Y011100D03*
X032100Y010100D03*
X033975Y010475D03*
X037350Y006850D03*
X028100Y009600D03*
X026100Y011600D03*
X024600Y013600D03*
X026100Y014350D03*
X028600Y016600D03*
X030600Y015850D03*
X025600Y016850D03*
X024100Y017350D03*
X025100Y019100D03*
X025600Y021600D03*
X028100Y021100D03*
X031725Y023600D03*
X029850Y025100D03*
X025600Y026100D03*
X020100Y020600D03*
X019100Y020100D03*
X018100Y019600D03*
X016100Y019600D03*
X015225Y021600D03*
X011475Y019475D03*
X010725Y019475D03*
X012100Y014100D03*
X015975Y013225D03*
X018850Y011100D03*
X023100Y011600D03*
X022100Y015850D03*
X013850Y010100D03*
X013913Y009038D03*
X018850Y005100D03*
X017225Y003538D03*
X019475Y002350D03*
X047600Y005913D03*
X049350Y003600D03*
X050600Y003850D03*
X051600Y003600D03*
X071600Y016100D03*
X072600Y016225D03*
X071600Y017225D03*
X072100Y017850D03*
X073100Y017725D03*
X074100Y017600D03*
X075600Y017225D03*
X076600Y017850D03*
X077225Y016725D03*
X078163Y017663D03*
X078413Y018350D03*
X076100Y016100D03*
X068350Y019413D03*
X067100Y022100D03*
X067600Y023975D03*
X068100Y024600D03*
X067100Y027100D03*
X065850Y028350D03*
X063600Y028475D03*
X060600Y028850D03*
X058600Y028850D03*
X056100Y025600D03*
X042600Y025850D03*
X042600Y025100D03*
X042100Y029600D03*
X035600Y025100D03*
X073600Y022100D03*
X059100Y052350D03*
D33*
X073100Y043100D02*
X075100Y043100D01*
X077350Y043100D01*
X075100Y045100D02*
X075100Y050100D01*
X076850Y051350D02*
X076850Y052600D01*
X075850Y053600D01*
X043100Y053600D01*
X042225Y053600D01*
X020350Y039850D02*
X019600Y039850D01*
X009100Y039850D01*
X001100Y039850D01*
X003475Y049600D02*
X004850Y049600D01*
D34*
X006788Y001038D02*
X011100Y001038D01*
X014975Y001038D01*
X021600Y001038D01*
X027600Y001038D01*
X046100Y001038D01*
X052600Y001038D01*
X076913Y001038D01*
X078225Y002475D01*
X080475Y007975D02*
X080475Y013100D01*
X080475Y019225D01*
X080475Y025350D01*
X080475Y042850D01*
X079725Y043600D01*
X078600Y043600D01*
X077850Y043600D01*
X077350Y043100D01*
X006788Y001038D02*
X001100Y006850D01*
X001100Y019100D01*
X001100Y039850D01*
X001100Y047225D01*
X003475Y049600D01*
D35*
X020350Y039850D02*
X021600Y038600D01*
X078225Y003100D02*
X078225Y002475D01*
D36*
X078225Y003100D02*
X078225Y003850D01*
X078600Y004225D01*
X078600Y005100D01*
X078600Y006100D01*
X061600Y018600D02*
X061600Y020600D01*
X061600Y022100D01*
X063600Y028475D02*
X063600Y031350D01*
X063600Y032600D01*
X071975Y037475D02*
X072350Y037100D01*
X073350Y037100D01*
X074975Y036100D02*
X075475Y035600D01*
X076100Y035600D01*
X074975Y036100D02*
X074975Y040225D01*
X075600Y040850D01*
X075820Y040990D01*
X073100Y040100D02*
X072475Y040100D01*
X071975Y039600D01*
X071975Y037475D01*
X077100Y045100D02*
X077100Y048850D01*
X076880Y049065D01*
X072600Y049725D02*
X072600Y050600D01*
X076600Y025350D02*
X078600Y025350D01*
X080475Y025350D01*
X046100Y005100D02*
X046100Y001038D01*
X035413Y008413D02*
X035413Y012350D01*
X035413Y008413D02*
X029600Y002600D01*
X027600Y002600D02*
X027600Y001038D01*
X027600Y002600D02*
X027100Y003100D01*
X027100Y004600D01*
X021600Y002600D02*
X021600Y001038D01*
X021600Y002600D02*
X021100Y003100D01*
X021100Y004600D01*
X021100Y012600D02*
X021100Y015100D01*
X021975Y016725D02*
X022600Y017350D01*
X022600Y018100D01*
X021975Y016725D02*
X014725Y016725D01*
X014100Y017350D01*
X014100Y018100D01*
X014100Y018975D01*
X006600Y019100D02*
X006600Y018100D01*
X029600Y016100D02*
X029600Y015100D01*
X029600Y014225D01*
X020600Y035100D02*
X020600Y036600D01*
X021600Y036600D01*
X021600Y038600D01*
X019600Y038100D02*
X019600Y039850D01*
X021600Y036600D02*
X022100Y036600D01*
X022600Y036100D01*
X025850Y036100D01*
X027100Y036100D01*
X025850Y036100D02*
X025850Y040600D01*
X026277Y041173D01*
X026277Y042128D01*
X032773Y046340D02*
X032773Y048023D01*
D37*
X078600Y006100D02*
X080475Y007975D01*
D38*
X074225Y018600D02*
X066600Y018600D01*
X061725Y018600D01*
X061600Y018600D01*
X058725Y014600D02*
X058725Y025225D01*
X059850Y026350D01*
X061100Y026350D01*
X061100Y027600D01*
X061100Y028350D01*
X060600Y028850D01*
X063600Y032600D02*
X063913Y032913D01*
X073100Y042100D02*
X073100Y043100D01*
X073100Y043163D02*
X072600Y043663D01*
X072600Y049725D01*
X042225Y053600D02*
X037975Y049475D01*
X037975Y048850D01*
X038038Y048850D01*
X037975Y048850D02*
X033600Y048850D01*
X032773Y048023D01*
X032773Y046340D02*
X030277Y043844D01*
X030277Y042128D01*
X030277Y032527D01*
X029850Y032100D01*
X029850Y025100D01*
X029850Y019475D01*
X030475Y018725D01*
X030475Y016975D01*
X029600Y016100D01*
X029600Y014225D02*
X030100Y013725D01*
X030100Y012600D01*
X039163Y012850D02*
X039163Y009600D01*
X058725Y009975D02*
X059350Y009350D01*
X058725Y009975D02*
X058725Y012600D01*
X058725Y014600D01*
X074225Y018600D02*
X074850Y019225D01*
X080475Y019225D01*
D39*
X073100Y011850D02*
X073100Y010350D01*
X076100Y005850D02*
X076100Y004350D01*
X066600Y014600D02*
X066600Y018600D01*
X061725Y018600D02*
X061100Y018600D01*
X060600Y018100D01*
X060600Y014600D01*
X044600Y012100D02*
X044600Y044850D01*
X038100Y046100D02*
X038100Y048788D01*
X038038Y048850D01*
X029975Y049475D02*
X028600Y048100D01*
X028600Y046975D01*
X027975Y046350D01*
X026273Y046350D01*
X025759Y046350D01*
X024553Y047557D01*
X026273Y046350D02*
X026273Y043850D01*
X026273Y042131D01*
X026277Y042128D01*
X020600Y035100D02*
X020600Y031725D01*
X018100Y029225D01*
X010100Y034600D02*
X009100Y034600D01*
X004600Y030600D02*
X003475Y030600D01*
X024100Y015850D02*
X024100Y012600D01*
X010600Y012100D02*
X010600Y011100D01*
X010100Y010600D01*
X008475Y010600D01*
X008100Y010225D01*
X008100Y009600D01*
X008100Y008100D01*
X010100Y009600D02*
X010100Y010600D01*
X011100Y005100D02*
X011100Y001038D01*
X051350Y030100D02*
X051350Y035850D01*
X051600Y036100D01*
X051600Y048975D01*
X073100Y043163D02*
X073100Y043100D01*
X075100Y050100D02*
X075029Y050246D01*
X076100Y035600D02*
X076100Y030850D01*
X076600Y030350D01*
X076600Y028100D01*
X077350Y027350D01*
X078600Y027350D01*
X010600Y049350D02*
X010531Y049531D01*
X010475Y049600D02*
X010600Y049600D01*
D40*
X010531Y049531D01*
X010475Y049588D01*
X010600Y049350D02*
X010600Y048100D01*
X009475Y049600D02*
X007850Y049600D01*
X007850Y050850D01*
X004850Y050850D02*
X004850Y049600D01*
X009100Y039850D02*
X009100Y036475D01*
X008475Y036475D01*
X009100Y036475D02*
X009100Y034600D01*
X023600Y018100D02*
X023600Y016350D01*
X024100Y015850D01*
X014600Y012350D02*
X014600Y009600D01*
X014600Y008100D01*
X014600Y012350D02*
X012600Y014350D01*
X012600Y015100D01*
X058725Y014600D02*
X059600Y014600D01*
X059350Y009350D02*
X059350Y008725D01*
X059600Y008475D01*
X059600Y005100D01*
X073100Y009350D02*
X073100Y010350D01*
X073100Y009350D02*
X076100Y006350D01*
X076100Y005850D01*
X076100Y004350D02*
X076225Y004225D01*
X076225Y003100D01*
X073100Y011850D02*
X073100Y013100D01*
D41*
X014100Y018975D02*
X012725Y020350D01*
X007850Y020350D01*
X006600Y019100D01*
D42*
X013600Y046350D02*
X018425Y046350D01*
X021600Y049525D01*
X020350Y050475D02*
X018725Y048850D01*
X018725Y047600D01*
X017850Y046725D01*
X014850Y046725D01*
X014600Y046975D01*
X014600Y047475D01*
X013100Y047475D02*
X013100Y046850D01*
X013600Y046350D01*
X017600Y047475D02*
X017600Y048475D01*
X020100Y050975D01*
X024850Y050975D01*
X026475Y049350D01*
X026475Y048587D01*
X026521Y048541D01*
X024550Y049525D02*
X023600Y050475D01*
X020350Y050475D01*
X078930Y009452D02*
X080919Y009452D01*
X080919Y009610D02*
X079111Y009610D01*
X079293Y009769D02*
X080919Y009769D01*
X080919Y009927D02*
X079474Y009927D01*
X079655Y010086D02*
X080919Y010086D01*
X080919Y010244D02*
X079836Y010244D01*
X080017Y010403D02*
X080919Y010403D01*
X080919Y010475D02*
X080919Y004302D01*
X078350Y001850D01*
X078350Y002100D01*
X078100Y002600D01*
X078100Y002660D01*
X078225Y002660D01*
X078407Y002660D01*
X078665Y002918D01*
X078665Y003100D01*
X078665Y003282D01*
X078407Y003540D01*
X078225Y003540D01*
X078225Y003100D01*
X078665Y003100D01*
X078225Y003100D01*
X078225Y003100D01*
X078225Y003100D01*
X078225Y002660D01*
X078225Y003100D01*
X078225Y003100D01*
X078225Y003540D01*
X078100Y003540D01*
X078100Y008725D01*
X080100Y010475D01*
X080919Y010475D01*
X080919Y009293D02*
X078749Y009293D01*
X078568Y009135D02*
X080919Y009135D01*
X080919Y008976D02*
X078387Y008976D01*
X078206Y008818D02*
X080919Y008818D01*
X080919Y008659D02*
X078100Y008659D01*
X078100Y008501D02*
X080919Y008501D01*
X080919Y008342D02*
X078100Y008342D01*
X078100Y008184D02*
X080919Y008184D01*
X080919Y008025D02*
X078100Y008025D01*
X078100Y007867D02*
X080919Y007867D01*
X080919Y007708D02*
X078100Y007708D01*
X078100Y007550D02*
X080919Y007550D01*
X080919Y007391D02*
X078100Y007391D01*
X078100Y007233D02*
X080919Y007233D01*
X080919Y007074D02*
X078100Y007074D01*
X078100Y006916D02*
X080919Y006916D01*
X080919Y006757D02*
X078100Y006757D01*
X078100Y006599D02*
X080919Y006599D01*
X080919Y006440D02*
X078100Y006440D01*
X078100Y006282D02*
X080919Y006282D01*
X080919Y006123D02*
X078100Y006123D01*
X078100Y005965D02*
X080919Y005965D01*
X080919Y005806D02*
X078100Y005806D01*
X078100Y005648D02*
X078271Y005648D01*
X078266Y005642D02*
X078226Y005587D01*
X078195Y005525D01*
X078173Y005460D01*
X078163Y005392D01*
X078163Y005100D01*
X078163Y004808D01*
X078173Y004740D01*
X078195Y004675D01*
X078226Y004613D01*
X078266Y004558D01*
X078315Y004509D01*
X078371Y004468D01*
X078432Y004437D01*
X078498Y004416D01*
X078566Y004405D01*
X078600Y004405D01*
X078600Y005100D01*
X079037Y005100D01*
X079037Y005392D01*
X079027Y005460D01*
X079005Y005525D01*
X078974Y005587D01*
X078934Y005642D01*
X078885Y005691D01*
X078829Y005732D01*
X078768Y005763D01*
X078702Y005784D01*
X078634Y005795D01*
X078600Y005795D01*
X078566Y005795D01*
X078498Y005784D01*
X078432Y005763D01*
X078371Y005732D01*
X078315Y005691D01*
X078266Y005642D01*
X078183Y005489D02*
X078100Y005489D01*
X078100Y005331D02*
X078163Y005331D01*
X078163Y005172D02*
X078100Y005172D01*
X078163Y005100D02*
X078600Y005100D01*
X078600Y005100D01*
X078600Y005100D01*
X078600Y005795D01*
X078600Y005100D01*
X079037Y005100D01*
X079037Y004808D01*
X079027Y004740D01*
X079005Y004675D01*
X078974Y004613D01*
X078934Y004558D01*
X078885Y004509D01*
X078829Y004468D01*
X078768Y004437D01*
X078702Y004416D01*
X078634Y004405D01*
X078600Y004405D01*
X078600Y005100D01*
X078600Y005100D01*
X078600Y005100D01*
X078163Y005100D01*
X078163Y005014D02*
X078100Y005014D01*
X078100Y004855D02*
X078163Y004855D01*
X078187Y004697D02*
X078100Y004697D01*
X078100Y004538D02*
X078286Y004538D01*
X078100Y004380D02*
X080919Y004380D01*
X080919Y004538D02*
X078914Y004538D01*
X079013Y004697D02*
X080919Y004697D01*
X080919Y004855D02*
X079037Y004855D01*
X079037Y005014D02*
X080919Y005014D01*
X080919Y005172D02*
X079037Y005172D01*
X079037Y005331D02*
X080919Y005331D01*
X080919Y005489D02*
X079017Y005489D01*
X078929Y005648D02*
X080919Y005648D01*
X080834Y004221D02*
X078100Y004221D01*
X078100Y004063D02*
X080668Y004063D01*
X080502Y003904D02*
X078100Y003904D01*
X078100Y003746D02*
X080336Y003746D01*
X080170Y003587D02*
X078100Y003587D01*
X078225Y003429D02*
X078225Y003429D01*
X078225Y003270D02*
X078225Y003270D01*
X078225Y003112D02*
X078225Y003112D01*
X078225Y002953D02*
X078225Y002953D01*
X078225Y002795D02*
X078225Y002795D01*
X078100Y002636D02*
X079173Y002636D01*
X079007Y002478D02*
X078161Y002478D01*
X078240Y002319D02*
X078841Y002319D01*
X078675Y002161D02*
X078320Y002161D01*
X078350Y002002D02*
X078509Y002002D01*
X078542Y002795D02*
X079339Y002795D01*
X079506Y002953D02*
X078665Y002953D01*
X078665Y003112D02*
X079672Y003112D01*
X079838Y003270D02*
X078665Y003270D01*
X078519Y003429D02*
X080004Y003429D01*
X078600Y004538D02*
X078600Y004538D01*
X078600Y004697D02*
X078600Y004697D01*
X078600Y004855D02*
X078600Y004855D01*
X078600Y005014D02*
X078600Y005014D01*
X078600Y005172D02*
X078600Y005172D01*
X078600Y005331D02*
X078600Y005331D01*
X078600Y005489D02*
X078600Y005489D01*
X078600Y005648D02*
X078600Y005648D01*
D43*
X034850Y028100D02*
X034850Y030100D01*
X033100Y030100D01*
X034850Y030100D02*
X034850Y031100D01*
X033100Y020100D02*
X033100Y016725D01*
X032725Y016350D01*
D44*
X039100Y009600D02*
X039163Y009600D01*
X040100Y009600D01*
X061600Y024100D02*
X061600Y025850D01*
X061100Y026350D01*
X018600Y034600D02*
X016350Y032350D01*
X014100Y032350D01*
X013975Y032350D01*
X013100Y031475D01*
X013100Y030725D01*
X007600Y030725D01*
X007600Y035350D01*
X006475Y036475D01*
X006100Y031600D02*
X006100Y030725D01*
X007600Y030725D01*
X006100Y030725D02*
X006100Y028350D01*
X006100Y027100D01*
X006100Y025725D01*
X006100Y027100D02*
X005100Y027100D01*
X013100Y027475D02*
X013100Y021350D01*
X015100Y019350D01*
X015100Y018100D01*
X013100Y027475D02*
X013100Y030725D01*
X014100Y032350D02*
X014100Y033850D01*
X018600Y034600D02*
X018600Y035100D01*
X018600Y036600D01*
X018600Y038100D01*
X012600Y041100D02*
X011975Y041100D01*
X010600Y042475D01*
X010600Y048100D01*
D45*
X025600Y034600D03*
X031163Y039100D03*
X043100Y053600D03*
D46*
X039163Y012850D03*
X035413Y012350D03*
X040100Y009600D03*
M02*
