%
M48
M72
T01C0.0240
T02C0.0276
T03C0.0315
T04C0.0320
T05C0.0354
T06C0.0360
T07C0.0400
T08C0.0440
T09C0.0472
T10C0.0520
T11C0.0630
T12C0.1100
T13C0.1181
T14C0.1260
T15C0.1300
%
T01
X13913Y9038
X13850Y10100
X15975Y13225
X18850Y11100
X23100Y11600
X24600Y13600
X26100Y14350
X28600Y16600
X30600Y15850
X32725Y16350
X33475Y16350
X33975Y15350
X36100Y14600
X35600Y13225
X31975Y11850
X30850Y11100
X32100Y10100
X33975Y10475
X37350Y6850
X41413Y11100
X42850Y11350
X43350Y10100
X44600Y12100
X45600Y13975
X46600Y15100
X47600Y14600
X43600Y16475
X41225Y15975
X41225Y17100
X38225Y19788
X39350Y20850
X36850Y21600
X37725Y22788
X39100Y23600
X35600Y23100
X34100Y22600
X34100Y21600
X33850Y19600
X34850Y19100
X31725Y23600
X29850Y25100
X25600Y26100
X28600Y28600
X28600Y30600
X29100Y31600
X25100Y29600
X17100Y35600
X20538Y37975
X17100Y38975
X28725Y40225
X29350Y39600
X34163Y37850
X31350Y36100
X36975Y35600
X38850Y35100
X40350Y34850
X40850Y37100
X40100Y38600
X39100Y37600
X38850Y41100
X35788Y41100
X41600Y42600
X43600Y42600
X43100Y41100
X45600Y43100
X44600Y44850
X49600Y41600
X54850Y40600
X56975Y37850
X55725Y37475
X55350Y36600
X54350Y36100
X54350Y37600
X58100Y36225
X61100Y35225
X62100Y35100
X62600Y33600
X61975Y33100
X61100Y31850
X59725Y31600
X58100Y33600
X61600Y37475
X60100Y40100
X56975Y43350
X58850Y46975
X61600Y47600
X63913Y45475
X67600Y44475
X67850Y43600
X71413Y44475
X70100Y46850
X68350Y46475
X67850Y47100
X66100Y49100
X69350Y49850
X69850Y49350
X74350Y44100
X75038Y44100
X77100Y45100
X76350Y41913
X74350Y42100
X73350Y38475
X73350Y37100
X71850Y35100
X71600Y33850
X69100Y32600
X66100Y33100
X65100Y34475
X67600Y35100
X68100Y34475
X68600Y35975
X68350Y36975
X66600Y38475
X69600Y29850
X73100Y29100
X75600Y26350
X77350Y29475
X69600Y23600
X70600Y23100
X71600Y22600
X70100Y21475
X70225Y19413
X71600Y19350
X71100Y17850
X70600Y17225
X69850Y17600
X69100Y17350
X68350Y17600
X67600Y17538
X65975Y17413
X63600Y17600
X62600Y17225
X61100Y17850
X60600Y19225
X63100Y19600
X65100Y21975
X65600Y22600
X64600Y23100
X63600Y23600
X60350Y25475
X57100Y22850
X54600Y20600
X54100Y19600
X55100Y19600
X56600Y20100
X54225Y17975
X52100Y17725
X54100Y15475
X53975Y13725
X57100Y15975
X57850Y14100
X58725Y12600
X59600Y12475
X61100Y12288
X61600Y13225
X62100Y13725
X62600Y12725
X60100Y9975
X59350Y9350
X58100Y9475
X56850Y9600
X55600Y10100
X56350Y8725
X56100Y7850
X58475Y8100
X61100Y8100
X62100Y8100
X58350Y5350
X55850Y3350
X57100Y2850
X58163Y2663
X59413Y2538
X60413Y2538
X67413Y8038
X69413Y8163
X73100Y9350
X76975Y3725
X73850Y2600
X69600Y3350
X53350Y9725
X50100Y9350
X48600Y9975
X48475Y8038
X47725Y8038
X46975Y8038
X46225Y8038
X45413Y8038
X47600Y5913
X49350Y3600
X50600Y3850
X51600Y3600
X71600Y16100
X72600Y16225
X71600Y17225
X72100Y17850
X73100Y17725
X74100Y17600
X75600Y17225
X76600Y17850
X77225Y16725
X78163Y17663
X78413Y18350
X76100Y16100
X68350Y19413
X67100Y22100
X67600Y23975
X68100Y24600
X67100Y27100
X65850Y28350
X63600Y28475
X60600Y28850
X58600Y28850
X56100Y25600
X47600Y34600
X46600Y35100
X42600Y32225
X42100Y31600
X42100Y29600
X38850Y32100
X34850Y31100
X42600Y25850
X42600Y25100
X35600Y25100
X28100Y21100
X25600Y21600
X25100Y19100
X24100Y17350
X25600Y16850
X22100Y15850
X18100Y19600
X19100Y20100
X20100Y20600
X16100Y19600
X15225Y21600
X11475Y19475
X10725Y19475
X12100Y14100
X18850Y5100
X17225Y3538
X19475Y2350
X28100Y9600
X26100Y11600
X73600Y22100
X51600Y48975
X53100Y49850
X59100Y52350
X31163Y49850
X29975Y49475
X29100Y44600
T02
X31163Y39100
X25600Y34600
X43100Y53600
T03
X33100Y39100
X33100Y38100
X33100Y37100
X33100Y36100
X33100Y35100
X33100Y34100
X33100Y33100
X33100Y32100
X33100Y31100
X33100Y30100
X33100Y29100
X33100Y28100
X33100Y27100
X33100Y26100
X33100Y25100
X33100Y24100
X33100Y23100
X33100Y22100
X33100Y21100
X33100Y20100
X27100Y20100
X27100Y21100
X27100Y22100
X27100Y23100
X27100Y24100
X27100Y25100
X27100Y26100
X27100Y27100
X27100Y28100
X27100Y29100
X27100Y30100
X27100Y31100
X27100Y32100
X27100Y33100
X27100Y34100
X27100Y35100
X27100Y36100
X27100Y37100
X27100Y38100
X27100Y39100
X63600Y31350
X64600Y31350
X65600Y31350
X66600Y31350
X67600Y31350
X68600Y31350
X69600Y31350
X70600Y31350
X71600Y31350
X72600Y31350
X73600Y31350
X74600Y31350
X75600Y31350
X76600Y31350
X76600Y25350
X75600Y25350
X74600Y25350
X73600Y25350
X72600Y25350
X71600Y25350
X70600Y25350
X69600Y25350
X68600Y25350
X67600Y25350
X66600Y25350
X65600Y25350
X64600Y25350
X63600Y25350
X63600Y11100
X64600Y11100
X65600Y11100
X66600Y11100
X67600Y11100
X68600Y11100
X69600Y11100
X70600Y11100
X71600Y11100
X72600Y11100
X73600Y11100
X74600Y11100
X75600Y11100
X76600Y11100
X77600Y11100
X78600Y11100
X78600Y5100
X77600Y5100
X76600Y5100
X75600Y5100
X74600Y5100
X73600Y5100
X72600Y5100
X71600Y5100
X70600Y5100
X69600Y5100
X68600Y5100
X67600Y5100
X66600Y5100
X65600Y5100
X64600Y5100
X63600Y5100
X62600Y5100
X61600Y5100
X60600Y5100
X59600Y5100
X59600Y11100
X60600Y11100
X61600Y11100
X62600Y11100
X40100Y9600
X39163Y12850
X35413Y12350
X30100Y12600
X30100Y11600
X30100Y10600
X30100Y9600
X30100Y8600
X30100Y7600
X30100Y6600
X30100Y5600
X30100Y4600
X27100Y4600
X27100Y5600
X27100Y6600
X27100Y7600
X27100Y8600
X27100Y9600
X27100Y10600
X27100Y11600
X27100Y12600
X24100Y12600
X24100Y11600
X24100Y10600
X24100Y9600
X24100Y8600
X24100Y7600
X24100Y6600
X24100Y5600
X24100Y4600
X21100Y4600
X21100Y5600
X21100Y6600
X21100Y7600
X21100Y8600
X21100Y9600
X21100Y10600
X21100Y11600
X21100Y12600
T04
X21100Y15100
X20100Y15100
X19100Y15100
X18100Y15100
X17100Y15100
X16100Y15100
X15100Y15100
X14100Y15100
X12600Y15100
X11600Y15100
X10600Y15100
X9600Y15100
X8600Y15100
X7600Y15100
X6600Y15100
X6600Y13350
X7600Y13350
X8600Y13350
X9600Y13350
X10600Y13350
X11600Y13350
X11600Y12100
X10600Y12100
X9100Y12100
X7100Y12100
X8100Y9600
X9100Y9600
X10100Y9600
X11100Y9600
X12600Y9600
X14600Y9600
X14600Y8100
X12600Y8100
X11100Y8100
X10100Y8100
X9100Y8100
X8100Y8100
X6600Y7600
X5350Y7600
X5350Y5600
X6600Y5600
X8100Y5100
X9100Y5100
X10100Y5100
X11100Y5100
X12538Y4163
X13038Y4913
X13538Y4163
X13038Y2850
X14975Y1038
X9038Y2850
X14975Y5038
X21600Y2600
X23600Y2600
X27600Y2600
X29600Y2600
X36600Y7600
X39100Y7600
X40850Y6350
X42100Y6350
X42100Y5350
X41100Y5350
X39100Y9600
X40850Y10350
X42100Y10350
X36600Y9600
X29600Y15100
X28600Y15100
X27600Y15100
X26600Y15100
X25600Y15100
X24600Y15100
X23600Y15100
X22600Y15100
X22600Y18100
X23600Y18100
X24600Y18100
X25600Y18100
X26600Y18100
X27600Y18100
X28600Y18100
X29600Y18100
X21100Y18100
X20100Y18100
X19100Y18100
X18100Y18100
X17100Y18100
X16100Y18100
X15100Y18100
X14100Y18100
X12600Y18100
X11600Y18100
X10600Y18100
X9600Y18100
X8600Y18100
X7600Y18100
X6600Y18100
X4225Y17050
X4225Y15150
X6100Y25725
X5100Y27100
X6100Y28350
X5100Y29850
X6100Y31600
X6100Y32600
X6100Y33600
X6100Y34600
X5100Y34600
X3975Y34600
X2850Y34600
X6475Y36475
X8475Y36475
X10100Y35600
X10100Y34600
X9100Y34600
X9100Y33600
X9100Y32600
X9100Y31600
X9100Y29850
X8100Y28350
X8100Y27100
X8100Y25725
X11350Y27975
X12100Y27475
X12100Y28475
X12100Y29850
X10975Y29850
X14100Y29225
X14100Y30850
X14100Y32350
X14100Y33850
X16100Y33850
X18100Y32350
X18100Y30850
X18100Y29225
X22100Y32600
X20600Y35100
X20600Y36600
X22100Y36600
X19600Y38100
X18600Y38100
X17600Y38100
X16600Y38100
X15600Y38100
X14600Y38100
X13600Y38100
X12600Y38100
X13600Y36350
X12100Y33850
X10975Y33850
X17600Y36350
X18600Y36600
X18600Y35100
X21600Y38600
X21600Y40600
X19600Y41100
X18600Y41100
X17600Y41100
X16600Y41100
X15600Y41100
X14600Y41100
X13600Y41100
X12600Y41100
X13100Y43475
X14600Y43475
X16100Y43475
X17600Y43475
X17600Y47475
X16100Y47475
X14600Y47475
X13100Y47475
X10475Y49600
X9475Y49600
X9975Y48850
X8600Y52100
X4600Y52100
X4725Y41100
X6725Y41100
X5100Y38600
X3975Y38600
X2850Y38600
X26273Y43850
X27273Y43850
X34600Y44100
X38100Y46100
X38600Y46850
X39100Y46100
X38600Y44100
X52100Y35725
X56100Y35725
X56100Y30600
X55100Y30600
X53100Y30100
X53100Y28100
X55100Y27600
X56100Y27600
X57100Y27600
X58100Y27600
X59100Y27600
X60100Y27600
X61100Y27600
X61100Y30600
X60100Y30600
X59100Y30600
X58100Y30600
X57100Y30600
X61600Y24100
X61600Y22100
X61600Y20600
X60600Y20600
X59600Y20600
X62600Y20600
X63600Y20600
X64600Y20600
X65600Y20600
X66600Y20600
X67600Y20600
X68600Y20600
X69600Y20600
X70600Y20600
X71600Y20600
X72600Y20600
X73600Y20600
X74600Y20600
X75600Y20600
X76600Y20600
X77600Y20600
X78600Y20600
X78600Y25350
X78600Y27350
X76100Y35600
X76100Y36600
X78600Y42600
X78600Y43600
X75100Y43100
X75100Y45100
X56850Y44975
X55350Y44975
X55350Y48975
X56850Y48975
X59600Y14600
X60600Y14600
X61600Y14600
X62600Y14600
X63600Y14600
X64600Y14600
X65600Y14600
X66600Y14600
X67600Y14600
X68600Y14600
X69600Y14600
X70600Y14600
X71600Y14600
X72600Y14600
X73600Y14600
X74600Y14600
X75600Y14600
X76600Y14600
X77600Y14600
X78600Y14600
X80475Y13100
X76475Y13100
X75100Y13100
X73100Y13100
X66413Y13413
X63413Y13413
X76225Y3100
X78225Y3100
T05
X57100Y5100
X56100Y5100
X55100Y5100
X54100Y5100
X53100Y5100
X52100Y5100
X51100Y5100
X50100Y5100
X49100Y5100
X48100Y5100
X47100Y5100
X46100Y5100
X45100Y5100
X44100Y5100
X44100Y11100
X45100Y11100
X46100Y11100
X47100Y11100
X48100Y11100
X49100Y11100
X50100Y11100
X51100Y11100
X52100Y11100
X53100Y11100
X54100Y11100
X55100Y11100
X56100Y11100
X57100Y11100
X4600Y30600
X3475Y30600
X3475Y33600
X4600Y33600
X4850Y50850
X7850Y50850
T06
X43100Y50600
X43100Y51600
X44100Y51600
X44100Y50600
X45100Y50600
X45100Y51600
X46100Y51600
X46100Y50600
X47100Y50600
X47100Y51600
X48100Y51600
X48100Y50600
X49100Y50600
X49100Y51600
X50100Y51600
X50100Y50600
X51100Y50600
X51100Y51600
X52100Y51600
X52100Y50600
X56600Y50600
X56600Y51600
X57600Y51600
X57600Y50600
X58600Y50600
X58600Y51600
X59600Y51600
X59600Y50600
X60600Y50600
X60600Y51600
X61600Y51600
X61600Y50600
X62600Y50600
X62600Y51600
X63600Y51600
X63600Y50600
X64600Y50600
X64600Y51600
X65600Y51600
X65600Y50600
X66600Y50600
X66600Y51600
X67600Y51600
X67600Y50600
X68600Y50600
X68600Y51600
X69600Y51600
X69600Y50600
X70600Y50600
X70600Y51600
X71600Y51600
X71600Y50600
X72600Y50600
X72600Y51600
T07
X75820Y40990
X75820Y39210
X78380Y39210
X78380Y40990
X51350Y30100
X51350Y29100
X51350Y28100
X39277Y42128
X38277Y42128
X37277Y42128
X36277Y42128
X35277Y42128
X34277Y42128
X33277Y42128
X32277Y42128
X31277Y42128
X30277Y42128
X29277Y42128
X28277Y42128
X27277Y42128
X26277Y42128
X7850Y42600
X7850Y44600
X7850Y46600
X4850Y46600
X4850Y44600
X4850Y42600
X4850Y49600
X7850Y49600
T08
X73100Y42100
X73100Y41100
X73100Y40100
T09
X25537Y53423
X23569Y53423
T10
X31773Y53340
X33773Y53340
X33773Y47340
X32773Y46340
X31773Y47340
X30773Y46340
X29773Y47340
X34773Y46340
X35773Y47340
T11
X27506Y47557
X26521Y48541
X27506Y49525
X24553Y49525
X22584Y48541
X21600Y49525
X21600Y47557
X24553Y47557
T12
X29773Y51340
X35773Y51340
T13
X75029Y50246
X76880Y51387
X76880Y49065
T14
X1576Y1576
X1576Y52462
X38191Y52462
X79824Y52462
X79824Y1576
T15
X67200Y41100
M30
