G75*
%MOIN*%
%OFA0B0*%
%FSLAX24Y24*%
%IPPOS*%
%LPD*%
%AMOC8*
5,1,8,0,0,1.08239X$1,22.5*
%
%ADD10C,0.0600*%
%ADD11C,0.0520*%
%ADD12C,0.1000*%
%ADD13OC8,0.0520*%
%ADD14C,0.0240*%
%ADD15C,0.0436*%
%ADD16C,0.0400*%
%ADD17C,0.0200*%
D10*
X055322Y047550D02*
X055322Y048150D01*
X056322Y048150D02*
X056322Y047550D01*
X057322Y047550D02*
X057322Y048150D01*
X058322Y048150D02*
X058322Y047550D01*
X059322Y047550D02*
X059322Y048150D01*
X060322Y048150D02*
X060322Y047550D01*
X061322Y047550D02*
X061322Y048150D01*
X062322Y048150D02*
X062322Y047550D01*
X063322Y047550D02*
X063322Y048150D01*
X064322Y048150D02*
X064322Y047550D01*
X065322Y047550D02*
X065322Y048150D01*
X066322Y048150D02*
X066322Y047550D01*
X067322Y047550D02*
X067322Y048150D01*
X068322Y048150D02*
X068322Y047550D01*
D11*
X085350Y047360D02*
X085350Y046840D01*
X086350Y046840D02*
X086350Y047360D01*
X087350Y047360D02*
X087350Y046840D01*
X088350Y046840D02*
X088350Y047360D01*
X089350Y047360D02*
X089350Y046840D01*
X090350Y046840D02*
X090350Y047360D01*
X091350Y047360D02*
X091350Y046840D01*
X092350Y046840D02*
X092350Y047360D01*
X092350Y049840D02*
X092350Y050360D01*
X091350Y050360D02*
X091350Y049840D01*
X090350Y049840D02*
X090350Y050360D01*
X089350Y050360D02*
X089350Y049840D01*
X088350Y049840D02*
X088350Y050360D01*
X087350Y050360D02*
X087350Y049840D01*
X086350Y049840D02*
X086350Y050360D01*
X085350Y050360D02*
X085350Y049840D01*
D12*
X085225Y041350D03*
X082725Y040350D03*
X077725Y041350D03*
X075225Y040350D03*
X070225Y041350D03*
X067725Y040350D03*
X062725Y041350D03*
X060225Y040350D03*
X055225Y041350D03*
X052725Y040350D03*
X047725Y041350D03*
X045225Y040350D03*
X040225Y041350D03*
X037725Y040350D03*
X032725Y041350D03*
X030225Y040350D03*
X025225Y041350D03*
X022725Y040350D03*
X017725Y041350D03*
X015225Y040350D03*
X010225Y041350D03*
X007725Y040350D03*
X005850Y033850D03*
X003350Y032850D03*
X010850Y032850D03*
X013350Y033850D03*
X018350Y032850D03*
X020850Y033850D03*
X025850Y032850D03*
X028350Y033850D03*
X033350Y032850D03*
X035850Y033850D03*
X040850Y032850D03*
X043350Y033850D03*
X048350Y032850D03*
X050850Y033850D03*
X055850Y032850D03*
X058350Y033850D03*
X063350Y032850D03*
X065850Y033850D03*
X070850Y032850D03*
X073350Y033850D03*
X078350Y032850D03*
X080850Y033850D03*
X085850Y032850D03*
X088350Y033850D03*
X093350Y032850D03*
X095850Y033850D03*
X100850Y032850D03*
X103350Y033850D03*
X097725Y040350D03*
X100225Y041350D03*
X092725Y041350D03*
X090225Y040350D03*
X090850Y026350D03*
X088350Y025350D03*
X083350Y026350D03*
X080850Y025350D03*
X075850Y026350D03*
X073350Y025350D03*
X068350Y026350D03*
X065850Y025350D03*
X060850Y026350D03*
X058350Y025350D03*
X053350Y026350D03*
X050850Y025350D03*
X045850Y026350D03*
X043350Y025350D03*
X038350Y026350D03*
X035850Y025350D03*
X030850Y026350D03*
X028350Y025350D03*
X023350Y026350D03*
X020850Y025350D03*
X015850Y026350D03*
X013350Y025350D03*
X008350Y026350D03*
X005850Y025350D03*
X008350Y018850D03*
X005850Y017850D03*
X017100Y017850D03*
X019600Y018850D03*
X024600Y017850D03*
X027100Y018850D03*
X032100Y017850D03*
X034600Y018850D03*
X039600Y017850D03*
X042100Y018850D03*
X047100Y017850D03*
X049600Y018850D03*
X054600Y017850D03*
X057100Y018850D03*
X062100Y017850D03*
X064600Y018850D03*
X069600Y017850D03*
X072100Y018850D03*
X077100Y017850D03*
X079600Y018850D03*
X084600Y017850D03*
X087100Y018850D03*
X095850Y017850D03*
X098350Y018850D03*
X099600Y025350D03*
X102100Y026350D03*
X096163Y011350D03*
X093663Y010350D03*
X088663Y011350D03*
X086163Y010350D03*
X081163Y011350D03*
X078663Y010350D03*
X054350Y011350D03*
X051850Y010350D03*
X027100Y011350D03*
X024600Y010350D03*
X019600Y011350D03*
X017100Y010350D03*
D13*
X096850Y048850D03*
X099850Y048850D03*
X099725Y046850D03*
X098725Y046850D03*
D14*
X014350Y004850D02*
X005850Y013350D01*
X005850Y017259D01*
X005850Y017259D01*
X006141Y017605D01*
X006141Y017605D01*
X005850Y017259D01*
X005850Y017259D01*
X005850Y017259D01*
X005850Y017259D01*
X005559Y017605D01*
X005850Y017850D01*
X005559Y017605D01*
X005850Y017259D01*
X006141Y017605D01*
X005850Y017850D01*
X005559Y017605D01*
X005850Y017259D01*
X006141Y017605D01*
X006141Y017605D01*
X005850Y017259D01*
X005559Y017605D01*
X005850Y017259D01*
X005559Y017605D01*
X005559Y017605D01*
X005850Y017850D01*
X006141Y017605D01*
X005850Y017850D01*
X006141Y018095D01*
X006141Y018095D01*
X005850Y018441D01*
X005850Y018441D01*
X005850Y018441D01*
X006141Y018095D01*
X005850Y017850D01*
X005559Y018095D01*
X005850Y017850D01*
X005559Y018095D01*
X005850Y018441D01*
X005850Y018441D01*
X005850Y018441D01*
X005850Y024759D01*
X005850Y024759D01*
X006141Y025105D01*
X006141Y025105D01*
X005850Y024759D01*
X005850Y024759D01*
X005850Y024759D01*
X005850Y024759D01*
X005559Y025105D01*
X005850Y025350D01*
X005883Y025729D01*
X005850Y025350D01*
X005471Y025317D01*
X005432Y025768D01*
X005883Y025729D01*
X005883Y025729D01*
X005883Y025729D01*
X005432Y025768D01*
X005432Y025768D01*
X005471Y025317D01*
X005471Y025317D01*
X005471Y025317D01*
X005432Y025768D01*
X005432Y025768D01*
X001850Y029350D01*
X001850Y036850D01*
X011850Y046850D01*
X066100Y046850D01*
X066322Y047072D01*
X066322Y047850D01*
X064600Y048850D02*
X068600Y048850D01*
X070600Y046850D01*
X083600Y046850D01*
X084850Y048100D01*
X090100Y048100D01*
X090350Y047850D01*
X090350Y047100D01*
X091350Y047100D01*
X092350Y047100D01*
X095850Y047100D01*
X097474Y046976D02*
X097767Y046791D01*
X097725Y046725D01*
X097659Y046683D01*
X097474Y046976D01*
X093100Y051350D01*
X085100Y051350D01*
X083851Y050101D01*
X083666Y049808D01*
X083600Y049850D01*
X083558Y049916D01*
X083851Y050101D01*
X083600Y049850D01*
X083850Y049100D02*
X086100Y049100D01*
X086350Y049350D01*
X086350Y050100D01*
X087350Y050100D02*
X087350Y049350D01*
X086600Y048600D01*
X084350Y048600D01*
X083350Y047600D01*
X074100Y047600D01*
X070350Y048350D02*
X083100Y048350D01*
X083850Y049100D01*
X082100Y049100D02*
X082100Y052100D01*
X085350Y047100D02*
X085350Y046100D01*
X085600Y045850D01*
X098600Y045850D01*
X104850Y039600D01*
X104850Y024350D01*
X101100Y020600D01*
X095663Y020600D01*
X091350Y016288D01*
X091350Y013850D01*
X089163Y011663D01*
X089024Y011233D01*
X088663Y011350D01*
X088716Y011726D01*
X089163Y011663D01*
X088850Y011350D01*
X088663Y011350D01*
X086453Y010595D02*
X086163Y010350D01*
X085872Y010595D01*
X086163Y010941D01*
X086453Y010595D01*
X086163Y010350D02*
X086163Y010941D01*
X086163Y012913D01*
X089850Y016350D01*
X089850Y020350D01*
X088350Y021850D01*
X088350Y024759D01*
X088350Y024759D01*
X088641Y025105D01*
X088641Y025105D01*
X088350Y024759D01*
X088350Y024759D01*
X088350Y024759D01*
X088350Y024759D01*
X088059Y025105D01*
X088350Y025350D01*
X088059Y025105D01*
X088350Y024759D01*
X088641Y025105D01*
X088350Y025350D01*
X088059Y025105D01*
X088350Y024759D01*
X088641Y025105D01*
X088641Y025105D01*
X088350Y024759D01*
X088059Y025105D01*
X088350Y024759D01*
X088059Y025105D01*
X088059Y025105D01*
X088350Y025350D01*
X088641Y025105D01*
X088350Y025350D01*
X088641Y025595D01*
X088641Y025595D01*
X088350Y025941D01*
X088350Y025941D01*
X088350Y025941D01*
X088641Y025595D01*
X088350Y025350D01*
X088059Y025595D01*
X088350Y025350D01*
X088059Y025595D01*
X088350Y025941D01*
X088350Y025941D01*
X088350Y025941D01*
X088350Y027100D01*
X085850Y029600D01*
X085850Y032259D01*
X085850Y032259D01*
X086141Y032605D01*
X086141Y032605D01*
X085850Y032259D01*
X085850Y032259D01*
X085850Y032259D01*
X085850Y032259D01*
X085559Y032605D01*
X085850Y032850D01*
X085559Y032605D01*
X085850Y032259D01*
X086141Y032605D01*
X085850Y032850D01*
X085559Y032605D01*
X085850Y032259D01*
X086141Y032605D01*
X086141Y032605D01*
X085850Y032259D01*
X085559Y032605D01*
X085850Y032259D01*
X085559Y032605D01*
X085559Y032605D01*
X085850Y032850D01*
X086141Y032605D01*
X085850Y032850D01*
X086141Y033095D01*
X086141Y033095D01*
X085850Y033441D01*
X085850Y033441D01*
X085850Y033441D01*
X086141Y033095D01*
X085850Y032850D01*
X085559Y033095D01*
X085850Y032850D01*
X085559Y033095D01*
X085850Y033441D01*
X085850Y033441D01*
X085850Y033441D01*
X085850Y035975D01*
X088100Y038225D01*
X088100Y040350D01*
X089634Y040350D01*
X089634Y040350D01*
X089634Y040350D01*
X089980Y040641D01*
X089980Y040641D01*
X089634Y040350D01*
X089634Y040350D01*
X089634Y040350D01*
X089980Y040641D01*
X090225Y040350D01*
X089980Y040641D01*
X089634Y040350D01*
X089980Y040059D01*
X090225Y040350D01*
X089980Y040059D01*
X089634Y040350D01*
X089980Y040059D01*
X090225Y040350D01*
X089980Y040059D01*
X089634Y040350D01*
X089980Y040641D01*
X089980Y040641D01*
X090225Y040350D01*
X089634Y040350D01*
X089980Y040641D01*
X089634Y040350D01*
X089980Y040059D01*
X089634Y040350D01*
X089980Y040059D02*
X089980Y040059D01*
X088100Y040350D02*
X088100Y041850D01*
X086850Y043100D01*
X066850Y043100D01*
X066100Y043850D01*
X059710Y043850D01*
X059368Y043772D01*
X059350Y043850D01*
X059368Y043772D01*
X059710Y043850D01*
X059368Y043928D01*
X059350Y043850D01*
X059368Y043928D01*
X059710Y043850D01*
X059350Y043850D01*
X059368Y043928D02*
X059710Y043850D01*
X059368Y043772D01*
X059710Y043850D01*
X059710Y043850D01*
X059368Y043928D01*
X059368Y043928D01*
X059368Y043772D02*
X059368Y043772D01*
X059332Y045272D02*
X058990Y045350D01*
X059332Y045428D01*
X059350Y045350D01*
X059332Y045428D01*
X058990Y045350D01*
X059332Y045272D01*
X059350Y045350D01*
X059332Y045272D01*
X058990Y045350D01*
X059332Y045272D01*
X059332Y045272D01*
X058990Y045350D01*
X059350Y045350D01*
X059332Y045428D02*
X058990Y045350D01*
X027725Y045350D01*
X023143Y040768D01*
X023104Y040317D01*
X022725Y040350D01*
X022346Y040383D01*
X022346Y040383D01*
X022307Y039932D01*
X022346Y040383D01*
X022725Y040350D01*
X022758Y039971D01*
X022758Y039971D01*
X022307Y039932D01*
X022758Y039971D01*
X022725Y040350D01*
X022692Y040729D01*
X023143Y040768D01*
X022692Y040729D01*
X022725Y040350D01*
X023104Y040317D01*
X023143Y040768D01*
X023143Y040768D01*
X023104Y040317D01*
X023104Y040317D01*
X023104Y040317D01*
X022725Y040350D02*
X023143Y040768D01*
X022692Y040729D02*
X022692Y040729D01*
X022692Y040729D01*
X022725Y040350D02*
X022307Y039932D01*
X022346Y040383D01*
X022346Y040383D01*
X022307Y039932D01*
X022758Y039971D01*
X022758Y039971D01*
X022307Y039932D02*
X022307Y039932D01*
X022307Y039932D01*
X018350Y035975D01*
X018350Y033441D01*
X018350Y033441D01*
X018350Y033441D01*
X018641Y033095D01*
X018641Y033095D01*
X018350Y033441D01*
X018350Y033441D01*
X018350Y033441D01*
X018641Y033095D01*
X018350Y032850D01*
X018059Y032605D01*
X018350Y032850D01*
X018641Y032605D01*
X018641Y032605D01*
X018350Y032259D01*
X018350Y032259D01*
X018641Y032605D01*
X018350Y032259D01*
X018350Y032259D01*
X018350Y032259D01*
X018350Y030100D01*
X020850Y027600D01*
X026100Y027600D01*
X027932Y025768D01*
X028383Y025729D01*
X028350Y025350D01*
X028059Y025105D01*
X028350Y025350D01*
X028641Y025105D01*
X028641Y025105D01*
X028350Y024759D01*
X028350Y024759D01*
X028641Y025105D01*
X028350Y024759D01*
X028350Y024759D01*
X028350Y024759D01*
X028350Y021600D01*
X031682Y018268D01*
X032133Y018229D01*
X032100Y017850D01*
X032133Y018229D01*
X032133Y018229D01*
X032133Y018229D01*
X031682Y018268D01*
X031721Y017817D01*
X032100Y017850D01*
X031721Y017817D01*
X031721Y017817D01*
X031721Y017817D01*
X031682Y018268D01*
X031682Y018268D01*
X031721Y017817D01*
X031682Y018268D01*
X031682Y018268D01*
X031682Y018268D01*
X032133Y018229D01*
X032100Y017850D02*
X031682Y018268D01*
X027518Y018432D02*
X027067Y018471D01*
X027100Y018850D01*
X027133Y019229D01*
X027100Y018850D01*
X026721Y018817D01*
X026682Y019268D01*
X027133Y019229D01*
X027133Y019229D01*
X027133Y019229D01*
X026682Y019268D01*
X026682Y019268D01*
X026721Y018817D01*
X026721Y018817D01*
X026721Y018817D01*
X026682Y019268D01*
X026682Y019268D01*
X026682Y019268D01*
X026100Y019850D01*
X026100Y024990D01*
X026022Y025332D01*
X026100Y025350D01*
X026022Y025332D01*
X026100Y024990D01*
X026178Y025332D01*
X026100Y025350D01*
X026178Y025332D01*
X026100Y024990D01*
X026100Y025350D01*
X026178Y025332D02*
X026100Y024990D01*
X026022Y025332D01*
X026100Y024990D01*
X026100Y024990D01*
X026178Y025332D01*
X026178Y025332D01*
X026022Y025332D02*
X026022Y025332D01*
X027971Y025317D02*
X027932Y025768D01*
X027971Y025317D01*
X028350Y025350D01*
X028059Y025105D01*
X028350Y024759D01*
X028350Y024759D01*
X028059Y025105D01*
X028350Y024759D01*
X028641Y025105D01*
X028641Y025105D01*
X028350Y024759D01*
X028059Y025105D01*
X028350Y024759D01*
X028059Y025105D01*
X028059Y025105D01*
X028350Y025350D01*
X028641Y025105D01*
X028350Y025350D01*
X028383Y025729D01*
X028383Y025729D01*
X028383Y025729D01*
X027932Y025768D01*
X027932Y025768D01*
X027971Y025317D01*
X027971Y025317D01*
X027971Y025317D01*
X028350Y025350D01*
X028350Y024759D01*
X028641Y025105D01*
X028350Y025350D02*
X027932Y025768D01*
X027932Y025768D01*
X027932Y025768D01*
X028383Y025729D01*
X027932Y025768D02*
X027971Y025317D01*
X029100Y026350D02*
X027100Y028350D01*
X023204Y028350D01*
X022867Y028274D01*
X022850Y028350D01*
X022867Y028426D01*
X023204Y028350D01*
X022867Y028274D01*
X022867Y028274D01*
X022850Y028350D01*
X022867Y028426D01*
X023204Y028350D01*
X022867Y028274D01*
X023204Y028350D01*
X022867Y028426D01*
X022867Y028426D01*
X023204Y028350D01*
X023204Y028350D01*
X022850Y028350D01*
X025850Y030600D02*
X028350Y028350D01*
X032850Y028350D01*
X035432Y025768D01*
X035883Y025729D01*
X035850Y025350D01*
X035559Y025105D01*
X035850Y025350D01*
X036141Y025105D01*
X036141Y025105D01*
X035850Y024759D01*
X035850Y024759D01*
X036141Y025105D01*
X035850Y024759D01*
X035850Y024759D01*
X035850Y024759D01*
X035850Y024759D01*
X035850Y017850D01*
X039009Y017850D01*
X039009Y017850D01*
X039009Y017850D01*
X039355Y018141D01*
X039355Y018141D01*
X039009Y017850D01*
X039009Y017850D01*
X039009Y017850D01*
X039355Y018141D01*
X039600Y017850D01*
X039355Y018141D01*
X039009Y017850D01*
X039355Y017559D01*
X039600Y017850D01*
X039355Y017559D01*
X039009Y017850D01*
X039355Y017559D01*
X039600Y017850D01*
X039355Y017559D01*
X039009Y017850D01*
X039355Y018141D01*
X039355Y018141D01*
X039600Y017850D01*
X039009Y017850D01*
X039355Y018141D01*
X039009Y017850D01*
X039355Y017559D01*
X039009Y017850D01*
X039355Y017559D02*
X039355Y017559D01*
X035850Y017850D02*
X035850Y016850D01*
X045600Y007100D01*
X056100Y007100D01*
X062850Y013850D01*
X078663Y013850D01*
X078663Y010941D01*
X078953Y010595D01*
X078663Y010350D01*
X078372Y010595D01*
X078663Y010941D01*
X078663Y010350D01*
X075350Y006350D02*
X072350Y009350D01*
X060100Y009350D01*
X056350Y005600D01*
X039600Y005600D01*
X038850Y004850D01*
X014350Y004850D01*
X017100Y010350D02*
X017391Y010595D01*
X017100Y010941D01*
X016809Y010595D01*
X017100Y010350D01*
X017100Y010941D01*
X017100Y011350D01*
X013350Y015100D01*
X013350Y017850D01*
X013350Y024759D01*
X013350Y024759D01*
X013641Y025105D01*
X013641Y025105D01*
X013350Y024759D01*
X013350Y024759D01*
X013350Y024759D01*
X013350Y024759D01*
X013059Y025105D01*
X013350Y025350D01*
X013059Y025105D01*
X013350Y024759D01*
X013641Y025105D01*
X013350Y025350D01*
X013059Y025105D01*
X013350Y024759D01*
X013641Y025105D01*
X013641Y025105D01*
X013350Y024759D01*
X013059Y025105D01*
X013350Y024759D01*
X013059Y025105D01*
X013059Y025105D01*
X013350Y025350D01*
X013641Y025105D01*
X013350Y025350D01*
X013383Y025729D01*
X013350Y025350D01*
X012971Y025317D01*
X012932Y025768D01*
X013383Y025729D01*
X013383Y025729D01*
X013383Y025729D01*
X012932Y025768D01*
X012932Y025768D01*
X012971Y025317D01*
X012971Y025317D01*
X012971Y025317D01*
X012932Y025768D01*
X012932Y025768D01*
X012932Y025768D01*
X010600Y028100D01*
X005600Y028100D01*
X003350Y030350D01*
X003350Y032259D01*
X003350Y032259D01*
X003641Y032605D01*
X003641Y032605D01*
X003350Y032259D01*
X003350Y032259D01*
X003350Y032259D01*
X003350Y032259D01*
X003059Y032605D01*
X003350Y032850D01*
X003641Y033095D01*
X003641Y033095D01*
X003350Y033441D01*
X003350Y033441D01*
X003350Y033441D01*
X003641Y033095D01*
X003350Y032850D01*
X003059Y033095D01*
X003350Y032850D01*
X003059Y033095D01*
X003350Y033441D01*
X003350Y033441D01*
X003350Y035975D01*
X007307Y039932D01*
X007346Y040383D01*
X007346Y040383D01*
X007307Y039932D01*
X007758Y039971D01*
X007758Y039971D01*
X007307Y039932D01*
X007346Y040383D01*
X007725Y040350D01*
X007758Y039971D01*
X007725Y040350D01*
X007346Y040383D01*
X007346Y040383D01*
X007307Y039932D01*
X007758Y039971D01*
X007758Y039971D01*
X007725Y040350D02*
X008104Y040317D01*
X008143Y040768D01*
X008104Y040317D01*
X007725Y040350D01*
X007692Y040729D01*
X008143Y040768D01*
X007692Y040729D01*
X007725Y040350D01*
X008143Y040768D01*
X013475Y046100D01*
X064990Y046100D01*
X065332Y046178D01*
X065350Y046100D01*
X065307Y046032D01*
X065605Y046095D01*
X065418Y046143D01*
X065350Y046100D01*
X065332Y046178D01*
X064990Y046100D01*
X065332Y046022D01*
X065350Y046100D01*
X065332Y046022D01*
X064990Y046100D01*
X065332Y046022D01*
X065332Y046022D01*
X064990Y046100D01*
X065350Y046100D01*
X065307Y046032D01*
X065605Y046095D01*
X065418Y046143D01*
X065350Y046100D01*
X065307Y046032D01*
X065605Y046095D01*
X065307Y046032D01*
X065307Y046032D01*
X065605Y046095D01*
X065418Y046143D01*
X065605Y046095D01*
X065418Y046143D01*
X065350Y046100D01*
X065850Y046100D01*
X065605Y046095D01*
X065418Y046143D02*
X065418Y046143D01*
X065332Y046178D02*
X064990Y046100D01*
X065332Y046178D01*
X065332Y046178D01*
X065332Y046022D02*
X064990Y046100D01*
X064990Y046100D01*
X065850Y046100D02*
X084600Y046100D01*
X085600Y045100D01*
X098350Y045100D01*
X102350Y041100D01*
X102350Y037850D01*
X100850Y036350D01*
X100850Y033441D01*
X100850Y033441D01*
X100850Y033441D01*
X101141Y033095D01*
X101141Y033095D01*
X100850Y033441D01*
X100850Y033441D01*
X100850Y033441D01*
X101141Y033095D01*
X100850Y032850D01*
X101141Y033095D01*
X100850Y033441D01*
X100559Y033095D01*
X100850Y032850D01*
X100559Y033095D01*
X100850Y033441D01*
X100559Y033095D01*
X100850Y032850D01*
X100559Y033095D01*
X100850Y033441D01*
X101141Y033095D01*
X101141Y033095D01*
X100850Y032850D01*
X100471Y032883D01*
X100471Y032883D01*
X100432Y032432D01*
X100471Y032883D01*
X100850Y032850D01*
X100883Y032471D01*
X100883Y032471D01*
X100432Y032432D01*
X100883Y032471D01*
X100850Y032850D01*
X100850Y033441D01*
X101141Y033095D01*
X100850Y033441D01*
X100559Y033095D01*
X100850Y033441D01*
X100559Y033095D02*
X100559Y033095D01*
X100471Y032883D02*
X100471Y032883D01*
X100432Y032432D01*
X100883Y032471D01*
X100883Y032471D01*
X100850Y032850D02*
X100432Y032432D01*
X100471Y032883D01*
X100432Y032432D02*
X100432Y032432D01*
X100432Y032432D01*
X099600Y031600D01*
X099600Y025941D01*
X099600Y025941D01*
X099600Y025941D01*
X099891Y025595D01*
X099891Y025595D01*
X099600Y025941D01*
X099600Y025941D01*
X099600Y025941D01*
X099891Y025595D01*
X099600Y025350D01*
X099891Y025595D01*
X099600Y025941D01*
X099309Y025595D01*
X099600Y025350D01*
X099309Y025595D01*
X099600Y025941D01*
X099309Y025595D01*
X099600Y025350D01*
X099309Y025595D01*
X099600Y025941D01*
X099891Y025595D01*
X099891Y025595D01*
X099600Y025350D01*
X099600Y025941D01*
X099891Y025595D01*
X099600Y025941D01*
X099309Y025595D01*
X099600Y025941D01*
X099309Y025595D02*
X099309Y025595D01*
X088641Y025595D02*
X088350Y025350D01*
X088059Y025595D01*
X088350Y025941D01*
X088641Y025595D01*
X088350Y025941D01*
X088059Y025595D01*
X088350Y025941D01*
X088059Y025595D01*
X088350Y025941D01*
X088641Y025595D01*
X088641Y025595D01*
X088350Y025941D01*
X088641Y025595D01*
X088350Y025350D02*
X088350Y025941D01*
X088059Y025595D02*
X088059Y025595D01*
X088350Y025350D02*
X088350Y024759D01*
X088641Y025105D01*
X086100Y026850D02*
X083600Y029350D01*
X083600Y034850D01*
X080413Y038038D01*
X078350Y035975D01*
X078350Y033441D01*
X078350Y033441D01*
X078350Y033441D01*
X078641Y033095D01*
X078641Y033095D01*
X078350Y033441D01*
X078350Y033441D01*
X078350Y033441D01*
X078641Y033095D01*
X078350Y032850D01*
X078641Y033095D01*
X078350Y033441D01*
X078059Y033095D01*
X078350Y032850D01*
X078059Y033095D01*
X078350Y033441D01*
X078059Y033095D01*
X078350Y032850D01*
X078059Y033095D01*
X078350Y033441D01*
X078641Y033095D01*
X078641Y033095D01*
X078350Y032850D01*
X078350Y033441D01*
X078641Y033095D01*
X078350Y033441D01*
X078059Y033095D01*
X078350Y033441D01*
X078059Y033095D02*
X078059Y033095D01*
X077100Y030600D02*
X077100Y036350D01*
X079350Y038600D01*
X079350Y042100D01*
X071100Y042100D01*
X070700Y041700D01*
X070594Y041261D01*
X070225Y041350D01*
X070249Y041729D01*
X070700Y041700D01*
X070249Y041729D01*
X070249Y041729D01*
X070225Y041350D01*
X070258Y041729D01*
X070249Y041729D02*
X070700Y041700D01*
X070700Y041700D01*
X070350Y041350D01*
X070225Y041350D01*
X070594Y041261D01*
X070700Y041700D01*
X070700Y041700D01*
X070594Y041261D01*
X070700Y041700D02*
X070249Y041729D01*
X070249Y041729D01*
X070700Y041700D02*
X070700Y041700D01*
X067725Y040350D02*
X067758Y039971D01*
X067758Y039971D01*
X067307Y039932D01*
X067346Y040383D01*
X067346Y040383D01*
X067307Y039932D01*
X067758Y039971D01*
X067725Y040350D01*
X067346Y040383D01*
X067725Y040350D01*
X067307Y039932D01*
X067346Y040383D01*
X067346Y040383D01*
X067307Y039932D01*
X067758Y039971D01*
X067758Y039971D01*
X067307Y039932D02*
X067307Y039932D01*
X067307Y039932D01*
X063350Y035975D01*
X063350Y033441D01*
X063350Y033441D01*
X063350Y033441D01*
X063641Y033095D01*
X063641Y033095D01*
X063350Y033441D01*
X063350Y033441D01*
X063350Y033441D01*
X063641Y033095D01*
X063350Y032850D01*
X063059Y032605D01*
X063350Y032850D01*
X063641Y032605D01*
X063641Y032605D01*
X063350Y032259D01*
X063350Y032259D01*
X063641Y032605D01*
X063350Y032259D01*
X063350Y032259D01*
X063350Y032259D01*
X063350Y030100D01*
X065350Y028100D01*
X070100Y028100D01*
X071350Y026850D01*
X071350Y025350D01*
X072759Y025350D01*
X072759Y025350D01*
X072759Y025350D01*
X073105Y025641D01*
X073105Y025641D01*
X072759Y025350D01*
X072759Y025350D01*
X072759Y025350D01*
X073105Y025641D01*
X073350Y025350D01*
X073105Y025641D01*
X072759Y025350D01*
X073105Y025059D01*
X073350Y025350D01*
X073105Y025059D01*
X072759Y025350D01*
X073105Y025059D01*
X073350Y025350D01*
X073105Y025059D01*
X072759Y025350D01*
X073105Y025641D01*
X073105Y025641D01*
X073350Y025350D01*
X072759Y025350D01*
X073105Y025641D01*
X072759Y025350D01*
X073105Y025059D01*
X072759Y025350D01*
X073105Y025059D02*
X073105Y025059D01*
X071350Y025350D02*
X071350Y022100D01*
X069600Y020350D01*
X069600Y018441D01*
X069600Y018441D01*
X069600Y018441D01*
X069891Y018095D01*
X069891Y018095D01*
X069600Y018441D01*
X069600Y018441D01*
X069600Y018441D01*
X069891Y018095D01*
X069600Y017850D01*
X069891Y018095D01*
X069600Y018441D01*
X069309Y018095D01*
X069600Y017850D01*
X069309Y018095D01*
X069600Y018441D01*
X069309Y018095D01*
X069600Y017850D01*
X069309Y018095D01*
X069600Y018441D01*
X069891Y018095D01*
X069891Y018095D01*
X069600Y017850D01*
X069600Y018441D01*
X069891Y018095D01*
X069600Y018441D01*
X069309Y018095D01*
X069600Y018441D01*
X069309Y018095D02*
X069309Y018095D01*
X062100Y017850D02*
X061855Y017559D01*
X062100Y017850D01*
X061855Y018141D01*
X061855Y018141D01*
X061509Y017850D01*
X061509Y017850D01*
X061509Y017850D01*
X061855Y018141D01*
X062100Y017850D01*
X061855Y017559D01*
X061509Y017850D01*
X061509Y017850D01*
X060100Y017850D01*
X060100Y014350D01*
X058850Y013100D01*
X053100Y013100D01*
X051850Y011850D01*
X051850Y010941D01*
X051850Y010941D01*
X051850Y010941D01*
X052141Y010595D01*
X052141Y010595D01*
X051850Y010941D01*
X051850Y010941D01*
X051850Y010941D01*
X052141Y010595D01*
X051850Y010350D01*
X052141Y010595D01*
X051850Y010941D01*
X051559Y010595D01*
X051850Y010350D01*
X051559Y010595D01*
X051850Y010941D01*
X051559Y010595D01*
X051850Y010350D01*
X051559Y010595D01*
X051850Y010941D01*
X052141Y010595D01*
X052141Y010595D01*
X051850Y010350D01*
X051850Y010941D01*
X052141Y010595D01*
X051850Y010941D01*
X051559Y010595D01*
X051850Y010941D01*
X051559Y010595D02*
X051559Y010595D01*
X047100Y015350D02*
X047100Y017259D01*
X047100Y017259D01*
X047391Y017605D01*
X047391Y017605D01*
X047100Y017259D01*
X047100Y017259D01*
X047100Y017259D01*
X047100Y017259D01*
X046809Y017605D01*
X047100Y017850D01*
X046809Y017605D01*
X047100Y017259D01*
X047391Y017605D01*
X047100Y017850D01*
X046809Y017605D01*
X047100Y017259D01*
X047391Y017605D01*
X047391Y017605D01*
X047100Y017259D01*
X046809Y017605D01*
X047100Y017259D01*
X046809Y017605D01*
X046809Y017605D01*
X047100Y017850D01*
X047391Y017605D01*
X047100Y017850D01*
X047100Y017259D01*
X047391Y017605D01*
X046350Y015350D02*
X044850Y016850D01*
X044850Y020100D01*
X043350Y021600D01*
X043350Y024759D01*
X043350Y024759D01*
X043641Y025105D01*
X043641Y025105D01*
X043350Y024759D01*
X043350Y024759D01*
X043350Y024759D01*
X043350Y024759D01*
X043059Y025105D01*
X043350Y025350D01*
X043059Y025105D01*
X043350Y024759D01*
X043641Y025105D01*
X043350Y025350D01*
X043059Y025105D01*
X043350Y024759D01*
X043641Y025105D01*
X043641Y025105D01*
X043350Y024759D01*
X043059Y025105D01*
X043350Y024759D01*
X043059Y025105D01*
X043059Y025105D01*
X043350Y025350D01*
X043641Y025105D01*
X043350Y025350D01*
X043383Y025729D01*
X043350Y025350D01*
X042971Y025317D01*
X042932Y025768D01*
X043383Y025729D01*
X043383Y025729D01*
X043383Y025729D01*
X042932Y025768D01*
X042932Y025768D01*
X042971Y025317D01*
X042971Y025317D01*
X042971Y025317D01*
X042932Y025768D01*
X042932Y025768D01*
X037725Y030975D01*
X037725Y035600D01*
X034600Y035600D01*
X033350Y034350D01*
X033350Y033441D01*
X033350Y033441D01*
X033350Y033441D01*
X033641Y033095D01*
X033641Y033095D01*
X033350Y033441D01*
X033350Y033441D01*
X033350Y033441D01*
X033641Y033095D01*
X033350Y032850D01*
X033641Y033095D01*
X033350Y033441D01*
X033059Y033095D01*
X033350Y032850D01*
X033059Y033095D01*
X033350Y033441D01*
X033059Y033095D01*
X033350Y032850D01*
X033059Y033095D01*
X033350Y033441D01*
X033641Y033095D01*
X033641Y033095D01*
X033350Y032850D01*
X033350Y033441D01*
X033641Y033095D01*
X033350Y033441D01*
X033059Y033095D01*
X033350Y033441D01*
X033059Y033095D02*
X033059Y033095D01*
X037725Y035600D02*
X037725Y039759D01*
X037725Y039759D01*
X038016Y040105D01*
X038016Y040105D01*
X037725Y039759D01*
X037725Y039759D01*
X037725Y039759D01*
X037725Y039759D01*
X037434Y040105D01*
X037725Y040350D01*
X037434Y040105D01*
X037725Y039759D01*
X038016Y040105D01*
X037725Y040350D01*
X037434Y040105D01*
X037725Y039759D01*
X038016Y040105D01*
X038016Y040105D01*
X037725Y039759D01*
X037434Y040105D01*
X037725Y039759D01*
X037434Y040105D01*
X037434Y040105D01*
X037725Y040350D01*
X038016Y040105D01*
X037725Y040350D01*
X038104Y040317D01*
X038143Y040768D01*
X038104Y040317D01*
X037725Y040350D01*
X037692Y040729D01*
X038143Y040768D01*
X037692Y040729D01*
X037725Y040350D01*
X038016Y040595D01*
X037725Y040350D01*
X037725Y039759D01*
X038016Y040105D01*
X038104Y040317D02*
X038104Y040317D01*
X038143Y040768D01*
X041975Y044600D01*
X054600Y044600D01*
X055225Y043475D02*
X055225Y041941D01*
X055225Y041941D01*
X055225Y041941D01*
X055516Y041595D01*
X055516Y041595D01*
X055225Y041941D01*
X055225Y041941D01*
X055225Y041941D01*
X055516Y041595D01*
X055225Y041350D01*
X055516Y041595D01*
X055225Y041941D01*
X054934Y041595D01*
X055225Y041350D01*
X054934Y041595D01*
X055225Y041941D01*
X054934Y041595D01*
X055225Y041350D01*
X054934Y041595D01*
X055225Y041941D01*
X055516Y041595D01*
X055516Y041595D01*
X055225Y041350D01*
X055225Y041941D01*
X055516Y041595D01*
X055225Y041941D01*
X054934Y041595D01*
X055225Y041941D01*
X054934Y041595D02*
X054934Y041595D01*
X055225Y043475D02*
X056350Y044600D01*
X066350Y044600D01*
X067100Y043850D01*
X085600Y043850D01*
X085845Y044095D01*
X086032Y044393D01*
X086100Y044350D01*
X086143Y044282D01*
X085845Y044095D01*
X086032Y044393D01*
X086100Y044350D01*
X086143Y044282D01*
X085845Y044095D01*
X086032Y044393D01*
X085845Y044095D01*
X086143Y044282D01*
X085845Y044095D01*
X086032Y044393D01*
X086032Y044393D01*
X086100Y044350D01*
X086143Y044282D01*
X086143Y044282D01*
X085845Y044095D01*
X086032Y044393D01*
X085845Y044095D01*
X086143Y044282D01*
X085845Y044095D01*
X086100Y044350D01*
X082350Y045350D02*
X062350Y045350D01*
X059332Y045428D02*
X059332Y045428D01*
X058990Y045350D01*
X058990Y045350D01*
X063322Y047850D02*
X063322Y048628D01*
X063100Y048850D01*
X055100Y048850D01*
X054850Y048600D01*
X053204Y048600D01*
X052877Y048506D01*
X052850Y048600D02*
X053204Y048600D01*
X052877Y048694D01*
X052100Y049350D02*
X054600Y049350D01*
X054850Y049600D01*
X069100Y049600D01*
X070350Y048350D01*
X064600Y048850D02*
X064350Y048600D01*
X064322Y047850D01*
X068350Y044600D02*
X071100Y044600D01*
X077134Y041350D02*
X077480Y041641D01*
X077480Y041641D01*
X077134Y041350D01*
X077134Y041350D01*
X077134Y041350D01*
X077134Y041350D01*
X077134Y041350D01*
X074350Y041350D01*
X068850Y035850D01*
X068850Y031850D01*
X074350Y026350D01*
X075259Y026350D01*
X075259Y026350D01*
X075259Y026350D01*
X075605Y026641D01*
X075605Y026641D01*
X075259Y026350D01*
X075259Y026350D01*
X075259Y026350D01*
X075605Y026641D01*
X075850Y026350D01*
X075605Y026641D01*
X075259Y026350D01*
X075605Y026059D01*
X075850Y026350D01*
X075605Y026059D01*
X075259Y026350D01*
X075605Y026059D01*
X075850Y026350D01*
X075605Y026059D01*
X075259Y026350D01*
X075605Y026641D01*
X075605Y026641D01*
X075850Y026350D01*
X075259Y026350D01*
X075605Y026641D01*
X075259Y026350D01*
X075605Y026059D01*
X075259Y026350D01*
X075605Y026059D02*
X075605Y026059D01*
X075850Y028350D02*
X078850Y025350D01*
X080259Y025350D01*
X080259Y025350D01*
X080259Y025350D01*
X080605Y025641D01*
X080605Y025641D01*
X080259Y025350D01*
X080259Y025350D01*
X080259Y025350D01*
X080605Y025641D01*
X080850Y025350D01*
X080605Y025641D01*
X080259Y025350D01*
X080605Y025059D01*
X080850Y025350D01*
X080605Y025059D01*
X080259Y025350D01*
X080605Y025059D01*
X080850Y025350D01*
X080605Y025059D01*
X080259Y025350D01*
X080605Y025641D01*
X080605Y025641D01*
X080850Y025350D01*
X080259Y025350D01*
X080605Y025641D01*
X080259Y025350D01*
X080605Y025059D01*
X080259Y025350D01*
X080605Y025059D02*
X080605Y025059D01*
X078850Y025350D02*
X078850Y022100D01*
X077100Y020350D01*
X077100Y018441D01*
X077100Y018441D01*
X077100Y018441D01*
X077391Y018095D01*
X077391Y018095D01*
X077100Y018441D01*
X077100Y018441D01*
X077100Y018441D01*
X077391Y018095D01*
X077100Y017850D01*
X077391Y018095D01*
X077100Y018441D01*
X076809Y018095D01*
X077100Y017850D01*
X076809Y018095D01*
X077100Y018441D01*
X076809Y018095D01*
X077100Y017850D01*
X076809Y018095D01*
X077100Y018441D01*
X077391Y018095D01*
X077391Y018095D01*
X077100Y017850D01*
X077100Y018441D01*
X077391Y018095D01*
X077100Y018441D01*
X076809Y018095D01*
X077100Y018441D01*
X076809Y018095D02*
X076809Y018095D01*
X078663Y013850D02*
X080600Y013850D01*
X084182Y017432D01*
X084221Y017883D01*
X084600Y017850D01*
X084633Y017471D01*
X084182Y017432D01*
X084600Y017850D01*
X084891Y018095D01*
X084891Y018095D01*
X084600Y018441D01*
X084600Y018441D01*
X084600Y018441D01*
X084891Y018095D01*
X084600Y017850D01*
X084309Y018095D01*
X084600Y017850D01*
X084309Y018095D01*
X084600Y018441D01*
X084600Y018441D01*
X084600Y018441D01*
X084600Y020350D01*
X086100Y021850D01*
X086100Y026850D01*
X083641Y026595D02*
X083350Y026350D01*
X083383Y026729D01*
X083350Y026350D01*
X082971Y026317D01*
X082932Y026768D01*
X083383Y026729D01*
X083383Y026729D01*
X083383Y026729D01*
X082932Y026768D01*
X082932Y026768D01*
X082971Y026317D01*
X082971Y026317D01*
X082971Y026317D01*
X082932Y026768D01*
X082932Y026768D01*
X082932Y026768D01*
X082100Y027600D01*
X080100Y027600D01*
X077100Y030600D01*
X075850Y028350D02*
X073350Y028350D01*
X070850Y030850D01*
X070850Y032259D01*
X070850Y032259D01*
X071141Y032605D01*
X071141Y032605D01*
X070850Y032259D01*
X070850Y032259D01*
X070850Y032259D01*
X070850Y032259D01*
X070559Y032605D01*
X070850Y032850D01*
X070559Y032605D01*
X070850Y032259D01*
X071141Y032605D01*
X070850Y032850D01*
X070559Y032605D01*
X070850Y032259D01*
X071141Y032605D01*
X071141Y032605D01*
X070850Y032259D01*
X070559Y032605D01*
X070850Y032259D01*
X070559Y032605D01*
X070559Y032605D01*
X070850Y032850D01*
X071141Y032605D01*
X070850Y032850D01*
X071141Y033095D01*
X071141Y033095D01*
X070850Y033441D01*
X070850Y033441D01*
X070850Y033441D01*
X071141Y033095D01*
X070850Y032850D01*
X070559Y033095D01*
X070850Y032850D01*
X070559Y033095D01*
X070850Y033441D01*
X070850Y033441D01*
X070850Y033441D01*
X070850Y035975D01*
X074807Y039932D01*
X074846Y040383D01*
X074846Y040383D01*
X074807Y039932D01*
X075258Y039971D01*
X075258Y039971D01*
X074807Y039932D01*
X074846Y040383D01*
X075225Y040350D01*
X075258Y039971D01*
X075225Y040350D01*
X074846Y040383D01*
X074846Y040383D01*
X074807Y039932D01*
X075258Y039971D01*
X075258Y039971D01*
X075225Y040350D02*
X074807Y039932D01*
X074807Y039932D01*
X074807Y039932D01*
X077134Y041350D02*
X077480Y041641D01*
X077725Y041350D01*
X077480Y041641D01*
X077134Y041350D01*
X077480Y041059D01*
X077725Y041350D01*
X077480Y041059D01*
X077134Y041350D01*
X077480Y041059D01*
X077725Y041350D01*
X077480Y041059D01*
X077134Y041350D01*
X077480Y041641D01*
X077480Y041641D01*
X077725Y041350D01*
X077134Y041350D01*
X077480Y041641D01*
X077134Y041350D01*
X077480Y041059D01*
X077134Y041350D01*
X077480Y041059D02*
X077480Y041059D01*
X079350Y042100D02*
X084350Y042100D01*
X084750Y041700D01*
X085201Y041729D01*
X085225Y041350D01*
X084856Y041261D01*
X084750Y041700D01*
X085201Y041729D01*
X085201Y041729D01*
X085225Y041350D01*
X084856Y041261D01*
X084750Y041700D01*
X085201Y041729D01*
X085201Y041729D01*
X084750Y041700D01*
X084750Y041700D01*
X084856Y041261D01*
X085100Y041350D02*
X084750Y041700D01*
X084750Y041700D01*
X085100Y041350D02*
X085225Y041350D01*
X082725Y040350D02*
X082758Y039971D01*
X082758Y039971D01*
X082307Y039932D01*
X082346Y040383D01*
X082346Y040383D01*
X082307Y039932D01*
X082758Y039971D01*
X082725Y040350D01*
X082346Y040383D01*
X082725Y040350D01*
X082307Y039932D01*
X082346Y040383D01*
X082346Y040383D01*
X082307Y039932D01*
X082758Y039971D01*
X082758Y039971D01*
X082307Y039932D02*
X082307Y039932D01*
X082307Y039932D01*
X080413Y038038D01*
X088059Y034095D02*
X088350Y033850D01*
X088729Y033817D01*
X088768Y034268D01*
X088729Y033817D01*
X088350Y033850D01*
X088317Y034229D01*
X088768Y034268D01*
X088317Y034229D01*
X088350Y033850D01*
X088641Y034095D01*
X088350Y033850D01*
X088768Y034268D01*
X093850Y039350D01*
X093850Y042490D01*
X093772Y042832D01*
X093850Y042850D01*
X093772Y042832D01*
X093850Y042490D01*
X093928Y042832D01*
X093850Y042850D01*
X093928Y042832D01*
X093850Y042490D01*
X093850Y042850D01*
X093928Y042832D02*
X093850Y042490D01*
X093772Y042832D01*
X093850Y042490D01*
X093850Y042490D01*
X093928Y042832D01*
X093928Y042832D01*
X093772Y042832D02*
X093772Y042832D01*
X097346Y040383D02*
X097725Y040350D01*
X097758Y039971D01*
X097758Y039971D01*
X097307Y039932D01*
X097346Y040383D01*
X097346Y040383D01*
X097307Y039932D01*
X097758Y039971D01*
X097725Y040350D01*
X097346Y040383D01*
X097307Y039932D01*
X097758Y039971D01*
X097758Y039971D01*
X097725Y040350D02*
X097307Y039932D01*
X097346Y040383D01*
X097346Y040383D01*
X097307Y039932D02*
X097307Y039932D01*
X097307Y039932D01*
X093350Y035975D01*
X093350Y033441D01*
X093350Y033441D01*
X093350Y033441D01*
X093641Y033095D01*
X093641Y033095D01*
X093350Y033441D01*
X093350Y033441D01*
X093350Y033441D01*
X093641Y033095D01*
X093350Y032850D01*
X093641Y033095D01*
X093350Y033441D01*
X093059Y033095D01*
X093350Y032850D01*
X093059Y033095D01*
X093350Y033441D01*
X093059Y033095D01*
X093350Y032850D01*
X093059Y033095D01*
X093350Y033441D01*
X093641Y033095D01*
X093641Y033095D01*
X093350Y032850D01*
X093350Y033441D01*
X093641Y033095D01*
X093350Y033441D01*
X093059Y033095D01*
X093350Y033441D01*
X093059Y033095D02*
X093059Y033095D01*
X088729Y033817D02*
X088729Y033817D01*
X088768Y034268D01*
X088768Y034268D01*
X088641Y034095D02*
X088350Y034441D01*
X088059Y034095D01*
X088317Y034229D02*
X088317Y034229D01*
X088317Y034229D01*
X088729Y033817D02*
X088729Y033817D01*
X086141Y033095D02*
X085850Y032850D01*
X085559Y033095D01*
X085850Y033441D01*
X086141Y033095D01*
X085850Y033441D01*
X085559Y033095D01*
X085850Y033441D01*
X085559Y033095D01*
X085850Y033441D01*
X086141Y033095D01*
X086141Y033095D01*
X085850Y033441D01*
X086141Y033095D01*
X085850Y032850D02*
X085850Y032259D01*
X086141Y032605D01*
X085850Y032850D02*
X085850Y033441D01*
X085559Y033095D02*
X085559Y033095D01*
X083350Y026941D02*
X083641Y026595D01*
X083383Y026729D02*
X082932Y026768D01*
X082971Y026317D01*
X083350Y026350D01*
X083059Y026595D01*
X083350Y026941D01*
X082932Y026768D02*
X083350Y026350D01*
X071141Y032605D02*
X070850Y032259D01*
X070850Y032850D01*
X070559Y033095D01*
X070850Y033441D01*
X071141Y033095D01*
X070850Y033441D01*
X070559Y033095D01*
X070850Y033441D01*
X070559Y033095D01*
X070850Y033441D01*
X071141Y033095D01*
X071141Y033095D01*
X070850Y032850D01*
X070850Y033441D01*
X071141Y033095D01*
X070850Y033441D01*
X070559Y033095D02*
X070559Y033095D01*
X063641Y033095D02*
X063350Y032850D01*
X063059Y032605D01*
X063350Y032259D01*
X063350Y032259D01*
X063059Y032605D01*
X063350Y032259D01*
X063641Y032605D01*
X063641Y032605D01*
X063350Y032259D01*
X063059Y032605D01*
X063350Y032259D01*
X063059Y032605D01*
X063059Y032605D01*
X063350Y032850D01*
X063641Y032605D01*
X063350Y032850D01*
X063059Y033095D01*
X063350Y032850D01*
X063059Y033095D01*
X063350Y033441D01*
X063059Y033095D01*
X063350Y032850D01*
X063641Y033095D01*
X063350Y033441D01*
X063059Y033095D01*
X063350Y033441D01*
X063641Y033095D01*
X063641Y033095D01*
X063350Y033441D01*
X063641Y033095D01*
X063350Y032850D02*
X063350Y032259D01*
X063641Y032605D01*
X063350Y032850D02*
X063350Y033441D01*
X063059Y033095D01*
X063350Y033441D01*
X063059Y033095D02*
X063059Y033095D01*
X056141Y033095D02*
X055850Y032850D01*
X055559Y032605D01*
X055850Y032850D01*
X056141Y032605D01*
X056141Y032605D01*
X055850Y032259D01*
X055850Y032259D01*
X056141Y032605D01*
X055850Y032259D01*
X055850Y032259D01*
X055850Y032259D01*
X055850Y032259D01*
X055850Y027850D01*
X057932Y025768D01*
X058383Y025729D01*
X058350Y025350D01*
X058059Y025105D01*
X058350Y025350D01*
X058641Y025105D01*
X058641Y025105D01*
X058350Y024759D01*
X058350Y024759D01*
X058641Y025105D01*
X058350Y024759D01*
X058350Y024759D01*
X058350Y024759D01*
X058350Y024759D01*
X058350Y022100D01*
X059100Y021350D01*
X060100Y021350D01*
X061850Y021350D01*
X065432Y024932D01*
X065471Y025383D01*
X065471Y025383D01*
X065432Y024932D01*
X065883Y024971D01*
X065883Y024971D01*
X065432Y024932D01*
X065471Y025383D01*
X065850Y025350D01*
X065883Y024971D01*
X065850Y025350D01*
X065471Y025383D01*
X065850Y025350D02*
X065432Y024932D01*
X065883Y024971D01*
X065883Y024971D01*
X065432Y024932D02*
X065432Y024932D01*
X065432Y024932D01*
X058641Y025105D02*
X058350Y024759D01*
X058059Y025105D01*
X058350Y024759D01*
X058059Y025105D01*
X058350Y025350D01*
X058641Y025105D01*
X058641Y025105D01*
X058350Y024759D01*
X058059Y025105D01*
X058350Y024759D01*
X058641Y025105D01*
X058350Y025350D01*
X058059Y025105D01*
X058350Y024759D01*
X058350Y025350D01*
X058383Y025729D01*
X058383Y025729D01*
X058383Y025729D01*
X057932Y025768D01*
X057971Y025317D01*
X058350Y025350D01*
X058105Y025641D01*
X058105Y025641D01*
X058350Y025350D01*
X058105Y025059D01*
X058350Y025350D01*
X058105Y025059D01*
X058105Y025059D01*
X058059Y025105D02*
X058059Y025105D01*
X057971Y025317D02*
X057971Y025317D01*
X057971Y025317D01*
X057932Y025768D01*
X057932Y025768D01*
X057971Y025317D01*
X058350Y025350D01*
X058595Y025059D01*
X058350Y025350D01*
X058595Y025641D01*
X058350Y025350D01*
X057932Y025768D01*
X057932Y025768D01*
X057932Y025768D01*
X058383Y025729D01*
X058105Y025641D02*
X058105Y025641D01*
X057932Y025768D02*
X057971Y025317D01*
X053641Y026595D02*
X053350Y026350D01*
X053059Y026595D01*
X053350Y026350D01*
X053641Y026595D01*
X053641Y026595D01*
X053350Y026941D01*
X053350Y026941D01*
X053350Y026941D01*
X053641Y026595D01*
X053350Y026941D01*
X053350Y026941D01*
X053350Y026941D01*
X053350Y031350D01*
X051268Y033432D01*
X050817Y033471D01*
X050850Y033850D01*
X051229Y033883D01*
X050850Y033850D01*
X051229Y033817D01*
X051268Y034268D01*
X050817Y034229D01*
X050850Y033850D01*
X050817Y033471D01*
X050817Y033471D01*
X050817Y033471D01*
X051268Y033432D01*
X051229Y033883D01*
X051229Y033883D01*
X051229Y033883D01*
X051268Y033432D01*
X050817Y033471D01*
X051268Y033432D01*
X051268Y033432D01*
X051268Y033432D01*
X051268Y033432D01*
X051229Y033883D01*
X051191Y033850D02*
X051095Y033559D01*
X050850Y033850D01*
X051095Y034141D01*
X051191Y033850D01*
X050850Y033850D02*
X051268Y033432D01*
X048641Y033095D02*
X048350Y032850D01*
X048059Y033095D01*
X048350Y032850D01*
X048641Y033095D01*
X048641Y033095D01*
X048350Y033441D01*
X048350Y033441D01*
X048350Y033441D01*
X048641Y033095D01*
X048350Y033441D01*
X048350Y033441D01*
X048350Y033600D01*
X050600Y035850D01*
X050600Y040350D01*
X052134Y040350D01*
X052134Y040350D01*
X052134Y040350D01*
X052480Y040641D01*
X052480Y040641D01*
X052134Y040350D01*
X052134Y040350D01*
X052134Y040350D01*
X052480Y040641D01*
X052725Y040350D01*
X052480Y040641D01*
X052134Y040350D01*
X052480Y040059D01*
X052725Y040350D01*
X052480Y040059D01*
X052134Y040350D01*
X052480Y040059D01*
X052725Y040350D01*
X052480Y040059D01*
X052134Y040350D01*
X052480Y040641D01*
X052480Y040641D01*
X052725Y040350D01*
X052134Y040350D01*
X052480Y040641D01*
X052134Y040350D01*
X052480Y040059D01*
X052134Y040350D01*
X052480Y040059D02*
X052480Y040059D01*
X050600Y040350D02*
X050600Y041350D01*
X048100Y043850D01*
X047210Y043850D01*
X046868Y043772D01*
X046850Y043850D01*
X046868Y043772D01*
X047210Y043850D01*
X046868Y043928D01*
X046850Y043850D01*
X046868Y043928D01*
X047210Y043850D01*
X046850Y043850D01*
X046868Y043928D02*
X047210Y043850D01*
X046868Y043772D01*
X047210Y043850D01*
X047210Y043850D01*
X046868Y043928D01*
X046868Y043928D01*
X046868Y043772D02*
X046868Y043772D01*
X047782Y043143D02*
X047850Y043100D01*
X047893Y043032D01*
X047595Y042845D01*
X047782Y043143D01*
X047595Y042845D01*
X047893Y043032D01*
X047850Y043100D01*
X047782Y043143D01*
X047595Y042845D01*
X047893Y043032D01*
X047595Y042845D01*
X047782Y043143D01*
X047782Y043143D01*
X047850Y043100D01*
X047893Y043032D01*
X047893Y043032D01*
X047595Y042845D01*
X047782Y043143D01*
X047595Y042845D01*
X047893Y043032D01*
X047595Y042845D01*
X047782Y043143D01*
X047850Y043100D02*
X047595Y042845D01*
X047350Y042600D01*
X046350Y042600D01*
X045225Y041475D01*
X045225Y040941D01*
X045225Y040941D01*
X045225Y040941D01*
X045516Y040595D01*
X045516Y040595D01*
X045225Y040941D01*
X045225Y040941D01*
X045225Y040941D01*
X045516Y040595D01*
X045225Y040350D01*
X045516Y040595D01*
X045225Y040941D01*
X044934Y040595D01*
X045225Y040350D01*
X044934Y040595D01*
X045225Y040941D01*
X044934Y040595D01*
X045225Y040350D01*
X044934Y040595D01*
X045225Y040941D01*
X045516Y040595D01*
X045516Y040595D01*
X045225Y040350D01*
X044846Y040383D01*
X044846Y040383D01*
X044807Y039932D01*
X044846Y040383D01*
X045225Y040350D01*
X045258Y039971D01*
X045258Y039971D01*
X044807Y039932D01*
X045258Y039971D01*
X045225Y040350D01*
X045225Y040941D01*
X045516Y040595D01*
X045225Y040941D01*
X044934Y040595D01*
X045225Y040941D01*
X044934Y040595D02*
X044934Y040595D01*
X044846Y040383D02*
X044846Y040383D01*
X044807Y039932D01*
X045258Y039971D01*
X045258Y039971D01*
X045225Y040350D02*
X044807Y039932D01*
X044846Y040383D01*
X044807Y039932D02*
X044807Y039932D01*
X044807Y039932D01*
X040850Y035975D01*
X040850Y033441D01*
X040850Y033441D01*
X040850Y033441D01*
X041141Y033095D01*
X041141Y033095D01*
X040850Y033441D01*
X040850Y033441D01*
X040850Y033441D01*
X041141Y033095D01*
X040850Y032850D01*
X040559Y032605D01*
X040850Y032850D01*
X041141Y032605D01*
X041141Y032605D01*
X040850Y032259D01*
X040850Y032259D01*
X041141Y032605D01*
X040850Y032259D01*
X040850Y032259D01*
X040850Y032259D01*
X040850Y030100D01*
X042850Y028100D01*
X048100Y028100D01*
X050432Y025768D01*
X050883Y025729D01*
X050850Y025350D01*
X050559Y025105D01*
X050850Y025350D01*
X051141Y025105D01*
X051141Y025105D01*
X050850Y024759D01*
X050850Y024759D01*
X051141Y025105D01*
X050850Y024759D01*
X050850Y024759D01*
X050850Y024759D01*
X050850Y021600D01*
X054182Y018268D01*
X054633Y018229D01*
X054600Y017850D01*
X054633Y018229D01*
X054633Y018229D01*
X054633Y018229D01*
X054182Y018268D01*
X054221Y017817D01*
X054600Y017850D01*
X054221Y017817D01*
X054221Y017817D01*
X054221Y017817D01*
X054182Y018268D01*
X054182Y018268D01*
X054221Y017817D01*
X054182Y018268D01*
X054182Y018268D01*
X054182Y018268D01*
X054633Y018229D01*
X054600Y017850D02*
X054182Y018268D01*
X054600Y017850D02*
X054309Y017605D01*
X054600Y017259D01*
X054891Y017605D01*
X054600Y017850D01*
X058990Y015350D02*
X058990Y015350D01*
X059332Y015428D01*
X059350Y015350D01*
X059332Y015428D01*
X058990Y015350D01*
X059332Y015272D01*
X059350Y015350D01*
X059332Y015272D01*
X058990Y015350D01*
X059332Y015272D01*
X059332Y015272D01*
X058990Y015350D01*
X047100Y015350D01*
X046350Y015350D01*
X058990Y015350D02*
X059332Y015428D01*
X059332Y015428D01*
X058990Y015350D01*
X059350Y015350D01*
X059332Y015272D02*
X058990Y015350D01*
X061509Y017850D02*
X061855Y017559D01*
X062100Y017850D01*
X061855Y018141D01*
X061509Y017850D01*
X061509Y017850D01*
X061855Y018141D01*
X061855Y018141D01*
X061509Y017850D01*
X061855Y017559D01*
X061509Y017850D01*
X061855Y018141D01*
X061509Y017850D01*
X061855Y017559D01*
X061509Y017850D01*
X062100Y017850D01*
X061855Y017559D02*
X061855Y017559D01*
X060100Y017850D02*
X060100Y021350D01*
X051141Y025105D02*
X050850Y024759D01*
X050850Y024759D01*
X050559Y025105D01*
X050850Y024759D01*
X050559Y025105D01*
X050850Y025350D01*
X051141Y025105D01*
X051141Y025105D01*
X050850Y024759D01*
X050559Y025105D01*
X050850Y024759D01*
X051141Y025105D01*
X050850Y025350D01*
X050559Y025105D01*
X050850Y024759D01*
X050850Y025350D01*
X050883Y025729D01*
X050883Y025729D01*
X050883Y025729D01*
X050432Y025768D01*
X050471Y025317D01*
X050850Y025350D01*
X050471Y025317D01*
X050471Y025317D01*
X050471Y025317D01*
X050432Y025768D01*
X050432Y025768D01*
X050471Y025317D01*
X050432Y025768D01*
X050432Y025768D01*
X050432Y025768D01*
X050883Y025729D01*
X050605Y025641D02*
X050850Y025350D01*
X050605Y025059D01*
X050850Y025350D01*
X050605Y025641D01*
X050432Y025768D02*
X050850Y025350D01*
X050559Y025105D02*
X050559Y025105D01*
X053059Y026595D02*
X053350Y026350D01*
X053059Y026595D01*
X053350Y026941D01*
X053641Y026595D01*
X053641Y026595D01*
X053350Y026941D01*
X053059Y026595D01*
X053350Y026941D01*
X053059Y026595D01*
X053350Y026941D01*
X053641Y026595D01*
X053350Y026350D01*
X053350Y026941D01*
X053641Y026595D01*
X053350Y026941D02*
X053059Y026595D01*
X053059Y026595D01*
X043641Y025105D02*
X043350Y024759D01*
X043350Y025350D01*
X042971Y025317D01*
X042932Y025768D01*
X042932Y025768D01*
X043383Y025729D01*
X043350Y025350D02*
X042971Y025383D01*
X043350Y025350D02*
X042932Y025768D01*
X043350Y025350D02*
X043383Y024971D01*
X036141Y025105D02*
X035850Y024759D01*
X035559Y025105D01*
X035850Y024759D01*
X035559Y025105D01*
X035850Y025350D01*
X036141Y025105D01*
X036141Y025105D01*
X035850Y024759D01*
X035559Y025105D01*
X035850Y024759D01*
X036141Y025105D01*
X035850Y025350D01*
X035559Y025105D01*
X035850Y024759D01*
X035850Y025350D01*
X035883Y025729D01*
X035883Y025729D01*
X035883Y025729D01*
X035432Y025768D01*
X035471Y025317D01*
X035850Y025350D01*
X035471Y025317D01*
X035471Y025317D01*
X035471Y025317D01*
X035432Y025768D01*
X035432Y025768D01*
X035471Y025317D01*
X035432Y025768D01*
X035432Y025768D01*
X035432Y025768D01*
X035883Y025729D01*
X035850Y025350D02*
X035470Y025346D01*
X035559Y025105D02*
X035559Y025105D01*
X035850Y025350D02*
X035919Y024976D01*
X035850Y025350D02*
X035432Y025768D01*
X030850Y026350D02*
X030605Y026641D01*
X030605Y026641D01*
X030259Y026350D01*
X030259Y026350D01*
X030259Y026350D01*
X030605Y026641D01*
X030850Y026350D01*
X030605Y026059D01*
X030850Y026350D01*
X030605Y026059D01*
X030259Y026350D01*
X030259Y026350D01*
X029100Y026350D01*
X030259Y026350D02*
X030259Y026350D01*
X030605Y026641D01*
X030259Y026350D01*
X030605Y026059D01*
X030850Y026350D01*
X030605Y026641D01*
X030605Y026641D01*
X030259Y026350D01*
X030605Y026059D01*
X030259Y026350D01*
X030605Y026641D01*
X030259Y026350D01*
X030605Y026059D01*
X030259Y026350D01*
X030850Y026350D01*
X030605Y026059D02*
X030605Y026059D01*
X025850Y030600D02*
X025850Y032259D01*
X025850Y032259D01*
X026141Y032605D01*
X026141Y032605D01*
X025850Y032259D01*
X025850Y032259D01*
X025850Y032259D01*
X025850Y032259D01*
X025559Y032605D01*
X025850Y032850D01*
X025559Y032605D01*
X025850Y032259D01*
X026141Y032605D01*
X025850Y032850D01*
X025559Y032605D01*
X025850Y032259D01*
X026141Y032605D01*
X026141Y032605D01*
X025850Y032259D01*
X025559Y032605D01*
X025850Y032259D01*
X025559Y032605D01*
X025559Y032605D01*
X025850Y032850D01*
X026141Y032605D01*
X025850Y032850D01*
X026141Y033095D01*
X026141Y033095D01*
X025850Y033441D01*
X025850Y033441D01*
X025850Y033441D01*
X026141Y033095D01*
X025850Y032850D01*
X025559Y033095D01*
X025850Y032850D01*
X025559Y033095D01*
X025850Y033441D01*
X025850Y033441D01*
X025850Y033441D01*
X025850Y035975D01*
X029807Y039932D01*
X029846Y040383D01*
X029846Y040383D01*
X029807Y039932D01*
X030258Y039971D01*
X030258Y039971D01*
X029807Y039932D01*
X029846Y040383D01*
X030225Y040350D01*
X030258Y039971D01*
X030225Y040350D01*
X029846Y040383D01*
X029846Y040383D01*
X029807Y039932D01*
X030258Y039971D01*
X030258Y039971D01*
X030225Y040350D02*
X029807Y039932D01*
X029807Y039932D01*
X029807Y039932D01*
X037692Y040729D02*
X037692Y040729D01*
X037692Y040729D01*
X037725Y040350D02*
X038143Y040768D01*
X038143Y040768D01*
X038104Y040317D02*
X038104Y040317D01*
X050600Y035850D02*
X052850Y035850D01*
X054225Y034475D01*
X059803Y039937D01*
X059847Y040387D01*
X060225Y040350D01*
X059847Y040387D01*
X059803Y039937D01*
X060254Y039971D01*
X060225Y040350D01*
X059847Y040387D01*
X059803Y039937D01*
X059847Y040387D01*
X060225Y040350D02*
X060254Y039971D01*
X059803Y039937D01*
X059803Y039937D01*
X060254Y039971D01*
X060225Y040350D02*
X059803Y039937D01*
X059803Y039937D01*
X054225Y034475D02*
X055432Y033268D01*
X055883Y033229D01*
X055850Y032850D01*
X055559Y032605D01*
X055850Y032259D01*
X055559Y032605D01*
X055850Y032259D01*
X056141Y032605D01*
X056141Y032605D01*
X055850Y032259D01*
X055559Y032605D01*
X055850Y032259D01*
X055559Y032605D01*
X055559Y032605D01*
X055850Y032850D01*
X056141Y032605D01*
X055850Y032850D01*
X055883Y033229D01*
X055883Y033229D01*
X055883Y033229D01*
X055432Y033268D01*
X055471Y032817D01*
X055850Y032850D01*
X055471Y032817D01*
X055471Y032817D01*
X055471Y032817D01*
X055432Y033268D01*
X055432Y033268D01*
X055471Y032817D01*
X055432Y033268D01*
X055432Y033268D01*
X055432Y033268D01*
X055883Y033229D01*
X055559Y033095D02*
X055850Y032850D01*
X055559Y033095D01*
X055432Y033268D02*
X055850Y032850D01*
X055850Y032259D01*
X056141Y032605D01*
X048641Y033095D02*
X048350Y033441D01*
X048350Y033441D01*
X048059Y033095D01*
X048350Y033441D01*
X048059Y033095D01*
X048350Y032850D01*
X048059Y033095D01*
X048350Y033441D01*
X048641Y033095D01*
X048641Y033095D01*
X048350Y032850D01*
X048350Y033441D01*
X048641Y033095D01*
X048350Y033441D01*
X048059Y033095D01*
X048350Y033441D01*
X048059Y033095D02*
X048059Y033095D01*
X041141Y033095D02*
X040850Y032850D01*
X040559Y032605D01*
X040850Y032259D01*
X040850Y032259D01*
X040559Y032605D01*
X040850Y032259D01*
X041141Y032605D01*
X041141Y032605D01*
X040850Y032259D01*
X040559Y032605D01*
X040850Y032259D01*
X040559Y032605D01*
X040559Y032605D01*
X040850Y032850D01*
X041141Y032605D01*
X040850Y032850D01*
X040559Y033095D01*
X040850Y032850D01*
X040559Y033095D01*
X040850Y033441D01*
X040559Y033095D01*
X040850Y032850D01*
X041141Y033095D01*
X040850Y033441D01*
X040559Y033095D01*
X040850Y033441D01*
X041141Y033095D01*
X041141Y033095D01*
X040850Y033441D01*
X041141Y033095D01*
X040850Y032850D02*
X040850Y032259D01*
X041141Y032605D01*
X040850Y032850D02*
X040850Y033441D01*
X040559Y033095D01*
X040850Y033441D01*
X040559Y033095D02*
X040559Y033095D01*
X026141Y033095D02*
X025850Y033441D01*
X025559Y033095D01*
X025850Y032850D01*
X026141Y033095D01*
X025850Y033441D01*
X025559Y033095D01*
X025850Y033441D01*
X026141Y033095D01*
X026141Y033095D01*
X025850Y033441D01*
X026141Y033095D01*
X025850Y032850D02*
X025850Y032259D01*
X026141Y032605D01*
X025850Y032850D02*
X025850Y033441D01*
X025559Y033095D01*
X025850Y033441D01*
X025559Y033095D02*
X025559Y033095D01*
X018641Y033095D02*
X018350Y032850D01*
X018059Y032605D01*
X018350Y032259D01*
X018350Y032259D01*
X018059Y032605D01*
X018350Y032259D01*
X018641Y032605D01*
X018641Y032605D01*
X018350Y032259D01*
X018059Y032605D01*
X018350Y032259D01*
X018059Y032605D01*
X018059Y032605D01*
X018350Y032850D01*
X018641Y032605D01*
X018350Y032850D01*
X018059Y033095D01*
X018350Y032850D01*
X018059Y033095D01*
X018350Y033441D01*
X018059Y033095D01*
X018350Y032850D01*
X018641Y033095D01*
X018350Y033441D01*
X018059Y033095D01*
X018350Y033441D01*
X018641Y033095D01*
X018641Y033095D01*
X018350Y033441D01*
X018641Y033095D01*
X018350Y032850D02*
X018350Y032259D01*
X018641Y032605D01*
X018350Y032850D02*
X018350Y033441D01*
X018059Y033095D01*
X018350Y033441D01*
X018059Y033095D02*
X018059Y033095D01*
X015225Y030975D02*
X015225Y035600D01*
X012350Y035600D01*
X010850Y034100D01*
X010850Y033441D01*
X010850Y033441D01*
X010850Y033441D01*
X011141Y033095D01*
X011141Y033095D01*
X010850Y033441D01*
X010850Y033441D01*
X010850Y033441D01*
X011141Y033095D01*
X010850Y032850D01*
X011141Y033095D01*
X010850Y033441D01*
X010559Y033095D01*
X010850Y032850D01*
X010559Y033095D01*
X010850Y033441D01*
X010559Y033095D01*
X010850Y032850D01*
X010559Y033095D01*
X010850Y033441D01*
X011141Y033095D01*
X011141Y033095D01*
X010850Y032850D01*
X010850Y033441D01*
X011141Y033095D01*
X010850Y033441D01*
X010559Y033095D01*
X010850Y033441D01*
X010559Y033095D02*
X010559Y033095D01*
X008428Y032868D02*
X008350Y032850D01*
X008272Y032868D01*
X008350Y032850D01*
X008428Y032868D01*
X008350Y033210D01*
X008428Y032868D01*
X008428Y032868D01*
X008350Y033210D01*
X008272Y032868D01*
X008350Y033210D01*
X008272Y032868D01*
X008272Y032868D01*
X008350Y033210D01*
X008350Y035350D01*
X014850Y041850D01*
X017225Y041850D01*
X017307Y041768D01*
X017758Y041729D01*
X017725Y041350D01*
X017758Y041729D01*
X017758Y041729D01*
X017758Y041729D01*
X017307Y041768D01*
X017346Y041317D01*
X017725Y041350D01*
X017346Y041317D01*
X017346Y041317D01*
X017346Y041317D01*
X017307Y041768D01*
X017307Y041768D01*
X017346Y041317D01*
X017307Y041768D01*
X017307Y041768D01*
X017307Y041768D01*
X017758Y041729D01*
X018016Y041595D02*
X017725Y041350D01*
X017434Y041595D01*
X017725Y041350D01*
X017307Y041768D01*
X015516Y040105D02*
X015225Y040350D01*
X014934Y040105D01*
X015225Y040350D01*
X015516Y040105D01*
X015516Y040105D01*
X015225Y039759D01*
X015225Y039759D01*
X015516Y040105D01*
X015225Y039759D01*
X015225Y039759D01*
X015225Y039759D01*
X015225Y039759D01*
X015225Y035600D01*
X008350Y033210D02*
X008350Y032850D01*
X008428Y032868D02*
X008350Y033210D01*
X008350Y033210D01*
X008272Y032868D01*
X003641Y033095D02*
X003350Y033441D01*
X003350Y033441D01*
X003059Y033095D01*
X003350Y032850D01*
X003641Y033095D01*
X003350Y033441D01*
X003059Y033095D01*
X003350Y033441D01*
X003641Y033095D01*
X003641Y033095D01*
X003350Y033441D01*
X003641Y033095D01*
X003350Y032850D02*
X003059Y032605D01*
X003350Y032259D01*
X003641Y032605D01*
X003350Y032850D01*
X003059Y032605D01*
X003350Y032259D01*
X003641Y032605D01*
X003641Y032605D01*
X003350Y032259D01*
X003059Y032605D01*
X003350Y032259D01*
X003059Y032605D01*
X003059Y032605D01*
X003350Y032850D01*
X003641Y032605D01*
X003350Y032850D01*
X003350Y033441D01*
X003059Y033095D01*
X003350Y033441D01*
X003059Y033095D02*
X003059Y033095D01*
X003350Y032850D02*
X003350Y032259D01*
X003641Y032605D01*
X015225Y030975D02*
X020432Y025768D01*
X020883Y025729D01*
X020850Y025350D01*
X020559Y025105D01*
X020850Y025350D01*
X021141Y025105D01*
X021141Y025105D01*
X020850Y024759D01*
X020850Y024759D01*
X021141Y025105D01*
X020850Y024759D01*
X020850Y024759D01*
X020850Y024759D01*
X020850Y021600D01*
X022350Y020100D01*
X022350Y017850D01*
X022350Y013538D01*
X024600Y011288D01*
X024600Y010941D01*
X024891Y010595D01*
X024600Y010350D01*
X024309Y010595D01*
X024600Y010941D01*
X024600Y010350D01*
X024355Y017559D02*
X024600Y017850D01*
X024355Y018141D01*
X024355Y018141D01*
X024009Y017850D01*
X024009Y017850D01*
X024009Y017850D01*
X024355Y018141D01*
X024600Y017850D01*
X024355Y017559D01*
X024600Y017850D01*
X024355Y017559D01*
X024009Y017850D01*
X024009Y017850D01*
X022350Y017850D01*
X024009Y017850D02*
X024009Y017850D01*
X024355Y018141D01*
X024009Y017850D01*
X024355Y017559D01*
X024009Y017850D01*
X024355Y017559D01*
X024009Y017850D01*
X024355Y018141D01*
X024355Y018141D01*
X024600Y017850D01*
X024009Y017850D01*
X024355Y018141D01*
X024009Y017850D01*
X024355Y017559D01*
X024355Y017559D01*
X026721Y018817D02*
X027100Y018850D01*
X027479Y018883D01*
X027518Y018432D01*
X027100Y018850D02*
X026682Y019268D01*
X027133Y019229D01*
X026682Y019268D02*
X026721Y018817D01*
X017100Y017850D02*
X016855Y017559D01*
X017100Y017850D01*
X016855Y018141D01*
X016855Y018141D01*
X016509Y017850D01*
X016509Y017850D01*
X016509Y017850D01*
X016855Y018141D01*
X017100Y017850D01*
X016855Y017559D01*
X016509Y017850D01*
X016509Y017850D01*
X013350Y017850D01*
X016509Y017850D02*
X016509Y017850D01*
X016855Y018141D01*
X016509Y017850D01*
X016855Y017559D01*
X017100Y017850D01*
X016855Y018141D01*
X016855Y018141D01*
X016509Y017850D01*
X016855Y017559D01*
X016509Y017850D01*
X016855Y018141D01*
X016509Y017850D01*
X016855Y017559D01*
X016509Y017850D01*
X017100Y017850D01*
X016855Y017559D02*
X016855Y017559D01*
X006141Y017605D02*
X005850Y017259D01*
X005850Y017850D01*
X005559Y018095D01*
X005850Y018441D01*
X006141Y018095D01*
X005850Y018441D01*
X005559Y018095D01*
X005850Y018441D01*
X005559Y018095D01*
X005850Y018441D01*
X006141Y018095D01*
X006141Y018095D01*
X005850Y017850D01*
X005850Y018441D01*
X006141Y018095D01*
X005850Y018441D01*
X005559Y018095D02*
X005559Y018095D01*
X005850Y024759D02*
X006141Y025105D01*
X005850Y025350D01*
X005559Y025105D01*
X005850Y024759D01*
X005559Y025105D01*
X005850Y025350D01*
X006141Y025105D01*
X006141Y025105D01*
X005850Y024759D01*
X005559Y025105D01*
X005850Y024759D01*
X006141Y025105D01*
X005850Y025350D01*
X005559Y025105D01*
X005850Y024759D01*
X006141Y025105D01*
X005850Y025350D02*
X005471Y025317D01*
X005432Y025768D01*
X005432Y025768D01*
X005883Y025729D01*
X005850Y025350D02*
X005432Y025768D01*
X005850Y025350D02*
X005850Y024759D01*
X005559Y025105D02*
X005559Y025105D01*
X012932Y025768D02*
X012971Y025317D01*
X013350Y025350D01*
X013641Y025595D01*
X013641Y025595D01*
X013350Y025350D01*
X013059Y025595D01*
X013350Y025350D01*
X013059Y025595D01*
X013059Y025595D01*
X012932Y025768D02*
X013383Y025729D01*
X013641Y025595D02*
X013641Y025595D01*
X013350Y025350D02*
X012932Y025768D01*
X013350Y025350D02*
X013350Y024759D01*
X013641Y025105D01*
X020432Y025768D02*
X020471Y025317D01*
X020850Y025350D01*
X020559Y025105D01*
X020850Y024759D01*
X020850Y024759D01*
X020559Y025105D01*
X020850Y024759D01*
X021141Y025105D01*
X021141Y025105D01*
X020850Y024759D01*
X020559Y025105D01*
X020850Y024759D01*
X020559Y025105D01*
X020559Y025105D01*
X020850Y025350D01*
X021141Y025105D01*
X020850Y025350D01*
X020883Y025729D01*
X020883Y025729D01*
X020883Y025729D01*
X020432Y025768D01*
X020432Y025768D01*
X020471Y025317D01*
X020471Y025317D01*
X020471Y025317D01*
X020432Y025768D01*
X020432Y025768D01*
X020432Y025768D01*
X020883Y025729D01*
X020858Y025641D02*
X020850Y025350D01*
X020471Y025317D01*
X020432Y025768D01*
X020850Y025350D01*
X020858Y025059D01*
X021204Y025350D01*
X020858Y025641D01*
X020850Y025350D02*
X020850Y024759D01*
X021141Y025105D01*
X015225Y039759D02*
X014934Y040105D01*
X015225Y039759D01*
X014934Y040105D01*
X015225Y040350D01*
X014934Y040105D01*
X015225Y039759D01*
X015516Y040105D01*
X015516Y040105D01*
X015225Y039759D01*
X014934Y040105D01*
X015225Y039759D01*
X015516Y040105D01*
X015225Y040350D01*
X015225Y039759D01*
X014934Y040105D02*
X014934Y040105D01*
X008143Y040768D02*
X008143Y040768D01*
X008104Y040317D01*
X008104Y040317D01*
X008104Y040317D01*
X007725Y040350D02*
X007307Y039932D01*
X007307Y039932D01*
X007307Y039932D01*
X007692Y040729D02*
X007692Y040729D01*
X007692Y040729D01*
X044557Y047668D02*
X044600Y047600D01*
X044668Y047557D01*
X044855Y047855D01*
X044557Y047668D01*
X044600Y047600D01*
X044668Y047557D01*
X044855Y047855D01*
X044557Y047668D01*
X044557Y047668D01*
X044600Y047600D02*
X044855Y047855D01*
X047850Y047850D01*
X050600Y047850D01*
X052100Y049350D01*
X044668Y047557D02*
X044668Y047557D01*
X097474Y046976D02*
X097725Y046725D01*
X099725Y046850D02*
X099725Y047475D01*
X099850Y047600D01*
X099850Y048850D01*
X084600Y018441D02*
X084891Y018095D01*
X084600Y018441D01*
X084309Y018095D01*
X084600Y017850D01*
X084891Y018095D01*
X084891Y018095D01*
X084600Y018441D01*
X084309Y018095D01*
X084600Y018441D01*
X084891Y018095D01*
X084600Y018441D01*
X084309Y018095D01*
X084600Y018441D01*
X084600Y017850D01*
X084309Y018095D02*
X084309Y018095D01*
X093663Y015663D02*
X095432Y017432D01*
X095471Y017883D01*
X095850Y017850D01*
X095883Y017471D01*
X095432Y017432D01*
X095850Y017850D01*
X093663Y015663D02*
X093663Y010941D01*
X093953Y010595D01*
X093663Y010350D01*
X093284Y010383D01*
X093245Y009932D01*
X093695Y009971D01*
X093663Y010350D01*
X093372Y010595D01*
X093663Y010941D01*
X093663Y010350D01*
X093245Y009932D01*
X089663Y006350D01*
X075350Y006350D01*
D15*
X026100Y025350D03*
X022850Y028350D03*
X008350Y032850D03*
X044600Y047600D03*
X046850Y043850D03*
X047850Y043100D03*
X054600Y044600D03*
X059350Y043850D03*
X059350Y045350D03*
X062350Y045350D03*
X065350Y046100D03*
X068350Y044600D03*
X071100Y044600D03*
X074100Y047600D03*
X082100Y049100D03*
X083600Y049850D03*
X082100Y052100D03*
X082350Y045350D03*
X086100Y044350D03*
X093850Y042850D03*
X097725Y046725D03*
X095850Y047100D03*
X052850Y048600D03*
D16*
X059350Y015350D03*
D17*
X052877Y048506D02*
X052850Y048600D01*
X052877Y048694D01*
X053204Y048600D01*
X052877Y048506D01*
X052877Y048506D01*
X052850Y048600D01*
X052877Y048506D01*
X053204Y048600D01*
X052877Y048506D01*
X053204Y048600D01*
X052877Y048694D01*
X052850Y048600D01*
X052877Y048694D02*
X052877Y048694D01*
X053204Y048600D01*
X053204Y048600D01*
X052877Y048506D02*
X052877Y048506D01*
M02*
