G75*
%MOIN*%
%OFA0B0*%
%FSLAX24Y24*%
%IPPOS*%
%LPD*%
%AMOC8*
5,1,8,0,0,1.08239X$1,22.5*
%
%ADD10C,0.0600*%
%ADD11C,0.0520*%
%ADD12C,0.1000*%
%ADD13OC8,0.0520*%
%ADD14C,0.0240*%
%ADD15C,0.0436*%
%ADD16C,0.0400*%
%ADD17C,0.0200*%
D10*
X055322Y047550D02*
X055322Y048150D01*
X056322Y048150D02*
X056322Y047550D01*
X057322Y047550D02*
X057322Y048150D01*
X058322Y048150D02*
X058322Y047550D01*
X059322Y047550D02*
X059322Y048150D01*
X060322Y048150D02*
X060322Y047550D01*
X061322Y047550D02*
X061322Y048150D01*
X062322Y048150D02*
X062322Y047550D01*
X063322Y047550D02*
X063322Y048150D01*
X064322Y048150D02*
X064322Y047550D01*
X065322Y047550D02*
X065322Y048150D01*
X066322Y048150D02*
X066322Y047550D01*
X067322Y047550D02*
X067322Y048150D01*
X068322Y048150D02*
X068322Y047550D01*
D11*
X085350Y047360D02*
X085350Y046840D01*
X086350Y046840D02*
X086350Y047360D01*
X087350Y047360D02*
X087350Y046840D01*
X088350Y046840D02*
X088350Y047360D01*
X089350Y047360D02*
X089350Y046840D01*
X090350Y046840D02*
X090350Y047360D01*
X091350Y047360D02*
X091350Y046840D01*
X092350Y046840D02*
X092350Y047360D01*
X092350Y049840D02*
X092350Y050360D01*
X091350Y050360D02*
X091350Y049840D01*
X090350Y049840D02*
X090350Y050360D01*
X089350Y050360D02*
X089350Y049840D01*
X088350Y049840D02*
X088350Y050360D01*
X087350Y050360D02*
X087350Y049840D01*
X086350Y049840D02*
X086350Y050360D01*
X085350Y050360D02*
X085350Y049840D01*
D12*
X017100Y010350D03*
X019600Y011350D03*
X024600Y010350D03*
X027100Y011350D03*
X024600Y017850D03*
X027100Y018850D03*
X032100Y017850D03*
X034600Y018850D03*
X039600Y017850D03*
X042100Y018850D03*
X047100Y017850D03*
X049600Y018850D03*
X054600Y017850D03*
X057100Y018850D03*
X062100Y017850D03*
X064600Y018850D03*
X069600Y017850D03*
X072100Y018850D03*
X077100Y017850D03*
X079600Y018850D03*
X084600Y017850D03*
X087100Y018850D03*
X095850Y017850D03*
X098350Y018850D03*
X099600Y025350D03*
X102100Y026350D03*
X090850Y026350D03*
X088350Y025350D03*
X083350Y026350D03*
X080850Y025350D03*
X075850Y026350D03*
X073350Y025350D03*
X068350Y026350D03*
X065850Y025350D03*
X060850Y026350D03*
X058350Y025350D03*
X053350Y026350D03*
X050850Y025350D03*
X045850Y026350D03*
X043350Y025350D03*
X038350Y026350D03*
X035850Y025350D03*
X030850Y026350D03*
X028350Y025350D03*
X023350Y026350D03*
X020850Y025350D03*
X015850Y026350D03*
X013350Y025350D03*
X008350Y026350D03*
X005850Y025350D03*
X008350Y018850D03*
X005850Y017850D03*
X017100Y017850D03*
X019600Y018850D03*
X018350Y032850D03*
X020850Y033850D03*
X025850Y032850D03*
X028350Y033850D03*
X033350Y032850D03*
X035850Y033850D03*
X040850Y032850D03*
X043350Y033850D03*
X048350Y032850D03*
X050850Y033850D03*
X055850Y032850D03*
X058350Y033850D03*
X063350Y032850D03*
X065850Y033850D03*
X070850Y032850D03*
X073350Y033850D03*
X078350Y032850D03*
X080850Y033850D03*
X085850Y032850D03*
X088350Y033850D03*
X093350Y032850D03*
X095850Y033850D03*
X100850Y032850D03*
X103350Y033850D03*
X097725Y040350D03*
X100225Y041350D03*
X092725Y041350D03*
X090225Y040350D03*
X085225Y041350D03*
X082725Y040350D03*
X077725Y041350D03*
X075225Y040350D03*
X070225Y041350D03*
X067725Y040350D03*
X062725Y041350D03*
X060225Y040350D03*
X055225Y041350D03*
X052725Y040350D03*
X047725Y041350D03*
X045225Y040350D03*
X040225Y041350D03*
X037725Y040350D03*
X032725Y041350D03*
X030225Y040350D03*
X025225Y041350D03*
X022725Y040350D03*
X017725Y041350D03*
X015225Y040350D03*
X010225Y041350D03*
X007725Y040350D03*
X005850Y033850D03*
X003350Y032850D03*
X010850Y032850D03*
X013350Y033850D03*
X054350Y011350D03*
X051850Y010350D03*
X078663Y010350D03*
X081163Y011350D03*
X086163Y010350D03*
X088663Y011350D03*
X093663Y010350D03*
X096163Y011350D03*
D13*
X098725Y046850D03*
X099725Y046850D03*
X099850Y048850D03*
X096850Y048850D03*
D14*
X093100Y052600D01*
X082600Y052600D01*
X082100Y052100D01*
X082350Y051350D02*
X083100Y052100D01*
X091100Y052100D01*
X092350Y050850D01*
X092350Y050100D01*
X091350Y050100D02*
X091350Y050850D01*
X090600Y051600D01*
X083350Y051600D01*
X082600Y050850D01*
X063350Y050850D01*
X061350Y048850D01*
X061322Y047850D01*
X060322Y047850D02*
X060350Y048850D01*
X062850Y051350D01*
X082350Y051350D01*
X082850Y050350D02*
X083600Y051100D01*
X090100Y051100D01*
X090350Y050850D01*
X090350Y050100D01*
X089350Y050100D02*
X089350Y049350D01*
X089600Y049100D01*
X092350Y049100D01*
X095350Y046100D01*
X095350Y037350D01*
X100350Y037350D01*
X101100Y038100D01*
X101100Y040475D01*
X100643Y040932D01*
X100192Y040971D01*
X100225Y041350D01*
X100604Y041383D01*
X100225Y041350D01*
X100192Y040971D01*
X100192Y040971D01*
X100192Y040971D01*
X100643Y040932D01*
X100604Y041383D01*
X100604Y041383D01*
X100604Y041383D01*
X100643Y040932D01*
X100192Y040971D01*
X100643Y040932D01*
X100643Y040932D01*
X100643Y040932D01*
X100643Y040932D01*
X100604Y041383D01*
X100604Y041317D02*
X100225Y041350D01*
X100594Y041261D01*
X100643Y040932D02*
X100225Y041350D01*
X098016Y040595D02*
X097725Y040350D01*
X098016Y040595D01*
X098016Y040595D01*
X097725Y040941D01*
X097725Y040941D01*
X097725Y040941D01*
X098016Y040595D01*
X097725Y040350D01*
X097434Y040595D01*
X097725Y040350D01*
X097434Y040595D01*
X097725Y040941D01*
X097725Y040941D01*
X097725Y046371D01*
X097649Y046708D01*
X097725Y046725D01*
X097801Y046708D01*
X097725Y046371D01*
X097649Y046708D01*
X097649Y046708D01*
X097725Y046725D01*
X097801Y046708D01*
X097725Y046371D01*
X097649Y046708D01*
X097725Y046371D01*
X097801Y046708D01*
X097801Y046708D01*
X097725Y046371D01*
X097725Y046371D01*
X097725Y046725D01*
X098225Y047350D02*
X096100Y047350D01*
X095850Y047100D01*
X098225Y047350D02*
X098725Y046850D01*
X093832Y042928D02*
X093490Y042850D01*
X093832Y042928D01*
X093850Y042850D01*
X093832Y042928D01*
X093490Y042850D01*
X093832Y042772D01*
X093850Y042850D01*
X093832Y042772D01*
X093490Y042850D01*
X093832Y042772D01*
X093832Y042772D01*
X093490Y042850D01*
X093850Y042850D01*
X093832Y042928D02*
X093832Y042928D01*
X093490Y042850D01*
X092850Y042850D01*
X089350Y046350D01*
X089350Y047100D01*
X088350Y047100D02*
X088350Y042850D01*
X091225Y042850D01*
X092307Y041768D01*
X092758Y041729D01*
X092725Y041350D01*
X092758Y041729D01*
X092758Y041729D01*
X092758Y041729D01*
X092307Y041768D01*
X092346Y041317D01*
X092725Y041350D01*
X092346Y041317D01*
X092346Y041317D01*
X092346Y041317D01*
X092307Y041768D01*
X092307Y041768D01*
X092346Y041317D01*
X092307Y041768D01*
X092307Y041768D01*
X092307Y041768D01*
X092758Y041729D01*
X092480Y041641D02*
X092725Y041350D01*
X092480Y041641D01*
X092307Y041768D02*
X092725Y041350D01*
X093490Y042850D02*
X093832Y042772D01*
X093490Y042850D02*
X093490Y042850D01*
X097434Y040595D02*
X097725Y040941D01*
X097725Y040941D01*
X098016Y040595D01*
X097725Y040941D01*
X097434Y040595D01*
X097725Y040350D01*
X097725Y040941D01*
X098016Y040595D01*
X098016Y040595D01*
X097725Y040941D01*
X097434Y040595D01*
X097725Y040941D01*
X098016Y040595D01*
X097725Y040941D02*
X097434Y040595D01*
X097434Y040595D01*
X095350Y037350D02*
X089225Y037350D01*
X085643Y040932D01*
X085192Y040971D01*
X085225Y041350D01*
X085604Y041383D01*
X085225Y041350D01*
X085192Y040971D01*
X085192Y040971D01*
X085192Y040971D01*
X085643Y040932D01*
X085604Y041383D01*
X085604Y041383D01*
X085604Y041383D01*
X085643Y040932D01*
X085192Y040971D01*
X085643Y040932D01*
X085643Y040932D01*
X085643Y040932D01*
X085643Y040932D01*
X085604Y041383D01*
X085225Y041350D02*
X085643Y040932D01*
X088350Y042850D02*
X077725Y042850D01*
X077725Y041941D01*
X077725Y041941D01*
X077725Y041941D01*
X078016Y041595D01*
X078016Y041595D01*
X077725Y041941D01*
X077725Y041941D01*
X077725Y041941D01*
X078016Y041595D01*
X077725Y041350D01*
X078016Y041595D01*
X077725Y041941D01*
X077434Y041595D01*
X077725Y041350D01*
X077434Y041595D01*
X077725Y041941D01*
X077434Y041595D01*
X077725Y041350D01*
X077434Y041595D01*
X077725Y041941D01*
X078016Y041595D01*
X078016Y041595D01*
X077725Y041350D01*
X077725Y041941D01*
X078016Y041595D01*
X077725Y041941D01*
X077434Y041595D01*
X077725Y041941D01*
X077434Y041595D02*
X077434Y041595D01*
X077725Y042850D02*
X063100Y042850D01*
X062725Y042475D01*
X062725Y041941D01*
X062725Y041941D01*
X062725Y041941D01*
X063016Y041595D01*
X063016Y041595D01*
X062725Y041941D01*
X062725Y041941D01*
X062725Y041941D01*
X063016Y041595D01*
X062725Y041350D01*
X063016Y041595D01*
X062725Y041941D01*
X062434Y041595D01*
X062725Y041350D01*
X062434Y041595D01*
X062725Y041941D01*
X062434Y041595D01*
X062725Y041350D01*
X062434Y041595D01*
X062725Y041941D01*
X063016Y041595D01*
X063016Y041595D01*
X062725Y041350D01*
X062725Y041941D01*
X063016Y041595D01*
X062725Y041941D01*
X062434Y041595D01*
X062725Y041941D01*
X062434Y041595D02*
X062434Y041595D01*
X062850Y044600D02*
X058600Y040350D01*
X058600Y038850D01*
X054100Y034350D01*
X054100Y028100D01*
X044600Y028100D01*
X044600Y032600D01*
X043768Y033432D01*
X043317Y033471D01*
X043350Y033850D01*
X043729Y033883D01*
X043350Y033850D01*
X043105Y034141D01*
X043105Y034141D01*
X042759Y033850D01*
X042759Y033850D01*
X042759Y033850D01*
X043105Y034141D01*
X043350Y033850D01*
X043105Y033559D01*
X043350Y033850D01*
X043105Y033559D01*
X042759Y033850D01*
X042759Y033850D01*
X042759Y033850D01*
X036441Y033850D01*
X036441Y033850D01*
X036095Y034141D01*
X036095Y034141D01*
X036441Y033850D01*
X036441Y033850D01*
X036441Y033850D01*
X036441Y033850D01*
X036095Y033559D01*
X035850Y033850D01*
X036095Y033559D01*
X036441Y033850D01*
X036095Y034141D01*
X035850Y033850D01*
X036095Y033559D01*
X036441Y033850D01*
X036095Y034141D01*
X036095Y034141D01*
X036441Y033850D01*
X036095Y033559D01*
X036441Y033850D01*
X036095Y033559D01*
X036095Y033559D01*
X035850Y033850D01*
X036095Y034141D01*
X035850Y033850D01*
X036441Y033850D01*
X036095Y034141D01*
X041100Y035850D02*
X030850Y035850D01*
X030850Y030100D01*
X026355Y025605D01*
X026168Y025307D01*
X026100Y025350D01*
X026057Y025418D01*
X026355Y025605D01*
X026168Y025307D01*
X026100Y025350D01*
X026022Y025332D01*
X026100Y025350D02*
X026178Y025332D01*
X026168Y025307D02*
X026168Y025307D01*
X026100Y025350D02*
X026057Y025418D01*
X026355Y025605D01*
X026100Y025350D01*
X026057Y025418D02*
X026057Y025418D01*
X023768Y025932D02*
X023768Y025932D01*
X023317Y025971D01*
X023350Y026350D01*
X023729Y026383D01*
X023350Y026350D01*
X023641Y026595D01*
X023641Y026595D01*
X023350Y026941D01*
X023350Y026941D01*
X023350Y026941D01*
X023641Y026595D01*
X023350Y026350D01*
X023059Y026595D01*
X023350Y026350D01*
X023059Y026595D01*
X023350Y026941D01*
X023350Y026941D01*
X023350Y026941D01*
X023350Y027600D01*
X017100Y027600D01*
X016268Y026768D01*
X015817Y026729D01*
X015850Y026350D01*
X016229Y026317D01*
X016268Y026768D01*
X016268Y026768D01*
X015817Y026729D01*
X015850Y026350D01*
X016141Y026595D01*
X015850Y026350D01*
X016268Y026768D01*
X015817Y026729D01*
X015817Y026729D01*
X015817Y026729D01*
X016229Y026317D02*
X016229Y026317D01*
X016229Y026317D01*
X018850Y028350D02*
X013768Y033432D01*
X013317Y033471D01*
X013350Y033850D01*
X013729Y033883D01*
X013350Y033850D01*
X013105Y034141D01*
X013105Y034141D01*
X012759Y033850D01*
X012759Y033850D01*
X012759Y033850D01*
X013105Y034141D01*
X013350Y033850D01*
X013105Y033559D01*
X013350Y033850D01*
X013105Y033559D01*
X012759Y033850D01*
X012759Y033850D01*
X012759Y033850D01*
X006441Y033850D01*
X006441Y033850D01*
X006095Y034141D01*
X006095Y034141D01*
X006441Y033850D01*
X006441Y033850D01*
X006441Y033850D01*
X006441Y033850D01*
X006095Y033559D01*
X005850Y033850D01*
X006095Y033559D01*
X006441Y033850D01*
X006095Y034141D01*
X005850Y033850D01*
X006095Y033559D01*
X006441Y033850D01*
X006095Y034141D01*
X006095Y034141D01*
X006441Y033850D01*
X006095Y033559D01*
X006441Y033850D01*
X006095Y033559D01*
X006095Y033559D01*
X005850Y033850D01*
X006095Y034141D01*
X005850Y033850D01*
X006441Y033850D01*
X006095Y034141D01*
X008272Y032832D02*
X008350Y032850D01*
X008428Y032832D01*
X008350Y032850D01*
X008272Y032832D01*
X008350Y032490D01*
X008272Y032832D01*
X008350Y032490D01*
X008428Y032832D01*
X008350Y032490D01*
X008350Y032850D01*
X008428Y032832D02*
X008350Y032490D01*
X008350Y026941D01*
X008350Y026941D01*
X008350Y026941D01*
X008641Y026595D01*
X008641Y026595D01*
X008350Y026941D01*
X008350Y026941D01*
X008350Y026941D01*
X008641Y026595D01*
X008350Y026350D01*
X008641Y026595D01*
X008350Y026941D01*
X008059Y026595D01*
X008350Y026350D01*
X008059Y026595D01*
X008350Y026941D01*
X008059Y026595D01*
X008350Y026350D01*
X008059Y026595D01*
X008350Y026941D01*
X008641Y026595D01*
X008641Y026595D01*
X008350Y026350D01*
X008317Y025971D01*
X008768Y025932D01*
X008729Y026383D01*
X008350Y026350D01*
X008729Y026383D01*
X008729Y026383D01*
X008729Y026383D01*
X008768Y025932D01*
X008317Y025971D01*
X008317Y025971D01*
X008317Y025971D01*
X008768Y025932D01*
X008768Y025932D01*
X008768Y025932D01*
X014100Y020600D01*
X019600Y020600D01*
X019600Y019441D01*
X019600Y019441D01*
X019600Y019441D01*
X019891Y019095D01*
X019891Y019095D01*
X019600Y019441D01*
X019600Y019441D01*
X019600Y019441D01*
X019891Y019095D01*
X019600Y018850D01*
X019891Y019095D01*
X019600Y019441D01*
X019309Y019095D01*
X019600Y018850D01*
X019309Y019095D01*
X019600Y019441D01*
X019309Y019095D01*
X019600Y018850D01*
X019309Y019095D01*
X019600Y019441D01*
X019891Y019095D01*
X019891Y019095D01*
X019600Y018850D01*
X019600Y019441D01*
X019891Y019095D01*
X019600Y019441D01*
X019309Y019095D01*
X019600Y019441D01*
X019309Y019095D02*
X019309Y019095D01*
X019600Y020600D02*
X034600Y020600D01*
X034600Y019441D01*
X034600Y019441D01*
X034600Y019441D01*
X034891Y019095D01*
X034891Y019095D01*
X034600Y019441D01*
X034600Y019441D01*
X034600Y019441D01*
X034891Y019095D01*
X034600Y018850D01*
X034891Y019095D01*
X034600Y019441D01*
X034309Y019095D01*
X034600Y018850D01*
X034309Y019095D01*
X034600Y019441D01*
X034309Y019095D01*
X034600Y018850D01*
X034309Y019095D01*
X034600Y019441D01*
X034891Y019095D01*
X034891Y019095D01*
X034600Y018850D01*
X034600Y019441D01*
X034891Y019095D01*
X034600Y019441D01*
X034309Y019095D01*
X034600Y019441D01*
X034309Y019095D02*
X034309Y019095D01*
X034600Y020600D02*
X049600Y020600D01*
X049600Y019441D01*
X049600Y019441D01*
X049600Y019441D01*
X049891Y019095D01*
X049891Y019095D01*
X049600Y019441D01*
X049600Y019441D01*
X049600Y019441D01*
X049891Y019095D01*
X049600Y018850D01*
X049309Y019095D01*
X049600Y018850D01*
X049891Y019095D01*
X049891Y019095D01*
X049600Y019441D01*
X049309Y019095D01*
X049600Y019441D01*
X049309Y019095D01*
X049600Y018850D01*
X049891Y019095D01*
X049600Y019441D01*
X049309Y019095D01*
X049600Y019441D01*
X049891Y019095D01*
X049600Y018850D02*
X049309Y019095D01*
X049600Y019441D01*
X049600Y018850D01*
X052350Y018100D02*
X052350Y015850D01*
X051100Y014600D01*
X042600Y014600D01*
X042600Y017350D01*
X042100Y017850D01*
X042100Y018259D01*
X042100Y018259D01*
X042391Y018605D01*
X042391Y018605D01*
X042100Y018259D01*
X042100Y018259D01*
X042100Y018259D01*
X042100Y018259D01*
X041809Y018605D01*
X042100Y018850D01*
X041809Y018605D01*
X042100Y018259D01*
X042391Y018605D01*
X042100Y018850D01*
X041809Y018605D01*
X042100Y018259D01*
X042391Y018605D01*
X042391Y018605D01*
X042100Y018259D01*
X041809Y018605D01*
X042100Y018259D01*
X041809Y018605D01*
X041809Y018605D01*
X042100Y018850D01*
X042391Y018605D01*
X042100Y018850D01*
X042100Y018259D01*
X042391Y018605D01*
X042600Y014600D02*
X031350Y014600D01*
X027518Y018432D01*
X027067Y018471D01*
X027100Y018850D01*
X027479Y018883D01*
X027100Y018850D01*
X027067Y018471D01*
X027067Y018471D01*
X027067Y018471D01*
X027518Y018432D01*
X027479Y018883D01*
X027479Y018883D01*
X027479Y018883D01*
X027518Y018432D01*
X027067Y018471D01*
X027518Y018432D01*
X027518Y018432D01*
X027518Y018432D01*
X027518Y018432D01*
X027479Y018883D01*
X027100Y018850D02*
X027518Y018432D01*
X027100Y022600D02*
X047600Y022600D01*
X048600Y023600D01*
X048600Y027100D01*
X052600Y027100D01*
X052932Y026768D01*
X053383Y026729D01*
X053350Y026350D01*
X053383Y026729D01*
X053383Y026729D01*
X053383Y026729D01*
X052932Y026768D01*
X052971Y026317D01*
X053350Y026350D01*
X052971Y026317D01*
X052971Y026317D01*
X052971Y026317D01*
X052932Y026768D01*
X052932Y026768D01*
X052971Y026317D01*
X052932Y026768D01*
X052932Y026768D01*
X052932Y026768D01*
X053383Y026729D01*
X053317Y026729D02*
X053350Y026350D01*
X052932Y026768D01*
X054100Y028100D02*
X059100Y028100D01*
X060432Y026768D01*
X060883Y026729D01*
X060850Y026350D01*
X060883Y026729D01*
X060883Y026729D01*
X060883Y026729D01*
X060432Y026768D01*
X060471Y026317D01*
X060850Y026350D01*
X060471Y026317D01*
X060471Y026317D01*
X060471Y026317D01*
X060432Y026768D01*
X060432Y026768D01*
X060471Y026317D01*
X060432Y026768D01*
X060432Y026768D01*
X060432Y026768D01*
X060883Y026729D01*
X060850Y026350D02*
X060432Y026768D01*
X063350Y024600D02*
X061350Y022600D01*
X051850Y022600D01*
X050850Y023600D01*
X050850Y024759D01*
X050850Y024759D01*
X051141Y025105D01*
X051141Y025105D01*
X050850Y024759D01*
X050850Y024759D01*
X050850Y024759D01*
X050850Y024759D01*
X050559Y025105D01*
X050850Y025350D01*
X050559Y025105D01*
X050850Y024759D01*
X051141Y025105D01*
X050850Y025350D01*
X050559Y025105D01*
X050850Y024759D01*
X051141Y025105D01*
X051141Y025105D01*
X050850Y024759D01*
X050559Y025105D01*
X050850Y024759D01*
X050559Y025105D01*
X050559Y025105D01*
X050850Y025350D01*
X051141Y025105D01*
X050850Y025350D01*
X050850Y024759D01*
X051141Y025105D01*
X048600Y027100D02*
X046600Y027100D01*
X046268Y026768D01*
X046229Y026317D01*
X045850Y026350D01*
X045817Y026729D01*
X046268Y026768D01*
X045817Y026729D01*
X045850Y026350D01*
X046229Y026317D01*
X046268Y026768D01*
X046268Y026768D01*
X046229Y026317D01*
X046229Y026317D01*
X046229Y026317D01*
X045850Y026350D02*
X045605Y026641D01*
X045817Y026729D02*
X045817Y026729D01*
X045817Y026729D01*
X045850Y026350D02*
X046268Y026768D01*
X045850Y026350D02*
X045605Y026059D01*
X044600Y028100D02*
X038350Y028100D01*
X032600Y028100D01*
X031268Y026768D01*
X031229Y026317D01*
X030850Y026350D01*
X030817Y026729D01*
X031268Y026768D01*
X030817Y026729D01*
X030850Y026350D01*
X031229Y026317D01*
X031268Y026768D01*
X031268Y026768D01*
X031229Y026317D01*
X031229Y026317D01*
X031229Y026317D01*
X030850Y026350D02*
X030605Y026641D01*
X030817Y026729D02*
X030817Y026729D01*
X030817Y026729D01*
X030850Y026350D02*
X030605Y026059D01*
X030850Y026350D02*
X031268Y026768D01*
X038059Y026595D02*
X038350Y026350D01*
X038641Y026595D01*
X038641Y026595D01*
X038350Y026941D01*
X038350Y026941D01*
X038350Y026941D01*
X038641Y026595D01*
X038350Y026350D01*
X038059Y026595D01*
X038350Y026350D01*
X038059Y026595D01*
X038350Y026941D01*
X038350Y026941D01*
X038350Y026941D01*
X038350Y028100D01*
X038350Y026941D02*
X038641Y026595D01*
X038350Y026941D01*
X038059Y026595D01*
X038350Y026941D01*
X038059Y026595D01*
X038350Y026941D01*
X038641Y026595D01*
X038641Y026595D01*
X038350Y026350D01*
X038350Y026941D01*
X038641Y026595D01*
X038350Y026941D01*
X038059Y026595D01*
X038059Y026595D01*
X027100Y022600D02*
X023768Y025932D01*
X023729Y026383D01*
X023729Y026383D01*
X023729Y026383D01*
X023768Y025932D01*
X023317Y025971D01*
X023317Y025971D01*
X023317Y025971D01*
X023768Y025932D01*
X023768Y025932D01*
X023768Y025932D01*
X023317Y025971D01*
X023350Y026350D01*
X023059Y026595D01*
X023350Y026941D01*
X023641Y026595D01*
X023350Y026941D01*
X023059Y026595D01*
X023350Y026941D01*
X023059Y026595D01*
X023350Y026941D01*
X023641Y026595D01*
X023641Y026595D01*
X023350Y026350D01*
X023768Y025932D01*
X023729Y026383D01*
X023641Y026595D02*
X023350Y026941D01*
X023641Y026595D01*
X023350Y026350D02*
X023350Y026941D01*
X023059Y026595D02*
X023059Y026595D01*
X023350Y027600D02*
X023350Y033850D01*
X027759Y033850D01*
X027759Y033850D01*
X027759Y033850D01*
X028105Y034141D01*
X028105Y034141D01*
X027759Y033850D01*
X027759Y033850D01*
X027759Y033850D01*
X028105Y034141D01*
X028350Y033850D01*
X028105Y034141D01*
X027759Y033850D01*
X028105Y033559D01*
X028350Y033850D01*
X028105Y033559D01*
X027759Y033850D01*
X028105Y033559D01*
X028350Y033850D01*
X028105Y033559D01*
X027759Y033850D01*
X028105Y034141D01*
X028105Y034141D01*
X028350Y033850D01*
X027759Y033850D01*
X028105Y034141D01*
X027759Y033850D01*
X028105Y033559D01*
X027759Y033850D01*
X028105Y033559D02*
X028105Y033559D01*
X025850Y035850D02*
X030850Y035850D01*
X030600Y037600D02*
X033100Y037600D01*
X035350Y039850D01*
X035350Y040850D01*
X037100Y042600D01*
X041600Y042600D01*
X042850Y041350D01*
X042850Y038600D01*
X043850Y037600D01*
X047600Y037600D01*
X048850Y038850D01*
X048850Y040850D01*
X051850Y043850D01*
X055350Y043850D01*
X058322Y046822D01*
X058322Y047850D01*
X057350Y047822D02*
X057322Y047850D01*
X057350Y047822D02*
X057350Y046850D01*
X055100Y044600D01*
X054600Y044600D01*
X055850Y046350D02*
X056322Y046822D01*
X056322Y047850D01*
X055322Y047850D02*
X048850Y047850D01*
X046850Y045850D01*
X046850Y044210D01*
X046928Y043868D01*
X046850Y043850D01*
X046928Y043868D01*
X046850Y044210D01*
X046772Y043868D01*
X046850Y043850D01*
X046772Y043868D01*
X046850Y044210D01*
X046772Y043868D01*
X046772Y043868D01*
X046850Y044210D01*
X046850Y043850D01*
X046928Y043868D02*
X046850Y044210D01*
X046928Y043868D01*
X046928Y043868D01*
X046772Y043868D02*
X046850Y044210D01*
X046850Y044210D01*
X047850Y044850D02*
X049350Y046350D01*
X055850Y046350D01*
X059350Y045710D02*
X059428Y045368D01*
X059428Y045368D01*
X059350Y045710D01*
X059428Y045368D01*
X059350Y045350D01*
X059345Y045345D01*
X059345Y044105D01*
X059393Y043918D01*
X059350Y043850D01*
X059282Y043807D01*
X059345Y044105D01*
X059282Y043807D01*
X059350Y043850D01*
X059393Y043918D01*
X059393Y043918D01*
X059350Y043850D01*
X059368Y043772D01*
X059350Y043850D02*
X059368Y043928D01*
X059393Y043918D02*
X059393Y043918D01*
X059345Y044105D01*
X059282Y043807D01*
X059282Y043807D01*
X059350Y043850D01*
X059368Y045272D02*
X059350Y045350D01*
X059428Y045368D01*
X059350Y045350D02*
X059272Y045368D01*
X059350Y045350D01*
X059368Y045272D01*
X059368Y045272D01*
X059350Y045350D02*
X059368Y045428D01*
X059368Y045428D01*
X059350Y045350D02*
X059350Y045710D01*
X059272Y045368D01*
X059350Y045710D01*
X059272Y045368D01*
X059272Y045368D01*
X059350Y045710D01*
X059350Y047600D01*
X059322Y047850D01*
X062322Y047850D02*
X062350Y048850D01*
X063850Y050350D01*
X082850Y050350D01*
X083246Y049850D02*
X083583Y049926D01*
X083600Y049850D01*
X083583Y049774D01*
X083246Y049850D01*
X083583Y049926D01*
X083246Y049850D01*
X083583Y049774D01*
X083246Y049850D01*
X083583Y049926D01*
X083583Y049926D01*
X083600Y049850D01*
X083583Y049774D01*
X083583Y049774D01*
X083246Y049850D01*
X083246Y049850D01*
X083583Y049926D01*
X083600Y049850D02*
X083246Y049850D01*
X083583Y049774D01*
X083246Y049850D02*
X064350Y049850D01*
X063322Y048822D01*
X063322Y047850D01*
X065322Y047850D02*
X065350Y047850D01*
X065350Y046460D01*
X065428Y046118D01*
X065350Y046100D01*
X065428Y046118D01*
X065350Y046460D01*
X065272Y046118D01*
X065350Y046100D01*
X065272Y046118D01*
X065350Y046460D01*
X065272Y046118D01*
X065272Y046118D01*
X065350Y046460D01*
X065350Y046100D01*
X065428Y046118D02*
X065350Y046460D01*
X065428Y046118D01*
X065428Y046118D01*
X065272Y046118D02*
X065350Y046460D01*
X065350Y046460D01*
X067350Y046850D02*
X067350Y047822D01*
X067322Y047850D01*
X068322Y047850D02*
X068322Y048822D01*
X068600Y049100D01*
X082100Y049100D01*
X085100Y049100D01*
X085350Y049350D01*
X085350Y050100D01*
X086850Y047850D02*
X088350Y049350D01*
X088350Y050100D01*
X087350Y047100D02*
X087350Y044600D01*
X086350Y043600D01*
X070600Y043600D01*
X067350Y046850D01*
X068350Y044600D02*
X062850Y044600D01*
X062350Y045350D02*
X057600Y040600D01*
X057600Y039350D01*
X054100Y035850D01*
X052850Y035850D01*
X051268Y034268D01*
X051229Y033817D01*
X050850Y033850D01*
X050817Y034229D01*
X051268Y034268D01*
X050817Y034229D01*
X050850Y033850D01*
X051229Y033817D01*
X051268Y034268D01*
X051268Y034268D01*
X051229Y033817D01*
X051229Y033817D01*
X051229Y033817D01*
X051095Y034141D02*
X050850Y033850D01*
X051268Y034268D01*
X050817Y034229D02*
X050817Y034229D01*
X050817Y034229D01*
X047850Y035850D02*
X041100Y035850D01*
X041100Y040475D01*
X040643Y040932D01*
X040192Y040971D01*
X040225Y041350D01*
X040604Y041383D01*
X040225Y041350D01*
X040192Y040971D01*
X040192Y040971D01*
X040192Y040971D01*
X040643Y040932D01*
X040604Y041383D01*
X040604Y041383D01*
X040604Y041383D01*
X040643Y040932D01*
X040192Y040971D01*
X040643Y040932D01*
X040643Y040932D01*
X040643Y040932D01*
X040643Y040932D01*
X040604Y041383D01*
X040516Y041105D02*
X040225Y041350D01*
X040643Y040932D01*
X044600Y043350D02*
X046600Y041350D01*
X047134Y041350D01*
X047134Y041350D01*
X047134Y041350D01*
X047480Y041641D01*
X047480Y041641D01*
X047134Y041350D01*
X047134Y041350D01*
X047134Y041350D01*
X047480Y041641D01*
X047725Y041350D01*
X047480Y041641D01*
X047134Y041350D01*
X047480Y041059D01*
X047725Y041350D01*
X047480Y041059D01*
X047134Y041350D01*
X047480Y041059D01*
X047725Y041350D01*
X047480Y041059D01*
X047134Y041350D01*
X047480Y041641D01*
X047480Y041641D01*
X047725Y041350D01*
X047134Y041350D01*
X047480Y041641D01*
X047134Y041350D01*
X047480Y041059D01*
X047134Y041350D01*
X047480Y041059D02*
X047480Y041059D01*
X050600Y041350D02*
X051600Y042350D01*
X054225Y042350D01*
X054807Y041768D01*
X055258Y041729D01*
X055225Y041350D01*
X055258Y041729D01*
X055258Y041729D01*
X055258Y041729D01*
X054807Y041768D01*
X054846Y041317D01*
X055225Y041350D01*
X054846Y041317D01*
X054846Y041317D01*
X054807Y041768D01*
X054807Y041768D01*
X054846Y041317D01*
X054807Y041768D01*
X054807Y041768D01*
X054807Y041768D01*
X055258Y041729D01*
X054980Y041641D02*
X055225Y041350D01*
X054980Y041641D01*
X054807Y041768D02*
X055225Y041350D01*
X050600Y041350D02*
X050600Y038600D01*
X047850Y035850D01*
X043729Y033883D02*
X043768Y033432D01*
X043729Y033883D01*
X043729Y033883D01*
X043729Y033883D01*
X043768Y033432D01*
X043317Y033471D01*
X043317Y033471D01*
X043317Y033471D01*
X043768Y033432D01*
X043768Y033432D01*
X043768Y033432D01*
X043768Y033432D01*
X043317Y033471D01*
X043350Y033850D01*
X043105Y033559D01*
X042759Y033850D01*
X043105Y034141D01*
X042759Y033850D01*
X043105Y033559D01*
X042759Y033850D01*
X043105Y033559D01*
X042759Y033850D01*
X043105Y034141D01*
X043105Y034141D01*
X043350Y033850D01*
X043768Y033432D01*
X043350Y033850D02*
X042759Y033850D01*
X043105Y034141D01*
X042759Y033850D01*
X043105Y033559D02*
X043105Y033559D01*
X030600Y037600D02*
X029850Y038350D01*
X029850Y039894D01*
X029845Y040346D01*
X030225Y040350D01*
X030294Y039976D01*
X029850Y039894D01*
X029850Y039975D01*
X030225Y040350D01*
X032434Y041595D02*
X032725Y041350D01*
X033016Y041595D01*
X033016Y041595D01*
X032725Y041941D01*
X032725Y041941D01*
X032725Y041941D01*
X033016Y041595D01*
X032725Y041350D01*
X032434Y041595D01*
X032725Y041350D01*
X032434Y041595D01*
X032725Y041941D01*
X032725Y041941D01*
X032725Y043350D01*
X044600Y043350D01*
X044600Y047240D01*
X044522Y047582D01*
X044600Y047600D01*
X044522Y047582D01*
X044600Y047240D01*
X044678Y047582D01*
X044600Y047600D01*
X044678Y047582D01*
X044600Y047240D01*
X044600Y047600D01*
X044678Y047582D02*
X044600Y047240D01*
X044522Y047582D01*
X044600Y047240D01*
X044600Y047240D01*
X044678Y047582D01*
X044678Y047582D01*
X044522Y047582D02*
X044522Y047582D01*
X043600Y048600D02*
X052496Y048600D01*
X052823Y048506D01*
X052823Y048694D02*
X052496Y048600D01*
X047850Y044850D02*
X047850Y043460D01*
X047928Y043118D01*
X047850Y043100D01*
X047928Y043118D01*
X047850Y043460D01*
X047772Y043118D01*
X047850Y043100D01*
X047772Y043118D01*
X047850Y043460D01*
X047772Y043118D01*
X047772Y043118D01*
X047850Y043460D01*
X047850Y043100D01*
X047928Y043118D02*
X047850Y043460D01*
X047928Y043118D01*
X047928Y043118D01*
X047772Y043118D02*
X047850Y043460D01*
X047850Y043460D01*
X043600Y048600D02*
X042600Y047600D01*
X021350Y047600D01*
X015225Y041475D01*
X015225Y040941D01*
X015225Y040941D01*
X015225Y040941D01*
X015516Y040595D01*
X015516Y040595D01*
X015225Y040941D01*
X015225Y040941D01*
X015225Y040941D01*
X015516Y040595D01*
X015225Y040350D01*
X015516Y040595D01*
X015225Y040941D01*
X014934Y040595D01*
X015225Y040350D01*
X014934Y040595D01*
X015225Y040941D01*
X014934Y040595D01*
X015225Y040350D01*
X014934Y040595D01*
X015225Y040941D01*
X015516Y040595D01*
X015516Y040595D01*
X015225Y040350D01*
X015225Y040941D01*
X015516Y040595D01*
X015225Y040941D01*
X014934Y040595D01*
X015225Y040941D01*
X014934Y040595D02*
X014934Y040595D01*
X017725Y041350D02*
X018104Y041317D01*
X018143Y041768D01*
X018104Y041317D01*
X017725Y041350D01*
X017692Y041729D01*
X018143Y041768D01*
X017692Y041729D01*
X017725Y041350D01*
X018016Y041595D01*
X017725Y041350D01*
X018143Y041768D01*
X018143Y041768D01*
X019725Y043350D01*
X032725Y043350D01*
X032725Y041941D02*
X032725Y041941D01*
X033016Y041595D01*
X032725Y041941D01*
X032434Y041595D01*
X032725Y041941D01*
X032434Y041595D01*
X032725Y041941D01*
X033016Y041595D01*
X033016Y041595D01*
X032725Y041350D01*
X032725Y041941D01*
X033016Y041595D01*
X032725Y041941D01*
X032434Y041595D01*
X032434Y041595D01*
X025850Y040725D02*
X025850Y035850D01*
X015725Y035850D01*
X010643Y040932D01*
X010192Y040971D01*
X010225Y041350D01*
X010604Y041383D01*
X010225Y041350D01*
X010192Y040971D01*
X010192Y040971D01*
X010192Y040971D01*
X010643Y040932D01*
X010604Y041383D01*
X010604Y041383D01*
X010604Y041383D01*
X010643Y040932D01*
X010192Y040971D01*
X010643Y040932D01*
X010643Y040932D01*
X010643Y040932D01*
X010643Y040932D01*
X010604Y041383D01*
X010516Y041595D02*
X010225Y041350D01*
X010643Y040932D01*
X017692Y041729D02*
X017692Y041729D01*
X017692Y041729D01*
X018143Y041768D02*
X018104Y041317D01*
X018104Y041317D01*
X018104Y041317D01*
X025192Y040971D02*
X025225Y041350D01*
X025604Y041383D01*
X025225Y041350D01*
X025192Y040971D01*
X025643Y040932D01*
X025604Y041383D01*
X025604Y041383D01*
X025604Y041383D01*
X025643Y040932D01*
X025192Y040971D01*
X025192Y040971D01*
X025192Y040971D01*
X025643Y040932D01*
X025643Y040932D01*
X025643Y040932D01*
X025850Y040725D01*
X025643Y040932D02*
X025643Y040932D01*
X025192Y040971D01*
X025225Y041350D02*
X025643Y040932D01*
X025604Y041383D01*
X023350Y033850D02*
X021441Y033850D01*
X021441Y033850D01*
X021095Y034141D01*
X021095Y034141D01*
X021441Y033850D01*
X021441Y033850D01*
X021441Y033850D01*
X021441Y033850D01*
X021095Y033559D01*
X020850Y033850D01*
X021095Y033559D01*
X021441Y033850D01*
X021095Y034141D01*
X020850Y033850D01*
X021095Y033559D01*
X021441Y033850D01*
X021095Y034141D01*
X021095Y034141D01*
X021441Y033850D01*
X021095Y033559D01*
X021441Y033850D01*
X021095Y033559D01*
X021095Y033559D01*
X020850Y033850D01*
X021095Y034141D01*
X020850Y033850D01*
X021441Y033850D01*
X021095Y034141D01*
X013768Y033432D02*
X013768Y033432D01*
X013729Y033883D01*
X013729Y033883D01*
X013729Y033883D01*
X013768Y033432D01*
X013317Y033471D01*
X013317Y033471D01*
X013317Y033471D01*
X013768Y033432D01*
X013768Y033432D01*
X013768Y033432D01*
X013317Y033471D01*
X013350Y033850D01*
X013105Y033559D01*
X012759Y033850D01*
X013105Y034141D01*
X012759Y033850D01*
X013105Y033559D01*
X012759Y033850D01*
X013105Y033559D01*
X012759Y033850D01*
X013105Y034141D01*
X013105Y034141D01*
X013350Y033850D01*
X013768Y033432D01*
X013729Y033883D01*
X013350Y033850D02*
X012759Y033850D01*
X013105Y034141D01*
X012759Y033850D01*
X013105Y033559D02*
X013105Y033559D01*
X008428Y032832D02*
X008350Y032490D01*
X008272Y032832D01*
X008272Y032832D01*
X008428Y032832D02*
X008428Y032832D01*
X008350Y032490D02*
X008350Y032490D01*
X008350Y026941D02*
X008641Y026595D01*
X008350Y026941D01*
X008059Y026595D01*
X008350Y026941D01*
X008350Y026350D01*
X008317Y025971D01*
X008768Y025932D01*
X008768Y025932D01*
X008729Y026383D01*
X008350Y026350D02*
X008383Y026729D01*
X008059Y026595D02*
X008059Y026595D01*
X007971Y026317D02*
X008350Y026350D01*
X008768Y025932D01*
X018850Y028350D02*
X022496Y028350D01*
X022833Y028426D01*
X022850Y028350D01*
X022833Y028274D01*
X022496Y028350D01*
X022833Y028426D01*
X022496Y028350D01*
X022833Y028274D01*
X022496Y028350D01*
X022833Y028426D01*
X022833Y028426D01*
X022850Y028350D01*
X022833Y028274D01*
X022833Y028274D01*
X022496Y028350D01*
X022496Y028350D01*
X022833Y028426D01*
X022850Y028350D02*
X022496Y028350D01*
X022833Y028274D01*
X009600Y018850D02*
X015350Y013100D01*
X019600Y013100D01*
X019600Y011941D01*
X019891Y011595D01*
X019600Y011350D01*
X019309Y011595D01*
X019600Y011941D01*
X019600Y011350D01*
X019600Y013100D02*
X027100Y013100D01*
X027100Y011941D01*
X027391Y011595D01*
X027100Y011350D01*
X026809Y011595D01*
X027100Y011941D01*
X027100Y011350D01*
X027100Y013100D02*
X054350Y013100D01*
X054350Y011941D01*
X054350Y011941D01*
X054350Y011941D01*
X054641Y011595D01*
X054641Y011595D01*
X054350Y011941D01*
X054350Y011941D01*
X054350Y011941D01*
X054641Y011595D01*
X054350Y011350D01*
X054641Y011595D01*
X054350Y011941D01*
X054059Y011595D01*
X054350Y011350D01*
X054059Y011595D01*
X054350Y011941D01*
X054059Y011595D01*
X054350Y011350D01*
X054059Y011595D01*
X054350Y011941D01*
X054641Y011595D01*
X054641Y011595D01*
X054350Y011350D01*
X054350Y011941D01*
X054641Y011595D01*
X054350Y011941D01*
X054059Y011595D01*
X054350Y011941D01*
X054059Y011595D02*
X054059Y011595D01*
X054350Y013100D02*
X081163Y013100D01*
X081163Y011941D01*
X081453Y011595D01*
X081163Y011350D01*
X080872Y011595D01*
X081163Y011941D01*
X081163Y011350D01*
X081163Y013100D02*
X082350Y013100D01*
X086913Y013100D01*
X088245Y011768D01*
X088695Y011729D01*
X088663Y011350D01*
X088284Y011317D01*
X088245Y011768D01*
X088663Y011350D01*
X082350Y013100D02*
X082350Y016100D01*
X080018Y018432D01*
X079567Y018471D01*
X079600Y018850D01*
X079979Y018883D01*
X079600Y018850D01*
X079633Y019229D01*
X079600Y018850D01*
X079221Y018817D01*
X079182Y019268D01*
X079633Y019229D01*
X079633Y019229D01*
X079633Y019229D01*
X079182Y019268D01*
X079182Y019268D01*
X079221Y018817D01*
X079221Y018817D01*
X079221Y018817D01*
X079182Y019268D01*
X079182Y019268D01*
X077850Y020600D01*
X073850Y020600D01*
X072518Y019268D01*
X072479Y018817D01*
X072100Y018850D01*
X072067Y019229D01*
X072518Y019268D01*
X072067Y019229D01*
X072100Y018850D01*
X072479Y018817D01*
X072518Y019268D01*
X072518Y019268D01*
X072479Y018817D01*
X072479Y018817D01*
X072479Y018817D01*
X072479Y018883D02*
X072100Y018850D01*
X072518Y019268D01*
X072067Y019229D02*
X072067Y019229D01*
X072067Y019229D01*
X074600Y015350D02*
X076682Y017432D01*
X076721Y017883D01*
X076721Y017883D01*
X076682Y017432D01*
X077133Y017471D01*
X077133Y017471D01*
X076682Y017432D01*
X076721Y017883D01*
X077100Y017850D01*
X077133Y017471D01*
X077100Y017850D01*
X076721Y017883D01*
X076721Y017883D01*
X076682Y017432D01*
X077133Y017471D01*
X077133Y017471D01*
X077100Y017850D02*
X076682Y017432D01*
X076682Y017432D01*
X076682Y017432D01*
X079567Y018471D02*
X079567Y018471D01*
X079567Y018471D01*
X080018Y018432D01*
X079979Y018883D01*
X079979Y018883D01*
X079979Y018883D01*
X080018Y018432D01*
X079567Y018471D01*
X079600Y018850D01*
X079221Y018817D01*
X079182Y019268D01*
X079182Y019268D01*
X079633Y019229D01*
X079891Y019095D02*
X079600Y018850D01*
X079309Y019095D01*
X079182Y019268D02*
X079600Y018850D01*
X080018Y018432D01*
X080018Y018432D01*
X080018Y018432D01*
X080018Y018432D01*
X079567Y018471D01*
X080018Y018432D02*
X079979Y018883D01*
X081600Y020600D02*
X087100Y020600D01*
X098350Y020600D01*
X100100Y020600D01*
X102850Y023350D01*
X102850Y025600D01*
X102518Y025932D01*
X102067Y025971D01*
X102100Y026350D01*
X102479Y026383D01*
X102100Y026350D01*
X102067Y025971D01*
X102067Y025971D01*
X102067Y025971D01*
X102518Y025932D01*
X102479Y026383D01*
X102479Y026383D01*
X102479Y026383D01*
X102518Y025932D01*
X102067Y025971D01*
X102518Y025932D01*
X102518Y025932D01*
X102518Y025932D01*
X102518Y025932D01*
X102479Y026383D01*
X102100Y026350D02*
X102518Y025932D01*
X098350Y020600D02*
X098350Y019441D01*
X098350Y019441D01*
X098350Y019441D01*
X098641Y019095D01*
X098641Y019095D01*
X098350Y019441D01*
X098350Y019441D01*
X098350Y019441D01*
X098641Y019095D01*
X098350Y018850D01*
X098641Y019095D01*
X098350Y019441D01*
X098059Y019095D01*
X098350Y018850D01*
X098059Y019095D01*
X098350Y019441D01*
X098059Y019095D01*
X098350Y018850D01*
X098059Y019095D01*
X098350Y019441D01*
X098641Y019095D01*
X098641Y019095D01*
X098350Y018850D01*
X098350Y019441D01*
X098641Y019095D01*
X098350Y019441D01*
X098059Y019095D01*
X098350Y019441D01*
X098059Y019095D02*
X098059Y019095D01*
X104100Y018350D02*
X097100Y011350D01*
X096753Y011350D01*
X096407Y011059D01*
X096163Y011350D01*
X096407Y011641D01*
X096753Y011350D01*
X096163Y011350D01*
X104100Y018350D02*
X104100Y033100D01*
X103768Y033432D01*
X103317Y033471D01*
X103350Y033850D01*
X103383Y034229D01*
X103350Y033850D01*
X102971Y033817D01*
X102932Y034268D01*
X103383Y034229D01*
X103383Y034229D01*
X103383Y034229D01*
X102932Y034268D01*
X102932Y034268D01*
X102971Y033817D01*
X102971Y033817D01*
X102971Y033817D01*
X102932Y034268D01*
X102932Y034268D01*
X102932Y034268D01*
X101600Y035600D01*
X095850Y035600D01*
X095850Y034441D01*
X095850Y034441D01*
X095850Y034441D01*
X096141Y034095D01*
X096141Y034095D01*
X095850Y034441D01*
X095850Y034441D01*
X095850Y034441D01*
X096141Y034095D01*
X095850Y033850D01*
X096141Y034095D01*
X095850Y034441D01*
X095559Y034095D01*
X095850Y033850D01*
X095559Y034095D01*
X095850Y034441D01*
X095559Y034095D01*
X095850Y033850D01*
X095559Y034095D01*
X095850Y034441D01*
X096141Y034095D01*
X096141Y034095D01*
X095850Y033850D01*
X095850Y034441D01*
X096141Y034095D01*
X095850Y034441D01*
X095559Y034095D01*
X095850Y034441D01*
X095559Y034095D02*
X095559Y034095D01*
X095850Y035600D02*
X088350Y035600D01*
X088350Y034441D01*
X088350Y034441D01*
X088350Y034441D01*
X088641Y034095D01*
X088641Y034095D01*
X088350Y034441D01*
X088350Y034441D01*
X088350Y034441D01*
X088641Y034095D01*
X088350Y033850D01*
X088641Y034095D01*
X088350Y034441D01*
X088059Y034095D01*
X088350Y033850D01*
X088059Y034095D01*
X088350Y034441D01*
X088059Y034095D01*
X088350Y033850D01*
X088059Y034095D01*
X088350Y034441D01*
X088641Y034095D01*
X088641Y034095D01*
X088350Y033850D01*
X088350Y034441D01*
X088641Y034095D01*
X088350Y034441D01*
X088059Y034095D01*
X088350Y034441D01*
X088059Y034095D02*
X088059Y034095D01*
X088350Y035600D02*
X080850Y035600D01*
X080850Y034441D01*
X080850Y034441D01*
X080850Y034441D01*
X081141Y034095D01*
X081141Y034095D01*
X080850Y034441D01*
X080850Y034441D01*
X080850Y034441D01*
X081141Y034095D01*
X080850Y033850D01*
X081141Y034095D01*
X080850Y034441D01*
X080559Y034095D01*
X080850Y033850D01*
X080559Y034095D01*
X080850Y034441D01*
X080559Y034095D01*
X080850Y033850D01*
X080559Y034095D01*
X080850Y034441D01*
X081141Y034095D01*
X081141Y034095D01*
X080850Y033850D01*
X080850Y034441D01*
X081141Y034095D01*
X080850Y034441D01*
X080559Y034095D01*
X080850Y034441D01*
X080559Y034095D02*
X080559Y034095D01*
X080850Y035600D02*
X073350Y035600D01*
X073350Y034441D01*
X073350Y034441D01*
X073350Y034441D01*
X073641Y034095D01*
X073641Y034095D01*
X073350Y034441D01*
X073350Y034441D01*
X073350Y034441D01*
X073641Y034095D01*
X073350Y033850D01*
X073641Y034095D01*
X073350Y034441D01*
X073059Y034095D01*
X073350Y033850D01*
X073059Y034095D01*
X073350Y034441D01*
X073059Y034095D01*
X073350Y033850D01*
X073059Y034095D01*
X073350Y034441D01*
X073641Y034095D01*
X073641Y034095D01*
X073350Y033850D01*
X073350Y034441D01*
X073641Y034095D01*
X073350Y034441D01*
X073059Y034095D01*
X073350Y034441D01*
X073059Y034095D02*
X073059Y034095D01*
X073350Y035600D02*
X065850Y035600D01*
X065850Y034441D01*
X065850Y034441D01*
X065850Y034441D01*
X066141Y034095D01*
X066141Y034095D01*
X065850Y034441D01*
X065850Y034441D01*
X065850Y034441D01*
X066141Y034095D01*
X065850Y033850D01*
X066141Y034095D01*
X065850Y034441D01*
X065559Y034095D01*
X065850Y033850D01*
X065559Y034095D01*
X065850Y034441D01*
X065559Y034095D01*
X065850Y033850D01*
X065559Y034095D01*
X065850Y034441D01*
X066141Y034095D01*
X066141Y034095D01*
X065850Y033850D01*
X065850Y034441D01*
X066141Y034095D01*
X065850Y034441D01*
X065559Y034095D01*
X065850Y034441D01*
X065559Y034095D02*
X065559Y034095D01*
X063641Y032605D02*
X063350Y032850D01*
X063059Y032605D01*
X063350Y032850D01*
X063641Y032605D01*
X063641Y032605D01*
X063350Y032259D01*
X063350Y032259D01*
X063641Y032605D01*
X063350Y032259D01*
X063350Y032259D01*
X063350Y032259D01*
X063350Y024600D01*
X068350Y026350D02*
X068719Y026261D01*
X068825Y026700D01*
X068374Y026729D01*
X068350Y026350D01*
X068729Y026317D01*
X068768Y026768D01*
X068729Y026317D01*
X068350Y026350D01*
X068317Y026729D01*
X068768Y026768D01*
X068317Y026729D01*
X068350Y026350D01*
X068768Y026768D01*
X070100Y028100D01*
X083350Y028100D01*
X083350Y026941D01*
X083350Y026941D01*
X083350Y026941D01*
X083641Y026595D01*
X083641Y026595D01*
X083350Y026941D01*
X083350Y026941D01*
X083350Y026941D01*
X083641Y026595D01*
X083350Y026350D01*
X083641Y026595D01*
X083350Y026941D01*
X083059Y026595D01*
X083350Y026350D01*
X083059Y026595D01*
X083350Y026941D01*
X083059Y026595D01*
X083350Y026350D01*
X083059Y026595D01*
X083350Y026941D01*
X083641Y026595D01*
X083641Y026595D01*
X083350Y026350D01*
X083350Y026941D01*
X083641Y026595D01*
X083350Y026941D01*
X083059Y026595D01*
X083350Y026941D01*
X083059Y026595D02*
X083059Y026595D01*
X083350Y028100D02*
X089044Y028100D01*
X090406Y026739D01*
X090858Y026730D01*
X090850Y026350D01*
X090474Y026292D01*
X090406Y026739D01*
X090474Y026292D01*
X090850Y026350D01*
X090406Y026739D01*
X087100Y020600D02*
X087100Y019441D01*
X087100Y019441D01*
X087100Y019441D01*
X087391Y019095D01*
X087391Y019095D01*
X087100Y019441D01*
X087100Y019441D01*
X087100Y019441D01*
X087391Y019095D01*
X087100Y018850D01*
X087391Y019095D01*
X087100Y019441D01*
X086809Y019095D01*
X087100Y018850D01*
X086809Y019095D01*
X087100Y019441D01*
X086809Y019095D01*
X087100Y018850D01*
X086809Y019095D01*
X087100Y019441D01*
X087391Y019095D01*
X087391Y019095D01*
X087100Y018850D01*
X087100Y019441D01*
X087391Y019095D01*
X087100Y019441D01*
X086809Y019095D01*
X087100Y019441D01*
X086809Y019095D02*
X086809Y019095D01*
X081600Y020600D02*
X076268Y025932D01*
X075817Y025971D01*
X075850Y026350D01*
X076229Y026383D01*
X075850Y026350D01*
X075817Y025971D01*
X075817Y025971D01*
X075817Y025971D01*
X076268Y025932D01*
X076229Y026383D01*
X076229Y026383D01*
X076229Y026383D01*
X076268Y025932D01*
X075817Y025971D01*
X076268Y025932D01*
X076268Y025932D01*
X076268Y025932D01*
X076268Y025932D01*
X076229Y026383D01*
X075850Y026350D02*
X075605Y026059D01*
X075850Y026350D02*
X076268Y025932D01*
X068768Y026768D02*
X068768Y026768D01*
X068729Y026317D01*
X068729Y026317D01*
X068729Y026317D01*
X068317Y026729D02*
X068317Y026729D01*
X068317Y026729D01*
X063350Y032259D02*
X063059Y032605D01*
X063350Y032259D01*
X063350Y032259D01*
X063059Y032605D01*
X063350Y032850D01*
X063059Y032605D01*
X063350Y032259D01*
X063641Y032605D01*
X063641Y032605D01*
X063350Y032259D01*
X063059Y032605D01*
X063350Y032259D01*
X063641Y032605D01*
X063350Y032850D01*
X063350Y032259D01*
X063059Y032605D02*
X063059Y032605D01*
X060100Y035600D02*
X058768Y034268D01*
X058729Y033817D01*
X058350Y033850D01*
X058317Y034229D01*
X058768Y034268D01*
X058317Y034229D01*
X058350Y033850D01*
X058729Y033817D01*
X058768Y034268D01*
X058768Y034268D01*
X058729Y033817D01*
X058729Y033817D01*
X058729Y033817D01*
X058595Y034141D02*
X058350Y033850D01*
X058768Y034268D01*
X058317Y034229D02*
X058317Y034229D01*
X058317Y034229D01*
X060100Y035600D02*
X065850Y035600D01*
X071100Y044600D02*
X074100Y047600D01*
X082350Y045350D02*
X085350Y045350D01*
X086350Y046350D01*
X086350Y047100D01*
X086850Y045100D02*
X086355Y044605D01*
X086168Y044307D01*
X086100Y044350D01*
X086057Y044418D01*
X086355Y044605D01*
X086355Y044605D01*
X086168Y044307D01*
X086100Y044350D01*
X086057Y044418D01*
X086057Y044418D01*
X086355Y044605D01*
X086100Y044350D01*
X086168Y044307D02*
X086168Y044307D01*
X102932Y034268D02*
X103383Y034229D01*
X103336Y034141D02*
X103350Y033850D01*
X103729Y033883D01*
X103350Y033850D01*
X102971Y033817D01*
X102932Y034268D01*
X103350Y033850D01*
X103317Y033471D01*
X103317Y033471D01*
X103317Y033471D01*
X103768Y033432D01*
X103729Y033883D01*
X103729Y033883D01*
X103729Y033883D01*
X103768Y033432D01*
X103317Y033471D01*
X103768Y033432D01*
X103768Y033432D01*
X103768Y033432D01*
X103768Y033432D01*
X103729Y033883D01*
X103350Y033850D02*
X103336Y033559D01*
X102990Y033850D01*
X103336Y034141D01*
X102990Y033850D01*
X103350Y033850D02*
X103336Y033559D01*
X103350Y033850D02*
X103768Y033432D01*
X074600Y015350D02*
X059710Y015350D01*
X059368Y015272D01*
X059350Y015350D01*
X059368Y015272D01*
X059710Y015350D01*
X059368Y015428D01*
X059350Y015350D01*
X059368Y015428D01*
X059710Y015350D01*
X059350Y015350D01*
X059368Y015428D02*
X059710Y015350D01*
X059368Y015272D01*
X059710Y015350D01*
X059710Y015350D01*
X059368Y015428D01*
X059368Y015428D01*
X059368Y015272D02*
X059368Y015272D01*
X056855Y018559D02*
X057100Y018850D01*
X056855Y019141D01*
X056855Y019141D01*
X056509Y018850D01*
X056509Y018850D01*
X056509Y018850D01*
X056855Y019141D01*
X057100Y018850D01*
X056855Y018559D01*
X057100Y018850D01*
X056855Y018559D01*
X056509Y018850D01*
X056509Y018850D01*
X053100Y018850D01*
X052350Y018100D01*
X056509Y018850D02*
X056509Y018850D01*
X056855Y019141D01*
X056509Y018850D01*
X056855Y018559D01*
X056509Y018850D01*
X056855Y018559D01*
X056509Y018850D01*
X056855Y019141D01*
X056855Y019141D01*
X057100Y018850D01*
X056509Y018850D01*
X056855Y019141D01*
X056509Y018850D01*
X056855Y018559D01*
X056855Y018559D01*
X062850Y020600D02*
X049600Y020600D01*
X062850Y020600D02*
X064182Y019268D01*
X064633Y019229D01*
X064600Y018850D01*
X064633Y019229D01*
X064633Y019229D01*
X064633Y019229D01*
X064182Y019268D01*
X064221Y018817D01*
X064600Y018850D01*
X064221Y018817D01*
X064221Y018817D01*
X064221Y018817D01*
X064182Y019268D01*
X064182Y019268D01*
X064221Y018817D01*
X064182Y019268D01*
X064182Y019268D01*
X064182Y019268D01*
X064633Y019229D01*
X064355Y019141D02*
X064600Y018850D01*
X064355Y019141D01*
X064182Y019268D02*
X064600Y018850D01*
X059272Y045368D02*
X059350Y045710D01*
X059350Y045710D01*
X009600Y018850D02*
X008941Y018850D01*
X008941Y018850D01*
X008595Y019141D01*
X008595Y019141D01*
X008941Y018850D01*
X008941Y018850D01*
X008941Y018850D01*
X008941Y018850D01*
X008595Y018559D01*
X008350Y018850D01*
X008595Y018559D01*
X008941Y018850D01*
X008595Y019141D01*
X008350Y018850D01*
X008595Y018559D01*
X008941Y018850D01*
X008595Y019141D01*
X008595Y019141D01*
X008941Y018850D01*
X008595Y018559D01*
X008941Y018850D01*
X008595Y018559D01*
X008595Y018559D01*
X008350Y018850D01*
X008595Y019141D01*
X008350Y018850D01*
X008941Y018850D01*
X008595Y019141D01*
D15*
X022850Y028350D03*
X026100Y025350D03*
X008350Y032850D03*
X044600Y047600D03*
X046850Y043850D03*
X047850Y043100D03*
X054600Y044600D03*
X059350Y043850D03*
X059350Y045350D03*
X062350Y045350D03*
X065350Y046100D03*
X068350Y044600D03*
X071100Y044600D03*
X074100Y047600D03*
X082100Y049100D03*
X083600Y049850D03*
X082100Y052100D03*
X082350Y045350D03*
X086100Y044350D03*
X093850Y042850D03*
X097725Y046725D03*
X095850Y047100D03*
X052850Y048600D03*
D16*
X059350Y015350D03*
D17*
X086850Y045100D02*
X086850Y047850D01*
X052850Y048600D02*
X052823Y048506D01*
X052496Y048600D01*
X052823Y048694D01*
X052850Y048600D01*
X052823Y048506D01*
X052823Y048506D01*
X052496Y048600D01*
X052823Y048694D01*
X052496Y048600D01*
X052823Y048694D01*
X052823Y048694D01*
X052850Y048600D01*
X052823Y048506D01*
X052823Y048506D01*
X052496Y048600D01*
X052496Y048600D01*
X052823Y048506D01*
X052850Y048600D02*
X052496Y048600D01*
M02*
