G75*
%MOIN*%
%OFA0B0*%
%FSLAX24Y24*%
%IPPOS*%
%LPD*%
%AMOC8*
5,1,8,0,0,1.08239X$1,22.5*
%
%ADD10C,0.0000*%
%ADD11C,0.0070*%
%ADD12C,0.0060*%
%ADD13C,0.0050*%
%ADD14C,0.0040*%
%ADD15R,0.6980X0.0020*%
%ADD16R,0.6960X0.0020*%
%ADD17R,0.6940X0.0020*%
%ADD18R,0.0180X0.0020*%
%ADD19R,0.0160X0.0020*%
%ADD20R,0.0020X0.0020*%
%ADD21R,0.0240X0.0020*%
%ADD22R,0.0260X0.0020*%
%ADD23R,0.0200X0.0020*%
%ADD24R,0.0420X0.0020*%
%ADD25R,0.0340X0.0020*%
%ADD26R,0.0680X0.0020*%
%ADD27R,0.0380X0.0020*%
%ADD28R,0.0720X0.0020*%
%ADD29R,0.0460X0.0020*%
%ADD30R,0.0220X0.0020*%
%ADD31R,0.0300X0.0020*%
%ADD32R,0.0500X0.0020*%
%ADD33R,0.0520X0.0020*%
%ADD34R,0.0320X0.0020*%
%ADD35R,0.0540X0.0020*%
%ADD36R,0.0580X0.0020*%
%ADD37R,0.0620X0.0020*%
%ADD38R,0.0040X0.0020*%
%ADD39R,0.0600X0.0020*%
%ADD40R,0.0660X0.0020*%
%ADD41R,0.0080X0.0020*%
%ADD42R,0.0360X0.0020*%
%ADD43R,0.0640X0.0020*%
%ADD44R,0.0700X0.0020*%
%ADD45R,0.0280X0.0020*%
%ADD46R,0.0100X0.0020*%
%ADD47R,0.0140X0.0020*%
%ADD48R,0.0740X0.0020*%
%ADD49R,0.0060X0.0020*%
%ADD50R,0.0400X0.0020*%
%ADD51R,0.0120X0.0020*%
%ADD52R,0.0760X0.0020*%
%ADD53R,0.0440X0.0020*%
%ADD54R,0.0480X0.0020*%
%ADD55C,0.0120*%
%ADD56C,0.0100*%
D10*
X000100Y000100D02*
X000100Y055100D01*
X107600Y055100D01*
X107600Y000100D01*
X000100Y000100D01*
X001813Y002600D02*
X001815Y002656D01*
X001821Y002711D01*
X001831Y002765D01*
X001844Y002819D01*
X001862Y002872D01*
X001883Y002923D01*
X001907Y002973D01*
X001935Y003021D01*
X001967Y003067D01*
X002001Y003111D01*
X002039Y003152D01*
X002079Y003190D01*
X002122Y003225D01*
X002167Y003257D01*
X002215Y003286D01*
X002264Y003312D01*
X002315Y003334D01*
X002367Y003352D01*
X002421Y003366D01*
X002476Y003377D01*
X002531Y003384D01*
X002586Y003387D01*
X002642Y003386D01*
X002697Y003381D01*
X002752Y003372D01*
X002806Y003360D01*
X002859Y003343D01*
X002911Y003323D01*
X002961Y003299D01*
X003009Y003272D01*
X003056Y003242D01*
X003100Y003208D01*
X003142Y003171D01*
X003180Y003131D01*
X003217Y003089D01*
X003250Y003044D01*
X003279Y002998D01*
X003306Y002949D01*
X003328Y002898D01*
X003348Y002846D01*
X003363Y002792D01*
X003375Y002738D01*
X003383Y002683D01*
X003387Y002628D01*
X003387Y002572D01*
X003383Y002517D01*
X003375Y002462D01*
X003363Y002408D01*
X003348Y002354D01*
X003328Y002302D01*
X003306Y002251D01*
X003279Y002202D01*
X003250Y002156D01*
X003217Y002111D01*
X003180Y002069D01*
X003142Y002029D01*
X003100Y001992D01*
X003056Y001958D01*
X003009Y001928D01*
X002961Y001901D01*
X002911Y001877D01*
X002859Y001857D01*
X002806Y001840D01*
X002752Y001828D01*
X002697Y001819D01*
X002642Y001814D01*
X002586Y001813D01*
X002531Y001816D01*
X002476Y001823D01*
X002421Y001834D01*
X002367Y001848D01*
X002315Y001866D01*
X002264Y001888D01*
X002215Y001914D01*
X002167Y001943D01*
X002122Y001975D01*
X002079Y002010D01*
X002039Y002048D01*
X002001Y002089D01*
X001967Y002133D01*
X001935Y002179D01*
X001907Y002227D01*
X001883Y002277D01*
X001862Y002328D01*
X001844Y002381D01*
X001831Y002435D01*
X001821Y002489D01*
X001815Y002544D01*
X001813Y002600D01*
X017813Y009350D02*
X017815Y009406D01*
X017821Y009461D01*
X017831Y009515D01*
X017844Y009569D01*
X017862Y009622D01*
X017883Y009673D01*
X017907Y009723D01*
X017935Y009771D01*
X017967Y009817D01*
X018001Y009861D01*
X018039Y009902D01*
X018079Y009940D01*
X018122Y009975D01*
X018167Y010007D01*
X018215Y010036D01*
X018264Y010062D01*
X018315Y010084D01*
X018367Y010102D01*
X018421Y010116D01*
X018476Y010127D01*
X018531Y010134D01*
X018586Y010137D01*
X018642Y010136D01*
X018697Y010131D01*
X018752Y010122D01*
X018806Y010110D01*
X018859Y010093D01*
X018911Y010073D01*
X018961Y010049D01*
X019009Y010022D01*
X019056Y009992D01*
X019100Y009958D01*
X019142Y009921D01*
X019180Y009881D01*
X019217Y009839D01*
X019250Y009794D01*
X019279Y009748D01*
X019306Y009699D01*
X019328Y009648D01*
X019348Y009596D01*
X019363Y009542D01*
X019375Y009488D01*
X019383Y009433D01*
X019387Y009378D01*
X019387Y009322D01*
X019383Y009267D01*
X019375Y009212D01*
X019363Y009158D01*
X019348Y009104D01*
X019328Y009052D01*
X019306Y009001D01*
X019279Y008952D01*
X019250Y008906D01*
X019217Y008861D01*
X019180Y008819D01*
X019142Y008779D01*
X019100Y008742D01*
X019056Y008708D01*
X019009Y008678D01*
X018961Y008651D01*
X018911Y008627D01*
X018859Y008607D01*
X018806Y008590D01*
X018752Y008578D01*
X018697Y008569D01*
X018642Y008564D01*
X018586Y008563D01*
X018531Y008566D01*
X018476Y008573D01*
X018421Y008584D01*
X018367Y008598D01*
X018315Y008616D01*
X018264Y008638D01*
X018215Y008664D01*
X018167Y008693D01*
X018122Y008725D01*
X018079Y008760D01*
X018039Y008798D01*
X018001Y008839D01*
X017967Y008883D01*
X017935Y008929D01*
X017907Y008977D01*
X017883Y009027D01*
X017862Y009078D01*
X017844Y009131D01*
X017831Y009185D01*
X017821Y009239D01*
X017815Y009294D01*
X017813Y009350D01*
X025313Y009350D02*
X025315Y009406D01*
X025321Y009461D01*
X025331Y009515D01*
X025344Y009569D01*
X025362Y009622D01*
X025383Y009673D01*
X025407Y009723D01*
X025435Y009771D01*
X025467Y009817D01*
X025501Y009861D01*
X025539Y009902D01*
X025579Y009940D01*
X025622Y009975D01*
X025667Y010007D01*
X025715Y010036D01*
X025764Y010062D01*
X025815Y010084D01*
X025867Y010102D01*
X025921Y010116D01*
X025976Y010127D01*
X026031Y010134D01*
X026086Y010137D01*
X026142Y010136D01*
X026197Y010131D01*
X026252Y010122D01*
X026306Y010110D01*
X026359Y010093D01*
X026411Y010073D01*
X026461Y010049D01*
X026509Y010022D01*
X026556Y009992D01*
X026600Y009958D01*
X026642Y009921D01*
X026680Y009881D01*
X026717Y009839D01*
X026750Y009794D01*
X026779Y009748D01*
X026806Y009699D01*
X026828Y009648D01*
X026848Y009596D01*
X026863Y009542D01*
X026875Y009488D01*
X026883Y009433D01*
X026887Y009378D01*
X026887Y009322D01*
X026883Y009267D01*
X026875Y009212D01*
X026863Y009158D01*
X026848Y009104D01*
X026828Y009052D01*
X026806Y009001D01*
X026779Y008952D01*
X026750Y008906D01*
X026717Y008861D01*
X026680Y008819D01*
X026642Y008779D01*
X026600Y008742D01*
X026556Y008708D01*
X026509Y008678D01*
X026461Y008651D01*
X026411Y008627D01*
X026359Y008607D01*
X026306Y008590D01*
X026252Y008578D01*
X026197Y008569D01*
X026142Y008564D01*
X026086Y008563D01*
X026031Y008566D01*
X025976Y008573D01*
X025921Y008584D01*
X025867Y008598D01*
X025815Y008616D01*
X025764Y008638D01*
X025715Y008664D01*
X025667Y008693D01*
X025622Y008725D01*
X025579Y008760D01*
X025539Y008798D01*
X025501Y008839D01*
X025467Y008883D01*
X025435Y008929D01*
X025407Y008977D01*
X025383Y009027D01*
X025362Y009078D01*
X025344Y009131D01*
X025331Y009185D01*
X025321Y009239D01*
X025315Y009294D01*
X025313Y009350D01*
X037108Y007100D02*
X037110Y007144D01*
X037116Y007188D01*
X037126Y007231D01*
X037139Y007273D01*
X037157Y007313D01*
X037178Y007352D01*
X037202Y007389D01*
X037229Y007424D01*
X037260Y007456D01*
X037293Y007485D01*
X037329Y007511D01*
X037367Y007533D01*
X037407Y007552D01*
X037448Y007568D01*
X037491Y007580D01*
X037534Y007588D01*
X037578Y007592D01*
X037622Y007592D01*
X037666Y007588D01*
X037709Y007580D01*
X037752Y007568D01*
X037793Y007552D01*
X037833Y007533D01*
X037871Y007511D01*
X037907Y007485D01*
X037940Y007456D01*
X037971Y007424D01*
X037998Y007389D01*
X038022Y007352D01*
X038043Y007313D01*
X038061Y007273D01*
X038074Y007231D01*
X038084Y007188D01*
X038090Y007144D01*
X038092Y007100D01*
X038090Y007056D01*
X038084Y007012D01*
X038074Y006969D01*
X038061Y006927D01*
X038043Y006887D01*
X038022Y006848D01*
X037998Y006811D01*
X037971Y006776D01*
X037940Y006744D01*
X037907Y006715D01*
X037871Y006689D01*
X037833Y006667D01*
X037793Y006648D01*
X037752Y006632D01*
X037709Y006620D01*
X037666Y006612D01*
X037622Y006608D01*
X037578Y006608D01*
X037534Y006612D01*
X037491Y006620D01*
X037448Y006632D01*
X037407Y006648D01*
X037367Y006667D01*
X037329Y006689D01*
X037293Y006715D01*
X037260Y006744D01*
X037229Y006776D01*
X037202Y006811D01*
X037178Y006848D01*
X037157Y006887D01*
X037139Y006927D01*
X037126Y006969D01*
X037116Y007012D01*
X037110Y007056D01*
X037108Y007100D01*
X037108Y011600D02*
X037110Y011644D01*
X037116Y011688D01*
X037126Y011731D01*
X037139Y011773D01*
X037157Y011813D01*
X037178Y011852D01*
X037202Y011889D01*
X037229Y011924D01*
X037260Y011956D01*
X037293Y011985D01*
X037329Y012011D01*
X037367Y012033D01*
X037407Y012052D01*
X037448Y012068D01*
X037491Y012080D01*
X037534Y012088D01*
X037578Y012092D01*
X037622Y012092D01*
X037666Y012088D01*
X037709Y012080D01*
X037752Y012068D01*
X037793Y012052D01*
X037833Y012033D01*
X037871Y012011D01*
X037907Y011985D01*
X037940Y011956D01*
X037971Y011924D01*
X037998Y011889D01*
X038022Y011852D01*
X038043Y011813D01*
X038061Y011773D01*
X038074Y011731D01*
X038084Y011688D01*
X038090Y011644D01*
X038092Y011600D01*
X038090Y011556D01*
X038084Y011512D01*
X038074Y011469D01*
X038061Y011427D01*
X038043Y011387D01*
X038022Y011348D01*
X037998Y011311D01*
X037971Y011276D01*
X037940Y011244D01*
X037907Y011215D01*
X037871Y011189D01*
X037833Y011167D01*
X037793Y011148D01*
X037752Y011132D01*
X037709Y011120D01*
X037666Y011112D01*
X037622Y011108D01*
X037578Y011108D01*
X037534Y011112D01*
X037491Y011120D01*
X037448Y011132D01*
X037407Y011148D01*
X037367Y011167D01*
X037329Y011189D01*
X037293Y011215D01*
X037260Y011244D01*
X037229Y011276D01*
X037202Y011311D01*
X037178Y011348D01*
X037157Y011387D01*
X037139Y011427D01*
X037126Y011469D01*
X037116Y011512D01*
X037110Y011556D01*
X037108Y011600D01*
X032813Y016850D02*
X032815Y016906D01*
X032821Y016961D01*
X032831Y017015D01*
X032844Y017069D01*
X032862Y017122D01*
X032883Y017173D01*
X032907Y017223D01*
X032935Y017271D01*
X032967Y017317D01*
X033001Y017361D01*
X033039Y017402D01*
X033079Y017440D01*
X033122Y017475D01*
X033167Y017507D01*
X033215Y017536D01*
X033264Y017562D01*
X033315Y017584D01*
X033367Y017602D01*
X033421Y017616D01*
X033476Y017627D01*
X033531Y017634D01*
X033586Y017637D01*
X033642Y017636D01*
X033697Y017631D01*
X033752Y017622D01*
X033806Y017610D01*
X033859Y017593D01*
X033911Y017573D01*
X033961Y017549D01*
X034009Y017522D01*
X034056Y017492D01*
X034100Y017458D01*
X034142Y017421D01*
X034180Y017381D01*
X034217Y017339D01*
X034250Y017294D01*
X034279Y017248D01*
X034306Y017199D01*
X034328Y017148D01*
X034348Y017096D01*
X034363Y017042D01*
X034375Y016988D01*
X034383Y016933D01*
X034387Y016878D01*
X034387Y016822D01*
X034383Y016767D01*
X034375Y016712D01*
X034363Y016658D01*
X034348Y016604D01*
X034328Y016552D01*
X034306Y016501D01*
X034279Y016452D01*
X034250Y016406D01*
X034217Y016361D01*
X034180Y016319D01*
X034142Y016279D01*
X034100Y016242D01*
X034056Y016208D01*
X034009Y016178D01*
X033961Y016151D01*
X033911Y016127D01*
X033859Y016107D01*
X033806Y016090D01*
X033752Y016078D01*
X033697Y016069D01*
X033642Y016064D01*
X033586Y016063D01*
X033531Y016066D01*
X033476Y016073D01*
X033421Y016084D01*
X033367Y016098D01*
X033315Y016116D01*
X033264Y016138D01*
X033215Y016164D01*
X033167Y016193D01*
X033122Y016225D01*
X033079Y016260D01*
X033039Y016298D01*
X033001Y016339D01*
X032967Y016383D01*
X032935Y016429D01*
X032907Y016477D01*
X032883Y016527D01*
X032862Y016578D01*
X032844Y016631D01*
X032831Y016685D01*
X032821Y016739D01*
X032815Y016794D01*
X032813Y016850D01*
X025313Y016850D02*
X025315Y016906D01*
X025321Y016961D01*
X025331Y017015D01*
X025344Y017069D01*
X025362Y017122D01*
X025383Y017173D01*
X025407Y017223D01*
X025435Y017271D01*
X025467Y017317D01*
X025501Y017361D01*
X025539Y017402D01*
X025579Y017440D01*
X025622Y017475D01*
X025667Y017507D01*
X025715Y017536D01*
X025764Y017562D01*
X025815Y017584D01*
X025867Y017602D01*
X025921Y017616D01*
X025976Y017627D01*
X026031Y017634D01*
X026086Y017637D01*
X026142Y017636D01*
X026197Y017631D01*
X026252Y017622D01*
X026306Y017610D01*
X026359Y017593D01*
X026411Y017573D01*
X026461Y017549D01*
X026509Y017522D01*
X026556Y017492D01*
X026600Y017458D01*
X026642Y017421D01*
X026680Y017381D01*
X026717Y017339D01*
X026750Y017294D01*
X026779Y017248D01*
X026806Y017199D01*
X026828Y017148D01*
X026848Y017096D01*
X026863Y017042D01*
X026875Y016988D01*
X026883Y016933D01*
X026887Y016878D01*
X026887Y016822D01*
X026883Y016767D01*
X026875Y016712D01*
X026863Y016658D01*
X026848Y016604D01*
X026828Y016552D01*
X026806Y016501D01*
X026779Y016452D01*
X026750Y016406D01*
X026717Y016361D01*
X026680Y016319D01*
X026642Y016279D01*
X026600Y016242D01*
X026556Y016208D01*
X026509Y016178D01*
X026461Y016151D01*
X026411Y016127D01*
X026359Y016107D01*
X026306Y016090D01*
X026252Y016078D01*
X026197Y016069D01*
X026142Y016064D01*
X026086Y016063D01*
X026031Y016066D01*
X025976Y016073D01*
X025921Y016084D01*
X025867Y016098D01*
X025815Y016116D01*
X025764Y016138D01*
X025715Y016164D01*
X025667Y016193D01*
X025622Y016225D01*
X025579Y016260D01*
X025539Y016298D01*
X025501Y016339D01*
X025467Y016383D01*
X025435Y016429D01*
X025407Y016477D01*
X025383Y016527D01*
X025362Y016578D01*
X025344Y016631D01*
X025331Y016685D01*
X025321Y016739D01*
X025315Y016794D01*
X025313Y016850D01*
X017813Y016850D02*
X017815Y016906D01*
X017821Y016961D01*
X017831Y017015D01*
X017844Y017069D01*
X017862Y017122D01*
X017883Y017173D01*
X017907Y017223D01*
X017935Y017271D01*
X017967Y017317D01*
X018001Y017361D01*
X018039Y017402D01*
X018079Y017440D01*
X018122Y017475D01*
X018167Y017507D01*
X018215Y017536D01*
X018264Y017562D01*
X018315Y017584D01*
X018367Y017602D01*
X018421Y017616D01*
X018476Y017627D01*
X018531Y017634D01*
X018586Y017637D01*
X018642Y017636D01*
X018697Y017631D01*
X018752Y017622D01*
X018806Y017610D01*
X018859Y017593D01*
X018911Y017573D01*
X018961Y017549D01*
X019009Y017522D01*
X019056Y017492D01*
X019100Y017458D01*
X019142Y017421D01*
X019180Y017381D01*
X019217Y017339D01*
X019250Y017294D01*
X019279Y017248D01*
X019306Y017199D01*
X019328Y017148D01*
X019348Y017096D01*
X019363Y017042D01*
X019375Y016988D01*
X019383Y016933D01*
X019387Y016878D01*
X019387Y016822D01*
X019383Y016767D01*
X019375Y016712D01*
X019363Y016658D01*
X019348Y016604D01*
X019328Y016552D01*
X019306Y016501D01*
X019279Y016452D01*
X019250Y016406D01*
X019217Y016361D01*
X019180Y016319D01*
X019142Y016279D01*
X019100Y016242D01*
X019056Y016208D01*
X019009Y016178D01*
X018961Y016151D01*
X018911Y016127D01*
X018859Y016107D01*
X018806Y016090D01*
X018752Y016078D01*
X018697Y016069D01*
X018642Y016064D01*
X018586Y016063D01*
X018531Y016066D01*
X018476Y016073D01*
X018421Y016084D01*
X018367Y016098D01*
X018315Y016116D01*
X018264Y016138D01*
X018215Y016164D01*
X018167Y016193D01*
X018122Y016225D01*
X018079Y016260D01*
X018039Y016298D01*
X018001Y016339D01*
X017967Y016383D01*
X017935Y016429D01*
X017907Y016477D01*
X017883Y016527D01*
X017862Y016578D01*
X017844Y016631D01*
X017831Y016685D01*
X017821Y016739D01*
X017815Y016794D01*
X017813Y016850D01*
X006563Y016850D02*
X006565Y016906D01*
X006571Y016961D01*
X006581Y017015D01*
X006594Y017069D01*
X006612Y017122D01*
X006633Y017173D01*
X006657Y017223D01*
X006685Y017271D01*
X006717Y017317D01*
X006751Y017361D01*
X006789Y017402D01*
X006829Y017440D01*
X006872Y017475D01*
X006917Y017507D01*
X006965Y017536D01*
X007014Y017562D01*
X007065Y017584D01*
X007117Y017602D01*
X007171Y017616D01*
X007226Y017627D01*
X007281Y017634D01*
X007336Y017637D01*
X007392Y017636D01*
X007447Y017631D01*
X007502Y017622D01*
X007556Y017610D01*
X007609Y017593D01*
X007661Y017573D01*
X007711Y017549D01*
X007759Y017522D01*
X007806Y017492D01*
X007850Y017458D01*
X007892Y017421D01*
X007930Y017381D01*
X007967Y017339D01*
X008000Y017294D01*
X008029Y017248D01*
X008056Y017199D01*
X008078Y017148D01*
X008098Y017096D01*
X008113Y017042D01*
X008125Y016988D01*
X008133Y016933D01*
X008137Y016878D01*
X008137Y016822D01*
X008133Y016767D01*
X008125Y016712D01*
X008113Y016658D01*
X008098Y016604D01*
X008078Y016552D01*
X008056Y016501D01*
X008029Y016452D01*
X008000Y016406D01*
X007967Y016361D01*
X007930Y016319D01*
X007892Y016279D01*
X007850Y016242D01*
X007806Y016208D01*
X007759Y016178D01*
X007711Y016151D01*
X007661Y016127D01*
X007609Y016107D01*
X007556Y016090D01*
X007502Y016078D01*
X007447Y016069D01*
X007392Y016064D01*
X007336Y016063D01*
X007281Y016066D01*
X007226Y016073D01*
X007171Y016084D01*
X007117Y016098D01*
X007065Y016116D01*
X007014Y016138D01*
X006965Y016164D01*
X006917Y016193D01*
X006872Y016225D01*
X006829Y016260D01*
X006789Y016298D01*
X006751Y016339D01*
X006717Y016383D01*
X006685Y016429D01*
X006657Y016477D01*
X006633Y016527D01*
X006612Y016578D01*
X006594Y016631D01*
X006581Y016685D01*
X006571Y016739D01*
X006565Y016794D01*
X006563Y016850D01*
X006563Y024350D02*
X006565Y024406D01*
X006571Y024461D01*
X006581Y024515D01*
X006594Y024569D01*
X006612Y024622D01*
X006633Y024673D01*
X006657Y024723D01*
X006685Y024771D01*
X006717Y024817D01*
X006751Y024861D01*
X006789Y024902D01*
X006829Y024940D01*
X006872Y024975D01*
X006917Y025007D01*
X006965Y025036D01*
X007014Y025062D01*
X007065Y025084D01*
X007117Y025102D01*
X007171Y025116D01*
X007226Y025127D01*
X007281Y025134D01*
X007336Y025137D01*
X007392Y025136D01*
X007447Y025131D01*
X007502Y025122D01*
X007556Y025110D01*
X007609Y025093D01*
X007661Y025073D01*
X007711Y025049D01*
X007759Y025022D01*
X007806Y024992D01*
X007850Y024958D01*
X007892Y024921D01*
X007930Y024881D01*
X007967Y024839D01*
X008000Y024794D01*
X008029Y024748D01*
X008056Y024699D01*
X008078Y024648D01*
X008098Y024596D01*
X008113Y024542D01*
X008125Y024488D01*
X008133Y024433D01*
X008137Y024378D01*
X008137Y024322D01*
X008133Y024267D01*
X008125Y024212D01*
X008113Y024158D01*
X008098Y024104D01*
X008078Y024052D01*
X008056Y024001D01*
X008029Y023952D01*
X008000Y023906D01*
X007967Y023861D01*
X007930Y023819D01*
X007892Y023779D01*
X007850Y023742D01*
X007806Y023708D01*
X007759Y023678D01*
X007711Y023651D01*
X007661Y023627D01*
X007609Y023607D01*
X007556Y023590D01*
X007502Y023578D01*
X007447Y023569D01*
X007392Y023564D01*
X007336Y023563D01*
X007281Y023566D01*
X007226Y023573D01*
X007171Y023584D01*
X007117Y023598D01*
X007065Y023616D01*
X007014Y023638D01*
X006965Y023664D01*
X006917Y023693D01*
X006872Y023725D01*
X006829Y023760D01*
X006789Y023798D01*
X006751Y023839D01*
X006717Y023883D01*
X006685Y023929D01*
X006657Y023977D01*
X006633Y024027D01*
X006612Y024078D01*
X006594Y024131D01*
X006581Y024185D01*
X006571Y024239D01*
X006565Y024294D01*
X006563Y024350D01*
X014063Y024350D02*
X014065Y024406D01*
X014071Y024461D01*
X014081Y024515D01*
X014094Y024569D01*
X014112Y024622D01*
X014133Y024673D01*
X014157Y024723D01*
X014185Y024771D01*
X014217Y024817D01*
X014251Y024861D01*
X014289Y024902D01*
X014329Y024940D01*
X014372Y024975D01*
X014417Y025007D01*
X014465Y025036D01*
X014514Y025062D01*
X014565Y025084D01*
X014617Y025102D01*
X014671Y025116D01*
X014726Y025127D01*
X014781Y025134D01*
X014836Y025137D01*
X014892Y025136D01*
X014947Y025131D01*
X015002Y025122D01*
X015056Y025110D01*
X015109Y025093D01*
X015161Y025073D01*
X015211Y025049D01*
X015259Y025022D01*
X015306Y024992D01*
X015350Y024958D01*
X015392Y024921D01*
X015430Y024881D01*
X015467Y024839D01*
X015500Y024794D01*
X015529Y024748D01*
X015556Y024699D01*
X015578Y024648D01*
X015598Y024596D01*
X015613Y024542D01*
X015625Y024488D01*
X015633Y024433D01*
X015637Y024378D01*
X015637Y024322D01*
X015633Y024267D01*
X015625Y024212D01*
X015613Y024158D01*
X015598Y024104D01*
X015578Y024052D01*
X015556Y024001D01*
X015529Y023952D01*
X015500Y023906D01*
X015467Y023861D01*
X015430Y023819D01*
X015392Y023779D01*
X015350Y023742D01*
X015306Y023708D01*
X015259Y023678D01*
X015211Y023651D01*
X015161Y023627D01*
X015109Y023607D01*
X015056Y023590D01*
X015002Y023578D01*
X014947Y023569D01*
X014892Y023564D01*
X014836Y023563D01*
X014781Y023566D01*
X014726Y023573D01*
X014671Y023584D01*
X014617Y023598D01*
X014565Y023616D01*
X014514Y023638D01*
X014465Y023664D01*
X014417Y023693D01*
X014372Y023725D01*
X014329Y023760D01*
X014289Y023798D01*
X014251Y023839D01*
X014217Y023883D01*
X014185Y023929D01*
X014157Y023977D01*
X014133Y024027D01*
X014112Y024078D01*
X014094Y024131D01*
X014081Y024185D01*
X014071Y024239D01*
X014065Y024294D01*
X014063Y024350D01*
X021563Y024350D02*
X021565Y024406D01*
X021571Y024461D01*
X021581Y024515D01*
X021594Y024569D01*
X021612Y024622D01*
X021633Y024673D01*
X021657Y024723D01*
X021685Y024771D01*
X021717Y024817D01*
X021751Y024861D01*
X021789Y024902D01*
X021829Y024940D01*
X021872Y024975D01*
X021917Y025007D01*
X021965Y025036D01*
X022014Y025062D01*
X022065Y025084D01*
X022117Y025102D01*
X022171Y025116D01*
X022226Y025127D01*
X022281Y025134D01*
X022336Y025137D01*
X022392Y025136D01*
X022447Y025131D01*
X022502Y025122D01*
X022556Y025110D01*
X022609Y025093D01*
X022661Y025073D01*
X022711Y025049D01*
X022759Y025022D01*
X022806Y024992D01*
X022850Y024958D01*
X022892Y024921D01*
X022930Y024881D01*
X022967Y024839D01*
X023000Y024794D01*
X023029Y024748D01*
X023056Y024699D01*
X023078Y024648D01*
X023098Y024596D01*
X023113Y024542D01*
X023125Y024488D01*
X023133Y024433D01*
X023137Y024378D01*
X023137Y024322D01*
X023133Y024267D01*
X023125Y024212D01*
X023113Y024158D01*
X023098Y024104D01*
X023078Y024052D01*
X023056Y024001D01*
X023029Y023952D01*
X023000Y023906D01*
X022967Y023861D01*
X022930Y023819D01*
X022892Y023779D01*
X022850Y023742D01*
X022806Y023708D01*
X022759Y023678D01*
X022711Y023651D01*
X022661Y023627D01*
X022609Y023607D01*
X022556Y023590D01*
X022502Y023578D01*
X022447Y023569D01*
X022392Y023564D01*
X022336Y023563D01*
X022281Y023566D01*
X022226Y023573D01*
X022171Y023584D01*
X022117Y023598D01*
X022065Y023616D01*
X022014Y023638D01*
X021965Y023664D01*
X021917Y023693D01*
X021872Y023725D01*
X021829Y023760D01*
X021789Y023798D01*
X021751Y023839D01*
X021717Y023883D01*
X021685Y023929D01*
X021657Y023977D01*
X021633Y024027D01*
X021612Y024078D01*
X021594Y024131D01*
X021581Y024185D01*
X021571Y024239D01*
X021565Y024294D01*
X021563Y024350D01*
X029063Y024350D02*
X029065Y024406D01*
X029071Y024461D01*
X029081Y024515D01*
X029094Y024569D01*
X029112Y024622D01*
X029133Y024673D01*
X029157Y024723D01*
X029185Y024771D01*
X029217Y024817D01*
X029251Y024861D01*
X029289Y024902D01*
X029329Y024940D01*
X029372Y024975D01*
X029417Y025007D01*
X029465Y025036D01*
X029514Y025062D01*
X029565Y025084D01*
X029617Y025102D01*
X029671Y025116D01*
X029726Y025127D01*
X029781Y025134D01*
X029836Y025137D01*
X029892Y025136D01*
X029947Y025131D01*
X030002Y025122D01*
X030056Y025110D01*
X030109Y025093D01*
X030161Y025073D01*
X030211Y025049D01*
X030259Y025022D01*
X030306Y024992D01*
X030350Y024958D01*
X030392Y024921D01*
X030430Y024881D01*
X030467Y024839D01*
X030500Y024794D01*
X030529Y024748D01*
X030556Y024699D01*
X030578Y024648D01*
X030598Y024596D01*
X030613Y024542D01*
X030625Y024488D01*
X030633Y024433D01*
X030637Y024378D01*
X030637Y024322D01*
X030633Y024267D01*
X030625Y024212D01*
X030613Y024158D01*
X030598Y024104D01*
X030578Y024052D01*
X030556Y024001D01*
X030529Y023952D01*
X030500Y023906D01*
X030467Y023861D01*
X030430Y023819D01*
X030392Y023779D01*
X030350Y023742D01*
X030306Y023708D01*
X030259Y023678D01*
X030211Y023651D01*
X030161Y023627D01*
X030109Y023607D01*
X030056Y023590D01*
X030002Y023578D01*
X029947Y023569D01*
X029892Y023564D01*
X029836Y023563D01*
X029781Y023566D01*
X029726Y023573D01*
X029671Y023584D01*
X029617Y023598D01*
X029565Y023616D01*
X029514Y023638D01*
X029465Y023664D01*
X029417Y023693D01*
X029372Y023725D01*
X029329Y023760D01*
X029289Y023798D01*
X029251Y023839D01*
X029217Y023883D01*
X029185Y023929D01*
X029157Y023977D01*
X029133Y024027D01*
X029112Y024078D01*
X029094Y024131D01*
X029081Y024185D01*
X029071Y024239D01*
X029065Y024294D01*
X029063Y024350D01*
X036563Y024350D02*
X036565Y024406D01*
X036571Y024461D01*
X036581Y024515D01*
X036594Y024569D01*
X036612Y024622D01*
X036633Y024673D01*
X036657Y024723D01*
X036685Y024771D01*
X036717Y024817D01*
X036751Y024861D01*
X036789Y024902D01*
X036829Y024940D01*
X036872Y024975D01*
X036917Y025007D01*
X036965Y025036D01*
X037014Y025062D01*
X037065Y025084D01*
X037117Y025102D01*
X037171Y025116D01*
X037226Y025127D01*
X037281Y025134D01*
X037336Y025137D01*
X037392Y025136D01*
X037447Y025131D01*
X037502Y025122D01*
X037556Y025110D01*
X037609Y025093D01*
X037661Y025073D01*
X037711Y025049D01*
X037759Y025022D01*
X037806Y024992D01*
X037850Y024958D01*
X037892Y024921D01*
X037930Y024881D01*
X037967Y024839D01*
X038000Y024794D01*
X038029Y024748D01*
X038056Y024699D01*
X038078Y024648D01*
X038098Y024596D01*
X038113Y024542D01*
X038125Y024488D01*
X038133Y024433D01*
X038137Y024378D01*
X038137Y024322D01*
X038133Y024267D01*
X038125Y024212D01*
X038113Y024158D01*
X038098Y024104D01*
X038078Y024052D01*
X038056Y024001D01*
X038029Y023952D01*
X038000Y023906D01*
X037967Y023861D01*
X037930Y023819D01*
X037892Y023779D01*
X037850Y023742D01*
X037806Y023708D01*
X037759Y023678D01*
X037711Y023651D01*
X037661Y023627D01*
X037609Y023607D01*
X037556Y023590D01*
X037502Y023578D01*
X037447Y023569D01*
X037392Y023564D01*
X037336Y023563D01*
X037281Y023566D01*
X037226Y023573D01*
X037171Y023584D01*
X037117Y023598D01*
X037065Y023616D01*
X037014Y023638D01*
X036965Y023664D01*
X036917Y023693D01*
X036872Y023725D01*
X036829Y023760D01*
X036789Y023798D01*
X036751Y023839D01*
X036717Y023883D01*
X036685Y023929D01*
X036657Y023977D01*
X036633Y024027D01*
X036612Y024078D01*
X036594Y024131D01*
X036581Y024185D01*
X036571Y024239D01*
X036565Y024294D01*
X036563Y024350D01*
X044063Y024350D02*
X044065Y024406D01*
X044071Y024461D01*
X044081Y024515D01*
X044094Y024569D01*
X044112Y024622D01*
X044133Y024673D01*
X044157Y024723D01*
X044185Y024771D01*
X044217Y024817D01*
X044251Y024861D01*
X044289Y024902D01*
X044329Y024940D01*
X044372Y024975D01*
X044417Y025007D01*
X044465Y025036D01*
X044514Y025062D01*
X044565Y025084D01*
X044617Y025102D01*
X044671Y025116D01*
X044726Y025127D01*
X044781Y025134D01*
X044836Y025137D01*
X044892Y025136D01*
X044947Y025131D01*
X045002Y025122D01*
X045056Y025110D01*
X045109Y025093D01*
X045161Y025073D01*
X045211Y025049D01*
X045259Y025022D01*
X045306Y024992D01*
X045350Y024958D01*
X045392Y024921D01*
X045430Y024881D01*
X045467Y024839D01*
X045500Y024794D01*
X045529Y024748D01*
X045556Y024699D01*
X045578Y024648D01*
X045598Y024596D01*
X045613Y024542D01*
X045625Y024488D01*
X045633Y024433D01*
X045637Y024378D01*
X045637Y024322D01*
X045633Y024267D01*
X045625Y024212D01*
X045613Y024158D01*
X045598Y024104D01*
X045578Y024052D01*
X045556Y024001D01*
X045529Y023952D01*
X045500Y023906D01*
X045467Y023861D01*
X045430Y023819D01*
X045392Y023779D01*
X045350Y023742D01*
X045306Y023708D01*
X045259Y023678D01*
X045211Y023651D01*
X045161Y023627D01*
X045109Y023607D01*
X045056Y023590D01*
X045002Y023578D01*
X044947Y023569D01*
X044892Y023564D01*
X044836Y023563D01*
X044781Y023566D01*
X044726Y023573D01*
X044671Y023584D01*
X044617Y023598D01*
X044565Y023616D01*
X044514Y023638D01*
X044465Y023664D01*
X044417Y023693D01*
X044372Y023725D01*
X044329Y023760D01*
X044289Y023798D01*
X044251Y023839D01*
X044217Y023883D01*
X044185Y023929D01*
X044157Y023977D01*
X044133Y024027D01*
X044112Y024078D01*
X044094Y024131D01*
X044081Y024185D01*
X044071Y024239D01*
X044065Y024294D01*
X044063Y024350D01*
X051563Y024350D02*
X051565Y024406D01*
X051571Y024461D01*
X051581Y024515D01*
X051594Y024569D01*
X051612Y024622D01*
X051633Y024673D01*
X051657Y024723D01*
X051685Y024771D01*
X051717Y024817D01*
X051751Y024861D01*
X051789Y024902D01*
X051829Y024940D01*
X051872Y024975D01*
X051917Y025007D01*
X051965Y025036D01*
X052014Y025062D01*
X052065Y025084D01*
X052117Y025102D01*
X052171Y025116D01*
X052226Y025127D01*
X052281Y025134D01*
X052336Y025137D01*
X052392Y025136D01*
X052447Y025131D01*
X052502Y025122D01*
X052556Y025110D01*
X052609Y025093D01*
X052661Y025073D01*
X052711Y025049D01*
X052759Y025022D01*
X052806Y024992D01*
X052850Y024958D01*
X052892Y024921D01*
X052930Y024881D01*
X052967Y024839D01*
X053000Y024794D01*
X053029Y024748D01*
X053056Y024699D01*
X053078Y024648D01*
X053098Y024596D01*
X053113Y024542D01*
X053125Y024488D01*
X053133Y024433D01*
X053137Y024378D01*
X053137Y024322D01*
X053133Y024267D01*
X053125Y024212D01*
X053113Y024158D01*
X053098Y024104D01*
X053078Y024052D01*
X053056Y024001D01*
X053029Y023952D01*
X053000Y023906D01*
X052967Y023861D01*
X052930Y023819D01*
X052892Y023779D01*
X052850Y023742D01*
X052806Y023708D01*
X052759Y023678D01*
X052711Y023651D01*
X052661Y023627D01*
X052609Y023607D01*
X052556Y023590D01*
X052502Y023578D01*
X052447Y023569D01*
X052392Y023564D01*
X052336Y023563D01*
X052281Y023566D01*
X052226Y023573D01*
X052171Y023584D01*
X052117Y023598D01*
X052065Y023616D01*
X052014Y023638D01*
X051965Y023664D01*
X051917Y023693D01*
X051872Y023725D01*
X051829Y023760D01*
X051789Y023798D01*
X051751Y023839D01*
X051717Y023883D01*
X051685Y023929D01*
X051657Y023977D01*
X051633Y024027D01*
X051612Y024078D01*
X051594Y024131D01*
X051581Y024185D01*
X051571Y024239D01*
X051565Y024294D01*
X051563Y024350D01*
X059063Y024350D02*
X059065Y024406D01*
X059071Y024461D01*
X059081Y024515D01*
X059094Y024569D01*
X059112Y024622D01*
X059133Y024673D01*
X059157Y024723D01*
X059185Y024771D01*
X059217Y024817D01*
X059251Y024861D01*
X059289Y024902D01*
X059329Y024940D01*
X059372Y024975D01*
X059417Y025007D01*
X059465Y025036D01*
X059514Y025062D01*
X059565Y025084D01*
X059617Y025102D01*
X059671Y025116D01*
X059726Y025127D01*
X059781Y025134D01*
X059836Y025137D01*
X059892Y025136D01*
X059947Y025131D01*
X060002Y025122D01*
X060056Y025110D01*
X060109Y025093D01*
X060161Y025073D01*
X060211Y025049D01*
X060259Y025022D01*
X060306Y024992D01*
X060350Y024958D01*
X060392Y024921D01*
X060430Y024881D01*
X060467Y024839D01*
X060500Y024794D01*
X060529Y024748D01*
X060556Y024699D01*
X060578Y024648D01*
X060598Y024596D01*
X060613Y024542D01*
X060625Y024488D01*
X060633Y024433D01*
X060637Y024378D01*
X060637Y024322D01*
X060633Y024267D01*
X060625Y024212D01*
X060613Y024158D01*
X060598Y024104D01*
X060578Y024052D01*
X060556Y024001D01*
X060529Y023952D01*
X060500Y023906D01*
X060467Y023861D01*
X060430Y023819D01*
X060392Y023779D01*
X060350Y023742D01*
X060306Y023708D01*
X060259Y023678D01*
X060211Y023651D01*
X060161Y023627D01*
X060109Y023607D01*
X060056Y023590D01*
X060002Y023578D01*
X059947Y023569D01*
X059892Y023564D01*
X059836Y023563D01*
X059781Y023566D01*
X059726Y023573D01*
X059671Y023584D01*
X059617Y023598D01*
X059565Y023616D01*
X059514Y023638D01*
X059465Y023664D01*
X059417Y023693D01*
X059372Y023725D01*
X059329Y023760D01*
X059289Y023798D01*
X059251Y023839D01*
X059217Y023883D01*
X059185Y023929D01*
X059157Y023977D01*
X059133Y024027D01*
X059112Y024078D01*
X059094Y024131D01*
X059081Y024185D01*
X059071Y024239D01*
X059065Y024294D01*
X059063Y024350D01*
X066563Y024350D02*
X066565Y024406D01*
X066571Y024461D01*
X066581Y024515D01*
X066594Y024569D01*
X066612Y024622D01*
X066633Y024673D01*
X066657Y024723D01*
X066685Y024771D01*
X066717Y024817D01*
X066751Y024861D01*
X066789Y024902D01*
X066829Y024940D01*
X066872Y024975D01*
X066917Y025007D01*
X066965Y025036D01*
X067014Y025062D01*
X067065Y025084D01*
X067117Y025102D01*
X067171Y025116D01*
X067226Y025127D01*
X067281Y025134D01*
X067336Y025137D01*
X067392Y025136D01*
X067447Y025131D01*
X067502Y025122D01*
X067556Y025110D01*
X067609Y025093D01*
X067661Y025073D01*
X067711Y025049D01*
X067759Y025022D01*
X067806Y024992D01*
X067850Y024958D01*
X067892Y024921D01*
X067930Y024881D01*
X067967Y024839D01*
X068000Y024794D01*
X068029Y024748D01*
X068056Y024699D01*
X068078Y024648D01*
X068098Y024596D01*
X068113Y024542D01*
X068125Y024488D01*
X068133Y024433D01*
X068137Y024378D01*
X068137Y024322D01*
X068133Y024267D01*
X068125Y024212D01*
X068113Y024158D01*
X068098Y024104D01*
X068078Y024052D01*
X068056Y024001D01*
X068029Y023952D01*
X068000Y023906D01*
X067967Y023861D01*
X067930Y023819D01*
X067892Y023779D01*
X067850Y023742D01*
X067806Y023708D01*
X067759Y023678D01*
X067711Y023651D01*
X067661Y023627D01*
X067609Y023607D01*
X067556Y023590D01*
X067502Y023578D01*
X067447Y023569D01*
X067392Y023564D01*
X067336Y023563D01*
X067281Y023566D01*
X067226Y023573D01*
X067171Y023584D01*
X067117Y023598D01*
X067065Y023616D01*
X067014Y023638D01*
X066965Y023664D01*
X066917Y023693D01*
X066872Y023725D01*
X066829Y023760D01*
X066789Y023798D01*
X066751Y023839D01*
X066717Y023883D01*
X066685Y023929D01*
X066657Y023977D01*
X066633Y024027D01*
X066612Y024078D01*
X066594Y024131D01*
X066581Y024185D01*
X066571Y024239D01*
X066565Y024294D01*
X066563Y024350D01*
X074063Y024350D02*
X074065Y024406D01*
X074071Y024461D01*
X074081Y024515D01*
X074094Y024569D01*
X074112Y024622D01*
X074133Y024673D01*
X074157Y024723D01*
X074185Y024771D01*
X074217Y024817D01*
X074251Y024861D01*
X074289Y024902D01*
X074329Y024940D01*
X074372Y024975D01*
X074417Y025007D01*
X074465Y025036D01*
X074514Y025062D01*
X074565Y025084D01*
X074617Y025102D01*
X074671Y025116D01*
X074726Y025127D01*
X074781Y025134D01*
X074836Y025137D01*
X074892Y025136D01*
X074947Y025131D01*
X075002Y025122D01*
X075056Y025110D01*
X075109Y025093D01*
X075161Y025073D01*
X075211Y025049D01*
X075259Y025022D01*
X075306Y024992D01*
X075350Y024958D01*
X075392Y024921D01*
X075430Y024881D01*
X075467Y024839D01*
X075500Y024794D01*
X075529Y024748D01*
X075556Y024699D01*
X075578Y024648D01*
X075598Y024596D01*
X075613Y024542D01*
X075625Y024488D01*
X075633Y024433D01*
X075637Y024378D01*
X075637Y024322D01*
X075633Y024267D01*
X075625Y024212D01*
X075613Y024158D01*
X075598Y024104D01*
X075578Y024052D01*
X075556Y024001D01*
X075529Y023952D01*
X075500Y023906D01*
X075467Y023861D01*
X075430Y023819D01*
X075392Y023779D01*
X075350Y023742D01*
X075306Y023708D01*
X075259Y023678D01*
X075211Y023651D01*
X075161Y023627D01*
X075109Y023607D01*
X075056Y023590D01*
X075002Y023578D01*
X074947Y023569D01*
X074892Y023564D01*
X074836Y023563D01*
X074781Y023566D01*
X074726Y023573D01*
X074671Y023584D01*
X074617Y023598D01*
X074565Y023616D01*
X074514Y023638D01*
X074465Y023664D01*
X074417Y023693D01*
X074372Y023725D01*
X074329Y023760D01*
X074289Y023798D01*
X074251Y023839D01*
X074217Y023883D01*
X074185Y023929D01*
X074157Y023977D01*
X074133Y024027D01*
X074112Y024078D01*
X074094Y024131D01*
X074081Y024185D01*
X074071Y024239D01*
X074065Y024294D01*
X074063Y024350D01*
X081563Y024350D02*
X081565Y024406D01*
X081571Y024461D01*
X081581Y024515D01*
X081594Y024569D01*
X081612Y024622D01*
X081633Y024673D01*
X081657Y024723D01*
X081685Y024771D01*
X081717Y024817D01*
X081751Y024861D01*
X081789Y024902D01*
X081829Y024940D01*
X081872Y024975D01*
X081917Y025007D01*
X081965Y025036D01*
X082014Y025062D01*
X082065Y025084D01*
X082117Y025102D01*
X082171Y025116D01*
X082226Y025127D01*
X082281Y025134D01*
X082336Y025137D01*
X082392Y025136D01*
X082447Y025131D01*
X082502Y025122D01*
X082556Y025110D01*
X082609Y025093D01*
X082661Y025073D01*
X082711Y025049D01*
X082759Y025022D01*
X082806Y024992D01*
X082850Y024958D01*
X082892Y024921D01*
X082930Y024881D01*
X082967Y024839D01*
X083000Y024794D01*
X083029Y024748D01*
X083056Y024699D01*
X083078Y024648D01*
X083098Y024596D01*
X083113Y024542D01*
X083125Y024488D01*
X083133Y024433D01*
X083137Y024378D01*
X083137Y024322D01*
X083133Y024267D01*
X083125Y024212D01*
X083113Y024158D01*
X083098Y024104D01*
X083078Y024052D01*
X083056Y024001D01*
X083029Y023952D01*
X083000Y023906D01*
X082967Y023861D01*
X082930Y023819D01*
X082892Y023779D01*
X082850Y023742D01*
X082806Y023708D01*
X082759Y023678D01*
X082711Y023651D01*
X082661Y023627D01*
X082609Y023607D01*
X082556Y023590D01*
X082502Y023578D01*
X082447Y023569D01*
X082392Y023564D01*
X082336Y023563D01*
X082281Y023566D01*
X082226Y023573D01*
X082171Y023584D01*
X082117Y023598D01*
X082065Y023616D01*
X082014Y023638D01*
X081965Y023664D01*
X081917Y023693D01*
X081872Y023725D01*
X081829Y023760D01*
X081789Y023798D01*
X081751Y023839D01*
X081717Y023883D01*
X081685Y023929D01*
X081657Y023977D01*
X081633Y024027D01*
X081612Y024078D01*
X081594Y024131D01*
X081581Y024185D01*
X081571Y024239D01*
X081565Y024294D01*
X081563Y024350D01*
X089063Y024350D02*
X089065Y024406D01*
X089071Y024461D01*
X089081Y024515D01*
X089094Y024569D01*
X089112Y024622D01*
X089133Y024673D01*
X089157Y024723D01*
X089185Y024771D01*
X089217Y024817D01*
X089251Y024861D01*
X089289Y024902D01*
X089329Y024940D01*
X089372Y024975D01*
X089417Y025007D01*
X089465Y025036D01*
X089514Y025062D01*
X089565Y025084D01*
X089617Y025102D01*
X089671Y025116D01*
X089726Y025127D01*
X089781Y025134D01*
X089836Y025137D01*
X089892Y025136D01*
X089947Y025131D01*
X090002Y025122D01*
X090056Y025110D01*
X090109Y025093D01*
X090161Y025073D01*
X090211Y025049D01*
X090259Y025022D01*
X090306Y024992D01*
X090350Y024958D01*
X090392Y024921D01*
X090430Y024881D01*
X090467Y024839D01*
X090500Y024794D01*
X090529Y024748D01*
X090556Y024699D01*
X090578Y024648D01*
X090598Y024596D01*
X090613Y024542D01*
X090625Y024488D01*
X090633Y024433D01*
X090637Y024378D01*
X090637Y024322D01*
X090633Y024267D01*
X090625Y024212D01*
X090613Y024158D01*
X090598Y024104D01*
X090578Y024052D01*
X090556Y024001D01*
X090529Y023952D01*
X090500Y023906D01*
X090467Y023861D01*
X090430Y023819D01*
X090392Y023779D01*
X090350Y023742D01*
X090306Y023708D01*
X090259Y023678D01*
X090211Y023651D01*
X090161Y023627D01*
X090109Y023607D01*
X090056Y023590D01*
X090002Y023578D01*
X089947Y023569D01*
X089892Y023564D01*
X089836Y023563D01*
X089781Y023566D01*
X089726Y023573D01*
X089671Y023584D01*
X089617Y023598D01*
X089565Y023616D01*
X089514Y023638D01*
X089465Y023664D01*
X089417Y023693D01*
X089372Y023725D01*
X089329Y023760D01*
X089289Y023798D01*
X089251Y023839D01*
X089217Y023883D01*
X089185Y023929D01*
X089157Y023977D01*
X089133Y024027D01*
X089112Y024078D01*
X089094Y024131D01*
X089081Y024185D01*
X089071Y024239D01*
X089065Y024294D01*
X089063Y024350D01*
X100313Y024350D02*
X100315Y024406D01*
X100321Y024461D01*
X100331Y024515D01*
X100344Y024569D01*
X100362Y024622D01*
X100383Y024673D01*
X100407Y024723D01*
X100435Y024771D01*
X100467Y024817D01*
X100501Y024861D01*
X100539Y024902D01*
X100579Y024940D01*
X100622Y024975D01*
X100667Y025007D01*
X100715Y025036D01*
X100764Y025062D01*
X100815Y025084D01*
X100867Y025102D01*
X100921Y025116D01*
X100976Y025127D01*
X101031Y025134D01*
X101086Y025137D01*
X101142Y025136D01*
X101197Y025131D01*
X101252Y025122D01*
X101306Y025110D01*
X101359Y025093D01*
X101411Y025073D01*
X101461Y025049D01*
X101509Y025022D01*
X101556Y024992D01*
X101600Y024958D01*
X101642Y024921D01*
X101680Y024881D01*
X101717Y024839D01*
X101750Y024794D01*
X101779Y024748D01*
X101806Y024699D01*
X101828Y024648D01*
X101848Y024596D01*
X101863Y024542D01*
X101875Y024488D01*
X101883Y024433D01*
X101887Y024378D01*
X101887Y024322D01*
X101883Y024267D01*
X101875Y024212D01*
X101863Y024158D01*
X101848Y024104D01*
X101828Y024052D01*
X101806Y024001D01*
X101779Y023952D01*
X101750Y023906D01*
X101717Y023861D01*
X101680Y023819D01*
X101642Y023779D01*
X101600Y023742D01*
X101556Y023708D01*
X101509Y023678D01*
X101461Y023651D01*
X101411Y023627D01*
X101359Y023607D01*
X101306Y023590D01*
X101252Y023578D01*
X101197Y023569D01*
X101142Y023564D01*
X101086Y023563D01*
X101031Y023566D01*
X100976Y023573D01*
X100921Y023584D01*
X100867Y023598D01*
X100815Y023616D01*
X100764Y023638D01*
X100715Y023664D01*
X100667Y023693D01*
X100622Y023725D01*
X100579Y023760D01*
X100539Y023798D01*
X100501Y023839D01*
X100467Y023883D01*
X100435Y023929D01*
X100407Y023977D01*
X100383Y024027D01*
X100362Y024078D01*
X100344Y024131D01*
X100331Y024185D01*
X100321Y024239D01*
X100315Y024294D01*
X100313Y024350D01*
X101563Y031850D02*
X101565Y031906D01*
X101571Y031961D01*
X101581Y032015D01*
X101594Y032069D01*
X101612Y032122D01*
X101633Y032173D01*
X101657Y032223D01*
X101685Y032271D01*
X101717Y032317D01*
X101751Y032361D01*
X101789Y032402D01*
X101829Y032440D01*
X101872Y032475D01*
X101917Y032507D01*
X101965Y032536D01*
X102014Y032562D01*
X102065Y032584D01*
X102117Y032602D01*
X102171Y032616D01*
X102226Y032627D01*
X102281Y032634D01*
X102336Y032637D01*
X102392Y032636D01*
X102447Y032631D01*
X102502Y032622D01*
X102556Y032610D01*
X102609Y032593D01*
X102661Y032573D01*
X102711Y032549D01*
X102759Y032522D01*
X102806Y032492D01*
X102850Y032458D01*
X102892Y032421D01*
X102930Y032381D01*
X102967Y032339D01*
X103000Y032294D01*
X103029Y032248D01*
X103056Y032199D01*
X103078Y032148D01*
X103098Y032096D01*
X103113Y032042D01*
X103125Y031988D01*
X103133Y031933D01*
X103137Y031878D01*
X103137Y031822D01*
X103133Y031767D01*
X103125Y031712D01*
X103113Y031658D01*
X103098Y031604D01*
X103078Y031552D01*
X103056Y031501D01*
X103029Y031452D01*
X103000Y031406D01*
X102967Y031361D01*
X102930Y031319D01*
X102892Y031279D01*
X102850Y031242D01*
X102806Y031208D01*
X102759Y031178D01*
X102711Y031151D01*
X102661Y031127D01*
X102609Y031107D01*
X102556Y031090D01*
X102502Y031078D01*
X102447Y031069D01*
X102392Y031064D01*
X102336Y031063D01*
X102281Y031066D01*
X102226Y031073D01*
X102171Y031084D01*
X102117Y031098D01*
X102065Y031116D01*
X102014Y031138D01*
X101965Y031164D01*
X101917Y031193D01*
X101872Y031225D01*
X101829Y031260D01*
X101789Y031298D01*
X101751Y031339D01*
X101717Y031383D01*
X101685Y031429D01*
X101657Y031477D01*
X101633Y031527D01*
X101612Y031578D01*
X101594Y031631D01*
X101581Y031685D01*
X101571Y031739D01*
X101565Y031794D01*
X101563Y031850D01*
X094063Y031850D02*
X094065Y031906D01*
X094071Y031961D01*
X094081Y032015D01*
X094094Y032069D01*
X094112Y032122D01*
X094133Y032173D01*
X094157Y032223D01*
X094185Y032271D01*
X094217Y032317D01*
X094251Y032361D01*
X094289Y032402D01*
X094329Y032440D01*
X094372Y032475D01*
X094417Y032507D01*
X094465Y032536D01*
X094514Y032562D01*
X094565Y032584D01*
X094617Y032602D01*
X094671Y032616D01*
X094726Y032627D01*
X094781Y032634D01*
X094836Y032637D01*
X094892Y032636D01*
X094947Y032631D01*
X095002Y032622D01*
X095056Y032610D01*
X095109Y032593D01*
X095161Y032573D01*
X095211Y032549D01*
X095259Y032522D01*
X095306Y032492D01*
X095350Y032458D01*
X095392Y032421D01*
X095430Y032381D01*
X095467Y032339D01*
X095500Y032294D01*
X095529Y032248D01*
X095556Y032199D01*
X095578Y032148D01*
X095598Y032096D01*
X095613Y032042D01*
X095625Y031988D01*
X095633Y031933D01*
X095637Y031878D01*
X095637Y031822D01*
X095633Y031767D01*
X095625Y031712D01*
X095613Y031658D01*
X095598Y031604D01*
X095578Y031552D01*
X095556Y031501D01*
X095529Y031452D01*
X095500Y031406D01*
X095467Y031361D01*
X095430Y031319D01*
X095392Y031279D01*
X095350Y031242D01*
X095306Y031208D01*
X095259Y031178D01*
X095211Y031151D01*
X095161Y031127D01*
X095109Y031107D01*
X095056Y031090D01*
X095002Y031078D01*
X094947Y031069D01*
X094892Y031064D01*
X094836Y031063D01*
X094781Y031066D01*
X094726Y031073D01*
X094671Y031084D01*
X094617Y031098D01*
X094565Y031116D01*
X094514Y031138D01*
X094465Y031164D01*
X094417Y031193D01*
X094372Y031225D01*
X094329Y031260D01*
X094289Y031298D01*
X094251Y031339D01*
X094217Y031383D01*
X094185Y031429D01*
X094157Y031477D01*
X094133Y031527D01*
X094112Y031578D01*
X094094Y031631D01*
X094081Y031685D01*
X094071Y031739D01*
X094065Y031794D01*
X094063Y031850D01*
X086563Y031850D02*
X086565Y031906D01*
X086571Y031961D01*
X086581Y032015D01*
X086594Y032069D01*
X086612Y032122D01*
X086633Y032173D01*
X086657Y032223D01*
X086685Y032271D01*
X086717Y032317D01*
X086751Y032361D01*
X086789Y032402D01*
X086829Y032440D01*
X086872Y032475D01*
X086917Y032507D01*
X086965Y032536D01*
X087014Y032562D01*
X087065Y032584D01*
X087117Y032602D01*
X087171Y032616D01*
X087226Y032627D01*
X087281Y032634D01*
X087336Y032637D01*
X087392Y032636D01*
X087447Y032631D01*
X087502Y032622D01*
X087556Y032610D01*
X087609Y032593D01*
X087661Y032573D01*
X087711Y032549D01*
X087759Y032522D01*
X087806Y032492D01*
X087850Y032458D01*
X087892Y032421D01*
X087930Y032381D01*
X087967Y032339D01*
X088000Y032294D01*
X088029Y032248D01*
X088056Y032199D01*
X088078Y032148D01*
X088098Y032096D01*
X088113Y032042D01*
X088125Y031988D01*
X088133Y031933D01*
X088137Y031878D01*
X088137Y031822D01*
X088133Y031767D01*
X088125Y031712D01*
X088113Y031658D01*
X088098Y031604D01*
X088078Y031552D01*
X088056Y031501D01*
X088029Y031452D01*
X088000Y031406D01*
X087967Y031361D01*
X087930Y031319D01*
X087892Y031279D01*
X087850Y031242D01*
X087806Y031208D01*
X087759Y031178D01*
X087711Y031151D01*
X087661Y031127D01*
X087609Y031107D01*
X087556Y031090D01*
X087502Y031078D01*
X087447Y031069D01*
X087392Y031064D01*
X087336Y031063D01*
X087281Y031066D01*
X087226Y031073D01*
X087171Y031084D01*
X087117Y031098D01*
X087065Y031116D01*
X087014Y031138D01*
X086965Y031164D01*
X086917Y031193D01*
X086872Y031225D01*
X086829Y031260D01*
X086789Y031298D01*
X086751Y031339D01*
X086717Y031383D01*
X086685Y031429D01*
X086657Y031477D01*
X086633Y031527D01*
X086612Y031578D01*
X086594Y031631D01*
X086581Y031685D01*
X086571Y031739D01*
X086565Y031794D01*
X086563Y031850D01*
X079063Y031850D02*
X079065Y031906D01*
X079071Y031961D01*
X079081Y032015D01*
X079094Y032069D01*
X079112Y032122D01*
X079133Y032173D01*
X079157Y032223D01*
X079185Y032271D01*
X079217Y032317D01*
X079251Y032361D01*
X079289Y032402D01*
X079329Y032440D01*
X079372Y032475D01*
X079417Y032507D01*
X079465Y032536D01*
X079514Y032562D01*
X079565Y032584D01*
X079617Y032602D01*
X079671Y032616D01*
X079726Y032627D01*
X079781Y032634D01*
X079836Y032637D01*
X079892Y032636D01*
X079947Y032631D01*
X080002Y032622D01*
X080056Y032610D01*
X080109Y032593D01*
X080161Y032573D01*
X080211Y032549D01*
X080259Y032522D01*
X080306Y032492D01*
X080350Y032458D01*
X080392Y032421D01*
X080430Y032381D01*
X080467Y032339D01*
X080500Y032294D01*
X080529Y032248D01*
X080556Y032199D01*
X080578Y032148D01*
X080598Y032096D01*
X080613Y032042D01*
X080625Y031988D01*
X080633Y031933D01*
X080637Y031878D01*
X080637Y031822D01*
X080633Y031767D01*
X080625Y031712D01*
X080613Y031658D01*
X080598Y031604D01*
X080578Y031552D01*
X080556Y031501D01*
X080529Y031452D01*
X080500Y031406D01*
X080467Y031361D01*
X080430Y031319D01*
X080392Y031279D01*
X080350Y031242D01*
X080306Y031208D01*
X080259Y031178D01*
X080211Y031151D01*
X080161Y031127D01*
X080109Y031107D01*
X080056Y031090D01*
X080002Y031078D01*
X079947Y031069D01*
X079892Y031064D01*
X079836Y031063D01*
X079781Y031066D01*
X079726Y031073D01*
X079671Y031084D01*
X079617Y031098D01*
X079565Y031116D01*
X079514Y031138D01*
X079465Y031164D01*
X079417Y031193D01*
X079372Y031225D01*
X079329Y031260D01*
X079289Y031298D01*
X079251Y031339D01*
X079217Y031383D01*
X079185Y031429D01*
X079157Y031477D01*
X079133Y031527D01*
X079112Y031578D01*
X079094Y031631D01*
X079081Y031685D01*
X079071Y031739D01*
X079065Y031794D01*
X079063Y031850D01*
X071563Y031850D02*
X071565Y031906D01*
X071571Y031961D01*
X071581Y032015D01*
X071594Y032069D01*
X071612Y032122D01*
X071633Y032173D01*
X071657Y032223D01*
X071685Y032271D01*
X071717Y032317D01*
X071751Y032361D01*
X071789Y032402D01*
X071829Y032440D01*
X071872Y032475D01*
X071917Y032507D01*
X071965Y032536D01*
X072014Y032562D01*
X072065Y032584D01*
X072117Y032602D01*
X072171Y032616D01*
X072226Y032627D01*
X072281Y032634D01*
X072336Y032637D01*
X072392Y032636D01*
X072447Y032631D01*
X072502Y032622D01*
X072556Y032610D01*
X072609Y032593D01*
X072661Y032573D01*
X072711Y032549D01*
X072759Y032522D01*
X072806Y032492D01*
X072850Y032458D01*
X072892Y032421D01*
X072930Y032381D01*
X072967Y032339D01*
X073000Y032294D01*
X073029Y032248D01*
X073056Y032199D01*
X073078Y032148D01*
X073098Y032096D01*
X073113Y032042D01*
X073125Y031988D01*
X073133Y031933D01*
X073137Y031878D01*
X073137Y031822D01*
X073133Y031767D01*
X073125Y031712D01*
X073113Y031658D01*
X073098Y031604D01*
X073078Y031552D01*
X073056Y031501D01*
X073029Y031452D01*
X073000Y031406D01*
X072967Y031361D01*
X072930Y031319D01*
X072892Y031279D01*
X072850Y031242D01*
X072806Y031208D01*
X072759Y031178D01*
X072711Y031151D01*
X072661Y031127D01*
X072609Y031107D01*
X072556Y031090D01*
X072502Y031078D01*
X072447Y031069D01*
X072392Y031064D01*
X072336Y031063D01*
X072281Y031066D01*
X072226Y031073D01*
X072171Y031084D01*
X072117Y031098D01*
X072065Y031116D01*
X072014Y031138D01*
X071965Y031164D01*
X071917Y031193D01*
X071872Y031225D01*
X071829Y031260D01*
X071789Y031298D01*
X071751Y031339D01*
X071717Y031383D01*
X071685Y031429D01*
X071657Y031477D01*
X071633Y031527D01*
X071612Y031578D01*
X071594Y031631D01*
X071581Y031685D01*
X071571Y031739D01*
X071565Y031794D01*
X071563Y031850D01*
X064063Y031850D02*
X064065Y031906D01*
X064071Y031961D01*
X064081Y032015D01*
X064094Y032069D01*
X064112Y032122D01*
X064133Y032173D01*
X064157Y032223D01*
X064185Y032271D01*
X064217Y032317D01*
X064251Y032361D01*
X064289Y032402D01*
X064329Y032440D01*
X064372Y032475D01*
X064417Y032507D01*
X064465Y032536D01*
X064514Y032562D01*
X064565Y032584D01*
X064617Y032602D01*
X064671Y032616D01*
X064726Y032627D01*
X064781Y032634D01*
X064836Y032637D01*
X064892Y032636D01*
X064947Y032631D01*
X065002Y032622D01*
X065056Y032610D01*
X065109Y032593D01*
X065161Y032573D01*
X065211Y032549D01*
X065259Y032522D01*
X065306Y032492D01*
X065350Y032458D01*
X065392Y032421D01*
X065430Y032381D01*
X065467Y032339D01*
X065500Y032294D01*
X065529Y032248D01*
X065556Y032199D01*
X065578Y032148D01*
X065598Y032096D01*
X065613Y032042D01*
X065625Y031988D01*
X065633Y031933D01*
X065637Y031878D01*
X065637Y031822D01*
X065633Y031767D01*
X065625Y031712D01*
X065613Y031658D01*
X065598Y031604D01*
X065578Y031552D01*
X065556Y031501D01*
X065529Y031452D01*
X065500Y031406D01*
X065467Y031361D01*
X065430Y031319D01*
X065392Y031279D01*
X065350Y031242D01*
X065306Y031208D01*
X065259Y031178D01*
X065211Y031151D01*
X065161Y031127D01*
X065109Y031107D01*
X065056Y031090D01*
X065002Y031078D01*
X064947Y031069D01*
X064892Y031064D01*
X064836Y031063D01*
X064781Y031066D01*
X064726Y031073D01*
X064671Y031084D01*
X064617Y031098D01*
X064565Y031116D01*
X064514Y031138D01*
X064465Y031164D01*
X064417Y031193D01*
X064372Y031225D01*
X064329Y031260D01*
X064289Y031298D01*
X064251Y031339D01*
X064217Y031383D01*
X064185Y031429D01*
X064157Y031477D01*
X064133Y031527D01*
X064112Y031578D01*
X064094Y031631D01*
X064081Y031685D01*
X064071Y031739D01*
X064065Y031794D01*
X064063Y031850D01*
X056563Y031850D02*
X056565Y031906D01*
X056571Y031961D01*
X056581Y032015D01*
X056594Y032069D01*
X056612Y032122D01*
X056633Y032173D01*
X056657Y032223D01*
X056685Y032271D01*
X056717Y032317D01*
X056751Y032361D01*
X056789Y032402D01*
X056829Y032440D01*
X056872Y032475D01*
X056917Y032507D01*
X056965Y032536D01*
X057014Y032562D01*
X057065Y032584D01*
X057117Y032602D01*
X057171Y032616D01*
X057226Y032627D01*
X057281Y032634D01*
X057336Y032637D01*
X057392Y032636D01*
X057447Y032631D01*
X057502Y032622D01*
X057556Y032610D01*
X057609Y032593D01*
X057661Y032573D01*
X057711Y032549D01*
X057759Y032522D01*
X057806Y032492D01*
X057850Y032458D01*
X057892Y032421D01*
X057930Y032381D01*
X057967Y032339D01*
X058000Y032294D01*
X058029Y032248D01*
X058056Y032199D01*
X058078Y032148D01*
X058098Y032096D01*
X058113Y032042D01*
X058125Y031988D01*
X058133Y031933D01*
X058137Y031878D01*
X058137Y031822D01*
X058133Y031767D01*
X058125Y031712D01*
X058113Y031658D01*
X058098Y031604D01*
X058078Y031552D01*
X058056Y031501D01*
X058029Y031452D01*
X058000Y031406D01*
X057967Y031361D01*
X057930Y031319D01*
X057892Y031279D01*
X057850Y031242D01*
X057806Y031208D01*
X057759Y031178D01*
X057711Y031151D01*
X057661Y031127D01*
X057609Y031107D01*
X057556Y031090D01*
X057502Y031078D01*
X057447Y031069D01*
X057392Y031064D01*
X057336Y031063D01*
X057281Y031066D01*
X057226Y031073D01*
X057171Y031084D01*
X057117Y031098D01*
X057065Y031116D01*
X057014Y031138D01*
X056965Y031164D01*
X056917Y031193D01*
X056872Y031225D01*
X056829Y031260D01*
X056789Y031298D01*
X056751Y031339D01*
X056717Y031383D01*
X056685Y031429D01*
X056657Y031477D01*
X056633Y031527D01*
X056612Y031578D01*
X056594Y031631D01*
X056581Y031685D01*
X056571Y031739D01*
X056565Y031794D01*
X056563Y031850D01*
X049063Y031850D02*
X049065Y031906D01*
X049071Y031961D01*
X049081Y032015D01*
X049094Y032069D01*
X049112Y032122D01*
X049133Y032173D01*
X049157Y032223D01*
X049185Y032271D01*
X049217Y032317D01*
X049251Y032361D01*
X049289Y032402D01*
X049329Y032440D01*
X049372Y032475D01*
X049417Y032507D01*
X049465Y032536D01*
X049514Y032562D01*
X049565Y032584D01*
X049617Y032602D01*
X049671Y032616D01*
X049726Y032627D01*
X049781Y032634D01*
X049836Y032637D01*
X049892Y032636D01*
X049947Y032631D01*
X050002Y032622D01*
X050056Y032610D01*
X050109Y032593D01*
X050161Y032573D01*
X050211Y032549D01*
X050259Y032522D01*
X050306Y032492D01*
X050350Y032458D01*
X050392Y032421D01*
X050430Y032381D01*
X050467Y032339D01*
X050500Y032294D01*
X050529Y032248D01*
X050556Y032199D01*
X050578Y032148D01*
X050598Y032096D01*
X050613Y032042D01*
X050625Y031988D01*
X050633Y031933D01*
X050637Y031878D01*
X050637Y031822D01*
X050633Y031767D01*
X050625Y031712D01*
X050613Y031658D01*
X050598Y031604D01*
X050578Y031552D01*
X050556Y031501D01*
X050529Y031452D01*
X050500Y031406D01*
X050467Y031361D01*
X050430Y031319D01*
X050392Y031279D01*
X050350Y031242D01*
X050306Y031208D01*
X050259Y031178D01*
X050211Y031151D01*
X050161Y031127D01*
X050109Y031107D01*
X050056Y031090D01*
X050002Y031078D01*
X049947Y031069D01*
X049892Y031064D01*
X049836Y031063D01*
X049781Y031066D01*
X049726Y031073D01*
X049671Y031084D01*
X049617Y031098D01*
X049565Y031116D01*
X049514Y031138D01*
X049465Y031164D01*
X049417Y031193D01*
X049372Y031225D01*
X049329Y031260D01*
X049289Y031298D01*
X049251Y031339D01*
X049217Y031383D01*
X049185Y031429D01*
X049157Y031477D01*
X049133Y031527D01*
X049112Y031578D01*
X049094Y031631D01*
X049081Y031685D01*
X049071Y031739D01*
X049065Y031794D01*
X049063Y031850D01*
X041563Y031850D02*
X041565Y031906D01*
X041571Y031961D01*
X041581Y032015D01*
X041594Y032069D01*
X041612Y032122D01*
X041633Y032173D01*
X041657Y032223D01*
X041685Y032271D01*
X041717Y032317D01*
X041751Y032361D01*
X041789Y032402D01*
X041829Y032440D01*
X041872Y032475D01*
X041917Y032507D01*
X041965Y032536D01*
X042014Y032562D01*
X042065Y032584D01*
X042117Y032602D01*
X042171Y032616D01*
X042226Y032627D01*
X042281Y032634D01*
X042336Y032637D01*
X042392Y032636D01*
X042447Y032631D01*
X042502Y032622D01*
X042556Y032610D01*
X042609Y032593D01*
X042661Y032573D01*
X042711Y032549D01*
X042759Y032522D01*
X042806Y032492D01*
X042850Y032458D01*
X042892Y032421D01*
X042930Y032381D01*
X042967Y032339D01*
X043000Y032294D01*
X043029Y032248D01*
X043056Y032199D01*
X043078Y032148D01*
X043098Y032096D01*
X043113Y032042D01*
X043125Y031988D01*
X043133Y031933D01*
X043137Y031878D01*
X043137Y031822D01*
X043133Y031767D01*
X043125Y031712D01*
X043113Y031658D01*
X043098Y031604D01*
X043078Y031552D01*
X043056Y031501D01*
X043029Y031452D01*
X043000Y031406D01*
X042967Y031361D01*
X042930Y031319D01*
X042892Y031279D01*
X042850Y031242D01*
X042806Y031208D01*
X042759Y031178D01*
X042711Y031151D01*
X042661Y031127D01*
X042609Y031107D01*
X042556Y031090D01*
X042502Y031078D01*
X042447Y031069D01*
X042392Y031064D01*
X042336Y031063D01*
X042281Y031066D01*
X042226Y031073D01*
X042171Y031084D01*
X042117Y031098D01*
X042065Y031116D01*
X042014Y031138D01*
X041965Y031164D01*
X041917Y031193D01*
X041872Y031225D01*
X041829Y031260D01*
X041789Y031298D01*
X041751Y031339D01*
X041717Y031383D01*
X041685Y031429D01*
X041657Y031477D01*
X041633Y031527D01*
X041612Y031578D01*
X041594Y031631D01*
X041581Y031685D01*
X041571Y031739D01*
X041565Y031794D01*
X041563Y031850D01*
X034063Y031850D02*
X034065Y031906D01*
X034071Y031961D01*
X034081Y032015D01*
X034094Y032069D01*
X034112Y032122D01*
X034133Y032173D01*
X034157Y032223D01*
X034185Y032271D01*
X034217Y032317D01*
X034251Y032361D01*
X034289Y032402D01*
X034329Y032440D01*
X034372Y032475D01*
X034417Y032507D01*
X034465Y032536D01*
X034514Y032562D01*
X034565Y032584D01*
X034617Y032602D01*
X034671Y032616D01*
X034726Y032627D01*
X034781Y032634D01*
X034836Y032637D01*
X034892Y032636D01*
X034947Y032631D01*
X035002Y032622D01*
X035056Y032610D01*
X035109Y032593D01*
X035161Y032573D01*
X035211Y032549D01*
X035259Y032522D01*
X035306Y032492D01*
X035350Y032458D01*
X035392Y032421D01*
X035430Y032381D01*
X035467Y032339D01*
X035500Y032294D01*
X035529Y032248D01*
X035556Y032199D01*
X035578Y032148D01*
X035598Y032096D01*
X035613Y032042D01*
X035625Y031988D01*
X035633Y031933D01*
X035637Y031878D01*
X035637Y031822D01*
X035633Y031767D01*
X035625Y031712D01*
X035613Y031658D01*
X035598Y031604D01*
X035578Y031552D01*
X035556Y031501D01*
X035529Y031452D01*
X035500Y031406D01*
X035467Y031361D01*
X035430Y031319D01*
X035392Y031279D01*
X035350Y031242D01*
X035306Y031208D01*
X035259Y031178D01*
X035211Y031151D01*
X035161Y031127D01*
X035109Y031107D01*
X035056Y031090D01*
X035002Y031078D01*
X034947Y031069D01*
X034892Y031064D01*
X034836Y031063D01*
X034781Y031066D01*
X034726Y031073D01*
X034671Y031084D01*
X034617Y031098D01*
X034565Y031116D01*
X034514Y031138D01*
X034465Y031164D01*
X034417Y031193D01*
X034372Y031225D01*
X034329Y031260D01*
X034289Y031298D01*
X034251Y031339D01*
X034217Y031383D01*
X034185Y031429D01*
X034157Y031477D01*
X034133Y031527D01*
X034112Y031578D01*
X034094Y031631D01*
X034081Y031685D01*
X034071Y031739D01*
X034065Y031794D01*
X034063Y031850D01*
X026563Y031850D02*
X026565Y031906D01*
X026571Y031961D01*
X026581Y032015D01*
X026594Y032069D01*
X026612Y032122D01*
X026633Y032173D01*
X026657Y032223D01*
X026685Y032271D01*
X026717Y032317D01*
X026751Y032361D01*
X026789Y032402D01*
X026829Y032440D01*
X026872Y032475D01*
X026917Y032507D01*
X026965Y032536D01*
X027014Y032562D01*
X027065Y032584D01*
X027117Y032602D01*
X027171Y032616D01*
X027226Y032627D01*
X027281Y032634D01*
X027336Y032637D01*
X027392Y032636D01*
X027447Y032631D01*
X027502Y032622D01*
X027556Y032610D01*
X027609Y032593D01*
X027661Y032573D01*
X027711Y032549D01*
X027759Y032522D01*
X027806Y032492D01*
X027850Y032458D01*
X027892Y032421D01*
X027930Y032381D01*
X027967Y032339D01*
X028000Y032294D01*
X028029Y032248D01*
X028056Y032199D01*
X028078Y032148D01*
X028098Y032096D01*
X028113Y032042D01*
X028125Y031988D01*
X028133Y031933D01*
X028137Y031878D01*
X028137Y031822D01*
X028133Y031767D01*
X028125Y031712D01*
X028113Y031658D01*
X028098Y031604D01*
X028078Y031552D01*
X028056Y031501D01*
X028029Y031452D01*
X028000Y031406D01*
X027967Y031361D01*
X027930Y031319D01*
X027892Y031279D01*
X027850Y031242D01*
X027806Y031208D01*
X027759Y031178D01*
X027711Y031151D01*
X027661Y031127D01*
X027609Y031107D01*
X027556Y031090D01*
X027502Y031078D01*
X027447Y031069D01*
X027392Y031064D01*
X027336Y031063D01*
X027281Y031066D01*
X027226Y031073D01*
X027171Y031084D01*
X027117Y031098D01*
X027065Y031116D01*
X027014Y031138D01*
X026965Y031164D01*
X026917Y031193D01*
X026872Y031225D01*
X026829Y031260D01*
X026789Y031298D01*
X026751Y031339D01*
X026717Y031383D01*
X026685Y031429D01*
X026657Y031477D01*
X026633Y031527D01*
X026612Y031578D01*
X026594Y031631D01*
X026581Y031685D01*
X026571Y031739D01*
X026565Y031794D01*
X026563Y031850D01*
X019063Y031850D02*
X019065Y031906D01*
X019071Y031961D01*
X019081Y032015D01*
X019094Y032069D01*
X019112Y032122D01*
X019133Y032173D01*
X019157Y032223D01*
X019185Y032271D01*
X019217Y032317D01*
X019251Y032361D01*
X019289Y032402D01*
X019329Y032440D01*
X019372Y032475D01*
X019417Y032507D01*
X019465Y032536D01*
X019514Y032562D01*
X019565Y032584D01*
X019617Y032602D01*
X019671Y032616D01*
X019726Y032627D01*
X019781Y032634D01*
X019836Y032637D01*
X019892Y032636D01*
X019947Y032631D01*
X020002Y032622D01*
X020056Y032610D01*
X020109Y032593D01*
X020161Y032573D01*
X020211Y032549D01*
X020259Y032522D01*
X020306Y032492D01*
X020350Y032458D01*
X020392Y032421D01*
X020430Y032381D01*
X020467Y032339D01*
X020500Y032294D01*
X020529Y032248D01*
X020556Y032199D01*
X020578Y032148D01*
X020598Y032096D01*
X020613Y032042D01*
X020625Y031988D01*
X020633Y031933D01*
X020637Y031878D01*
X020637Y031822D01*
X020633Y031767D01*
X020625Y031712D01*
X020613Y031658D01*
X020598Y031604D01*
X020578Y031552D01*
X020556Y031501D01*
X020529Y031452D01*
X020500Y031406D01*
X020467Y031361D01*
X020430Y031319D01*
X020392Y031279D01*
X020350Y031242D01*
X020306Y031208D01*
X020259Y031178D01*
X020211Y031151D01*
X020161Y031127D01*
X020109Y031107D01*
X020056Y031090D01*
X020002Y031078D01*
X019947Y031069D01*
X019892Y031064D01*
X019836Y031063D01*
X019781Y031066D01*
X019726Y031073D01*
X019671Y031084D01*
X019617Y031098D01*
X019565Y031116D01*
X019514Y031138D01*
X019465Y031164D01*
X019417Y031193D01*
X019372Y031225D01*
X019329Y031260D01*
X019289Y031298D01*
X019251Y031339D01*
X019217Y031383D01*
X019185Y031429D01*
X019157Y031477D01*
X019133Y031527D01*
X019112Y031578D01*
X019094Y031631D01*
X019081Y031685D01*
X019071Y031739D01*
X019065Y031794D01*
X019063Y031850D01*
X011563Y031850D02*
X011565Y031906D01*
X011571Y031961D01*
X011581Y032015D01*
X011594Y032069D01*
X011612Y032122D01*
X011633Y032173D01*
X011657Y032223D01*
X011685Y032271D01*
X011717Y032317D01*
X011751Y032361D01*
X011789Y032402D01*
X011829Y032440D01*
X011872Y032475D01*
X011917Y032507D01*
X011965Y032536D01*
X012014Y032562D01*
X012065Y032584D01*
X012117Y032602D01*
X012171Y032616D01*
X012226Y032627D01*
X012281Y032634D01*
X012336Y032637D01*
X012392Y032636D01*
X012447Y032631D01*
X012502Y032622D01*
X012556Y032610D01*
X012609Y032593D01*
X012661Y032573D01*
X012711Y032549D01*
X012759Y032522D01*
X012806Y032492D01*
X012850Y032458D01*
X012892Y032421D01*
X012930Y032381D01*
X012967Y032339D01*
X013000Y032294D01*
X013029Y032248D01*
X013056Y032199D01*
X013078Y032148D01*
X013098Y032096D01*
X013113Y032042D01*
X013125Y031988D01*
X013133Y031933D01*
X013137Y031878D01*
X013137Y031822D01*
X013133Y031767D01*
X013125Y031712D01*
X013113Y031658D01*
X013098Y031604D01*
X013078Y031552D01*
X013056Y031501D01*
X013029Y031452D01*
X013000Y031406D01*
X012967Y031361D01*
X012930Y031319D01*
X012892Y031279D01*
X012850Y031242D01*
X012806Y031208D01*
X012759Y031178D01*
X012711Y031151D01*
X012661Y031127D01*
X012609Y031107D01*
X012556Y031090D01*
X012502Y031078D01*
X012447Y031069D01*
X012392Y031064D01*
X012336Y031063D01*
X012281Y031066D01*
X012226Y031073D01*
X012171Y031084D01*
X012117Y031098D01*
X012065Y031116D01*
X012014Y031138D01*
X011965Y031164D01*
X011917Y031193D01*
X011872Y031225D01*
X011829Y031260D01*
X011789Y031298D01*
X011751Y031339D01*
X011717Y031383D01*
X011685Y031429D01*
X011657Y031477D01*
X011633Y031527D01*
X011612Y031578D01*
X011594Y031631D01*
X011581Y031685D01*
X011571Y031739D01*
X011565Y031794D01*
X011563Y031850D01*
X004063Y031850D02*
X004065Y031906D01*
X004071Y031961D01*
X004081Y032015D01*
X004094Y032069D01*
X004112Y032122D01*
X004133Y032173D01*
X004157Y032223D01*
X004185Y032271D01*
X004217Y032317D01*
X004251Y032361D01*
X004289Y032402D01*
X004329Y032440D01*
X004372Y032475D01*
X004417Y032507D01*
X004465Y032536D01*
X004514Y032562D01*
X004565Y032584D01*
X004617Y032602D01*
X004671Y032616D01*
X004726Y032627D01*
X004781Y032634D01*
X004836Y032637D01*
X004892Y032636D01*
X004947Y032631D01*
X005002Y032622D01*
X005056Y032610D01*
X005109Y032593D01*
X005161Y032573D01*
X005211Y032549D01*
X005259Y032522D01*
X005306Y032492D01*
X005350Y032458D01*
X005392Y032421D01*
X005430Y032381D01*
X005467Y032339D01*
X005500Y032294D01*
X005529Y032248D01*
X005556Y032199D01*
X005578Y032148D01*
X005598Y032096D01*
X005613Y032042D01*
X005625Y031988D01*
X005633Y031933D01*
X005637Y031878D01*
X005637Y031822D01*
X005633Y031767D01*
X005625Y031712D01*
X005613Y031658D01*
X005598Y031604D01*
X005578Y031552D01*
X005556Y031501D01*
X005529Y031452D01*
X005500Y031406D01*
X005467Y031361D01*
X005430Y031319D01*
X005392Y031279D01*
X005350Y031242D01*
X005306Y031208D01*
X005259Y031178D01*
X005211Y031151D01*
X005161Y031127D01*
X005109Y031107D01*
X005056Y031090D01*
X005002Y031078D01*
X004947Y031069D01*
X004892Y031064D01*
X004836Y031063D01*
X004781Y031066D01*
X004726Y031073D01*
X004671Y031084D01*
X004617Y031098D01*
X004565Y031116D01*
X004514Y031138D01*
X004465Y031164D01*
X004417Y031193D01*
X004372Y031225D01*
X004329Y031260D01*
X004289Y031298D01*
X004251Y031339D01*
X004217Y031383D01*
X004185Y031429D01*
X004157Y031477D01*
X004133Y031527D01*
X004112Y031578D01*
X004094Y031631D01*
X004081Y031685D01*
X004071Y031739D01*
X004065Y031794D01*
X004063Y031850D01*
X008438Y039350D02*
X008440Y039406D01*
X008446Y039461D01*
X008456Y039515D01*
X008469Y039569D01*
X008487Y039622D01*
X008508Y039673D01*
X008532Y039723D01*
X008560Y039771D01*
X008592Y039817D01*
X008626Y039861D01*
X008664Y039902D01*
X008704Y039940D01*
X008747Y039975D01*
X008792Y040007D01*
X008840Y040036D01*
X008889Y040062D01*
X008940Y040084D01*
X008992Y040102D01*
X009046Y040116D01*
X009101Y040127D01*
X009156Y040134D01*
X009211Y040137D01*
X009267Y040136D01*
X009322Y040131D01*
X009377Y040122D01*
X009431Y040110D01*
X009484Y040093D01*
X009536Y040073D01*
X009586Y040049D01*
X009634Y040022D01*
X009681Y039992D01*
X009725Y039958D01*
X009767Y039921D01*
X009805Y039881D01*
X009842Y039839D01*
X009875Y039794D01*
X009904Y039748D01*
X009931Y039699D01*
X009953Y039648D01*
X009973Y039596D01*
X009988Y039542D01*
X010000Y039488D01*
X010008Y039433D01*
X010012Y039378D01*
X010012Y039322D01*
X010008Y039267D01*
X010000Y039212D01*
X009988Y039158D01*
X009973Y039104D01*
X009953Y039052D01*
X009931Y039001D01*
X009904Y038952D01*
X009875Y038906D01*
X009842Y038861D01*
X009805Y038819D01*
X009767Y038779D01*
X009725Y038742D01*
X009681Y038708D01*
X009634Y038678D01*
X009586Y038651D01*
X009536Y038627D01*
X009484Y038607D01*
X009431Y038590D01*
X009377Y038578D01*
X009322Y038569D01*
X009267Y038564D01*
X009211Y038563D01*
X009156Y038566D01*
X009101Y038573D01*
X009046Y038584D01*
X008992Y038598D01*
X008940Y038616D01*
X008889Y038638D01*
X008840Y038664D01*
X008792Y038693D01*
X008747Y038725D01*
X008704Y038760D01*
X008664Y038798D01*
X008626Y038839D01*
X008592Y038883D01*
X008560Y038929D01*
X008532Y038977D01*
X008508Y039027D01*
X008487Y039078D01*
X008469Y039131D01*
X008456Y039185D01*
X008446Y039239D01*
X008440Y039294D01*
X008438Y039350D01*
X015938Y039350D02*
X015940Y039406D01*
X015946Y039461D01*
X015956Y039515D01*
X015969Y039569D01*
X015987Y039622D01*
X016008Y039673D01*
X016032Y039723D01*
X016060Y039771D01*
X016092Y039817D01*
X016126Y039861D01*
X016164Y039902D01*
X016204Y039940D01*
X016247Y039975D01*
X016292Y040007D01*
X016340Y040036D01*
X016389Y040062D01*
X016440Y040084D01*
X016492Y040102D01*
X016546Y040116D01*
X016601Y040127D01*
X016656Y040134D01*
X016711Y040137D01*
X016767Y040136D01*
X016822Y040131D01*
X016877Y040122D01*
X016931Y040110D01*
X016984Y040093D01*
X017036Y040073D01*
X017086Y040049D01*
X017134Y040022D01*
X017181Y039992D01*
X017225Y039958D01*
X017267Y039921D01*
X017305Y039881D01*
X017342Y039839D01*
X017375Y039794D01*
X017404Y039748D01*
X017431Y039699D01*
X017453Y039648D01*
X017473Y039596D01*
X017488Y039542D01*
X017500Y039488D01*
X017508Y039433D01*
X017512Y039378D01*
X017512Y039322D01*
X017508Y039267D01*
X017500Y039212D01*
X017488Y039158D01*
X017473Y039104D01*
X017453Y039052D01*
X017431Y039001D01*
X017404Y038952D01*
X017375Y038906D01*
X017342Y038861D01*
X017305Y038819D01*
X017267Y038779D01*
X017225Y038742D01*
X017181Y038708D01*
X017134Y038678D01*
X017086Y038651D01*
X017036Y038627D01*
X016984Y038607D01*
X016931Y038590D01*
X016877Y038578D01*
X016822Y038569D01*
X016767Y038564D01*
X016711Y038563D01*
X016656Y038566D01*
X016601Y038573D01*
X016546Y038584D01*
X016492Y038598D01*
X016440Y038616D01*
X016389Y038638D01*
X016340Y038664D01*
X016292Y038693D01*
X016247Y038725D01*
X016204Y038760D01*
X016164Y038798D01*
X016126Y038839D01*
X016092Y038883D01*
X016060Y038929D01*
X016032Y038977D01*
X016008Y039027D01*
X015987Y039078D01*
X015969Y039131D01*
X015956Y039185D01*
X015946Y039239D01*
X015940Y039294D01*
X015938Y039350D01*
X023438Y039350D02*
X023440Y039406D01*
X023446Y039461D01*
X023456Y039515D01*
X023469Y039569D01*
X023487Y039622D01*
X023508Y039673D01*
X023532Y039723D01*
X023560Y039771D01*
X023592Y039817D01*
X023626Y039861D01*
X023664Y039902D01*
X023704Y039940D01*
X023747Y039975D01*
X023792Y040007D01*
X023840Y040036D01*
X023889Y040062D01*
X023940Y040084D01*
X023992Y040102D01*
X024046Y040116D01*
X024101Y040127D01*
X024156Y040134D01*
X024211Y040137D01*
X024267Y040136D01*
X024322Y040131D01*
X024377Y040122D01*
X024431Y040110D01*
X024484Y040093D01*
X024536Y040073D01*
X024586Y040049D01*
X024634Y040022D01*
X024681Y039992D01*
X024725Y039958D01*
X024767Y039921D01*
X024805Y039881D01*
X024842Y039839D01*
X024875Y039794D01*
X024904Y039748D01*
X024931Y039699D01*
X024953Y039648D01*
X024973Y039596D01*
X024988Y039542D01*
X025000Y039488D01*
X025008Y039433D01*
X025012Y039378D01*
X025012Y039322D01*
X025008Y039267D01*
X025000Y039212D01*
X024988Y039158D01*
X024973Y039104D01*
X024953Y039052D01*
X024931Y039001D01*
X024904Y038952D01*
X024875Y038906D01*
X024842Y038861D01*
X024805Y038819D01*
X024767Y038779D01*
X024725Y038742D01*
X024681Y038708D01*
X024634Y038678D01*
X024586Y038651D01*
X024536Y038627D01*
X024484Y038607D01*
X024431Y038590D01*
X024377Y038578D01*
X024322Y038569D01*
X024267Y038564D01*
X024211Y038563D01*
X024156Y038566D01*
X024101Y038573D01*
X024046Y038584D01*
X023992Y038598D01*
X023940Y038616D01*
X023889Y038638D01*
X023840Y038664D01*
X023792Y038693D01*
X023747Y038725D01*
X023704Y038760D01*
X023664Y038798D01*
X023626Y038839D01*
X023592Y038883D01*
X023560Y038929D01*
X023532Y038977D01*
X023508Y039027D01*
X023487Y039078D01*
X023469Y039131D01*
X023456Y039185D01*
X023446Y039239D01*
X023440Y039294D01*
X023438Y039350D01*
X030938Y039350D02*
X030940Y039406D01*
X030946Y039461D01*
X030956Y039515D01*
X030969Y039569D01*
X030987Y039622D01*
X031008Y039673D01*
X031032Y039723D01*
X031060Y039771D01*
X031092Y039817D01*
X031126Y039861D01*
X031164Y039902D01*
X031204Y039940D01*
X031247Y039975D01*
X031292Y040007D01*
X031340Y040036D01*
X031389Y040062D01*
X031440Y040084D01*
X031492Y040102D01*
X031546Y040116D01*
X031601Y040127D01*
X031656Y040134D01*
X031711Y040137D01*
X031767Y040136D01*
X031822Y040131D01*
X031877Y040122D01*
X031931Y040110D01*
X031984Y040093D01*
X032036Y040073D01*
X032086Y040049D01*
X032134Y040022D01*
X032181Y039992D01*
X032225Y039958D01*
X032267Y039921D01*
X032305Y039881D01*
X032342Y039839D01*
X032375Y039794D01*
X032404Y039748D01*
X032431Y039699D01*
X032453Y039648D01*
X032473Y039596D01*
X032488Y039542D01*
X032500Y039488D01*
X032508Y039433D01*
X032512Y039378D01*
X032512Y039322D01*
X032508Y039267D01*
X032500Y039212D01*
X032488Y039158D01*
X032473Y039104D01*
X032453Y039052D01*
X032431Y039001D01*
X032404Y038952D01*
X032375Y038906D01*
X032342Y038861D01*
X032305Y038819D01*
X032267Y038779D01*
X032225Y038742D01*
X032181Y038708D01*
X032134Y038678D01*
X032086Y038651D01*
X032036Y038627D01*
X031984Y038607D01*
X031931Y038590D01*
X031877Y038578D01*
X031822Y038569D01*
X031767Y038564D01*
X031711Y038563D01*
X031656Y038566D01*
X031601Y038573D01*
X031546Y038584D01*
X031492Y038598D01*
X031440Y038616D01*
X031389Y038638D01*
X031340Y038664D01*
X031292Y038693D01*
X031247Y038725D01*
X031204Y038760D01*
X031164Y038798D01*
X031126Y038839D01*
X031092Y038883D01*
X031060Y038929D01*
X031032Y038977D01*
X031008Y039027D01*
X030987Y039078D01*
X030969Y039131D01*
X030956Y039185D01*
X030946Y039239D01*
X030940Y039294D01*
X030938Y039350D01*
X038438Y039350D02*
X038440Y039406D01*
X038446Y039461D01*
X038456Y039515D01*
X038469Y039569D01*
X038487Y039622D01*
X038508Y039673D01*
X038532Y039723D01*
X038560Y039771D01*
X038592Y039817D01*
X038626Y039861D01*
X038664Y039902D01*
X038704Y039940D01*
X038747Y039975D01*
X038792Y040007D01*
X038840Y040036D01*
X038889Y040062D01*
X038940Y040084D01*
X038992Y040102D01*
X039046Y040116D01*
X039101Y040127D01*
X039156Y040134D01*
X039211Y040137D01*
X039267Y040136D01*
X039322Y040131D01*
X039377Y040122D01*
X039431Y040110D01*
X039484Y040093D01*
X039536Y040073D01*
X039586Y040049D01*
X039634Y040022D01*
X039681Y039992D01*
X039725Y039958D01*
X039767Y039921D01*
X039805Y039881D01*
X039842Y039839D01*
X039875Y039794D01*
X039904Y039748D01*
X039931Y039699D01*
X039953Y039648D01*
X039973Y039596D01*
X039988Y039542D01*
X040000Y039488D01*
X040008Y039433D01*
X040012Y039378D01*
X040012Y039322D01*
X040008Y039267D01*
X040000Y039212D01*
X039988Y039158D01*
X039973Y039104D01*
X039953Y039052D01*
X039931Y039001D01*
X039904Y038952D01*
X039875Y038906D01*
X039842Y038861D01*
X039805Y038819D01*
X039767Y038779D01*
X039725Y038742D01*
X039681Y038708D01*
X039634Y038678D01*
X039586Y038651D01*
X039536Y038627D01*
X039484Y038607D01*
X039431Y038590D01*
X039377Y038578D01*
X039322Y038569D01*
X039267Y038564D01*
X039211Y038563D01*
X039156Y038566D01*
X039101Y038573D01*
X039046Y038584D01*
X038992Y038598D01*
X038940Y038616D01*
X038889Y038638D01*
X038840Y038664D01*
X038792Y038693D01*
X038747Y038725D01*
X038704Y038760D01*
X038664Y038798D01*
X038626Y038839D01*
X038592Y038883D01*
X038560Y038929D01*
X038532Y038977D01*
X038508Y039027D01*
X038487Y039078D01*
X038469Y039131D01*
X038456Y039185D01*
X038446Y039239D01*
X038440Y039294D01*
X038438Y039350D01*
X045938Y039350D02*
X045940Y039406D01*
X045946Y039461D01*
X045956Y039515D01*
X045969Y039569D01*
X045987Y039622D01*
X046008Y039673D01*
X046032Y039723D01*
X046060Y039771D01*
X046092Y039817D01*
X046126Y039861D01*
X046164Y039902D01*
X046204Y039940D01*
X046247Y039975D01*
X046292Y040007D01*
X046340Y040036D01*
X046389Y040062D01*
X046440Y040084D01*
X046492Y040102D01*
X046546Y040116D01*
X046601Y040127D01*
X046656Y040134D01*
X046711Y040137D01*
X046767Y040136D01*
X046822Y040131D01*
X046877Y040122D01*
X046931Y040110D01*
X046984Y040093D01*
X047036Y040073D01*
X047086Y040049D01*
X047134Y040022D01*
X047181Y039992D01*
X047225Y039958D01*
X047267Y039921D01*
X047305Y039881D01*
X047342Y039839D01*
X047375Y039794D01*
X047404Y039748D01*
X047431Y039699D01*
X047453Y039648D01*
X047473Y039596D01*
X047488Y039542D01*
X047500Y039488D01*
X047508Y039433D01*
X047512Y039378D01*
X047512Y039322D01*
X047508Y039267D01*
X047500Y039212D01*
X047488Y039158D01*
X047473Y039104D01*
X047453Y039052D01*
X047431Y039001D01*
X047404Y038952D01*
X047375Y038906D01*
X047342Y038861D01*
X047305Y038819D01*
X047267Y038779D01*
X047225Y038742D01*
X047181Y038708D01*
X047134Y038678D01*
X047086Y038651D01*
X047036Y038627D01*
X046984Y038607D01*
X046931Y038590D01*
X046877Y038578D01*
X046822Y038569D01*
X046767Y038564D01*
X046711Y038563D01*
X046656Y038566D01*
X046601Y038573D01*
X046546Y038584D01*
X046492Y038598D01*
X046440Y038616D01*
X046389Y038638D01*
X046340Y038664D01*
X046292Y038693D01*
X046247Y038725D01*
X046204Y038760D01*
X046164Y038798D01*
X046126Y038839D01*
X046092Y038883D01*
X046060Y038929D01*
X046032Y038977D01*
X046008Y039027D01*
X045987Y039078D01*
X045969Y039131D01*
X045956Y039185D01*
X045946Y039239D01*
X045940Y039294D01*
X045938Y039350D01*
X053438Y039350D02*
X053440Y039406D01*
X053446Y039461D01*
X053456Y039515D01*
X053469Y039569D01*
X053487Y039622D01*
X053508Y039673D01*
X053532Y039723D01*
X053560Y039771D01*
X053592Y039817D01*
X053626Y039861D01*
X053664Y039902D01*
X053704Y039940D01*
X053747Y039975D01*
X053792Y040007D01*
X053840Y040036D01*
X053889Y040062D01*
X053940Y040084D01*
X053992Y040102D01*
X054046Y040116D01*
X054101Y040127D01*
X054156Y040134D01*
X054211Y040137D01*
X054267Y040136D01*
X054322Y040131D01*
X054377Y040122D01*
X054431Y040110D01*
X054484Y040093D01*
X054536Y040073D01*
X054586Y040049D01*
X054634Y040022D01*
X054681Y039992D01*
X054725Y039958D01*
X054767Y039921D01*
X054805Y039881D01*
X054842Y039839D01*
X054875Y039794D01*
X054904Y039748D01*
X054931Y039699D01*
X054953Y039648D01*
X054973Y039596D01*
X054988Y039542D01*
X055000Y039488D01*
X055008Y039433D01*
X055012Y039378D01*
X055012Y039322D01*
X055008Y039267D01*
X055000Y039212D01*
X054988Y039158D01*
X054973Y039104D01*
X054953Y039052D01*
X054931Y039001D01*
X054904Y038952D01*
X054875Y038906D01*
X054842Y038861D01*
X054805Y038819D01*
X054767Y038779D01*
X054725Y038742D01*
X054681Y038708D01*
X054634Y038678D01*
X054586Y038651D01*
X054536Y038627D01*
X054484Y038607D01*
X054431Y038590D01*
X054377Y038578D01*
X054322Y038569D01*
X054267Y038564D01*
X054211Y038563D01*
X054156Y038566D01*
X054101Y038573D01*
X054046Y038584D01*
X053992Y038598D01*
X053940Y038616D01*
X053889Y038638D01*
X053840Y038664D01*
X053792Y038693D01*
X053747Y038725D01*
X053704Y038760D01*
X053664Y038798D01*
X053626Y038839D01*
X053592Y038883D01*
X053560Y038929D01*
X053532Y038977D01*
X053508Y039027D01*
X053487Y039078D01*
X053469Y039131D01*
X053456Y039185D01*
X053446Y039239D01*
X053440Y039294D01*
X053438Y039350D01*
X060938Y039350D02*
X060940Y039406D01*
X060946Y039461D01*
X060956Y039515D01*
X060969Y039569D01*
X060987Y039622D01*
X061008Y039673D01*
X061032Y039723D01*
X061060Y039771D01*
X061092Y039817D01*
X061126Y039861D01*
X061164Y039902D01*
X061204Y039940D01*
X061247Y039975D01*
X061292Y040007D01*
X061340Y040036D01*
X061389Y040062D01*
X061440Y040084D01*
X061492Y040102D01*
X061546Y040116D01*
X061601Y040127D01*
X061656Y040134D01*
X061711Y040137D01*
X061767Y040136D01*
X061822Y040131D01*
X061877Y040122D01*
X061931Y040110D01*
X061984Y040093D01*
X062036Y040073D01*
X062086Y040049D01*
X062134Y040022D01*
X062181Y039992D01*
X062225Y039958D01*
X062267Y039921D01*
X062305Y039881D01*
X062342Y039839D01*
X062375Y039794D01*
X062404Y039748D01*
X062431Y039699D01*
X062453Y039648D01*
X062473Y039596D01*
X062488Y039542D01*
X062500Y039488D01*
X062508Y039433D01*
X062512Y039378D01*
X062512Y039322D01*
X062508Y039267D01*
X062500Y039212D01*
X062488Y039158D01*
X062473Y039104D01*
X062453Y039052D01*
X062431Y039001D01*
X062404Y038952D01*
X062375Y038906D01*
X062342Y038861D01*
X062305Y038819D01*
X062267Y038779D01*
X062225Y038742D01*
X062181Y038708D01*
X062134Y038678D01*
X062086Y038651D01*
X062036Y038627D01*
X061984Y038607D01*
X061931Y038590D01*
X061877Y038578D01*
X061822Y038569D01*
X061767Y038564D01*
X061711Y038563D01*
X061656Y038566D01*
X061601Y038573D01*
X061546Y038584D01*
X061492Y038598D01*
X061440Y038616D01*
X061389Y038638D01*
X061340Y038664D01*
X061292Y038693D01*
X061247Y038725D01*
X061204Y038760D01*
X061164Y038798D01*
X061126Y038839D01*
X061092Y038883D01*
X061060Y038929D01*
X061032Y038977D01*
X061008Y039027D01*
X060987Y039078D01*
X060969Y039131D01*
X060956Y039185D01*
X060946Y039239D01*
X060940Y039294D01*
X060938Y039350D01*
X068438Y039350D02*
X068440Y039406D01*
X068446Y039461D01*
X068456Y039515D01*
X068469Y039569D01*
X068487Y039622D01*
X068508Y039673D01*
X068532Y039723D01*
X068560Y039771D01*
X068592Y039817D01*
X068626Y039861D01*
X068664Y039902D01*
X068704Y039940D01*
X068747Y039975D01*
X068792Y040007D01*
X068840Y040036D01*
X068889Y040062D01*
X068940Y040084D01*
X068992Y040102D01*
X069046Y040116D01*
X069101Y040127D01*
X069156Y040134D01*
X069211Y040137D01*
X069267Y040136D01*
X069322Y040131D01*
X069377Y040122D01*
X069431Y040110D01*
X069484Y040093D01*
X069536Y040073D01*
X069586Y040049D01*
X069634Y040022D01*
X069681Y039992D01*
X069725Y039958D01*
X069767Y039921D01*
X069805Y039881D01*
X069842Y039839D01*
X069875Y039794D01*
X069904Y039748D01*
X069931Y039699D01*
X069953Y039648D01*
X069973Y039596D01*
X069988Y039542D01*
X070000Y039488D01*
X070008Y039433D01*
X070012Y039378D01*
X070012Y039322D01*
X070008Y039267D01*
X070000Y039212D01*
X069988Y039158D01*
X069973Y039104D01*
X069953Y039052D01*
X069931Y039001D01*
X069904Y038952D01*
X069875Y038906D01*
X069842Y038861D01*
X069805Y038819D01*
X069767Y038779D01*
X069725Y038742D01*
X069681Y038708D01*
X069634Y038678D01*
X069586Y038651D01*
X069536Y038627D01*
X069484Y038607D01*
X069431Y038590D01*
X069377Y038578D01*
X069322Y038569D01*
X069267Y038564D01*
X069211Y038563D01*
X069156Y038566D01*
X069101Y038573D01*
X069046Y038584D01*
X068992Y038598D01*
X068940Y038616D01*
X068889Y038638D01*
X068840Y038664D01*
X068792Y038693D01*
X068747Y038725D01*
X068704Y038760D01*
X068664Y038798D01*
X068626Y038839D01*
X068592Y038883D01*
X068560Y038929D01*
X068532Y038977D01*
X068508Y039027D01*
X068487Y039078D01*
X068469Y039131D01*
X068456Y039185D01*
X068446Y039239D01*
X068440Y039294D01*
X068438Y039350D01*
X075938Y039350D02*
X075940Y039406D01*
X075946Y039461D01*
X075956Y039515D01*
X075969Y039569D01*
X075987Y039622D01*
X076008Y039673D01*
X076032Y039723D01*
X076060Y039771D01*
X076092Y039817D01*
X076126Y039861D01*
X076164Y039902D01*
X076204Y039940D01*
X076247Y039975D01*
X076292Y040007D01*
X076340Y040036D01*
X076389Y040062D01*
X076440Y040084D01*
X076492Y040102D01*
X076546Y040116D01*
X076601Y040127D01*
X076656Y040134D01*
X076711Y040137D01*
X076767Y040136D01*
X076822Y040131D01*
X076877Y040122D01*
X076931Y040110D01*
X076984Y040093D01*
X077036Y040073D01*
X077086Y040049D01*
X077134Y040022D01*
X077181Y039992D01*
X077225Y039958D01*
X077267Y039921D01*
X077305Y039881D01*
X077342Y039839D01*
X077375Y039794D01*
X077404Y039748D01*
X077431Y039699D01*
X077453Y039648D01*
X077473Y039596D01*
X077488Y039542D01*
X077500Y039488D01*
X077508Y039433D01*
X077512Y039378D01*
X077512Y039322D01*
X077508Y039267D01*
X077500Y039212D01*
X077488Y039158D01*
X077473Y039104D01*
X077453Y039052D01*
X077431Y039001D01*
X077404Y038952D01*
X077375Y038906D01*
X077342Y038861D01*
X077305Y038819D01*
X077267Y038779D01*
X077225Y038742D01*
X077181Y038708D01*
X077134Y038678D01*
X077086Y038651D01*
X077036Y038627D01*
X076984Y038607D01*
X076931Y038590D01*
X076877Y038578D01*
X076822Y038569D01*
X076767Y038564D01*
X076711Y038563D01*
X076656Y038566D01*
X076601Y038573D01*
X076546Y038584D01*
X076492Y038598D01*
X076440Y038616D01*
X076389Y038638D01*
X076340Y038664D01*
X076292Y038693D01*
X076247Y038725D01*
X076204Y038760D01*
X076164Y038798D01*
X076126Y038839D01*
X076092Y038883D01*
X076060Y038929D01*
X076032Y038977D01*
X076008Y039027D01*
X075987Y039078D01*
X075969Y039131D01*
X075956Y039185D01*
X075946Y039239D01*
X075940Y039294D01*
X075938Y039350D01*
X083438Y039350D02*
X083440Y039406D01*
X083446Y039461D01*
X083456Y039515D01*
X083469Y039569D01*
X083487Y039622D01*
X083508Y039673D01*
X083532Y039723D01*
X083560Y039771D01*
X083592Y039817D01*
X083626Y039861D01*
X083664Y039902D01*
X083704Y039940D01*
X083747Y039975D01*
X083792Y040007D01*
X083840Y040036D01*
X083889Y040062D01*
X083940Y040084D01*
X083992Y040102D01*
X084046Y040116D01*
X084101Y040127D01*
X084156Y040134D01*
X084211Y040137D01*
X084267Y040136D01*
X084322Y040131D01*
X084377Y040122D01*
X084431Y040110D01*
X084484Y040093D01*
X084536Y040073D01*
X084586Y040049D01*
X084634Y040022D01*
X084681Y039992D01*
X084725Y039958D01*
X084767Y039921D01*
X084805Y039881D01*
X084842Y039839D01*
X084875Y039794D01*
X084904Y039748D01*
X084931Y039699D01*
X084953Y039648D01*
X084973Y039596D01*
X084988Y039542D01*
X085000Y039488D01*
X085008Y039433D01*
X085012Y039378D01*
X085012Y039322D01*
X085008Y039267D01*
X085000Y039212D01*
X084988Y039158D01*
X084973Y039104D01*
X084953Y039052D01*
X084931Y039001D01*
X084904Y038952D01*
X084875Y038906D01*
X084842Y038861D01*
X084805Y038819D01*
X084767Y038779D01*
X084725Y038742D01*
X084681Y038708D01*
X084634Y038678D01*
X084586Y038651D01*
X084536Y038627D01*
X084484Y038607D01*
X084431Y038590D01*
X084377Y038578D01*
X084322Y038569D01*
X084267Y038564D01*
X084211Y038563D01*
X084156Y038566D01*
X084101Y038573D01*
X084046Y038584D01*
X083992Y038598D01*
X083940Y038616D01*
X083889Y038638D01*
X083840Y038664D01*
X083792Y038693D01*
X083747Y038725D01*
X083704Y038760D01*
X083664Y038798D01*
X083626Y038839D01*
X083592Y038883D01*
X083560Y038929D01*
X083532Y038977D01*
X083508Y039027D01*
X083487Y039078D01*
X083469Y039131D01*
X083456Y039185D01*
X083446Y039239D01*
X083440Y039294D01*
X083438Y039350D01*
X090938Y039350D02*
X090940Y039406D01*
X090946Y039461D01*
X090956Y039515D01*
X090969Y039569D01*
X090987Y039622D01*
X091008Y039673D01*
X091032Y039723D01*
X091060Y039771D01*
X091092Y039817D01*
X091126Y039861D01*
X091164Y039902D01*
X091204Y039940D01*
X091247Y039975D01*
X091292Y040007D01*
X091340Y040036D01*
X091389Y040062D01*
X091440Y040084D01*
X091492Y040102D01*
X091546Y040116D01*
X091601Y040127D01*
X091656Y040134D01*
X091711Y040137D01*
X091767Y040136D01*
X091822Y040131D01*
X091877Y040122D01*
X091931Y040110D01*
X091984Y040093D01*
X092036Y040073D01*
X092086Y040049D01*
X092134Y040022D01*
X092181Y039992D01*
X092225Y039958D01*
X092267Y039921D01*
X092305Y039881D01*
X092342Y039839D01*
X092375Y039794D01*
X092404Y039748D01*
X092431Y039699D01*
X092453Y039648D01*
X092473Y039596D01*
X092488Y039542D01*
X092500Y039488D01*
X092508Y039433D01*
X092512Y039378D01*
X092512Y039322D01*
X092508Y039267D01*
X092500Y039212D01*
X092488Y039158D01*
X092473Y039104D01*
X092453Y039052D01*
X092431Y039001D01*
X092404Y038952D01*
X092375Y038906D01*
X092342Y038861D01*
X092305Y038819D01*
X092267Y038779D01*
X092225Y038742D01*
X092181Y038708D01*
X092134Y038678D01*
X092086Y038651D01*
X092036Y038627D01*
X091984Y038607D01*
X091931Y038590D01*
X091877Y038578D01*
X091822Y038569D01*
X091767Y038564D01*
X091711Y038563D01*
X091656Y038566D01*
X091601Y038573D01*
X091546Y038584D01*
X091492Y038598D01*
X091440Y038616D01*
X091389Y038638D01*
X091340Y038664D01*
X091292Y038693D01*
X091247Y038725D01*
X091204Y038760D01*
X091164Y038798D01*
X091126Y038839D01*
X091092Y038883D01*
X091060Y038929D01*
X091032Y038977D01*
X091008Y039027D01*
X090987Y039078D01*
X090969Y039131D01*
X090956Y039185D01*
X090946Y039239D01*
X090940Y039294D01*
X090938Y039350D01*
X098438Y039350D02*
X098440Y039406D01*
X098446Y039461D01*
X098456Y039515D01*
X098469Y039569D01*
X098487Y039622D01*
X098508Y039673D01*
X098532Y039723D01*
X098560Y039771D01*
X098592Y039817D01*
X098626Y039861D01*
X098664Y039902D01*
X098704Y039940D01*
X098747Y039975D01*
X098792Y040007D01*
X098840Y040036D01*
X098889Y040062D01*
X098940Y040084D01*
X098992Y040102D01*
X099046Y040116D01*
X099101Y040127D01*
X099156Y040134D01*
X099211Y040137D01*
X099267Y040136D01*
X099322Y040131D01*
X099377Y040122D01*
X099431Y040110D01*
X099484Y040093D01*
X099536Y040073D01*
X099586Y040049D01*
X099634Y040022D01*
X099681Y039992D01*
X099725Y039958D01*
X099767Y039921D01*
X099805Y039881D01*
X099842Y039839D01*
X099875Y039794D01*
X099904Y039748D01*
X099931Y039699D01*
X099953Y039648D01*
X099973Y039596D01*
X099988Y039542D01*
X100000Y039488D01*
X100008Y039433D01*
X100012Y039378D01*
X100012Y039322D01*
X100008Y039267D01*
X100000Y039212D01*
X099988Y039158D01*
X099973Y039104D01*
X099953Y039052D01*
X099931Y039001D01*
X099904Y038952D01*
X099875Y038906D01*
X099842Y038861D01*
X099805Y038819D01*
X099767Y038779D01*
X099725Y038742D01*
X099681Y038708D01*
X099634Y038678D01*
X099586Y038651D01*
X099536Y038627D01*
X099484Y038607D01*
X099431Y038590D01*
X099377Y038578D01*
X099322Y038569D01*
X099267Y038564D01*
X099211Y038563D01*
X099156Y038566D01*
X099101Y038573D01*
X099046Y038584D01*
X098992Y038598D01*
X098940Y038616D01*
X098889Y038638D01*
X098840Y038664D01*
X098792Y038693D01*
X098747Y038725D01*
X098704Y038760D01*
X098664Y038798D01*
X098626Y038839D01*
X098592Y038883D01*
X098560Y038929D01*
X098532Y038977D01*
X098508Y039027D01*
X098487Y039078D01*
X098469Y039131D01*
X098456Y039185D01*
X098446Y039239D01*
X098440Y039294D01*
X098438Y039350D01*
X104313Y052600D02*
X104315Y052656D01*
X104321Y052711D01*
X104331Y052765D01*
X104344Y052819D01*
X104362Y052872D01*
X104383Y052923D01*
X104407Y052973D01*
X104435Y053021D01*
X104467Y053067D01*
X104501Y053111D01*
X104539Y053152D01*
X104579Y053190D01*
X104622Y053225D01*
X104667Y053257D01*
X104715Y053286D01*
X104764Y053312D01*
X104815Y053334D01*
X104867Y053352D01*
X104921Y053366D01*
X104976Y053377D01*
X105031Y053384D01*
X105086Y053387D01*
X105142Y053386D01*
X105197Y053381D01*
X105252Y053372D01*
X105306Y053360D01*
X105359Y053343D01*
X105411Y053323D01*
X105461Y053299D01*
X105509Y053272D01*
X105556Y053242D01*
X105600Y053208D01*
X105642Y053171D01*
X105680Y053131D01*
X105717Y053089D01*
X105750Y053044D01*
X105779Y052998D01*
X105806Y052949D01*
X105828Y052898D01*
X105848Y052846D01*
X105863Y052792D01*
X105875Y052738D01*
X105883Y052683D01*
X105887Y052628D01*
X105887Y052572D01*
X105883Y052517D01*
X105875Y052462D01*
X105863Y052408D01*
X105848Y052354D01*
X105828Y052302D01*
X105806Y052251D01*
X105779Y052202D01*
X105750Y052156D01*
X105717Y052111D01*
X105680Y052069D01*
X105642Y052029D01*
X105600Y051992D01*
X105556Y051958D01*
X105509Y051928D01*
X105461Y051901D01*
X105411Y051877D01*
X105359Y051857D01*
X105306Y051840D01*
X105252Y051828D01*
X105197Y051819D01*
X105142Y051814D01*
X105086Y051813D01*
X105031Y051816D01*
X104976Y051823D01*
X104921Y051834D01*
X104867Y051848D01*
X104815Y051866D01*
X104764Y051888D01*
X104715Y051914D01*
X104667Y051943D01*
X104622Y051975D01*
X104579Y052010D01*
X104539Y052048D01*
X104501Y052089D01*
X104467Y052133D01*
X104435Y052179D01*
X104407Y052227D01*
X104383Y052277D01*
X104362Y052328D01*
X104344Y052381D01*
X104331Y052435D01*
X104321Y052489D01*
X104315Y052544D01*
X104313Y052600D01*
X053063Y052600D02*
X053065Y052656D01*
X053071Y052711D01*
X053081Y052765D01*
X053094Y052819D01*
X053112Y052872D01*
X053133Y052923D01*
X053157Y052973D01*
X053185Y053021D01*
X053217Y053067D01*
X053251Y053111D01*
X053289Y053152D01*
X053329Y053190D01*
X053372Y053225D01*
X053417Y053257D01*
X053465Y053286D01*
X053514Y053312D01*
X053565Y053334D01*
X053617Y053352D01*
X053671Y053366D01*
X053726Y053377D01*
X053781Y053384D01*
X053836Y053387D01*
X053892Y053386D01*
X053947Y053381D01*
X054002Y053372D01*
X054056Y053360D01*
X054109Y053343D01*
X054161Y053323D01*
X054211Y053299D01*
X054259Y053272D01*
X054306Y053242D01*
X054350Y053208D01*
X054392Y053171D01*
X054430Y053131D01*
X054467Y053089D01*
X054500Y053044D01*
X054529Y052998D01*
X054556Y052949D01*
X054578Y052898D01*
X054598Y052846D01*
X054613Y052792D01*
X054625Y052738D01*
X054633Y052683D01*
X054637Y052628D01*
X054637Y052572D01*
X054633Y052517D01*
X054625Y052462D01*
X054613Y052408D01*
X054598Y052354D01*
X054578Y052302D01*
X054556Y052251D01*
X054529Y052202D01*
X054500Y052156D01*
X054467Y052111D01*
X054430Y052069D01*
X054392Y052029D01*
X054350Y051992D01*
X054306Y051958D01*
X054259Y051928D01*
X054211Y051901D01*
X054161Y051877D01*
X054109Y051857D01*
X054056Y051840D01*
X054002Y051828D01*
X053947Y051819D01*
X053892Y051814D01*
X053836Y051813D01*
X053781Y051816D01*
X053726Y051823D01*
X053671Y051834D01*
X053617Y051848D01*
X053565Y051866D01*
X053514Y051888D01*
X053465Y051914D01*
X053417Y051943D01*
X053372Y051975D01*
X053329Y052010D01*
X053289Y052048D01*
X053251Y052089D01*
X053217Y052133D01*
X053185Y052179D01*
X053157Y052227D01*
X053133Y052277D01*
X053112Y052328D01*
X053094Y052381D01*
X053081Y052435D01*
X053071Y052489D01*
X053065Y052544D01*
X053063Y052600D01*
X001813Y052600D02*
X001815Y052656D01*
X001821Y052711D01*
X001831Y052765D01*
X001844Y052819D01*
X001862Y052872D01*
X001883Y052923D01*
X001907Y052973D01*
X001935Y053021D01*
X001967Y053067D01*
X002001Y053111D01*
X002039Y053152D01*
X002079Y053190D01*
X002122Y053225D01*
X002167Y053257D01*
X002215Y053286D01*
X002264Y053312D01*
X002315Y053334D01*
X002367Y053352D01*
X002421Y053366D01*
X002476Y053377D01*
X002531Y053384D01*
X002586Y053387D01*
X002642Y053386D01*
X002697Y053381D01*
X002752Y053372D01*
X002806Y053360D01*
X002859Y053343D01*
X002911Y053323D01*
X002961Y053299D01*
X003009Y053272D01*
X003056Y053242D01*
X003100Y053208D01*
X003142Y053171D01*
X003180Y053131D01*
X003217Y053089D01*
X003250Y053044D01*
X003279Y052998D01*
X003306Y052949D01*
X003328Y052898D01*
X003348Y052846D01*
X003363Y052792D01*
X003375Y052738D01*
X003383Y052683D01*
X003387Y052628D01*
X003387Y052572D01*
X003383Y052517D01*
X003375Y052462D01*
X003363Y052408D01*
X003348Y052354D01*
X003328Y052302D01*
X003306Y052251D01*
X003279Y052202D01*
X003250Y052156D01*
X003217Y052111D01*
X003180Y052069D01*
X003142Y052029D01*
X003100Y051992D01*
X003056Y051958D01*
X003009Y051928D01*
X002961Y051901D01*
X002911Y051877D01*
X002859Y051857D01*
X002806Y051840D01*
X002752Y051828D01*
X002697Y051819D01*
X002642Y051814D01*
X002586Y051813D01*
X002531Y051816D01*
X002476Y051823D01*
X002421Y051834D01*
X002367Y051848D01*
X002315Y051866D01*
X002264Y051888D01*
X002215Y051914D01*
X002167Y051943D01*
X002122Y051975D01*
X002079Y052010D01*
X002039Y052048D01*
X002001Y052089D01*
X001967Y052133D01*
X001935Y052179D01*
X001907Y052227D01*
X001883Y052277D01*
X001862Y052328D01*
X001844Y052381D01*
X001831Y052435D01*
X001821Y052489D01*
X001815Y052544D01*
X001813Y052600D01*
X040313Y016850D02*
X040315Y016906D01*
X040321Y016961D01*
X040331Y017015D01*
X040344Y017069D01*
X040362Y017122D01*
X040383Y017173D01*
X040407Y017223D01*
X040435Y017271D01*
X040467Y017317D01*
X040501Y017361D01*
X040539Y017402D01*
X040579Y017440D01*
X040622Y017475D01*
X040667Y017507D01*
X040715Y017536D01*
X040764Y017562D01*
X040815Y017584D01*
X040867Y017602D01*
X040921Y017616D01*
X040976Y017627D01*
X041031Y017634D01*
X041086Y017637D01*
X041142Y017636D01*
X041197Y017631D01*
X041252Y017622D01*
X041306Y017610D01*
X041359Y017593D01*
X041411Y017573D01*
X041461Y017549D01*
X041509Y017522D01*
X041556Y017492D01*
X041600Y017458D01*
X041642Y017421D01*
X041680Y017381D01*
X041717Y017339D01*
X041750Y017294D01*
X041779Y017248D01*
X041806Y017199D01*
X041828Y017148D01*
X041848Y017096D01*
X041863Y017042D01*
X041875Y016988D01*
X041883Y016933D01*
X041887Y016878D01*
X041887Y016822D01*
X041883Y016767D01*
X041875Y016712D01*
X041863Y016658D01*
X041848Y016604D01*
X041828Y016552D01*
X041806Y016501D01*
X041779Y016452D01*
X041750Y016406D01*
X041717Y016361D01*
X041680Y016319D01*
X041642Y016279D01*
X041600Y016242D01*
X041556Y016208D01*
X041509Y016178D01*
X041461Y016151D01*
X041411Y016127D01*
X041359Y016107D01*
X041306Y016090D01*
X041252Y016078D01*
X041197Y016069D01*
X041142Y016064D01*
X041086Y016063D01*
X041031Y016066D01*
X040976Y016073D01*
X040921Y016084D01*
X040867Y016098D01*
X040815Y016116D01*
X040764Y016138D01*
X040715Y016164D01*
X040667Y016193D01*
X040622Y016225D01*
X040579Y016260D01*
X040539Y016298D01*
X040501Y016339D01*
X040467Y016383D01*
X040435Y016429D01*
X040407Y016477D01*
X040383Y016527D01*
X040362Y016578D01*
X040344Y016631D01*
X040331Y016685D01*
X040321Y016739D01*
X040315Y016794D01*
X040313Y016850D01*
X047813Y016850D02*
X047815Y016906D01*
X047821Y016961D01*
X047831Y017015D01*
X047844Y017069D01*
X047862Y017122D01*
X047883Y017173D01*
X047907Y017223D01*
X047935Y017271D01*
X047967Y017317D01*
X048001Y017361D01*
X048039Y017402D01*
X048079Y017440D01*
X048122Y017475D01*
X048167Y017507D01*
X048215Y017536D01*
X048264Y017562D01*
X048315Y017584D01*
X048367Y017602D01*
X048421Y017616D01*
X048476Y017627D01*
X048531Y017634D01*
X048586Y017637D01*
X048642Y017636D01*
X048697Y017631D01*
X048752Y017622D01*
X048806Y017610D01*
X048859Y017593D01*
X048911Y017573D01*
X048961Y017549D01*
X049009Y017522D01*
X049056Y017492D01*
X049100Y017458D01*
X049142Y017421D01*
X049180Y017381D01*
X049217Y017339D01*
X049250Y017294D01*
X049279Y017248D01*
X049306Y017199D01*
X049328Y017148D01*
X049348Y017096D01*
X049363Y017042D01*
X049375Y016988D01*
X049383Y016933D01*
X049387Y016878D01*
X049387Y016822D01*
X049383Y016767D01*
X049375Y016712D01*
X049363Y016658D01*
X049348Y016604D01*
X049328Y016552D01*
X049306Y016501D01*
X049279Y016452D01*
X049250Y016406D01*
X049217Y016361D01*
X049180Y016319D01*
X049142Y016279D01*
X049100Y016242D01*
X049056Y016208D01*
X049009Y016178D01*
X048961Y016151D01*
X048911Y016127D01*
X048859Y016107D01*
X048806Y016090D01*
X048752Y016078D01*
X048697Y016069D01*
X048642Y016064D01*
X048586Y016063D01*
X048531Y016066D01*
X048476Y016073D01*
X048421Y016084D01*
X048367Y016098D01*
X048315Y016116D01*
X048264Y016138D01*
X048215Y016164D01*
X048167Y016193D01*
X048122Y016225D01*
X048079Y016260D01*
X048039Y016298D01*
X048001Y016339D01*
X047967Y016383D01*
X047935Y016429D01*
X047907Y016477D01*
X047883Y016527D01*
X047862Y016578D01*
X047844Y016631D01*
X047831Y016685D01*
X047821Y016739D01*
X047815Y016794D01*
X047813Y016850D01*
X055313Y016850D02*
X055315Y016906D01*
X055321Y016961D01*
X055331Y017015D01*
X055344Y017069D01*
X055362Y017122D01*
X055383Y017173D01*
X055407Y017223D01*
X055435Y017271D01*
X055467Y017317D01*
X055501Y017361D01*
X055539Y017402D01*
X055579Y017440D01*
X055622Y017475D01*
X055667Y017507D01*
X055715Y017536D01*
X055764Y017562D01*
X055815Y017584D01*
X055867Y017602D01*
X055921Y017616D01*
X055976Y017627D01*
X056031Y017634D01*
X056086Y017637D01*
X056142Y017636D01*
X056197Y017631D01*
X056252Y017622D01*
X056306Y017610D01*
X056359Y017593D01*
X056411Y017573D01*
X056461Y017549D01*
X056509Y017522D01*
X056556Y017492D01*
X056600Y017458D01*
X056642Y017421D01*
X056680Y017381D01*
X056717Y017339D01*
X056750Y017294D01*
X056779Y017248D01*
X056806Y017199D01*
X056828Y017148D01*
X056848Y017096D01*
X056863Y017042D01*
X056875Y016988D01*
X056883Y016933D01*
X056887Y016878D01*
X056887Y016822D01*
X056883Y016767D01*
X056875Y016712D01*
X056863Y016658D01*
X056848Y016604D01*
X056828Y016552D01*
X056806Y016501D01*
X056779Y016452D01*
X056750Y016406D01*
X056717Y016361D01*
X056680Y016319D01*
X056642Y016279D01*
X056600Y016242D01*
X056556Y016208D01*
X056509Y016178D01*
X056461Y016151D01*
X056411Y016127D01*
X056359Y016107D01*
X056306Y016090D01*
X056252Y016078D01*
X056197Y016069D01*
X056142Y016064D01*
X056086Y016063D01*
X056031Y016066D01*
X055976Y016073D01*
X055921Y016084D01*
X055867Y016098D01*
X055815Y016116D01*
X055764Y016138D01*
X055715Y016164D01*
X055667Y016193D01*
X055622Y016225D01*
X055579Y016260D01*
X055539Y016298D01*
X055501Y016339D01*
X055467Y016383D01*
X055435Y016429D01*
X055407Y016477D01*
X055383Y016527D01*
X055362Y016578D01*
X055344Y016631D01*
X055331Y016685D01*
X055321Y016739D01*
X055315Y016794D01*
X055313Y016850D01*
X062813Y016850D02*
X062815Y016906D01*
X062821Y016961D01*
X062831Y017015D01*
X062844Y017069D01*
X062862Y017122D01*
X062883Y017173D01*
X062907Y017223D01*
X062935Y017271D01*
X062967Y017317D01*
X063001Y017361D01*
X063039Y017402D01*
X063079Y017440D01*
X063122Y017475D01*
X063167Y017507D01*
X063215Y017536D01*
X063264Y017562D01*
X063315Y017584D01*
X063367Y017602D01*
X063421Y017616D01*
X063476Y017627D01*
X063531Y017634D01*
X063586Y017637D01*
X063642Y017636D01*
X063697Y017631D01*
X063752Y017622D01*
X063806Y017610D01*
X063859Y017593D01*
X063911Y017573D01*
X063961Y017549D01*
X064009Y017522D01*
X064056Y017492D01*
X064100Y017458D01*
X064142Y017421D01*
X064180Y017381D01*
X064217Y017339D01*
X064250Y017294D01*
X064279Y017248D01*
X064306Y017199D01*
X064328Y017148D01*
X064348Y017096D01*
X064363Y017042D01*
X064375Y016988D01*
X064383Y016933D01*
X064387Y016878D01*
X064387Y016822D01*
X064383Y016767D01*
X064375Y016712D01*
X064363Y016658D01*
X064348Y016604D01*
X064328Y016552D01*
X064306Y016501D01*
X064279Y016452D01*
X064250Y016406D01*
X064217Y016361D01*
X064180Y016319D01*
X064142Y016279D01*
X064100Y016242D01*
X064056Y016208D01*
X064009Y016178D01*
X063961Y016151D01*
X063911Y016127D01*
X063859Y016107D01*
X063806Y016090D01*
X063752Y016078D01*
X063697Y016069D01*
X063642Y016064D01*
X063586Y016063D01*
X063531Y016066D01*
X063476Y016073D01*
X063421Y016084D01*
X063367Y016098D01*
X063315Y016116D01*
X063264Y016138D01*
X063215Y016164D01*
X063167Y016193D01*
X063122Y016225D01*
X063079Y016260D01*
X063039Y016298D01*
X063001Y016339D01*
X062967Y016383D01*
X062935Y016429D01*
X062907Y016477D01*
X062883Y016527D01*
X062862Y016578D01*
X062844Y016631D01*
X062831Y016685D01*
X062821Y016739D01*
X062815Y016794D01*
X062813Y016850D01*
X070313Y016850D02*
X070315Y016906D01*
X070321Y016961D01*
X070331Y017015D01*
X070344Y017069D01*
X070362Y017122D01*
X070383Y017173D01*
X070407Y017223D01*
X070435Y017271D01*
X070467Y017317D01*
X070501Y017361D01*
X070539Y017402D01*
X070579Y017440D01*
X070622Y017475D01*
X070667Y017507D01*
X070715Y017536D01*
X070764Y017562D01*
X070815Y017584D01*
X070867Y017602D01*
X070921Y017616D01*
X070976Y017627D01*
X071031Y017634D01*
X071086Y017637D01*
X071142Y017636D01*
X071197Y017631D01*
X071252Y017622D01*
X071306Y017610D01*
X071359Y017593D01*
X071411Y017573D01*
X071461Y017549D01*
X071509Y017522D01*
X071556Y017492D01*
X071600Y017458D01*
X071642Y017421D01*
X071680Y017381D01*
X071717Y017339D01*
X071750Y017294D01*
X071779Y017248D01*
X071806Y017199D01*
X071828Y017148D01*
X071848Y017096D01*
X071863Y017042D01*
X071875Y016988D01*
X071883Y016933D01*
X071887Y016878D01*
X071887Y016822D01*
X071883Y016767D01*
X071875Y016712D01*
X071863Y016658D01*
X071848Y016604D01*
X071828Y016552D01*
X071806Y016501D01*
X071779Y016452D01*
X071750Y016406D01*
X071717Y016361D01*
X071680Y016319D01*
X071642Y016279D01*
X071600Y016242D01*
X071556Y016208D01*
X071509Y016178D01*
X071461Y016151D01*
X071411Y016127D01*
X071359Y016107D01*
X071306Y016090D01*
X071252Y016078D01*
X071197Y016069D01*
X071142Y016064D01*
X071086Y016063D01*
X071031Y016066D01*
X070976Y016073D01*
X070921Y016084D01*
X070867Y016098D01*
X070815Y016116D01*
X070764Y016138D01*
X070715Y016164D01*
X070667Y016193D01*
X070622Y016225D01*
X070579Y016260D01*
X070539Y016298D01*
X070501Y016339D01*
X070467Y016383D01*
X070435Y016429D01*
X070407Y016477D01*
X070383Y016527D01*
X070362Y016578D01*
X070344Y016631D01*
X070331Y016685D01*
X070321Y016739D01*
X070315Y016794D01*
X070313Y016850D01*
X077813Y016850D02*
X077815Y016906D01*
X077821Y016961D01*
X077831Y017015D01*
X077844Y017069D01*
X077862Y017122D01*
X077883Y017173D01*
X077907Y017223D01*
X077935Y017271D01*
X077967Y017317D01*
X078001Y017361D01*
X078039Y017402D01*
X078079Y017440D01*
X078122Y017475D01*
X078167Y017507D01*
X078215Y017536D01*
X078264Y017562D01*
X078315Y017584D01*
X078367Y017602D01*
X078421Y017616D01*
X078476Y017627D01*
X078531Y017634D01*
X078586Y017637D01*
X078642Y017636D01*
X078697Y017631D01*
X078752Y017622D01*
X078806Y017610D01*
X078859Y017593D01*
X078911Y017573D01*
X078961Y017549D01*
X079009Y017522D01*
X079056Y017492D01*
X079100Y017458D01*
X079142Y017421D01*
X079180Y017381D01*
X079217Y017339D01*
X079250Y017294D01*
X079279Y017248D01*
X079306Y017199D01*
X079328Y017148D01*
X079348Y017096D01*
X079363Y017042D01*
X079375Y016988D01*
X079383Y016933D01*
X079387Y016878D01*
X079387Y016822D01*
X079383Y016767D01*
X079375Y016712D01*
X079363Y016658D01*
X079348Y016604D01*
X079328Y016552D01*
X079306Y016501D01*
X079279Y016452D01*
X079250Y016406D01*
X079217Y016361D01*
X079180Y016319D01*
X079142Y016279D01*
X079100Y016242D01*
X079056Y016208D01*
X079009Y016178D01*
X078961Y016151D01*
X078911Y016127D01*
X078859Y016107D01*
X078806Y016090D01*
X078752Y016078D01*
X078697Y016069D01*
X078642Y016064D01*
X078586Y016063D01*
X078531Y016066D01*
X078476Y016073D01*
X078421Y016084D01*
X078367Y016098D01*
X078315Y016116D01*
X078264Y016138D01*
X078215Y016164D01*
X078167Y016193D01*
X078122Y016225D01*
X078079Y016260D01*
X078039Y016298D01*
X078001Y016339D01*
X077967Y016383D01*
X077935Y016429D01*
X077907Y016477D01*
X077883Y016527D01*
X077862Y016578D01*
X077844Y016631D01*
X077831Y016685D01*
X077821Y016739D01*
X077815Y016794D01*
X077813Y016850D01*
X085313Y016850D02*
X085315Y016906D01*
X085321Y016961D01*
X085331Y017015D01*
X085344Y017069D01*
X085362Y017122D01*
X085383Y017173D01*
X085407Y017223D01*
X085435Y017271D01*
X085467Y017317D01*
X085501Y017361D01*
X085539Y017402D01*
X085579Y017440D01*
X085622Y017475D01*
X085667Y017507D01*
X085715Y017536D01*
X085764Y017562D01*
X085815Y017584D01*
X085867Y017602D01*
X085921Y017616D01*
X085976Y017627D01*
X086031Y017634D01*
X086086Y017637D01*
X086142Y017636D01*
X086197Y017631D01*
X086252Y017622D01*
X086306Y017610D01*
X086359Y017593D01*
X086411Y017573D01*
X086461Y017549D01*
X086509Y017522D01*
X086556Y017492D01*
X086600Y017458D01*
X086642Y017421D01*
X086680Y017381D01*
X086717Y017339D01*
X086750Y017294D01*
X086779Y017248D01*
X086806Y017199D01*
X086828Y017148D01*
X086848Y017096D01*
X086863Y017042D01*
X086875Y016988D01*
X086883Y016933D01*
X086887Y016878D01*
X086887Y016822D01*
X086883Y016767D01*
X086875Y016712D01*
X086863Y016658D01*
X086848Y016604D01*
X086828Y016552D01*
X086806Y016501D01*
X086779Y016452D01*
X086750Y016406D01*
X086717Y016361D01*
X086680Y016319D01*
X086642Y016279D01*
X086600Y016242D01*
X086556Y016208D01*
X086509Y016178D01*
X086461Y016151D01*
X086411Y016127D01*
X086359Y016107D01*
X086306Y016090D01*
X086252Y016078D01*
X086197Y016069D01*
X086142Y016064D01*
X086086Y016063D01*
X086031Y016066D01*
X085976Y016073D01*
X085921Y016084D01*
X085867Y016098D01*
X085815Y016116D01*
X085764Y016138D01*
X085715Y016164D01*
X085667Y016193D01*
X085622Y016225D01*
X085579Y016260D01*
X085539Y016298D01*
X085501Y016339D01*
X085467Y016383D01*
X085435Y016429D01*
X085407Y016477D01*
X085383Y016527D01*
X085362Y016578D01*
X085344Y016631D01*
X085331Y016685D01*
X085321Y016739D01*
X085315Y016794D01*
X085313Y016850D01*
X096563Y016850D02*
X096565Y016906D01*
X096571Y016961D01*
X096581Y017015D01*
X096594Y017069D01*
X096612Y017122D01*
X096633Y017173D01*
X096657Y017223D01*
X096685Y017271D01*
X096717Y017317D01*
X096751Y017361D01*
X096789Y017402D01*
X096829Y017440D01*
X096872Y017475D01*
X096917Y017507D01*
X096965Y017536D01*
X097014Y017562D01*
X097065Y017584D01*
X097117Y017602D01*
X097171Y017616D01*
X097226Y017627D01*
X097281Y017634D01*
X097336Y017637D01*
X097392Y017636D01*
X097447Y017631D01*
X097502Y017622D01*
X097556Y017610D01*
X097609Y017593D01*
X097661Y017573D01*
X097711Y017549D01*
X097759Y017522D01*
X097806Y017492D01*
X097850Y017458D01*
X097892Y017421D01*
X097930Y017381D01*
X097967Y017339D01*
X098000Y017294D01*
X098029Y017248D01*
X098056Y017199D01*
X098078Y017148D01*
X098098Y017096D01*
X098113Y017042D01*
X098125Y016988D01*
X098133Y016933D01*
X098137Y016878D01*
X098137Y016822D01*
X098133Y016767D01*
X098125Y016712D01*
X098113Y016658D01*
X098098Y016604D01*
X098078Y016552D01*
X098056Y016501D01*
X098029Y016452D01*
X098000Y016406D01*
X097967Y016361D01*
X097930Y016319D01*
X097892Y016279D01*
X097850Y016242D01*
X097806Y016208D01*
X097759Y016178D01*
X097711Y016151D01*
X097661Y016127D01*
X097609Y016107D01*
X097556Y016090D01*
X097502Y016078D01*
X097447Y016069D01*
X097392Y016064D01*
X097336Y016063D01*
X097281Y016066D01*
X097226Y016073D01*
X097171Y016084D01*
X097117Y016098D01*
X097065Y016116D01*
X097014Y016138D01*
X096965Y016164D01*
X096917Y016193D01*
X096872Y016225D01*
X096829Y016260D01*
X096789Y016298D01*
X096751Y016339D01*
X096717Y016383D01*
X096685Y016429D01*
X096657Y016477D01*
X096633Y016527D01*
X096612Y016578D01*
X096594Y016631D01*
X096581Y016685D01*
X096571Y016739D01*
X096565Y016794D01*
X096563Y016850D01*
X094376Y009350D02*
X094378Y009406D01*
X094384Y009461D01*
X094394Y009515D01*
X094407Y009569D01*
X094425Y009622D01*
X094446Y009673D01*
X094470Y009723D01*
X094498Y009771D01*
X094530Y009817D01*
X094564Y009861D01*
X094602Y009902D01*
X094642Y009940D01*
X094685Y009975D01*
X094730Y010007D01*
X094778Y010036D01*
X094827Y010062D01*
X094878Y010084D01*
X094930Y010102D01*
X094984Y010116D01*
X095039Y010127D01*
X095094Y010134D01*
X095149Y010137D01*
X095205Y010136D01*
X095260Y010131D01*
X095315Y010122D01*
X095369Y010110D01*
X095422Y010093D01*
X095474Y010073D01*
X095524Y010049D01*
X095572Y010022D01*
X095619Y009992D01*
X095663Y009958D01*
X095705Y009921D01*
X095743Y009881D01*
X095780Y009839D01*
X095813Y009794D01*
X095842Y009748D01*
X095869Y009699D01*
X095891Y009648D01*
X095911Y009596D01*
X095926Y009542D01*
X095938Y009488D01*
X095946Y009433D01*
X095950Y009378D01*
X095950Y009322D01*
X095946Y009267D01*
X095938Y009212D01*
X095926Y009158D01*
X095911Y009104D01*
X095891Y009052D01*
X095869Y009001D01*
X095842Y008952D01*
X095813Y008906D01*
X095780Y008861D01*
X095743Y008819D01*
X095705Y008779D01*
X095663Y008742D01*
X095619Y008708D01*
X095572Y008678D01*
X095524Y008651D01*
X095474Y008627D01*
X095422Y008607D01*
X095369Y008590D01*
X095315Y008578D01*
X095260Y008569D01*
X095205Y008564D01*
X095149Y008563D01*
X095094Y008566D01*
X095039Y008573D01*
X094984Y008584D01*
X094930Y008598D01*
X094878Y008616D01*
X094827Y008638D01*
X094778Y008664D01*
X094730Y008693D01*
X094685Y008725D01*
X094642Y008760D01*
X094602Y008798D01*
X094564Y008839D01*
X094530Y008883D01*
X094498Y008929D01*
X094470Y008977D01*
X094446Y009027D01*
X094425Y009078D01*
X094407Y009131D01*
X094394Y009185D01*
X094384Y009239D01*
X094378Y009294D01*
X094376Y009350D01*
X086876Y009350D02*
X086878Y009406D01*
X086884Y009461D01*
X086894Y009515D01*
X086907Y009569D01*
X086925Y009622D01*
X086946Y009673D01*
X086970Y009723D01*
X086998Y009771D01*
X087030Y009817D01*
X087064Y009861D01*
X087102Y009902D01*
X087142Y009940D01*
X087185Y009975D01*
X087230Y010007D01*
X087278Y010036D01*
X087327Y010062D01*
X087378Y010084D01*
X087430Y010102D01*
X087484Y010116D01*
X087539Y010127D01*
X087594Y010134D01*
X087649Y010137D01*
X087705Y010136D01*
X087760Y010131D01*
X087815Y010122D01*
X087869Y010110D01*
X087922Y010093D01*
X087974Y010073D01*
X088024Y010049D01*
X088072Y010022D01*
X088119Y009992D01*
X088163Y009958D01*
X088205Y009921D01*
X088243Y009881D01*
X088280Y009839D01*
X088313Y009794D01*
X088342Y009748D01*
X088369Y009699D01*
X088391Y009648D01*
X088411Y009596D01*
X088426Y009542D01*
X088438Y009488D01*
X088446Y009433D01*
X088450Y009378D01*
X088450Y009322D01*
X088446Y009267D01*
X088438Y009212D01*
X088426Y009158D01*
X088411Y009104D01*
X088391Y009052D01*
X088369Y009001D01*
X088342Y008952D01*
X088313Y008906D01*
X088280Y008861D01*
X088243Y008819D01*
X088205Y008779D01*
X088163Y008742D01*
X088119Y008708D01*
X088072Y008678D01*
X088024Y008651D01*
X087974Y008627D01*
X087922Y008607D01*
X087869Y008590D01*
X087815Y008578D01*
X087760Y008569D01*
X087705Y008564D01*
X087649Y008563D01*
X087594Y008566D01*
X087539Y008573D01*
X087484Y008584D01*
X087430Y008598D01*
X087378Y008616D01*
X087327Y008638D01*
X087278Y008664D01*
X087230Y008693D01*
X087185Y008725D01*
X087142Y008760D01*
X087102Y008798D01*
X087064Y008839D01*
X087030Y008883D01*
X086998Y008929D01*
X086970Y008977D01*
X086946Y009027D01*
X086925Y009078D01*
X086907Y009131D01*
X086894Y009185D01*
X086884Y009239D01*
X086878Y009294D01*
X086876Y009350D01*
X079376Y009350D02*
X079378Y009406D01*
X079384Y009461D01*
X079394Y009515D01*
X079407Y009569D01*
X079425Y009622D01*
X079446Y009673D01*
X079470Y009723D01*
X079498Y009771D01*
X079530Y009817D01*
X079564Y009861D01*
X079602Y009902D01*
X079642Y009940D01*
X079685Y009975D01*
X079730Y010007D01*
X079778Y010036D01*
X079827Y010062D01*
X079878Y010084D01*
X079930Y010102D01*
X079984Y010116D01*
X080039Y010127D01*
X080094Y010134D01*
X080149Y010137D01*
X080205Y010136D01*
X080260Y010131D01*
X080315Y010122D01*
X080369Y010110D01*
X080422Y010093D01*
X080474Y010073D01*
X080524Y010049D01*
X080572Y010022D01*
X080619Y009992D01*
X080663Y009958D01*
X080705Y009921D01*
X080743Y009881D01*
X080780Y009839D01*
X080813Y009794D01*
X080842Y009748D01*
X080869Y009699D01*
X080891Y009648D01*
X080911Y009596D01*
X080926Y009542D01*
X080938Y009488D01*
X080946Y009433D01*
X080950Y009378D01*
X080950Y009322D01*
X080946Y009267D01*
X080938Y009212D01*
X080926Y009158D01*
X080911Y009104D01*
X080891Y009052D01*
X080869Y009001D01*
X080842Y008952D01*
X080813Y008906D01*
X080780Y008861D01*
X080743Y008819D01*
X080705Y008779D01*
X080663Y008742D01*
X080619Y008708D01*
X080572Y008678D01*
X080524Y008651D01*
X080474Y008627D01*
X080422Y008607D01*
X080369Y008590D01*
X080315Y008578D01*
X080260Y008569D01*
X080205Y008564D01*
X080149Y008563D01*
X080094Y008566D01*
X080039Y008573D01*
X079984Y008584D01*
X079930Y008598D01*
X079878Y008616D01*
X079827Y008638D01*
X079778Y008664D01*
X079730Y008693D01*
X079685Y008725D01*
X079642Y008760D01*
X079602Y008798D01*
X079564Y008839D01*
X079530Y008883D01*
X079498Y008929D01*
X079470Y008977D01*
X079446Y009027D01*
X079425Y009078D01*
X079407Y009131D01*
X079394Y009185D01*
X079384Y009239D01*
X079378Y009294D01*
X079376Y009350D01*
X067608Y007100D02*
X067610Y007144D01*
X067616Y007188D01*
X067626Y007231D01*
X067639Y007273D01*
X067657Y007313D01*
X067678Y007352D01*
X067702Y007389D01*
X067729Y007424D01*
X067760Y007456D01*
X067793Y007485D01*
X067829Y007511D01*
X067867Y007533D01*
X067907Y007552D01*
X067948Y007568D01*
X067991Y007580D01*
X068034Y007588D01*
X068078Y007592D01*
X068122Y007592D01*
X068166Y007588D01*
X068209Y007580D01*
X068252Y007568D01*
X068293Y007552D01*
X068333Y007533D01*
X068371Y007511D01*
X068407Y007485D01*
X068440Y007456D01*
X068471Y007424D01*
X068498Y007389D01*
X068522Y007352D01*
X068543Y007313D01*
X068561Y007273D01*
X068574Y007231D01*
X068584Y007188D01*
X068590Y007144D01*
X068592Y007100D01*
X068590Y007056D01*
X068584Y007012D01*
X068574Y006969D01*
X068561Y006927D01*
X068543Y006887D01*
X068522Y006848D01*
X068498Y006811D01*
X068471Y006776D01*
X068440Y006744D01*
X068407Y006715D01*
X068371Y006689D01*
X068333Y006667D01*
X068293Y006648D01*
X068252Y006632D01*
X068209Y006620D01*
X068166Y006612D01*
X068122Y006608D01*
X068078Y006608D01*
X068034Y006612D01*
X067991Y006620D01*
X067948Y006632D01*
X067907Y006648D01*
X067867Y006667D01*
X067829Y006689D01*
X067793Y006715D01*
X067760Y006744D01*
X067729Y006776D01*
X067702Y006811D01*
X067678Y006848D01*
X067657Y006887D01*
X067639Y006927D01*
X067626Y006969D01*
X067616Y007012D01*
X067610Y007056D01*
X067608Y007100D01*
X067608Y011600D02*
X067610Y011644D01*
X067616Y011688D01*
X067626Y011731D01*
X067639Y011773D01*
X067657Y011813D01*
X067678Y011852D01*
X067702Y011889D01*
X067729Y011924D01*
X067760Y011956D01*
X067793Y011985D01*
X067829Y012011D01*
X067867Y012033D01*
X067907Y012052D01*
X067948Y012068D01*
X067991Y012080D01*
X068034Y012088D01*
X068078Y012092D01*
X068122Y012092D01*
X068166Y012088D01*
X068209Y012080D01*
X068252Y012068D01*
X068293Y012052D01*
X068333Y012033D01*
X068371Y012011D01*
X068407Y011985D01*
X068440Y011956D01*
X068471Y011924D01*
X068498Y011889D01*
X068522Y011852D01*
X068543Y011813D01*
X068561Y011773D01*
X068574Y011731D01*
X068584Y011688D01*
X068590Y011644D01*
X068592Y011600D01*
X068590Y011556D01*
X068584Y011512D01*
X068574Y011469D01*
X068561Y011427D01*
X068543Y011387D01*
X068522Y011348D01*
X068498Y011311D01*
X068471Y011276D01*
X068440Y011244D01*
X068407Y011215D01*
X068371Y011189D01*
X068333Y011167D01*
X068293Y011148D01*
X068252Y011132D01*
X068209Y011120D01*
X068166Y011112D01*
X068122Y011108D01*
X068078Y011108D01*
X068034Y011112D01*
X067991Y011120D01*
X067948Y011132D01*
X067907Y011148D01*
X067867Y011167D01*
X067829Y011189D01*
X067793Y011215D01*
X067760Y011244D01*
X067729Y011276D01*
X067702Y011311D01*
X067678Y011348D01*
X067657Y011387D01*
X067639Y011427D01*
X067626Y011469D01*
X067616Y011512D01*
X067610Y011556D01*
X067608Y011600D01*
X052563Y009350D02*
X052565Y009406D01*
X052571Y009461D01*
X052581Y009515D01*
X052594Y009569D01*
X052612Y009622D01*
X052633Y009673D01*
X052657Y009723D01*
X052685Y009771D01*
X052717Y009817D01*
X052751Y009861D01*
X052789Y009902D01*
X052829Y009940D01*
X052872Y009975D01*
X052917Y010007D01*
X052965Y010036D01*
X053014Y010062D01*
X053065Y010084D01*
X053117Y010102D01*
X053171Y010116D01*
X053226Y010127D01*
X053281Y010134D01*
X053336Y010137D01*
X053392Y010136D01*
X053447Y010131D01*
X053502Y010122D01*
X053556Y010110D01*
X053609Y010093D01*
X053661Y010073D01*
X053711Y010049D01*
X053759Y010022D01*
X053806Y009992D01*
X053850Y009958D01*
X053892Y009921D01*
X053930Y009881D01*
X053967Y009839D01*
X054000Y009794D01*
X054029Y009748D01*
X054056Y009699D01*
X054078Y009648D01*
X054098Y009596D01*
X054113Y009542D01*
X054125Y009488D01*
X054133Y009433D01*
X054137Y009378D01*
X054137Y009322D01*
X054133Y009267D01*
X054125Y009212D01*
X054113Y009158D01*
X054098Y009104D01*
X054078Y009052D01*
X054056Y009001D01*
X054029Y008952D01*
X054000Y008906D01*
X053967Y008861D01*
X053930Y008819D01*
X053892Y008779D01*
X053850Y008742D01*
X053806Y008708D01*
X053759Y008678D01*
X053711Y008651D01*
X053661Y008627D01*
X053609Y008607D01*
X053556Y008590D01*
X053502Y008578D01*
X053447Y008569D01*
X053392Y008564D01*
X053336Y008563D01*
X053281Y008566D01*
X053226Y008573D01*
X053171Y008584D01*
X053117Y008598D01*
X053065Y008616D01*
X053014Y008638D01*
X052965Y008664D01*
X052917Y008693D01*
X052872Y008725D01*
X052829Y008760D01*
X052789Y008798D01*
X052751Y008839D01*
X052717Y008883D01*
X052685Y008929D01*
X052657Y008977D01*
X052633Y009027D01*
X052612Y009078D01*
X052594Y009131D01*
X052581Y009185D01*
X052571Y009239D01*
X052565Y009294D01*
X052563Y009350D01*
X053063Y002600D02*
X053065Y002656D01*
X053071Y002711D01*
X053081Y002765D01*
X053094Y002819D01*
X053112Y002872D01*
X053133Y002923D01*
X053157Y002973D01*
X053185Y003021D01*
X053217Y003067D01*
X053251Y003111D01*
X053289Y003152D01*
X053329Y003190D01*
X053372Y003225D01*
X053417Y003257D01*
X053465Y003286D01*
X053514Y003312D01*
X053565Y003334D01*
X053617Y003352D01*
X053671Y003366D01*
X053726Y003377D01*
X053781Y003384D01*
X053836Y003387D01*
X053892Y003386D01*
X053947Y003381D01*
X054002Y003372D01*
X054056Y003360D01*
X054109Y003343D01*
X054161Y003323D01*
X054211Y003299D01*
X054259Y003272D01*
X054306Y003242D01*
X054350Y003208D01*
X054392Y003171D01*
X054430Y003131D01*
X054467Y003089D01*
X054500Y003044D01*
X054529Y002998D01*
X054556Y002949D01*
X054578Y002898D01*
X054598Y002846D01*
X054613Y002792D01*
X054625Y002738D01*
X054633Y002683D01*
X054637Y002628D01*
X054637Y002572D01*
X054633Y002517D01*
X054625Y002462D01*
X054613Y002408D01*
X054598Y002354D01*
X054578Y002302D01*
X054556Y002251D01*
X054529Y002202D01*
X054500Y002156D01*
X054467Y002111D01*
X054430Y002069D01*
X054392Y002029D01*
X054350Y001992D01*
X054306Y001958D01*
X054259Y001928D01*
X054211Y001901D01*
X054161Y001877D01*
X054109Y001857D01*
X054056Y001840D01*
X054002Y001828D01*
X053947Y001819D01*
X053892Y001814D01*
X053836Y001813D01*
X053781Y001816D01*
X053726Y001823D01*
X053671Y001834D01*
X053617Y001848D01*
X053565Y001866D01*
X053514Y001888D01*
X053465Y001914D01*
X053417Y001943D01*
X053372Y001975D01*
X053329Y002010D01*
X053289Y002048D01*
X053251Y002089D01*
X053217Y002133D01*
X053185Y002179D01*
X053157Y002227D01*
X053133Y002277D01*
X053112Y002328D01*
X053094Y002381D01*
X053081Y002435D01*
X053071Y002489D01*
X053065Y002544D01*
X053063Y002600D01*
X104313Y002600D02*
X104315Y002656D01*
X104321Y002711D01*
X104331Y002765D01*
X104344Y002819D01*
X104362Y002872D01*
X104383Y002923D01*
X104407Y002973D01*
X104435Y003021D01*
X104467Y003067D01*
X104501Y003111D01*
X104539Y003152D01*
X104579Y003190D01*
X104622Y003225D01*
X104667Y003257D01*
X104715Y003286D01*
X104764Y003312D01*
X104815Y003334D01*
X104867Y003352D01*
X104921Y003366D01*
X104976Y003377D01*
X105031Y003384D01*
X105086Y003387D01*
X105142Y003386D01*
X105197Y003381D01*
X105252Y003372D01*
X105306Y003360D01*
X105359Y003343D01*
X105411Y003323D01*
X105461Y003299D01*
X105509Y003272D01*
X105556Y003242D01*
X105600Y003208D01*
X105642Y003171D01*
X105680Y003131D01*
X105717Y003089D01*
X105750Y003044D01*
X105779Y002998D01*
X105806Y002949D01*
X105828Y002898D01*
X105848Y002846D01*
X105863Y002792D01*
X105875Y002738D01*
X105883Y002683D01*
X105887Y002628D01*
X105887Y002572D01*
X105883Y002517D01*
X105875Y002462D01*
X105863Y002408D01*
X105848Y002354D01*
X105828Y002302D01*
X105806Y002251D01*
X105779Y002202D01*
X105750Y002156D01*
X105717Y002111D01*
X105680Y002069D01*
X105642Y002029D01*
X105600Y001992D01*
X105556Y001958D01*
X105509Y001928D01*
X105461Y001901D01*
X105411Y001877D01*
X105359Y001857D01*
X105306Y001840D01*
X105252Y001828D01*
X105197Y001819D01*
X105142Y001814D01*
X105086Y001813D01*
X105031Y001816D01*
X104976Y001823D01*
X104921Y001834D01*
X104867Y001848D01*
X104815Y001866D01*
X104764Y001888D01*
X104715Y001914D01*
X104667Y001943D01*
X104622Y001975D01*
X104579Y002010D01*
X104539Y002048D01*
X104501Y002089D01*
X104467Y002133D01*
X104435Y002179D01*
X104407Y002227D01*
X104383Y002277D01*
X104362Y002328D01*
X104344Y002381D01*
X104331Y002435D01*
X104321Y002489D01*
X104315Y002544D01*
X104313Y002600D01*
D11*
X041711Y050635D02*
X041579Y050635D01*
X041579Y050767D01*
X041711Y050767D01*
X041711Y050635D01*
X041314Y050635D02*
X041314Y051030D01*
X041183Y051162D01*
X040787Y051162D01*
X040787Y050635D01*
X040522Y050635D02*
X040522Y051030D01*
X040391Y051162D01*
X039995Y051162D01*
X039995Y050635D01*
X039731Y050635D02*
X039731Y051162D01*
X039731Y050635D02*
X039335Y050635D01*
X039203Y050767D01*
X039203Y051162D01*
X038939Y051030D02*
X038675Y051030D01*
X038939Y051030D02*
X038939Y050767D01*
X038807Y050635D01*
X038543Y050635D01*
X038412Y050767D01*
X038412Y051294D01*
X038543Y051426D01*
X038807Y051426D01*
X038939Y051294D01*
X037355Y051162D02*
X037223Y051162D01*
X036960Y050899D01*
X036960Y051162D02*
X036960Y050635D01*
X036695Y050899D02*
X036168Y050899D01*
X036168Y051030D02*
X036300Y051162D01*
X036563Y051162D01*
X036695Y051030D01*
X036695Y050899D01*
X036563Y050635D02*
X036300Y050635D01*
X036168Y050767D01*
X036168Y051030D01*
X035904Y051030D02*
X035640Y051030D01*
X035772Y051294D02*
X035904Y051426D01*
X035772Y051294D02*
X035772Y050635D01*
X035376Y050635D02*
X035112Y050635D01*
X035244Y050635D02*
X035244Y051162D01*
X035112Y051162D01*
X035244Y051426D02*
X035244Y051557D01*
X034847Y051030D02*
X034847Y050635D01*
X034847Y051030D02*
X034716Y051162D01*
X034320Y051162D01*
X034320Y050635D01*
X034055Y050635D02*
X034055Y051030D01*
X033924Y051162D01*
X033528Y051162D01*
X033528Y050635D01*
X033264Y050899D02*
X032736Y050899D01*
X032736Y051030D02*
X032868Y051162D01*
X033132Y051162D01*
X033264Y051030D01*
X033264Y050899D01*
X033132Y050635D02*
X032868Y050635D01*
X032736Y050767D01*
X032736Y051030D01*
X032340Y050767D02*
X032208Y050635D01*
X032076Y050635D01*
X031945Y050767D01*
X032340Y050767D02*
X032340Y051426D01*
X032208Y051426D02*
X032472Y051426D01*
X030888Y051162D02*
X030888Y050503D01*
X030756Y050371D01*
X030624Y050371D01*
X030493Y050635D02*
X030888Y050635D01*
X030493Y050635D02*
X030361Y050767D01*
X030361Y051162D01*
X030096Y051162D02*
X029964Y051030D01*
X029569Y051030D01*
X029569Y050635D02*
X029964Y050635D01*
X030096Y050767D01*
X030096Y050899D01*
X029964Y051030D01*
X030096Y051162D02*
X030096Y051294D01*
X029964Y051426D01*
X029569Y051426D01*
X029569Y050635D01*
X028512Y050767D02*
X028512Y051294D01*
X028381Y051426D01*
X027985Y051426D01*
X027985Y050635D01*
X028381Y050635D01*
X028512Y050767D01*
X027720Y050635D02*
X027193Y050635D01*
X027193Y051426D01*
X027720Y051426D01*
X027457Y051030D02*
X027193Y051030D01*
X026929Y050635D02*
X026401Y050635D01*
X026401Y051426D01*
X026401Y051925D02*
X026533Y051925D01*
X026533Y052057D01*
X026401Y052057D01*
X026401Y051925D01*
X026137Y051925D02*
X025610Y051925D01*
X025873Y051925D02*
X025873Y052716D01*
X025610Y052452D01*
X024553Y052320D02*
X024553Y051925D01*
X024553Y052320D02*
X024421Y052452D01*
X024026Y052452D01*
X024026Y051925D01*
X023761Y052057D02*
X023761Y052320D01*
X023629Y052452D01*
X023366Y052452D01*
X023234Y052320D01*
X023234Y052057D01*
X023366Y051925D01*
X023629Y051925D01*
X023761Y052057D01*
X022970Y051925D02*
X022706Y051925D01*
X022838Y051925D02*
X022838Y052452D01*
X022706Y052452D01*
X022441Y052452D02*
X022046Y052452D01*
X021914Y052320D01*
X022046Y052189D01*
X022310Y052189D01*
X022441Y052057D01*
X022310Y051925D01*
X021914Y051925D01*
X021650Y051925D02*
X021386Y051925D01*
X021518Y051925D02*
X021518Y052452D01*
X021386Y052452D01*
X021121Y052452D02*
X020858Y051925D01*
X020594Y052452D01*
X020330Y052320D02*
X020330Y052189D01*
X019803Y052189D01*
X019803Y052320D02*
X019934Y052452D01*
X020198Y052452D01*
X020330Y052320D01*
X020198Y051925D02*
X019934Y051925D01*
X019803Y052057D01*
X019803Y052320D01*
X019538Y052320D02*
X019406Y052189D01*
X019011Y052189D01*
X019274Y052189D02*
X019538Y051925D01*
X019538Y052320D02*
X019538Y052584D01*
X019406Y052716D01*
X019011Y052716D01*
X019011Y051925D01*
X018483Y051426D02*
X018483Y050635D01*
X018218Y050635D02*
X018087Y050767D01*
X018087Y051294D01*
X018218Y051162D02*
X017955Y051162D01*
X017559Y051162D02*
X017559Y050635D01*
X017690Y050635D02*
X017427Y050635D01*
X017162Y050635D02*
X016899Y050899D01*
X016635Y050635D01*
X016635Y051426D01*
X016635Y051925D02*
X016635Y052716D01*
X016767Y052320D02*
X017162Y051925D01*
X017427Y051925D02*
X017427Y052716D01*
X017822Y052716D01*
X017954Y052584D01*
X017954Y052452D01*
X017822Y052320D01*
X017427Y052320D01*
X017427Y051925D02*
X017822Y051925D01*
X017954Y052057D01*
X017954Y052189D01*
X017822Y052320D01*
X017162Y052716D02*
X016635Y052189D01*
X017162Y051426D02*
X017162Y050635D01*
X017427Y051162D02*
X017559Y051162D01*
X017559Y051426D02*
X017559Y051557D01*
X018483Y051030D02*
X018614Y051162D01*
X018878Y051162D01*
X019010Y051030D01*
X019010Y050635D01*
X020066Y050767D02*
X020066Y051030D01*
X020198Y051162D01*
X020462Y051162D01*
X020594Y051030D01*
X020594Y050767D01*
X020462Y050635D01*
X020198Y050635D01*
X020066Y050767D01*
X020858Y050635D02*
X021254Y050635D01*
X021385Y050767D01*
X021385Y051030D01*
X021254Y051162D01*
X020858Y051162D01*
X020858Y050371D01*
X021782Y050767D02*
X021782Y051294D01*
X021650Y051162D02*
X021914Y051162D01*
X022178Y051162D02*
X022310Y051162D01*
X022310Y050635D01*
X022178Y050635D02*
X022442Y050635D01*
X022706Y050767D02*
X022706Y051030D01*
X022838Y051162D01*
X023101Y051162D01*
X023233Y051030D01*
X023233Y050767D01*
X023101Y050635D01*
X022838Y050635D01*
X022706Y050767D01*
X023498Y050635D02*
X023498Y051162D01*
X023893Y051162D01*
X024025Y051030D01*
X024025Y050635D01*
X024290Y050767D02*
X024422Y050899D01*
X024817Y050899D01*
X024817Y051030D02*
X024817Y050635D01*
X024422Y050635D01*
X024290Y050767D01*
X024422Y051162D02*
X024685Y051162D01*
X024817Y051030D01*
X025082Y050635D02*
X025345Y050635D01*
X025213Y050635D02*
X025213Y051426D01*
X025082Y051426D01*
X026797Y052057D02*
X026929Y051925D01*
X027193Y051925D01*
X027325Y052057D01*
X027325Y052189D01*
X027193Y052320D01*
X027061Y052320D01*
X027193Y052320D02*
X027325Y052452D01*
X027325Y052584D01*
X027193Y052716D01*
X026929Y052716D01*
X026797Y052584D01*
X027589Y052320D02*
X027589Y052057D01*
X027721Y051925D01*
X028116Y051925D01*
X028116Y052452D02*
X027721Y052452D01*
X027589Y052320D01*
X022838Y052716D02*
X022838Y052847D01*
X021518Y052847D02*
X021518Y052716D01*
X022310Y051557D02*
X022310Y051426D01*
X021782Y050767D02*
X021914Y050635D01*
D12*
X084850Y049750D02*
X084850Y049000D01*
X084889Y048998D01*
X084928Y048992D01*
X084966Y048983D01*
X085003Y048970D01*
X085039Y048953D01*
X085072Y048933D01*
X085104Y048909D01*
X085133Y048883D01*
X085159Y048854D01*
X085183Y048822D01*
X085203Y048789D01*
X085220Y048753D01*
X085233Y048716D01*
X085242Y048678D01*
X085248Y048639D01*
X085250Y048600D01*
X085248Y048561D01*
X085242Y048522D01*
X085233Y048484D01*
X085220Y048447D01*
X085203Y048411D01*
X085183Y048378D01*
X085159Y048346D01*
X085133Y048317D01*
X085104Y048291D01*
X085072Y048267D01*
X085039Y048247D01*
X085003Y048230D01*
X084966Y048217D01*
X084928Y048208D01*
X084889Y048202D01*
X084850Y048200D01*
X084850Y047450D01*
X092850Y047450D01*
X092850Y049750D01*
X084850Y049750D01*
X097200Y049300D02*
X097350Y049300D01*
X097400Y049250D01*
X099300Y049250D01*
X099350Y049300D01*
X099500Y049300D01*
X099517Y049298D01*
X099534Y049294D01*
X099550Y049287D01*
X099564Y049277D01*
X099577Y049264D01*
X099587Y049250D01*
X099594Y049234D01*
X099598Y049217D01*
X099600Y049200D01*
X099600Y048500D02*
X099598Y048483D01*
X099594Y048466D01*
X099587Y048450D01*
X099577Y048436D01*
X099564Y048423D01*
X099550Y048413D01*
X099534Y048406D01*
X099517Y048402D01*
X099500Y048400D01*
X099350Y048400D01*
X099300Y048450D01*
X097400Y048450D01*
X097350Y048400D01*
X097200Y048400D01*
X097183Y048402D01*
X097166Y048406D01*
X097150Y048413D01*
X097136Y048423D01*
X097123Y048436D01*
X097113Y048450D01*
X097106Y048466D01*
X097102Y048483D01*
X097100Y048500D01*
X097100Y049200D02*
X097102Y049217D01*
X097106Y049234D01*
X097113Y049250D01*
X097123Y049264D01*
X097136Y049277D01*
X097150Y049287D01*
X097166Y049294D01*
X097183Y049298D01*
X097200Y049300D01*
X099225Y047450D02*
X099270Y047448D01*
X099316Y047443D01*
X099360Y047435D01*
X099404Y047423D01*
X099447Y047407D01*
X099489Y047389D01*
X099529Y047367D01*
X099567Y047343D01*
X099603Y047316D01*
X099638Y047286D01*
X099669Y047253D01*
X099699Y047218D01*
X099225Y046250D02*
X099178Y046252D01*
X099130Y046258D01*
X099084Y046267D01*
X099038Y046280D01*
X098994Y046296D01*
X098950Y046317D01*
X098909Y046340D01*
X098870Y046366D01*
X098833Y046396D01*
X098798Y046429D01*
X098766Y046464D01*
X098737Y046501D01*
X099225Y046250D02*
X099271Y046252D01*
X099317Y046257D01*
X099363Y046266D01*
X099408Y046278D01*
X099451Y046294D01*
X099493Y046313D01*
X099534Y046336D01*
X099573Y046361D01*
X099609Y046389D01*
X099644Y046420D01*
X099676Y046454D01*
X099705Y046490D01*
X099225Y047450D02*
X099180Y047448D01*
X099134Y047443D01*
X099090Y047435D01*
X099046Y047423D01*
X099003Y047407D01*
X098961Y047389D01*
X098921Y047367D01*
X098883Y047343D01*
X098847Y047316D01*
X098812Y047286D01*
X098781Y047253D01*
X098751Y047218D01*
D13*
X100500Y047175D02*
X100500Y046725D01*
X100500Y046875D02*
X100725Y046875D01*
X100800Y046950D01*
X100800Y047100D01*
X100725Y047175D01*
X100500Y047175D01*
X100960Y046950D02*
X101261Y046950D01*
X101421Y047175D02*
X101421Y046725D01*
X101721Y046725D01*
X101881Y046725D02*
X102181Y046725D01*
X102342Y046725D02*
X102342Y047175D01*
X102567Y047175D01*
X102642Y047100D01*
X102642Y046800D01*
X102567Y046725D01*
X102342Y046725D01*
X102031Y046950D02*
X101881Y046950D01*
X101881Y047175D02*
X101881Y046725D01*
X101881Y047175D02*
X102181Y047175D01*
X098865Y048595D02*
X098565Y048595D01*
X098865Y048895D01*
X098865Y048970D01*
X098790Y049045D01*
X098640Y049045D01*
X098565Y048970D01*
X098404Y049045D02*
X098104Y048745D01*
X098179Y048820D02*
X098404Y048595D01*
X098104Y048595D02*
X098104Y049045D01*
X097794Y049045D02*
X097794Y048595D01*
X097644Y048595D02*
X097944Y048595D01*
X097644Y048895D02*
X097794Y049045D01*
X097954Y049575D02*
X097954Y050025D01*
X098179Y050025D01*
X098254Y049950D01*
X098254Y049800D01*
X098179Y049725D01*
X097954Y049725D01*
X098104Y049725D02*
X098254Y049575D01*
X098415Y049575D02*
X098715Y049575D01*
X098565Y049575D02*
X098565Y050025D01*
X098415Y049875D01*
X085817Y045825D02*
X085817Y045375D01*
X085517Y045825D01*
X085517Y045375D01*
X085356Y045375D02*
X085056Y045375D01*
X085206Y045375D02*
X085206Y045825D01*
X085056Y045675D01*
X084896Y045600D02*
X084896Y045450D01*
X084821Y045375D01*
X084671Y045375D01*
X084596Y045450D01*
X084596Y045600D02*
X084746Y045675D01*
X084821Y045675D01*
X084896Y045600D01*
X084896Y045825D02*
X084596Y045825D01*
X084596Y045600D01*
X084436Y045450D02*
X084361Y045375D01*
X084210Y045375D01*
X084135Y045450D01*
X084436Y045750D01*
X084436Y045450D01*
X084436Y045750D02*
X084361Y045825D01*
X084210Y045825D01*
X084135Y045750D01*
X084135Y045450D01*
X083975Y045600D02*
X083675Y045600D01*
X083900Y045825D01*
X083900Y045375D01*
X083875Y046025D02*
X083725Y046025D01*
X083800Y046025D02*
X083800Y046475D01*
X083725Y046475D02*
X083875Y046475D01*
X084032Y046400D02*
X084032Y046100D01*
X084107Y046025D01*
X084257Y046025D01*
X084332Y046100D01*
X084492Y046025D02*
X084793Y046025D01*
X084642Y046025D02*
X084642Y046475D01*
X084492Y046325D01*
X084332Y046400D02*
X084257Y046475D01*
X084107Y046475D01*
X084032Y046400D01*
X081225Y042350D02*
X081225Y036350D01*
X087225Y036350D01*
X087225Y042350D01*
X081225Y042350D01*
X079725Y042350D02*
X079725Y036350D01*
X073725Y036350D01*
X073725Y042350D01*
X079725Y042350D01*
X072225Y042350D02*
X072225Y036350D01*
X066225Y036350D01*
X066225Y042350D01*
X072225Y042350D01*
X064725Y042350D02*
X064725Y036350D01*
X058725Y036350D01*
X058725Y042350D01*
X064725Y042350D01*
X057225Y042350D02*
X057225Y036350D01*
X051225Y036350D01*
X051225Y042350D01*
X057225Y042350D01*
X049725Y042350D02*
X049725Y036350D01*
X043725Y036350D01*
X043725Y042350D01*
X049725Y042350D01*
X042225Y042350D02*
X042225Y036350D01*
X036225Y036350D01*
X036225Y042350D01*
X042225Y042350D01*
X034725Y042350D02*
X034725Y036350D01*
X028725Y036350D01*
X028725Y042350D01*
X034725Y042350D01*
X027225Y042350D02*
X027225Y036350D01*
X021225Y036350D01*
X021225Y042350D01*
X027225Y042350D01*
X019725Y042350D02*
X019725Y036350D01*
X013725Y036350D01*
X013725Y042350D01*
X019725Y042350D01*
X012225Y042350D02*
X012225Y036350D01*
X006225Y036350D01*
X006225Y042350D01*
X012225Y042350D01*
X009350Y034850D02*
X009350Y028850D01*
X015350Y028850D01*
X015350Y034850D01*
X009350Y034850D01*
X007850Y034850D02*
X007850Y028850D01*
X001850Y028850D01*
X001850Y034850D01*
X007850Y034850D01*
X016850Y034850D02*
X016850Y028850D01*
X022850Y028850D01*
X022850Y034850D01*
X016850Y034850D01*
X024350Y034850D02*
X024350Y028850D01*
X030350Y028850D01*
X030350Y034850D01*
X024350Y034850D01*
X031850Y034850D02*
X031850Y028850D01*
X037850Y028850D01*
X037850Y034850D01*
X031850Y034850D01*
X039350Y034850D02*
X039350Y028850D01*
X045350Y028850D01*
X045350Y034850D01*
X039350Y034850D01*
X046850Y034850D02*
X046850Y028850D01*
X052850Y028850D01*
X052850Y034850D01*
X046850Y034850D01*
X054350Y034850D02*
X054350Y028850D01*
X060350Y028850D01*
X060350Y034850D01*
X054350Y034850D01*
X061850Y034850D02*
X061850Y028850D01*
X067850Y028850D01*
X067850Y034850D01*
X061850Y034850D01*
X069350Y034850D02*
X069350Y028850D01*
X075350Y028850D01*
X075350Y034850D01*
X069350Y034850D01*
X076850Y034850D02*
X076850Y028850D01*
X082850Y028850D01*
X082850Y034850D01*
X076850Y034850D01*
X084350Y034850D02*
X084350Y028850D01*
X090350Y028850D01*
X090350Y034850D01*
X084350Y034850D01*
X088725Y036350D02*
X088725Y042350D01*
X094725Y042350D01*
X094725Y036350D01*
X088725Y036350D01*
X091850Y034850D02*
X091850Y028850D01*
X097850Y028850D01*
X097850Y034850D01*
X091850Y034850D01*
X096225Y036350D02*
X096225Y042350D01*
X102225Y042350D01*
X102225Y036350D01*
X096225Y036350D01*
X099350Y034850D02*
X099350Y028850D01*
X105350Y028850D01*
X105350Y034850D01*
X099350Y034850D01*
X098100Y027350D02*
X098100Y021350D01*
X104100Y021350D01*
X104100Y027350D01*
X098100Y027350D01*
X092850Y027350D02*
X092850Y021350D01*
X086850Y021350D01*
X086850Y027350D01*
X092850Y027350D01*
X085350Y027350D02*
X085350Y021350D01*
X079350Y021350D01*
X079350Y027350D01*
X085350Y027350D01*
X077850Y027350D02*
X077850Y021350D01*
X071850Y021350D01*
X071850Y027350D01*
X077850Y027350D01*
X070350Y027350D02*
X070350Y021350D01*
X064350Y021350D01*
X064350Y027350D01*
X070350Y027350D01*
X062850Y027350D02*
X062850Y021350D01*
X056850Y021350D01*
X056850Y027350D01*
X062850Y027350D01*
X055350Y027350D02*
X055350Y021350D01*
X049350Y021350D01*
X049350Y027350D01*
X055350Y027350D01*
X047850Y027350D02*
X047850Y021350D01*
X041850Y021350D01*
X041850Y027350D01*
X047850Y027350D01*
X040350Y027350D02*
X040350Y021350D01*
X034350Y021350D01*
X034350Y027350D01*
X040350Y027350D01*
X032850Y027350D02*
X032850Y021350D01*
X026850Y021350D01*
X026850Y027350D01*
X032850Y027350D01*
X025350Y027350D02*
X025350Y021350D01*
X019350Y021350D01*
X019350Y027350D01*
X025350Y027350D01*
X017850Y027350D02*
X017850Y021350D01*
X011850Y021350D01*
X011850Y027350D01*
X017850Y027350D01*
X010350Y027350D02*
X010350Y021350D01*
X004350Y021350D01*
X004350Y027350D01*
X010350Y027350D01*
X010350Y019850D02*
X004350Y019850D01*
X004350Y013850D01*
X010350Y013850D01*
X010350Y019850D01*
X015600Y019850D02*
X015600Y013850D01*
X021600Y013850D01*
X021600Y019850D01*
X015600Y019850D01*
X023100Y019850D02*
X023100Y013850D01*
X029100Y013850D01*
X029100Y019850D01*
X023100Y019850D01*
X030600Y019850D02*
X030600Y013850D01*
X036600Y013850D01*
X036600Y019850D01*
X030600Y019850D01*
X038100Y019850D02*
X038100Y013850D01*
X044100Y013850D01*
X044100Y019850D01*
X038100Y019850D01*
X045600Y019850D02*
X045600Y013850D01*
X051600Y013850D01*
X051600Y019850D01*
X045600Y019850D01*
X053100Y019850D02*
X053100Y013850D01*
X059100Y013850D01*
X059100Y019850D01*
X053100Y019850D01*
X060600Y019850D02*
X060600Y013850D01*
X066600Y013850D01*
X066600Y019850D01*
X060600Y019850D01*
X068100Y019850D02*
X068100Y013850D01*
X074100Y013850D01*
X074100Y019850D01*
X068100Y019850D01*
X075600Y019850D02*
X075600Y013850D01*
X081600Y013850D01*
X081600Y019850D01*
X075600Y019850D01*
X083100Y019850D02*
X083100Y013850D01*
X089100Y013850D01*
X089100Y019850D01*
X083100Y019850D01*
X094350Y019850D02*
X094350Y013850D01*
X100350Y013850D01*
X100350Y019850D01*
X094350Y019850D01*
X092163Y012350D02*
X092163Y006350D01*
X098163Y006350D01*
X098163Y012350D01*
X092163Y012350D01*
X090663Y012350D02*
X090663Y006350D01*
X084663Y006350D01*
X084663Y012350D01*
X090663Y012350D01*
X083163Y012350D02*
X083163Y006350D01*
X077163Y006350D01*
X077163Y012350D01*
X083163Y012350D01*
X056350Y012350D02*
X056350Y006350D01*
X050350Y006350D01*
X050350Y012350D01*
X056350Y012350D01*
X029100Y012350D02*
X029100Y006350D01*
X023100Y006350D01*
X023100Y012350D01*
X029100Y012350D01*
X021600Y012350D02*
X021600Y006350D01*
X015600Y006350D01*
X015600Y012350D01*
X021600Y012350D01*
D14*
X023620Y014370D02*
X023927Y014830D01*
X023620Y014830D02*
X023927Y014370D01*
X031120Y014447D02*
X031197Y014370D01*
X031350Y014370D01*
X031427Y014447D01*
X031427Y014754D02*
X031350Y014830D01*
X031197Y014830D01*
X031120Y014754D01*
X031120Y014447D01*
X038620Y014523D02*
X038773Y014370D01*
X038927Y014523D01*
X038927Y014830D01*
X038620Y014830D02*
X038620Y014523D01*
X046120Y014600D02*
X046350Y014600D01*
X046427Y014523D01*
X046427Y014447D01*
X046350Y014370D01*
X046120Y014370D01*
X046120Y014830D01*
X046350Y014830D01*
X046427Y014754D01*
X046427Y014677D01*
X046350Y014600D01*
X053620Y014370D02*
X053620Y014830D01*
X053927Y014370D01*
X053927Y014830D01*
X061120Y014830D02*
X061273Y014677D01*
X061427Y014830D01*
X061427Y014370D01*
X061120Y014370D02*
X061120Y014830D01*
X068620Y014217D02*
X068773Y014370D01*
X068697Y014370D01*
X068697Y014447D01*
X068773Y014447D01*
X068773Y014370D01*
X068927Y014293D02*
X069234Y014293D01*
X069387Y014600D02*
X069694Y014370D01*
X069387Y014600D02*
X069694Y014830D01*
X076120Y014447D02*
X076197Y014447D01*
X076197Y014370D01*
X076120Y014370D01*
X076120Y014447D01*
X076350Y014293D02*
X076657Y014293D01*
X076811Y014370D02*
X077118Y014600D01*
X076811Y014830D01*
X083620Y014370D02*
X083927Y014830D01*
X084080Y014293D02*
X084387Y014293D01*
X084694Y014370D02*
X084694Y014447D01*
X084694Y014523D02*
X084848Y014677D01*
X084848Y014754D01*
X084771Y014830D01*
X084618Y014830D01*
X084541Y014754D01*
X094870Y014830D02*
X095100Y014830D01*
X095177Y014754D01*
X095177Y014600D01*
X095100Y014523D01*
X094870Y014523D01*
X094870Y014370D02*
X094870Y014830D01*
X095023Y014523D02*
X095177Y014370D01*
X095330Y014370D02*
X095330Y014830D01*
X095330Y014600D02*
X095637Y014600D01*
X095637Y014830D02*
X095637Y014370D01*
X095944Y014370D02*
X095944Y014830D01*
X095791Y014830D02*
X096098Y014830D01*
X096251Y014293D02*
X096558Y014293D01*
X096712Y014447D02*
X096788Y014370D01*
X096942Y014370D01*
X097018Y014447D01*
X097018Y014523D01*
X096942Y014600D01*
X096788Y014600D01*
X096712Y014677D01*
X096712Y014754D01*
X096788Y014830D01*
X096942Y014830D01*
X097018Y014754D01*
X097172Y014830D02*
X097172Y014370D01*
X097172Y014600D02*
X097479Y014600D01*
X097479Y014830D02*
X097479Y014370D01*
X098620Y021870D02*
X098620Y022330D01*
X098850Y022330D01*
X098927Y022254D01*
X098927Y022100D01*
X098850Y022023D01*
X098620Y022023D01*
X098773Y022023D02*
X098927Y021870D01*
X099080Y021870D02*
X099387Y021870D01*
X099234Y022100D02*
X099080Y022100D01*
X099080Y022330D02*
X099080Y021870D01*
X099080Y022330D02*
X099387Y022330D01*
X099541Y022330D02*
X099848Y022330D01*
X100001Y022330D02*
X100001Y021947D01*
X100078Y021870D01*
X100231Y021870D01*
X100308Y021947D01*
X100308Y022330D01*
X100462Y022330D02*
X100692Y022330D01*
X100768Y022254D01*
X100768Y022100D01*
X100692Y022023D01*
X100462Y022023D01*
X100462Y021870D02*
X100462Y022330D01*
X100615Y022023D02*
X100768Y021870D01*
X100922Y021870D02*
X100922Y022330D01*
X101229Y021870D01*
X101229Y022330D01*
X099694Y022330D02*
X099694Y021870D01*
X088291Y022254D02*
X088214Y022177D01*
X088137Y022254D02*
X088061Y022177D01*
X088137Y022254D02*
X088137Y022407D01*
X088291Y022407D02*
X088291Y022254D01*
X087907Y021793D02*
X087600Y021793D01*
X087370Y022177D02*
X087447Y022254D01*
X087447Y022407D01*
X083400Y022330D02*
X083400Y021870D01*
X083093Y022330D01*
X083093Y021870D01*
X082939Y021870D02*
X082632Y021870D01*
X082632Y022330D01*
X082479Y022254D02*
X082402Y022330D01*
X082249Y022330D01*
X082172Y022254D01*
X082172Y021947D01*
X082249Y021870D01*
X082402Y021870D01*
X082479Y021947D01*
X082018Y021793D02*
X081712Y021793D01*
X081558Y021870D02*
X081558Y022330D01*
X081251Y022330D02*
X081558Y021870D01*
X081251Y021870D02*
X081251Y022330D01*
X080791Y022330D02*
X080791Y021870D01*
X081098Y021870D01*
X080637Y021947D02*
X080561Y021870D01*
X080407Y021870D01*
X080330Y021947D01*
X080330Y022254D01*
X080407Y022330D01*
X080561Y022330D01*
X080637Y022254D01*
X080177Y022254D02*
X080100Y022330D01*
X079947Y022330D01*
X079870Y022254D01*
X079870Y022177D01*
X079947Y022100D01*
X080100Y022100D01*
X080177Y022023D01*
X080177Y021947D01*
X080100Y021870D01*
X079947Y021870D01*
X079870Y021947D01*
X072677Y021870D02*
X072370Y021870D01*
X072370Y022330D01*
X065177Y022330D02*
X064870Y022023D01*
X064947Y022100D02*
X065177Y021870D01*
X064870Y021870D02*
X064870Y022330D01*
X057677Y022330D02*
X057523Y022330D01*
X057600Y022330D02*
X057600Y021947D01*
X057523Y021870D01*
X057447Y021870D01*
X057370Y021947D01*
X050177Y021870D02*
X050177Y022330D01*
X050177Y022100D02*
X049870Y022100D01*
X049870Y021870D02*
X049870Y022330D01*
X042677Y022254D02*
X042600Y022330D01*
X042447Y022330D01*
X042370Y022254D01*
X042370Y021947D01*
X042447Y021870D01*
X042600Y021870D01*
X042677Y021947D01*
X042677Y022100D01*
X042523Y022100D01*
X035177Y022330D02*
X034870Y022330D01*
X034870Y021870D01*
X034870Y022100D02*
X035023Y022100D01*
X027677Y021947D02*
X027677Y022254D01*
X027600Y022330D01*
X027370Y022330D01*
X027370Y021870D01*
X027600Y021870D01*
X027677Y021947D01*
X020177Y021947D02*
X020100Y021870D01*
X019947Y021870D01*
X019870Y021947D01*
X019947Y022100D02*
X020100Y022100D01*
X020177Y022023D01*
X020177Y021947D01*
X019947Y022100D02*
X019870Y022177D01*
X019870Y022254D01*
X019947Y022330D01*
X020100Y022330D01*
X020177Y022254D01*
X012677Y022177D02*
X012677Y021870D01*
X012677Y022100D02*
X012370Y022100D01*
X012370Y022177D02*
X012523Y022330D01*
X012677Y022177D01*
X012370Y022177D02*
X012370Y021870D01*
X006558Y021870D02*
X006251Y021870D01*
X006251Y022330D01*
X006098Y022254D02*
X006098Y022100D01*
X006021Y022023D01*
X005791Y022023D01*
X005791Y021870D02*
X005791Y022330D01*
X006021Y022330D01*
X006098Y022254D01*
X005944Y022023D02*
X006098Y021870D01*
X005484Y021870D02*
X005484Y022330D01*
X005637Y022330D02*
X005330Y022330D01*
X005177Y022254D02*
X005100Y022330D01*
X004947Y022330D01*
X004870Y022254D01*
X004870Y021947D01*
X004947Y021870D01*
X005100Y021870D01*
X005177Y021947D01*
X005330Y014830D02*
X005330Y014370D01*
X005637Y014370D01*
X005791Y014370D02*
X005791Y014830D01*
X006098Y014830D01*
X006251Y014830D02*
X006558Y014830D01*
X006405Y014830D02*
X006405Y014370D01*
X006712Y014293D02*
X007018Y014293D01*
X007172Y014447D02*
X007249Y014370D01*
X007402Y014370D01*
X007479Y014447D01*
X007479Y014523D01*
X007402Y014600D01*
X007249Y014600D01*
X007172Y014677D01*
X007172Y014754D01*
X007249Y014830D01*
X007402Y014830D01*
X007479Y014754D01*
X007632Y014830D02*
X007632Y014370D01*
X007632Y014600D02*
X007939Y014600D01*
X007939Y014830D02*
X007939Y014370D01*
X005944Y014600D02*
X005791Y014600D01*
X005637Y014830D02*
X005330Y014830D01*
X005330Y014600D02*
X005484Y014600D01*
X005177Y014370D02*
X004870Y014370D01*
X004870Y014830D01*
X016120Y014830D02*
X016427Y014830D01*
X016427Y014754D01*
X016120Y014447D01*
X016120Y014370D01*
X016427Y014370D01*
X016580Y007330D02*
X016580Y006870D01*
X016887Y006870D01*
X017041Y006870D02*
X017041Y007330D01*
X017348Y007330D01*
X017501Y007330D02*
X017808Y007330D01*
X017655Y007330D02*
X017655Y006870D01*
X017962Y006793D02*
X018268Y006793D01*
X018422Y006870D02*
X018422Y007177D01*
X018575Y007330D01*
X018729Y007177D01*
X018729Y006870D01*
X018882Y006870D02*
X018882Y007330D01*
X019113Y007330D01*
X019189Y007254D01*
X019189Y007100D01*
X019113Y007023D01*
X018882Y007023D01*
X019036Y007023D02*
X019189Y006870D01*
X019343Y006870D02*
X019343Y007330D01*
X019573Y007330D01*
X019650Y007254D01*
X019650Y007100D01*
X019573Y007023D01*
X019343Y007023D01*
X019496Y007023D02*
X019650Y006870D01*
X018729Y007100D02*
X018422Y007100D01*
X017194Y007100D02*
X017041Y007100D01*
X016887Y007330D02*
X016580Y007330D01*
X016580Y007100D02*
X016734Y007100D01*
X016427Y006870D02*
X016120Y006870D01*
X016120Y007330D01*
X023620Y007330D02*
X023620Y006870D01*
X023850Y006870D01*
X023927Y006947D01*
X023927Y007254D01*
X023850Y007330D01*
X023620Y007330D01*
X024080Y007254D02*
X024080Y006947D01*
X024157Y006870D01*
X024311Y006870D01*
X024387Y006947D01*
X024387Y007254D01*
X024311Y007330D01*
X024157Y007330D01*
X024080Y007254D01*
X024541Y007330D02*
X024541Y006870D01*
X024694Y007023D01*
X024848Y006870D01*
X024848Y007330D01*
X025001Y007330D02*
X025308Y006870D01*
X025308Y007330D01*
X025001Y007330D02*
X025001Y006870D01*
X025462Y006793D02*
X025768Y006793D01*
X025922Y006870D02*
X025922Y007177D01*
X026075Y007330D01*
X026229Y007177D01*
X026229Y006870D01*
X026382Y006870D02*
X026382Y007330D01*
X026613Y007330D01*
X026689Y007254D01*
X026689Y007100D01*
X026613Y007023D01*
X026382Y007023D01*
X026536Y007023D02*
X026689Y006870D01*
X026843Y006870D02*
X026843Y007330D01*
X027073Y007330D01*
X027150Y007254D01*
X027150Y007100D01*
X027073Y007023D01*
X026843Y007023D01*
X026996Y007023D02*
X027150Y006870D01*
X026229Y007100D02*
X025922Y007100D01*
X050870Y007177D02*
X050947Y007100D01*
X051100Y007100D01*
X051177Y007023D01*
X051177Y006947D01*
X051100Y006870D01*
X050947Y006870D01*
X050870Y006947D01*
X050870Y007177D02*
X050870Y007254D01*
X050947Y007330D01*
X051100Y007330D01*
X051177Y007254D01*
X051330Y007330D02*
X051561Y007330D01*
X051637Y007254D01*
X051637Y007100D01*
X051561Y007023D01*
X051330Y007023D01*
X051330Y006870D02*
X051330Y007330D01*
X051791Y007177D02*
X051791Y006870D01*
X051791Y007100D02*
X052098Y007100D01*
X052098Y007177D02*
X052098Y006870D01*
X052251Y006947D02*
X052328Y006870D01*
X052481Y006870D01*
X052558Y006947D01*
X052712Y006870D02*
X053018Y006870D01*
X052865Y007100D02*
X052712Y007100D01*
X052558Y007254D02*
X052481Y007330D01*
X052328Y007330D01*
X052251Y007254D01*
X052251Y006947D01*
X052098Y007177D02*
X051944Y007330D01*
X051791Y007177D01*
X052712Y007330D02*
X052712Y006870D01*
X052712Y007330D02*
X053018Y007330D01*
X077683Y007330D02*
X077683Y006947D01*
X077759Y006870D01*
X077913Y006870D01*
X077989Y006947D01*
X077989Y007330D01*
X078143Y007330D02*
X078373Y007330D01*
X078450Y007254D01*
X078450Y007100D01*
X078373Y007023D01*
X078143Y007023D01*
X078143Y006870D02*
X078143Y007330D01*
X078603Y006793D02*
X078910Y006793D01*
X079064Y006870D02*
X079064Y007177D01*
X079217Y007330D01*
X079371Y007177D01*
X079371Y006870D01*
X079524Y006870D02*
X079524Y007330D01*
X079754Y007330D01*
X079831Y007254D01*
X079831Y007100D01*
X079754Y007023D01*
X079524Y007023D01*
X079678Y007023D02*
X079831Y006870D01*
X079984Y006870D02*
X079984Y007330D01*
X080215Y007330D01*
X080291Y007254D01*
X080291Y007100D01*
X080215Y007023D01*
X079984Y007023D01*
X080138Y007023D02*
X080291Y006870D01*
X079371Y007100D02*
X079064Y007100D01*
X085183Y007023D02*
X085413Y007023D01*
X085489Y007100D01*
X085489Y007254D01*
X085413Y007330D01*
X085183Y007330D01*
X085183Y006870D01*
X085336Y007023D02*
X085489Y006870D01*
X085643Y006870D02*
X085796Y006870D01*
X085720Y006870D02*
X085720Y007330D01*
X085796Y007330D02*
X085643Y007330D01*
X085950Y007254D02*
X085950Y006947D01*
X086027Y006870D01*
X086180Y006870D01*
X086257Y006947D01*
X086257Y007100D01*
X086103Y007100D01*
X085950Y007254D02*
X086027Y007330D01*
X086180Y007330D01*
X086257Y007254D01*
X086410Y007330D02*
X086410Y006870D01*
X086410Y007100D02*
X086717Y007100D01*
X086717Y007330D02*
X086717Y006870D01*
X087024Y006870D02*
X087024Y007330D01*
X086871Y007330D02*
X087178Y007330D01*
X087331Y006793D02*
X087638Y006793D01*
X087791Y006870D02*
X087791Y007177D01*
X087945Y007330D01*
X088098Y007177D01*
X088098Y006870D01*
X088252Y006870D02*
X088252Y007330D01*
X088482Y007330D01*
X088559Y007254D01*
X088559Y007100D01*
X088482Y007023D01*
X088252Y007023D01*
X088405Y007023D02*
X088559Y006870D01*
X088712Y006870D02*
X088712Y007330D01*
X088942Y007330D01*
X089019Y007254D01*
X089019Y007100D01*
X088942Y007023D01*
X088712Y007023D01*
X088866Y007023D02*
X089019Y006870D01*
X088098Y007100D02*
X087791Y007100D01*
X092683Y007100D02*
X092836Y007100D01*
X092683Y006870D02*
X092683Y007330D01*
X092989Y007330D01*
X093143Y007330D02*
X093143Y006947D01*
X093220Y006870D01*
X093373Y006870D01*
X093450Y006947D01*
X093450Y007330D01*
X093603Y007330D02*
X093910Y006870D01*
X093910Y007330D01*
X094064Y007254D02*
X094064Y006947D01*
X094140Y006870D01*
X094294Y006870D01*
X094371Y006947D01*
X094371Y007254D02*
X094294Y007330D01*
X094140Y007330D01*
X094064Y007254D01*
X093603Y007330D02*
X093603Y006870D01*
X092984Y029293D02*
X092677Y029293D01*
X092523Y029370D02*
X092523Y029830D01*
X092370Y029830D01*
X092370Y029370D02*
X092523Y029370D01*
X093137Y029370D02*
X093214Y029370D01*
X093291Y029447D01*
X093291Y029523D01*
X093368Y029600D01*
X093291Y029677D01*
X093291Y029754D01*
X093214Y029830D01*
X093137Y029830D01*
X099870Y029830D02*
X099870Y029370D01*
X100100Y029370D01*
X100177Y029447D01*
X100177Y029754D01*
X100100Y029830D01*
X099870Y029830D01*
X100330Y029830D02*
X100330Y029370D01*
X100637Y029370D01*
X100791Y029370D02*
X101098Y029370D01*
X100791Y029370D02*
X100791Y029830D01*
X100637Y029830D02*
X100330Y029830D01*
X100330Y029600D02*
X100484Y029600D01*
X099661Y036870D02*
X099354Y036870D01*
X099354Y037330D01*
X099661Y037330D01*
X099507Y037100D02*
X099354Y037100D01*
X099200Y037100D02*
X099124Y037023D01*
X098893Y037023D01*
X098893Y036870D02*
X098893Y037330D01*
X099124Y037330D01*
X099200Y037254D01*
X099200Y037100D01*
X098740Y036870D02*
X098587Y036870D01*
X098663Y036870D02*
X098663Y037330D01*
X098587Y037330D02*
X098740Y037330D01*
X098433Y037254D02*
X098433Y037100D01*
X098356Y037023D01*
X098126Y037023D01*
X098126Y036870D02*
X098126Y037330D01*
X098356Y037330D01*
X098433Y037254D01*
X097973Y036793D02*
X097666Y036793D01*
X097512Y036947D02*
X097436Y036870D01*
X097282Y036870D01*
X097205Y036947D01*
X097052Y036947D02*
X096975Y036870D01*
X096745Y036870D01*
X096745Y037330D01*
X096975Y037330D01*
X097052Y037254D01*
X097052Y037177D01*
X096975Y037100D01*
X096745Y037100D01*
X096975Y037100D02*
X097052Y037023D01*
X097052Y036947D01*
X097205Y037177D02*
X097282Y037100D01*
X097436Y037100D01*
X097512Y037023D01*
X097512Y036947D01*
X097512Y037254D02*
X097436Y037330D01*
X097282Y037330D01*
X097205Y037254D01*
X097205Y037177D01*
X090473Y037100D02*
X090166Y037100D01*
X090319Y036947D02*
X090319Y037254D01*
X090012Y036793D02*
X089705Y036793D01*
X089552Y037023D02*
X089245Y037023D01*
X089245Y037177D02*
X089552Y037177D01*
X083049Y036947D02*
X082973Y036870D01*
X082743Y036870D01*
X082743Y037177D01*
X082819Y037254D01*
X082896Y037254D01*
X082819Y037100D02*
X082666Y037100D01*
X082512Y036793D02*
X082205Y036793D01*
X082052Y037100D02*
X081745Y037100D01*
X076700Y037023D02*
X076547Y036870D01*
X076393Y036793D02*
X076087Y036793D01*
X075933Y036947D02*
X075933Y037254D01*
X075856Y037330D01*
X075703Y037330D01*
X075626Y037254D01*
X075626Y036947D01*
X075703Y036870D01*
X075856Y036870D01*
X075933Y036947D01*
X075473Y036870D02*
X075319Y037023D01*
X075396Y037023D02*
X075166Y037023D01*
X075166Y036870D02*
X075166Y037330D01*
X075396Y037330D01*
X075473Y037254D01*
X075473Y037100D01*
X075396Y037023D01*
X075012Y036870D02*
X074705Y036870D01*
X074705Y037330D01*
X075012Y037330D01*
X074859Y037100D02*
X074705Y037100D01*
X074552Y037254D02*
X074245Y036947D01*
X074245Y036870D01*
X074552Y036870D01*
X074552Y037254D02*
X074552Y037330D01*
X074245Y037330D01*
X076547Y037330D02*
X076700Y037177D01*
X076700Y037023D01*
X067819Y036870D02*
X067666Y037023D01*
X067666Y037177D01*
X067819Y037330D01*
X067512Y036793D02*
X067205Y036793D01*
X067052Y036947D02*
X067052Y037254D01*
X066975Y037330D01*
X066822Y037330D01*
X066745Y037254D01*
X066745Y037177D01*
X066822Y037100D01*
X067052Y037100D01*
X067052Y036947D02*
X066975Y036870D01*
X066822Y036870D01*
X066745Y036947D01*
X060473Y036947D02*
X060166Y037254D01*
X060319Y037254D02*
X060319Y036947D01*
X060166Y036947D02*
X060473Y037254D01*
X060473Y037100D02*
X060166Y037100D01*
X060012Y036793D02*
X059705Y036793D01*
X059552Y036947D02*
X059475Y036870D01*
X059322Y036870D01*
X059245Y036947D01*
X059245Y037023D01*
X059322Y037100D01*
X059475Y037100D01*
X059552Y037023D01*
X059552Y036947D01*
X059475Y037100D02*
X059552Y037177D01*
X059552Y037254D01*
X059475Y037330D01*
X059322Y037330D01*
X059245Y037254D01*
X059245Y037177D01*
X059322Y037100D01*
X052973Y037023D02*
X052819Y036870D01*
X052743Y036870D01*
X052666Y036947D01*
X052666Y037023D01*
X052819Y037177D01*
X052819Y037254D01*
X052743Y037330D01*
X052666Y037254D01*
X052666Y037177D01*
X052973Y036870D01*
X052512Y036793D02*
X052205Y036793D01*
X051745Y036870D02*
X051745Y036947D01*
X052052Y037254D01*
X052052Y037330D01*
X051745Y037330D01*
X045473Y037177D02*
X045319Y037330D01*
X045166Y037177D01*
X045012Y036793D02*
X044705Y036793D01*
X044552Y036947D02*
X044552Y037023D01*
X044475Y037100D01*
X044245Y037100D01*
X044245Y036947D01*
X044322Y036870D01*
X044475Y036870D01*
X044552Y036947D01*
X044398Y037254D02*
X044245Y037100D01*
X044398Y037254D02*
X044552Y037330D01*
X038049Y037330D02*
X037666Y036870D01*
X037512Y036793D02*
X037205Y036793D01*
X037052Y036947D02*
X036975Y036870D01*
X036822Y036870D01*
X036745Y036947D01*
X036745Y037100D02*
X036898Y037177D01*
X036975Y037177D01*
X037052Y037100D01*
X037052Y036947D01*
X036745Y037100D02*
X036745Y037330D01*
X037052Y037330D01*
X037666Y037330D02*
X037666Y037254D01*
X037743Y037254D01*
X037743Y037330D01*
X037666Y037330D01*
X037973Y036947D02*
X038049Y036947D01*
X038049Y036870D01*
X037973Y036870D01*
X037973Y036947D01*
X030473Y036947D02*
X030473Y037023D01*
X030396Y037100D01*
X030243Y037100D01*
X030166Y037177D01*
X030166Y037254D01*
X030243Y037330D01*
X030396Y037330D01*
X030473Y037254D01*
X030319Y037407D02*
X030319Y036793D01*
X030243Y036870D02*
X030396Y036870D01*
X030473Y036947D01*
X030243Y036870D02*
X030166Y036947D01*
X030012Y036793D02*
X029705Y036793D01*
X029475Y036870D02*
X029475Y037330D01*
X029245Y037100D01*
X029552Y037100D01*
X022973Y037023D02*
X022666Y037023D01*
X022666Y037177D02*
X022896Y037177D01*
X022973Y037177D01*
X022896Y037330D02*
X022896Y036870D01*
X022743Y036870D02*
X022743Y037330D01*
X022512Y036793D02*
X022205Y036793D01*
X022052Y036947D02*
X021975Y036870D01*
X021822Y036870D01*
X021745Y036947D01*
X021898Y037100D02*
X021975Y037100D01*
X022052Y037023D01*
X022052Y036947D01*
X021975Y037100D02*
X022052Y037177D01*
X022052Y037254D01*
X021975Y037330D01*
X021822Y037330D01*
X021745Y037254D01*
X015473Y037254D02*
X015473Y037100D01*
X015396Y037023D01*
X015396Y037177D01*
X015243Y037177D01*
X015243Y037023D01*
X015396Y037023D01*
X015473Y036947D02*
X015396Y036870D01*
X015243Y036870D01*
X015166Y036947D01*
X015166Y037254D01*
X015243Y037330D01*
X015396Y037330D01*
X015473Y037254D01*
X015012Y036793D02*
X014705Y036793D01*
X014552Y036870D02*
X014245Y036870D01*
X014552Y037177D01*
X014552Y037254D01*
X014475Y037330D01*
X014322Y037330D01*
X014245Y037254D01*
X009661Y037254D02*
X009584Y037330D01*
X009431Y037330D01*
X009354Y037254D01*
X009354Y036947D01*
X009431Y036870D01*
X009584Y036870D01*
X009661Y036947D01*
X009661Y037100D01*
X009507Y037100D01*
X009200Y036870D02*
X009200Y037330D01*
X008893Y037330D02*
X009200Y036870D01*
X008893Y036870D02*
X008893Y037330D01*
X008740Y037330D02*
X008587Y037330D01*
X008663Y037330D02*
X008663Y036870D01*
X008587Y036870D02*
X008740Y036870D01*
X008433Y036870D02*
X008126Y036870D01*
X008126Y037330D01*
X007973Y037254D02*
X007973Y037100D01*
X007896Y037023D01*
X007666Y037023D01*
X007666Y036870D02*
X007666Y037330D01*
X007896Y037330D01*
X007973Y037254D01*
X007512Y036793D02*
X007205Y036793D01*
X007052Y036870D02*
X006745Y036870D01*
X006898Y036870D02*
X006898Y037330D01*
X006745Y037177D01*
X009947Y029830D02*
X010100Y029830D01*
X010177Y029754D01*
X010177Y029447D01*
X010100Y029370D01*
X009947Y029370D01*
X009870Y029447D01*
X009870Y029754D01*
X009947Y029830D01*
X010023Y029523D02*
X010177Y029370D01*
X003598Y029447D02*
X003521Y029370D01*
X003368Y029370D01*
X003291Y029447D01*
X003291Y029754D01*
X003368Y029830D01*
X003521Y029830D01*
X003598Y029754D01*
X003137Y029754D02*
X003061Y029830D01*
X002907Y029830D01*
X002830Y029754D01*
X002830Y029677D01*
X002907Y029600D01*
X003061Y029600D01*
X003137Y029523D01*
X003137Y029447D01*
X003061Y029370D01*
X002907Y029370D01*
X002830Y029447D01*
X002677Y029370D02*
X002370Y029370D01*
X002370Y029830D01*
X002677Y029830D01*
X002523Y029600D02*
X002370Y029600D01*
X017370Y029370D02*
X017523Y029523D01*
X017677Y029370D01*
X017677Y029830D01*
X017370Y029830D02*
X017370Y029370D01*
X024870Y029370D02*
X025177Y029370D01*
X025023Y029600D02*
X024870Y029600D01*
X024870Y029830D02*
X024870Y029370D01*
X024870Y029830D02*
X025177Y029830D01*
X032370Y029830D02*
X032370Y029370D01*
X032370Y029523D02*
X032600Y029523D01*
X032677Y029600D01*
X032677Y029754D01*
X032600Y029830D01*
X032370Y029830D01*
X032523Y029523D02*
X032677Y029370D01*
X039870Y029830D02*
X040177Y029830D01*
X040023Y029830D02*
X040023Y029370D01*
X047370Y029754D02*
X047523Y029600D01*
X047523Y029370D01*
X047523Y029600D02*
X047677Y029754D01*
X047677Y029830D01*
X047370Y029830D02*
X047370Y029754D01*
X054870Y029830D02*
X054870Y029447D01*
X054947Y029370D01*
X055100Y029370D01*
X055177Y029447D01*
X055177Y029830D01*
X062370Y029830D02*
X062523Y029830D01*
X062447Y029830D02*
X062447Y029370D01*
X062523Y029370D02*
X062370Y029370D01*
X069870Y029447D02*
X069947Y029370D01*
X070100Y029370D01*
X070177Y029447D01*
X070177Y029754D01*
X070100Y029830D01*
X069947Y029830D01*
X069870Y029754D01*
X069870Y029447D01*
X077370Y029523D02*
X077600Y029523D01*
X077677Y029600D01*
X077677Y029754D01*
X077600Y029830D01*
X077370Y029830D01*
X077370Y029370D01*
X084870Y029370D02*
X084870Y029830D01*
X085023Y029830D01*
X085023Y029370D02*
X084870Y029370D01*
X085177Y029293D02*
X085484Y029293D01*
X085714Y029447D02*
X085791Y029370D01*
X085868Y029370D01*
X085714Y029447D02*
X085714Y029523D01*
X085637Y029600D01*
X085714Y029677D01*
X085714Y029754D01*
X085791Y029830D01*
X085868Y029830D01*
D15*
X011300Y051130D03*
D16*
X011310Y051150D03*
X011310Y051170D03*
X011310Y051190D03*
X011310Y051210D03*
D17*
X011320Y051230D03*
D18*
X012380Y051350D03*
X012380Y051370D03*
X012380Y051390D03*
X012380Y051410D03*
X012380Y051430D03*
X012380Y051450D03*
X012380Y051470D03*
X012380Y051490D03*
X012380Y051510D03*
X012380Y051530D03*
X012380Y051550D03*
X012380Y051570D03*
X012380Y051590D03*
X012380Y051610D03*
X012380Y051630D03*
X012380Y051650D03*
X012380Y051670D03*
X012380Y051690D03*
X012380Y051710D03*
X012380Y051730D03*
X012380Y051750D03*
X012380Y051770D03*
X012380Y051790D03*
X012380Y051810D03*
X012380Y051830D03*
X012380Y051850D03*
X012380Y051870D03*
X012380Y051890D03*
X012380Y051910D03*
X012380Y051930D03*
X012380Y051950D03*
X012380Y051970D03*
X012380Y051990D03*
X012400Y052390D03*
X012960Y052370D03*
X012960Y052350D03*
X012960Y052330D03*
X012960Y052310D03*
X012960Y052290D03*
X012960Y052270D03*
X012960Y052250D03*
X012960Y052230D03*
X012960Y052210D03*
X012960Y052190D03*
X012960Y052170D03*
X012960Y052150D03*
X012960Y052130D03*
X012960Y052110D03*
X012960Y052090D03*
X012960Y052070D03*
X012960Y052050D03*
X012960Y052030D03*
X012960Y052010D03*
X012960Y051990D03*
X012960Y051970D03*
X012960Y051950D03*
X012960Y051930D03*
X012960Y051910D03*
X012960Y051890D03*
X012960Y051870D03*
X012960Y051850D03*
X012960Y051830D03*
X012960Y051810D03*
X012960Y051790D03*
X012960Y051770D03*
X012960Y051750D03*
X012960Y051730D03*
X012960Y051710D03*
X014380Y052050D03*
X014620Y052330D03*
X014620Y052350D03*
X009860Y051890D03*
X009860Y051870D03*
X009860Y051850D03*
X009620Y051850D03*
X009620Y051870D03*
X009620Y051890D03*
X009620Y051910D03*
X009620Y051930D03*
X009620Y051950D03*
X009620Y051970D03*
X009620Y051990D03*
X009620Y052010D03*
X009620Y052030D03*
X009620Y052050D03*
X009620Y052070D03*
X009620Y052090D03*
X009620Y052110D03*
X009620Y052130D03*
X009620Y052150D03*
X009620Y052170D03*
X009620Y052190D03*
X009620Y052210D03*
X009620Y052230D03*
X009620Y052250D03*
X009620Y052270D03*
X009620Y052290D03*
X009620Y052310D03*
X009620Y052330D03*
X009620Y052350D03*
X009620Y052370D03*
X009620Y052390D03*
X009620Y051830D03*
X009620Y051810D03*
X009620Y051790D03*
X009620Y051770D03*
X009620Y051750D03*
X009620Y051730D03*
X009620Y051710D03*
X009620Y051690D03*
X009620Y051670D03*
X009620Y051650D03*
X009620Y051630D03*
X009620Y051610D03*
X009620Y051590D03*
X009620Y051570D03*
X009620Y051550D03*
X009620Y051530D03*
X009620Y051510D03*
X009620Y051490D03*
X009620Y051470D03*
X009620Y051450D03*
X009620Y051430D03*
X009620Y051410D03*
X009620Y051390D03*
X009620Y051370D03*
X008480Y052150D03*
X008480Y052170D03*
X008280Y052250D03*
X008280Y052270D03*
X008300Y052310D03*
X008300Y052330D03*
X008320Y052370D03*
X008320Y052390D03*
X008340Y052430D03*
X008340Y052450D03*
X008100Y052390D03*
X008260Y052210D03*
X008260Y052190D03*
X008240Y052150D03*
X008240Y052130D03*
X008220Y052090D03*
X008220Y052070D03*
X008200Y052030D03*
X008200Y052010D03*
X008180Y051970D03*
X008180Y051950D03*
X008160Y051910D03*
X008160Y051890D03*
X008140Y051850D03*
X008140Y051830D03*
X008120Y051790D03*
X008120Y051770D03*
X008100Y051730D03*
X008100Y051710D03*
X008080Y051670D03*
X008080Y051650D03*
X008060Y051610D03*
X008060Y051590D03*
X008040Y051550D03*
X008040Y051530D03*
X008020Y051490D03*
X008020Y051470D03*
X008000Y051430D03*
X008000Y051410D03*
X007980Y051370D03*
X007980Y051350D03*
X007960Y051310D03*
X007960Y051290D03*
X007940Y051250D03*
X008200Y051330D03*
X007840Y051590D03*
X007840Y051610D03*
X007800Y051850D03*
X007800Y051870D03*
D19*
X007830Y051570D03*
X008030Y051510D03*
X008050Y051570D03*
X008070Y051630D03*
X008090Y051690D03*
X008110Y051750D03*
X008130Y051810D03*
X008150Y051870D03*
X008170Y051930D03*
X008190Y051990D03*
X008210Y052050D03*
X008230Y052110D03*
X008250Y052170D03*
X008270Y052230D03*
X008290Y052290D03*
X008310Y052350D03*
X008330Y052410D03*
X008470Y052190D03*
X008010Y051450D03*
X007990Y051390D03*
X007970Y051330D03*
X007950Y051270D03*
X010470Y051670D03*
X010470Y052090D03*
X012970Y052390D03*
X014370Y052030D03*
X014630Y052370D03*
X014630Y052390D03*
D20*
X010420Y051710D03*
X009520Y051330D03*
X007860Y051430D03*
X008440Y052310D03*
D21*
X007890Y052170D03*
X007870Y052150D03*
X008450Y051570D03*
X008470Y051590D03*
X008230Y051350D03*
X009150Y051750D03*
X009170Y051730D03*
X009190Y051710D03*
X009210Y051670D03*
X009230Y051650D03*
X009250Y051630D03*
X009250Y051610D03*
X009270Y051590D03*
X009270Y051570D03*
X009290Y051550D03*
X009310Y051510D03*
X009330Y051490D03*
X009330Y051470D03*
X009350Y051450D03*
X009370Y051410D03*
X009390Y051370D03*
X009950Y051530D03*
X010190Y051330D03*
X010430Y051530D03*
X010450Y052170D03*
X010430Y052190D03*
X009950Y052190D03*
X009330Y052190D03*
X011490Y052150D03*
X011510Y052170D03*
X012050Y052190D03*
X012070Y052170D03*
X012410Y052290D03*
X012410Y052310D03*
X012090Y051590D03*
X012070Y051570D03*
X011510Y051550D03*
X011490Y051570D03*
X012930Y051430D03*
X012930Y051410D03*
X014590Y052250D03*
D22*
X014580Y052230D03*
X012920Y051470D03*
X012920Y051450D03*
X012060Y051550D03*
X012040Y051530D03*
X011780Y051330D03*
X010400Y051510D03*
X009980Y051510D03*
X009980Y052210D03*
X010420Y052210D03*
X011520Y052190D03*
X012420Y052270D03*
X008440Y051550D03*
X008420Y051530D03*
X008260Y051370D03*
X007900Y052190D03*
X008060Y052350D03*
D23*
X007830Y052070D03*
X007830Y052050D03*
X007810Y052010D03*
X007810Y051990D03*
X007810Y051970D03*
X007810Y051950D03*
X007810Y051930D03*
X007810Y051910D03*
X007810Y051890D03*
X007810Y051830D03*
X007810Y051810D03*
X007810Y051790D03*
X007810Y051770D03*
X007810Y051750D03*
X007810Y051730D03*
X007810Y051710D03*
X007830Y051670D03*
X007830Y051650D03*
X007830Y051630D03*
X008490Y051630D03*
X008510Y051670D03*
X008510Y051690D03*
X008510Y051710D03*
X008510Y051730D03*
X008530Y051770D03*
X008530Y051790D03*
X008530Y051810D03*
X008530Y051830D03*
X008530Y051850D03*
X008530Y051870D03*
X008530Y051890D03*
X008530Y051910D03*
X008530Y051930D03*
X008530Y051950D03*
X008530Y051970D03*
X008510Y051990D03*
X008510Y052010D03*
X008510Y052030D03*
X008510Y052050D03*
X008490Y052090D03*
X008770Y052090D03*
X008770Y052110D03*
X008770Y052130D03*
X008770Y052150D03*
X008770Y052170D03*
X008770Y052190D03*
X008770Y052210D03*
X008770Y052070D03*
X008770Y052050D03*
X008770Y052030D03*
X008770Y052010D03*
X008770Y051990D03*
X008770Y051970D03*
X008770Y051950D03*
X008770Y051770D03*
X008770Y051750D03*
X008770Y051730D03*
X008770Y051710D03*
X008770Y051690D03*
X008770Y051670D03*
X008770Y051650D03*
X008770Y051630D03*
X008770Y051610D03*
X008770Y051590D03*
X008770Y051570D03*
X008770Y051550D03*
X008770Y051530D03*
X008770Y051510D03*
X008770Y051490D03*
X008770Y051470D03*
X008770Y051450D03*
X008770Y051430D03*
X008770Y051410D03*
X008770Y051390D03*
X008770Y051370D03*
X008770Y051350D03*
X009330Y051990D03*
X009350Y052010D03*
X009350Y052030D03*
X009350Y052050D03*
X009350Y052070D03*
X009350Y052090D03*
X009350Y052110D03*
X009350Y052130D03*
X009350Y052150D03*
X009870Y052030D03*
X009870Y052010D03*
X009870Y051990D03*
X009870Y051970D03*
X009870Y051950D03*
X009870Y051930D03*
X009870Y051910D03*
X009870Y051830D03*
X009870Y051810D03*
X009870Y051790D03*
X009870Y051770D03*
X009870Y051750D03*
X009870Y051730D03*
X009870Y051710D03*
X009870Y051690D03*
X009890Y051670D03*
X009890Y051650D03*
X009890Y051630D03*
X009910Y051590D03*
X009890Y052050D03*
X009890Y052070D03*
X009890Y052090D03*
X009910Y052130D03*
X010490Y051650D03*
X010470Y051610D03*
X010750Y051610D03*
X010750Y051630D03*
X010750Y051650D03*
X010750Y051670D03*
X010750Y051690D03*
X010750Y051710D03*
X010750Y051730D03*
X010750Y051750D03*
X010750Y051770D03*
X010750Y051790D03*
X010750Y051810D03*
X010750Y051830D03*
X010750Y051850D03*
X010750Y051870D03*
X010750Y051890D03*
X010750Y051910D03*
X010750Y051930D03*
X010750Y051950D03*
X010750Y051970D03*
X010750Y051990D03*
X010750Y052010D03*
X010750Y052030D03*
X010750Y052050D03*
X010750Y052070D03*
X010750Y052090D03*
X010750Y052110D03*
X010750Y052130D03*
X010750Y052150D03*
X010750Y052170D03*
X010750Y052190D03*
X010750Y052210D03*
X010750Y052230D03*
X010750Y052250D03*
X010750Y052270D03*
X010750Y052290D03*
X010750Y052310D03*
X010750Y052330D03*
X010750Y052350D03*
X010750Y052370D03*
X011450Y052070D03*
X011450Y052050D03*
X011430Y052010D03*
X011430Y051990D03*
X011430Y051970D03*
X011430Y051950D03*
X011430Y051930D03*
X011430Y051910D03*
X011430Y051890D03*
X011430Y051870D03*
X011430Y051850D03*
X011430Y051830D03*
X011430Y051810D03*
X011430Y051790D03*
X011430Y051770D03*
X011430Y051750D03*
X011430Y051730D03*
X011430Y051710D03*
X011450Y051670D03*
X011450Y051650D03*
X011470Y052110D03*
X012110Y052090D03*
X012130Y052050D03*
X012130Y052030D03*
X012130Y052010D03*
X012150Y051970D03*
X012150Y051950D03*
X012150Y051930D03*
X012150Y051910D03*
X012150Y051890D03*
X012150Y051870D03*
X012150Y051850D03*
X012150Y051830D03*
X012150Y051810D03*
X012150Y051790D03*
X012150Y051770D03*
X012150Y051750D03*
X012130Y051710D03*
X012130Y051690D03*
X012130Y051670D03*
X012110Y051630D03*
X012630Y051930D03*
X012610Y051970D03*
X012670Y051870D03*
X012690Y051830D03*
X012710Y051790D03*
X012730Y051750D03*
X012750Y051710D03*
X012950Y051350D03*
X013250Y051510D03*
X013250Y051530D03*
X013250Y051550D03*
X013250Y051570D03*
X013250Y051590D03*
X013250Y051610D03*
X013250Y051630D03*
X013250Y051650D03*
X013250Y051670D03*
X013250Y051690D03*
X013250Y051710D03*
X013250Y051730D03*
X013250Y051750D03*
X013250Y051770D03*
X013250Y051790D03*
X013250Y051990D03*
X013250Y052010D03*
X013250Y052030D03*
X013250Y052050D03*
X013250Y052070D03*
X013250Y052090D03*
X013250Y052110D03*
X013250Y052130D03*
X013250Y052150D03*
X013250Y052170D03*
X013250Y052190D03*
X013250Y052210D03*
X012390Y052370D03*
X010750Y051590D03*
X010750Y051570D03*
X010750Y051550D03*
X010750Y051530D03*
X010750Y051510D03*
X014390Y052070D03*
X014610Y052070D03*
X014610Y052050D03*
X014610Y052030D03*
X014610Y052010D03*
X014610Y051990D03*
X014610Y051970D03*
X014610Y051950D03*
X014610Y051930D03*
X014610Y051910D03*
X014610Y051890D03*
X014610Y051870D03*
X014610Y051850D03*
X014610Y051830D03*
X014610Y051810D03*
X014610Y051790D03*
X014610Y051770D03*
X014610Y051750D03*
X014610Y051730D03*
X014610Y051710D03*
X014610Y051690D03*
X014610Y051670D03*
X014610Y051650D03*
X014610Y051630D03*
X014610Y051610D03*
X014610Y051590D03*
X014610Y051570D03*
X014610Y051550D03*
X014610Y051530D03*
X014610Y051510D03*
X014610Y051490D03*
X014610Y051470D03*
X014610Y051450D03*
X014610Y051430D03*
X014610Y051410D03*
X014610Y051390D03*
X014610Y051370D03*
X014610Y051350D03*
X014610Y052310D03*
D24*
X014500Y052130D03*
X014500Y052110D03*
X014500Y052090D03*
X010200Y051370D03*
X009500Y051350D03*
D25*
X010200Y051350D03*
X008320Y051450D03*
X007980Y052250D03*
X012460Y052130D03*
X012460Y052110D03*
X012880Y051610D03*
X012880Y051590D03*
X014540Y052170D03*
D26*
X013490Y051970D03*
X013490Y051950D03*
X013490Y051930D03*
X013490Y051910D03*
X013490Y051890D03*
X013490Y051870D03*
X013490Y051850D03*
X013490Y051830D03*
X013490Y051810D03*
X010990Y051490D03*
X010990Y051470D03*
X010990Y051450D03*
X010990Y051430D03*
X010990Y051410D03*
X010990Y051390D03*
X010990Y051370D03*
X010990Y051350D03*
X010190Y051490D03*
X010190Y052230D03*
X009010Y052330D03*
D27*
X011780Y051350D03*
X012480Y052050D03*
X012480Y052070D03*
X012860Y051690D03*
X012860Y051670D03*
X014520Y052150D03*
D28*
X013510Y052230D03*
X013510Y052250D03*
X013510Y052270D03*
X013510Y052290D03*
X013510Y052310D03*
X013510Y052330D03*
X013510Y052350D03*
X013510Y052370D03*
X013510Y051490D03*
X013510Y051470D03*
X013510Y051450D03*
X013510Y051430D03*
X013510Y051410D03*
X013510Y051390D03*
X013510Y051370D03*
X013510Y051350D03*
X011790Y051490D03*
X011790Y052230D03*
X009030Y052290D03*
X009030Y051910D03*
X009030Y051890D03*
D29*
X011780Y051370D03*
D30*
X011480Y051590D03*
X011480Y051610D03*
X011460Y051630D03*
X011440Y051690D03*
X011440Y052030D03*
X011460Y052090D03*
X011480Y052130D03*
X012080Y052150D03*
X012100Y052130D03*
X012100Y052110D03*
X012120Y052070D03*
X012140Y051990D03*
X012140Y051730D03*
X012120Y051650D03*
X012100Y051610D03*
X012640Y051910D03*
X012660Y051890D03*
X012680Y051850D03*
X012700Y051810D03*
X012720Y051770D03*
X012740Y051730D03*
X012620Y051950D03*
X012600Y051990D03*
X012400Y052330D03*
X012400Y052350D03*
X012940Y051390D03*
X012940Y051370D03*
X014600Y052270D03*
X014600Y052290D03*
X010480Y052130D03*
X010480Y052110D03*
X010460Y052150D03*
X009940Y052170D03*
X009920Y052150D03*
X009900Y052110D03*
X009900Y051610D03*
X009920Y051570D03*
X009940Y051550D03*
X010440Y051550D03*
X010460Y051570D03*
X010460Y051590D03*
X010480Y051630D03*
X009380Y051390D03*
X009360Y051430D03*
X009300Y051530D03*
X009200Y051690D03*
X009320Y051970D03*
X009340Y052170D03*
X008500Y052070D03*
X008480Y052110D03*
X008480Y052130D03*
X008520Y051750D03*
X008500Y051650D03*
X008480Y051610D03*
X007820Y051690D03*
X007820Y052030D03*
X007840Y052090D03*
X007840Y052110D03*
X007860Y052130D03*
X008080Y052370D03*
D31*
X008020Y052310D03*
X008400Y051510D03*
X008280Y051390D03*
X011560Y051510D03*
X012020Y051510D03*
X012440Y052190D03*
X012440Y052210D03*
X011780Y052390D03*
X012900Y051530D03*
X014560Y052210D03*
D32*
X010200Y052330D03*
X010200Y051390D03*
D33*
X011790Y051390D03*
D34*
X012450Y052150D03*
X012450Y052170D03*
X012890Y051570D03*
X012890Y051550D03*
X014550Y052190D03*
X008310Y051430D03*
X008290Y051410D03*
X007970Y052230D03*
X007990Y052270D03*
X008010Y052290D03*
D35*
X008940Y051790D03*
X010200Y051410D03*
X010200Y052310D03*
X011780Y052330D03*
D36*
X011780Y052310D03*
X011780Y051410D03*
X010200Y051430D03*
X010200Y052290D03*
X008960Y051810D03*
D37*
X008980Y052370D03*
X010200Y052270D03*
X011780Y052290D03*
X011780Y051430D03*
D38*
X008450Y052290D03*
X007850Y051450D03*
D39*
X010190Y051450D03*
D40*
X010200Y052250D03*
X009000Y052350D03*
X009000Y051850D03*
X011780Y051450D03*
X011780Y052270D03*
D41*
X010430Y052070D03*
X007850Y051490D03*
X007850Y051470D03*
X014330Y051990D03*
D42*
X014090Y051810D03*
X014090Y051790D03*
X014090Y051770D03*
X014090Y051750D03*
X014090Y051730D03*
X014090Y051710D03*
X014090Y051690D03*
X014090Y051670D03*
X014090Y051650D03*
X014090Y051630D03*
X012870Y051630D03*
X012870Y051650D03*
X012470Y052090D03*
X010210Y052370D03*
X008350Y051490D03*
X008330Y051470D03*
D43*
X008990Y051830D03*
X010190Y051470D03*
D44*
X009020Y051870D03*
X009020Y052310D03*
X011780Y052250D03*
X011780Y051470D03*
X013500Y052390D03*
D45*
X012910Y051510D03*
X012910Y051490D03*
X012430Y052230D03*
X012430Y052250D03*
X012030Y052210D03*
X011550Y052210D03*
X011530Y051530D03*
X010210Y052390D03*
X009290Y052210D03*
X009290Y051950D03*
X009110Y051770D03*
X008030Y052330D03*
X007930Y052210D03*
D46*
X008460Y052250D03*
X007840Y051510D03*
X010440Y051690D03*
D47*
X008480Y052210D03*
X007840Y051550D03*
X007840Y051530D03*
D48*
X009040Y051930D03*
X009040Y052250D03*
X009040Y052270D03*
D49*
X008460Y052270D03*
X014320Y051970D03*
D50*
X012490Y052010D03*
X012490Y052030D03*
X011790Y052370D03*
D51*
X014350Y052010D03*
X008470Y052230D03*
D52*
X009050Y052230D03*
D53*
X010210Y052350D03*
D54*
X008910Y052390D03*
X011790Y052350D03*
D55*
X014280Y052930D02*
X008320Y052930D01*
X008254Y052934D01*
X008187Y052934D01*
X008121Y052930D01*
X008055Y052922D01*
X007989Y052911D01*
X007924Y052896D01*
X007861Y052877D01*
X007798Y052855D01*
X007737Y052829D01*
X007677Y052800D01*
X007619Y052767D01*
X007563Y052731D01*
X007509Y052692D01*
X007458Y052650D01*
X007409Y052605D01*
X007363Y052557D01*
X007319Y052507D01*
X007279Y052454D01*
X007241Y052400D01*
X007207Y052343D01*
X007176Y052284D01*
X007148Y052223D01*
X007124Y052162D01*
X007103Y052098D01*
X007086Y052034D01*
X007073Y051969D01*
X007064Y051903D01*
X007058Y051837D01*
X007056Y051770D01*
X007058Y051704D01*
X007064Y051638D01*
X007073Y051572D01*
X007086Y051507D01*
X007103Y051442D01*
X007124Y051379D01*
X007148Y051317D01*
X007175Y051257D01*
X007206Y051198D01*
X007241Y051141D01*
X007278Y051086D01*
X007319Y051033D01*
X007362Y050983D01*
X007409Y050936D01*
X007457Y050891D01*
X007509Y050848D01*
X007563Y050809D01*
X007619Y050773D01*
X007676Y050741D01*
X007736Y050711D01*
X007797Y050685D01*
X007860Y050663D01*
X007924Y050644D01*
X007988Y050629D01*
X008054Y050618D01*
X008120Y050610D01*
X014360Y050610D01*
X014426Y050614D01*
X014492Y050622D01*
X014557Y050634D01*
X014622Y050649D01*
X014685Y050668D01*
X014748Y050691D01*
X014809Y050717D01*
X014868Y050746D01*
X014925Y050779D01*
X014981Y050816D01*
X015034Y050855D01*
X015085Y050897D01*
X015134Y050942D01*
X015180Y050990D01*
X015223Y051040D01*
X015263Y051093D01*
X015300Y051148D01*
X015334Y051205D01*
X015365Y051264D01*
X015392Y051324D01*
X015416Y051386D01*
X015436Y051449D01*
X015452Y051514D01*
X015465Y051579D01*
X015474Y051644D01*
X015479Y051711D01*
X015481Y051777D01*
X015479Y051843D01*
X015473Y051909D01*
X015463Y051975D01*
X015449Y052040D01*
X015432Y052104D01*
X015411Y052167D01*
X015387Y052228D01*
X015359Y052288D01*
X015328Y052347D01*
X015293Y052403D01*
X015255Y052458D01*
X015214Y052510D01*
X015171Y052560D01*
X015124Y052607D01*
X015075Y052652D01*
X015024Y052694D01*
X014970Y052732D01*
X014914Y052768D01*
X014856Y052800D01*
X014796Y052829D01*
X014735Y052854D01*
X014672Y052876D01*
X014609Y052895D01*
X014544Y052909D01*
X014478Y052920D01*
X014413Y052927D01*
X014346Y052931D01*
X014280Y052930D01*
D56*
X099225Y046050D02*
X099279Y046052D01*
X099333Y046057D01*
X099386Y046066D01*
X099439Y046079D01*
X099490Y046095D01*
X099540Y046115D01*
X099589Y046138D01*
X099637Y046164D01*
X099682Y046193D01*
X099725Y046226D01*
X099766Y046261D01*
X099805Y046299D01*
X099841Y046339D01*
X099874Y046382D01*
X099904Y046427D01*
X099931Y046474D01*
X099920Y047247D02*
X099890Y047295D01*
X099857Y047340D01*
X099821Y047383D01*
X099783Y047424D01*
X099741Y047461D01*
X099697Y047496D01*
X099651Y047527D01*
X099602Y047556D01*
X099552Y047580D01*
X099500Y047601D01*
X099446Y047619D01*
X099392Y047632D01*
X099337Y047642D01*
X099281Y047648D01*
X099225Y047650D01*
X099172Y047648D01*
X099118Y047643D01*
X099066Y047634D01*
X099014Y047622D01*
X098963Y047606D01*
X098913Y047587D01*
X098864Y047564D01*
X098817Y047538D01*
X098772Y047510D01*
X098729Y047478D01*
X098689Y047444D01*
X098650Y047406D01*
X098614Y047367D01*
X098610Y046338D02*
X098646Y046298D01*
X098685Y046260D01*
X098726Y046225D01*
X098769Y046193D01*
X098814Y046163D01*
X098861Y046137D01*
X098910Y046115D01*
X098961Y046095D01*
X099012Y046079D01*
X099064Y046066D01*
X099118Y046057D01*
X099171Y046052D01*
X099225Y046050D01*
M02*
